<svg width="50" height="18" viewBox="0 0 50 18" fill="none" xmlns="http://www.w3.org/2000/svg">
<g clip-path="url(#clip0_306_142)">
<path fill-rule="evenodd" clip-rule="evenodd" d="M2.73393 8.44525C2.73393 10.0839 3.9436 11.0632 5.87909 10.6235V6.28697C3.92344 5.68745 2.75409 6.88649 2.73393 8.44525ZM5.93957 -0.00799561H8.60086V12.482C6.04038 12.9017 3.60086 13.1615 1.84683 12.1823C-0.411237 10.9432 -0.592688 6.96643 1.20167 5.20783C2.10893 4.30855 3.92344 3.68905 5.87909 4.08873V0.15188C5.87909 0.0919281 5.87909 0.0119884 5.93957 -0.00799561Z" fill="black"/>
<path fill-rule="evenodd" clip-rule="evenodd" d="M12.9152 2.7498H10.2539V-0.00799561H12.9152V2.7498Z" fill="black"/>
<path fill-rule="evenodd" clip-rule="evenodd" d="M44.891 10.7434C47.7942 11.8625 48.1168 5.58752 45.1934 6.16706C43.3587 6.52677 43.4192 10.1639 44.891 10.7434ZM45.0119 3.98881C47.2297 3.749 48.9031 4.72822 49.5684 6.22702C50.6974 8.78497 49.5079 11.7026 47.6732 12.5619C46.7256 13.0016 45.7377 13.0416 44.8305 12.9816C42.0482 12.7418 40.3143 9.94404 41.2821 6.82654C41.4434 6.34692 41.6047 6.04716 41.7055 5.88729C42.2902 4.84812 43.3184 4.16866 45.0119 3.98881Z" fill="black"/>
<path fill-rule="evenodd" clip-rule="evenodd" d="M16.5849 9.7442C15.8389 10.9632 17.6937 11.263 18.8832 10.9233V9.1047C17.976 9.22461 16.9478 9.16466 16.5849 9.7442ZM21.2623 12.6219C19.0647 12.7418 15.7179 13.4812 14.5082 12.0424C13.8026 11.183 13.8832 9.56433 14.5082 8.76497C15.3147 7.72581 17.109 7.50598 18.7018 7.36609C18.8429 7.00638 18.7421 6.42685 18.5808 6.18704C17.109 5.80734 15.6574 6.38688 14.609 6.82653V4.76817C16.1816 4.04875 19.7905 3.30934 20.8792 4.94803C21.4437 5.80735 21.2421 7.30615 21.2421 8.64508L21.2623 12.6219Z" fill="black"/>
<path fill-rule="evenodd" clip-rule="evenodd" d="M30.6172 12.7418H27.9559V9.34454C27.9559 8.22543 28.1373 6.80657 27.5325 6.34693C27.0688 5.98722 25.9599 6.16708 25.2744 6.34693V12.7418H22.6333V4.58834C25.3551 3.8889 30.2744 3.12951 30.6172 6.52679C30.7986 8.18546 30.4962 10.6835 30.6172 12.7418Z" fill="black"/>
<path fill-rule="evenodd" clip-rule="evenodd" d="M34.5887 9.92405C35.0322 10.6435 36.2419 10.9033 37.25 10.4436C37.1895 9.06474 37.1693 7.66586 37.1895 6.22701C34.8911 5.6075 33.5201 8.20542 34.5887 9.92405ZM41.2822 4.34851C41.0403 5.04795 40.6976 5.64747 40.3951 6.28696C40.1129 6.34691 39.8911 6.18704 39.75 6.28696C39.6895 9.14467 40.3548 13.0216 39.2258 15.0799C38.5403 16.3189 37.2701 17.1183 35.3145 17.2582C33.9032 17.3581 32.7943 17.1183 31.7661 16.7386V14.2806C32.9758 14.98 36.0605 15.5595 36.9072 14.1007C37.1693 13.681 37.1492 13.2414 37.2701 12.5819C36.7056 12.6019 36.1814 12.8617 35.4959 12.8817C32.7137 12.9216 30.9798 10.7234 31.6451 7.66585C31.9072 6.48679 32.6129 5.52756 33.5403 4.96801C35.4758 3.74899 38.4597 3.84891 41.2822 4.34851Z" fill="black"/>
<path fill-rule="evenodd" clip-rule="evenodd" d="M12.9155 4.14868C12.9155 6.08713 12.9155 7.48601 12.9155 9.84413C12.7945 12.1623 12.8349 14.0208 11.9679 15.1199C11.8066 15.3397 11.4437 15.6595 11.1413 15.8793C10.8792 16.0592 10.4155 16.4588 10.1332 16.4588C9.85098 16.4788 9.14533 16.0791 8.82275 15.9393C8.39937 15.7394 8.0163 15.4796 7.57275 15.3597C8.58082 14.7402 9.54856 14.2806 9.93162 13.0216C10.2744 11.9225 10.234 10.3437 10.234 8.80495C10.234 7.28617 10.234 5.50759 10.234 4.16866L12.9155 4.14868Z" fill="black"/>
</g>
<defs>
<clipPath id="clip0_306_142">
<rect width="50" height="17.2662" fill="white"/>
</clipPath>
</defs>
</svg>
