<svg width="50" height="50" viewBox="0 0 50 50" fill="none" xmlns="http://www.w3.org/2000/svg">
<g clip-path="url(#clip0_308_181)">
<path d="M50 7.8125C50 3.49778 46.5022 0 42.1875 0H7.8125C3.49778 0 0 3.49778 0 7.8125V42.1875C0 46.5022 3.49778 50 7.8125 50H42.1875C46.5022 50 50 46.5022 50 42.1875V7.8125Z" fill="black"/>
<path d="M24.9741 25C24.9741 22.6989 26.8396 20.8333 29.1407 20.8333C31.4419 20.8333 33.3074 22.6989 33.3074 25C33.3074 27.3013 31.4419 29.1667 29.1407 29.1667C26.8396 29.1667 24.9741 27.3013 24.9741 25Z" fill="#1ABCFE"/>
<path d="M16.6406 33.3333C16.6406 31.0322 18.5061 29.1667 20.8073 29.1667H24.9741V33.3333C24.9741 35.6345 23.1086 37.5 20.8073 37.5C18.5061 37.5 16.6406 35.6345 16.6406 33.3333Z" fill="#0ACF83"/>
<path d="M24.9741 12.5V20.8333H29.1407C31.4419 20.8333 33.3074 18.9678 33.3074 16.6667C33.3074 14.3655 31.4419 12.5 29.1407 12.5H24.9741Z" fill="#FF7262"/>
<path d="M16.6406 16.6667C16.6406 18.9678 18.5061 20.8333 20.8073 20.8333H24.9741V12.5H20.8073C18.5061 12.5 16.6406 14.3655 16.6406 16.6667Z" fill="#F24E1E"/>
<path d="M16.6406 25C16.6406 27.3013 18.5061 29.1667 20.8073 29.1667H24.9741V20.8333H20.8073C18.5061 20.8333 16.6406 22.6989 16.6406 25Z" fill="#A259FF"/>
</g>
<defs>
<clipPath id="clip0_308_181">
<rect width="50" height="50" fill="white"/>
</clipPath>
</defs>
</svg>
