<svg width="50" height="45" viewBox="0 0 50 45" fill="none" xmlns="http://www.w3.org/2000/svg">
<path d="M14.9415 39.6267C13.0368 38.132 11.0049 36.6989 9.61647 34.6809C6.69496 31.1222 4.44553 27.002 2.90773 22.6722C1.97824 19.8567 1.6599 16.8382 0.461657 14.1316C-0.791825 12.1657 0.676458 10.0167 2.83474 9.39182C3.79565 9.20782 5.48524 8.30353 3.44574 8.94987C1.61726 10.2883 1.4403 7.73492 3.31526 7.57323C4.59483 7.40354 5.06587 6.35843 4.6283 5.4176C3.25475 4.52393 7.95896 3.54178 5.59199 2.2083C3.12625 -0.44589 9.04104 -0.956828 7.58177 2.05752C7.23247 4.37543 11.7148 1.63269 10.6748 4.30937C11.7318 5.59481 14.6331 4.60194 14.5612 6.40528C16.101 6.51089 16.6295 7.80355 18.075 7.90279C19.5731 8.57779 22.289 9.1097 22.7988 10.7941C21.3124 11.9681 17.8707 8.369 17.7053 11.6188C18.1543 16.4196 18.0399 21.3649 19.8004 25.9367C20.6331 28.7049 22.6518 30.884 24.4748 33.04C26.2191 35.1515 28.5818 36.638 30.99 37.8896C33.1025 38.8836 35.3801 39.5429 37.6823 39.9566C38.6161 39.244 40.2647 36.5946 41.7215 37.7118C41.7906 38.967 38.8301 40.3358 41.5822 40.1971C43.1982 39.7107 44.319 41.444 45.6497 39.8806C46.8757 41.3295 50.7455 38.9548 49.8732 41.9164C48.6936 42.6757 46.9733 42.2169 45.7917 43.2614C43.8437 42.2907 42.2928 44.13 40.1363 43.8974C37.7413 44.3254 35.3048 44.4981 32.8767 44.5019C28.8932 44.1879 24.8254 44.0555 21.0358 42.6718C18.9011 42.0529 16.8178 40.8401 14.9415 39.6267ZM18.3057 41.0811C20.3903 41.9805 22.4286 42.9284 24.7131 43.2144C28.3375 43.7173 32.0804 44.4909 35.7178 43.7852C34.0716 43.0436 32.3696 44.0742 30.7296 43.2549C28.7626 43.6772 26.6517 43.1473 24.652 42.8864C22.378 41.8758 19.9239 41.1809 17.7944 39.8691C15.1335 38.8994 19.1706 41.1127 19.8892 41.2919C21.5526 42.2339 18.06 40.809 17.5676 40.4174C16.1744 39.6377 15.9969 39.8006 17.4296 40.5925C17.7182 40.761 18.0034 40.9376 18.3057 41.0811ZM14.3392 38.2843C16.3592 39.0308 14.3303 36.8671 13.4047 36.9928C12.9946 36.2829 11.8378 35.8345 12.6538 35.4532C11.186 35.9616 11.1163 33.5199 10.4263 33.8688C8.87357 33.3796 9.822 31.6466 7.97238 30.5825C7.80355 29.4611 6.13471 28.4885 5.60242 26.7971C5.36733 25.9311 3.71699 23.4443 4.7308 25.7586C5.594 27.9866 7.11275 29.8946 8.37663 31.8004C9.35803 33.615 10.5169 35.5114 12.3042 36.6434C12.9067 37.22 13.4884 38.1036 14.3392 38.2843ZM8.52007 31.9099C8.88951 32.5687 8.59058 31.6056 8.52007 31.9099ZM16.7583 39.1792C17.2056 38.9794 16.1151 38.9274 16.7583 39.1792ZM17.8549 39.5783C17.7413 39.0272 17.3543 39.8864 17.8549 39.5783ZM19.2274 40.1495C19.8809 39.5287 18.2204 39.7581 19.2274 40.1495ZM21.5799 41.4577C21.977 40.8721 20.309 41.2367 21.5799 41.4577ZM17.0625 38.3158C18.0775 37.6607 15.7516 38.3068 17.0625 38.3158ZM18.0922 38.8281C18.0634 38.4817 17.7252 38.9832 18.0922 38.8281ZM23.2384 42.0327C24.0656 42.5536 28.0693 43.1744 25.5623 42.2463C25.1428 42.3346 20.9136 41.0528 23.2384 42.0327ZM15.0686 35.6845C14.9882 35.3371 13.7845 35.301 15.0686 35.6845ZM17.4644 37.0775C18.0879 36.6437 16.1703 36.7429 17.4644 37.0775ZM19.4795 38.3103C20.3742 37.9737 18.0281 37.9721 19.4795 38.3103ZM14.0938 34.6252C15.0646 35.3679 18.0088 34.7203 15.5805 34.1818C14.4752 33.594 11.9843 33.1916 13.6822 34.5362L14.0938 34.6252ZM20.8444 38.7359C21.2487 38.0486 19.1487 38.3434 20.8444 38.7359ZM18.7931 37.1094C21.1668 37.7793 16.797 35.6117 18.2074 36.8628L18.52 37.004L18.7931 37.1094ZM22.9058 39.481C20.8753 39.1718 25.1538 39.5024 22.9058 39.481ZM13.2288 33.3275C13.141 32.9097 12.6741 33.3625 13.2288 33.3275ZM26.7085 41.6092C26.7685 40.8547 25.9749 42.1707 26.7085 41.6092ZM17.0652 35.6715C16.9292 35.2742 16.3628 35.6553 17.0652 35.6715ZM13.442 33.0654C14.7326 32.988 11.6751 32.498 13.442 33.0654ZM9.14986 30.2973C8.98923 29.68 7.74548 29.1877 9.14986 30.2973ZM20.4178 37.4319C20.3066 37.4908 20.1814 37.1629 20.4178 37.4319ZM27.4313 41.726C27.4088 41.315 27.0494 41.8816 27.4313 41.726ZM19.7971 36.7924C19.9233 36.2628 18.6966 36.6321 19.7971 36.7924ZM14.5721 33.4886C15.5323 33.386 13.034 32.841 14.5721 33.4886ZM23.4107 38.9681C24.9069 38.3767 21.9523 38.6794 23.4107 38.9681ZM18.8132 35.8544C20.5376 36.0763 16.7614 34.6842 18.4349 35.7299L18.8132 35.8544ZM24.8064 39.5311C26.4163 38.5708 25.8856 41.7797 27.5378 39.8022C29.1675 38.6149 26.1303 41.27 28.1389 40.0138C29.5915 39.0445 31.7371 40.4733 33.0925 40.9395C34.0673 40.8918 35.0148 41.7805 36.0141 41.2398C37.9377 40.7229 32.2526 40.4731 33.7428 39.556C31.9828 40.0671 30.6823 38.9467 29.8162 37.8218C27.8419 37.367 25.5592 36.3599 24.5739 34.6167C24.1721 33.9622 25.1542 34.7089 24.2271 33.639C23.0374 32.5833 22.4433 31.3849 21.6447 30.1016C20.6907 29.5938 20.5795 28.0991 20.4831 30.0515C20.4906 28.8193 19.3312 27.99 19.0482 28.3347C19.0431 27.1481 20.289 27.7429 19.4168 26.8649C19.2291 25.635 18.611 24.3533 18.4252 22.9647C18.1365 22.2953 18.3845 20.8617 17.44 22.377C17.0959 23.9784 17.3258 20.409 17.8609 21.586C18.5633 20.3849 17.6087 20.5262 17.5696 20.693C18.0272 19.6796 17.8592 18.2421 17.4503 18.7905C17.6941 17.7164 17.8354 14.8375 17.0853 15.3477C17.54 14.2245 17.9476 10.2082 15.9738 11.7395C15.1739 11.7507 13.7886 12.0292 13.1338 12.3541C15.1869 13.4833 12.9272 12.7619 12.0915 12.5825C11.9826 13.6273 11.1548 13.1754 10.1206 13.1856C11.7724 13.3895 9.3162 14.8712 8.36859 14.2956C7.13792 14.8825 9.4307 16.3474 8.39329 16.8003C8.52078 17.4831 6.50789 16.5537 6.66597 18.1306C5.47122 17.6291 6.50146 20.0012 7.09919 19.1989C9.13124 19.7477 8.5297 20.9986 8.58145 22.187C8.25036 22.8794 6.94682 20.5594 8.29113 20.6668C7.23057 18.9479 7.11797 20.0455 6.23667 20.844C6.03165 20.902 8.48465 21.9802 6.94526 22.5134C8.2996 22.7218 8.33813 23.9043 8.61384 24.6526C9.42788 25.4985 9.26127 23.7185 10.2353 24.7351C9.61892 23.8294 6.97051 22.1833 9.10283 22.7112C9.09144 21.7997 8.71718 21.0647 9.37047 21.0825C10.0174 19.9136 8.69292 23.9646 10.1512 22.479C10.5548 22.3031 10.6548 21.3086 11.3804 22.5729C12.4342 23.6073 11.761 24.3568 10.2745 23.4097C10.5404 24.3099 12.2631 24.6316 11.9394 26.0393C12.2826 27.2774 12.7628 26.8214 13.1813 26.7498C13.5096 27.9528 13.6961 27.0682 13.7116 26.4958C15.2149 26.8168 14.8628 27.7034 15.3332 28.3229C16.3691 28.7894 13.8505 25.1607 15.6289 27.2317C17.5 28.9172 16.3306 29.6208 14.6515 29.3508C15.7142 29.2651 16.057 30.7843 17.3863 30.7309C18.5985 31.3063 19.4193 33.5162 17.3298 32.5962C16.605 31.9443 14.0404 31.14 16.1351 32.3801C18.0698 33.2739 19.6064 33.8087 21.4723 34.9307C22.8076 35.8818 23.3846 36.9712 23.8907 37.1869C22.7684 37.7217 20.5085 36.7598 22.1866 36.465C21.1399 36.2748 19.9626 35.7467 20.9652 37.0478C21.8177 37.758 23.9855 37.6827 24.3741 37.7632C24.0447 38.4873 23.4794 38.5449 24.3876 38.6011C23.3744 39.1398 24.7125 39.2232 24.8064 39.5311ZM22.7344 33.6933C22.118 33.0501 21.9586 31.8453 22.625 32.8936C22.9667 33.0306 23.7196 34.8624 22.7344 33.6933ZM29.482 37.9697C29.8665 37.9449 29.4932 38.2612 29.482 37.9697ZM21.7611 32.1162C21.984 32.8662 21.7374 31.1437 21.7611 32.1162ZM21.0904 31.2159C22.0679 31.6392 20.315 29.7212 21.0904 31.2159ZM12.9635 25.6195C13.419 25.4983 13.1876 26.3969 12.9635 25.6195ZM19.4315 29.1174C19.7603 29.9969 19.7113 28.0692 19.4315 29.1174ZM14.8621 25.9473C15.5358 26.4898 14.5399 25.3689 14.8621 25.9473ZM18.7836 27.2016C18.049 25.5595 19.3037 26.3047 18.9461 27.4707L18.7836 27.2016ZM12.0209 22.7018C11.6924 22.1631 11.1492 20.5824 11.3241 20.0999C11.4823 20.8858 12.9991 23.4819 12.0681 21.1753C11.0393 19.2418 13.2979 21.8029 13.5303 22.2852C13.6384 22.7649 12.8955 22.1541 13.3989 23.279C12.4809 21.9983 12.8569 23.9864 12.0209 22.7018ZM9.9308 21.2649C10.4093 22.1238 10.0168 20.0123 9.9308 21.2649ZM10.8709 21.5878C11.6316 22.9058 11.3196 20.6424 10.8709 21.5878ZM8.60943 19.8423C7.83129 19.0709 7.26818 18.3597 8.64583 19.3635C9.17667 19.3842 7.46645 17.7463 8.77367 18.8434C10.1483 19.0935 9.45245 21.0921 8.60943 19.8423ZM9.79737 19.8114C10.2493 19.3646 10.0373 20.2512 9.79737 19.8114ZM10.5283 20.0452C11.3598 20.5823 9.84325 18.764 10.5283 20.0452ZM9.07523 18.6597C6.81312 16.6511 11.9177 19.7099 9.44479 19.032L9.07523 18.6597ZM15.5565 22.4168C14.5776 21.8312 15.2971 18.2942 15.6309 20.7133C16.5826 20.4061 15.5784 21.9626 16.2882 21.9482C16.1763 22.9302 15.8588 23.2833 15.5565 22.4168ZM17.9538 23.8304C18.1558 24.5592 18.0498 22.7645 17.9538 23.8304ZM17.5374 23.42C17.6452 22.9646 17.5485 23.9562 17.5374 23.42ZM9.51898 17.9997C8.06572 15.9992 13.7425 20.0232 10.4498 18.5071C10.1057 18.4173 9.6917 18.3852 9.51898 17.9997ZM14.1353 20.4416C14.4425 20.7209 13.9978 18.7572 14.1353 20.4416ZM17.6402 22.6849C17.9114 21.7254 17.6604 23.3196 17.6402 22.6849ZM9.7416 17.2362C10.6053 17.0519 13.321 18.7496 10.8271 17.7211C10.55 17.4151 9.95933 17.5541 9.7416 17.2362ZM17.1587 20.9244C17.251 19.2021 17.6743 19.8956 17.1618 21.171L17.1587 20.9244ZM10.3845 16.6368C10.7365 16.1218 9.45034 14.3082 10.5699 15.9863C11.0537 16.3698 11.9706 16.6288 11.1611 16.7901C12.4343 17.9108 10.8505 17.0938 10.3845 16.6368ZM16.7918 20.3864C17.0349 18.4244 17.0062 21.5359 16.7918 20.3864ZM9.64954 14.8247C9.91835 14.71 9.79151 15.182 9.64954 14.8247ZM11.3208 15.8171C12.1143 16.8214 11.7509 14.9167 11.3208 15.8171ZM16.0351 18.4336C16.1241 18.9367 16.0306 18.0878 16.0351 18.4336ZM15.762 17.8304C16.3707 18.6832 15.1077 16.2199 15.762 17.8304ZM15.3603 16.7745C15.7336 17.6106 15.2504 16.109 15.3603 16.7745ZM16.0141 15.714C15.5651 14.9246 16.5811 12.2351 16.6945 13.9031C16.2206 15.2028 16.5578 15.9298 16.8884 14.1866C17.4989 12.8147 16.7565 16.8939 16.0141 15.714ZM16.686 11.7143C16.8818 11.4745 16.7295 12.0032 16.686 11.7143ZM15.5639 33.7748C15.5974 33.9223 15.2978 33.5431 15.5639 33.7748ZM17.8756 34.9415C19.1614 35.2707 19.1548 34.7419 17.9927 34.5848C17.3676 34.0046 15.3952 33.3893 17.1606 34.5128C17.2775 34.8083 17.647 34.8014 17.8756 34.9415ZM13.3102 31.9161C14.0186 32.4432 15.9784 33.4098 14.3193 32.1167C14.8787 31.4683 13.2487 31.1232 13.7894 30.6894C12.4141 29.8498 12.7045 29.9245 13.668 29.9509C12.0151 29.2138 13.9066 29.2689 13.8175 28.8912C13.1802 28.7656 10.6518 27.7699 12.1392 28.973C10.6272 28.2038 11.7789 29.2595 11.3219 29.1479C9.77571 28.7273 12.6989 30.3228 11.0763 29.9268C11.9634 30.6281 13.464 31.7232 11.4514 30.669C11.1862 31.0498 12.8916 31.627 13.3102 31.9161ZM15.7279 33.3019C18.6675 34.247 14.2867 32.1472 15.7279 33.3019ZM28.104 40.7823C28.142 40.2004 27.7023 41.2786 28.104 40.7823ZM29.3761 41.3164C30.0543 40.6607 29.4038 42.3609 30.4999 41.1559C30.5118 40.2933 30.4662 39.7838 29.2403 40.8317C28.9024 41.0186 28.7515 41.8136 29.3761 41.3164ZM9.18387 28.6643C8.97557 27.8474 7.72384 27.8516 9.18387 28.6643ZM10.5422 29.5523C10.0378 28.7179 8.74248 28.7969 10.5422 29.5523ZM18.2696 34.2019C19.024 34.8705 21.7347 34.6925 19.1859 34.2842C18.8084 33.7273 16.7889 33.8614 18.2696 34.2019ZM28.8923 40.7473C30.0534 39.7752 27.7672 41.181 28.8923 40.7473ZM31.3072 42.4031C31.3145 42.0911 30.8067 42.5397 31.3072 42.4031ZM31.3109 41.9663C30.065 42.0467 32.5968 40.6071 31.3109 41.9663ZM5.84304 25.8738C4.74711 24.3137 5.16178 23.6124 4.10493 22.3385C3.90485 21.3644 2.29186 19.1539 3.27065 21.4958C4.16717 22.8654 4.43357 24.986 5.84304 25.8738ZM30.9076 41.5342C33.2733 40.0087 29.9366 40.8697 30.9076 41.5342ZM32.7135 42.2401C33.8981 41.2252 31.9641 42.0278 32.7135 42.2401ZM8.78125 26.9398C9.12029 26.4366 7.90563 26.8755 8.78125 26.9398ZM32.3364 41.7581C33.4834 41.0203 32.0721 41.1336 32.1285 41.826L32.3364 41.7581ZM16.7698 31.9689C16.7304 31.4706 16.1641 32.0112 16.7698 31.9689ZM17.7318 32.5212C17.4261 31.9044 17.2618 32.618 17.7318 32.5212ZM34.1769 42.2568C35.6464 41.1991 33.2861 42.0543 33.8684 42.4572L34.1769 42.2568ZM33.6142 41.9854C34.8113 40.9846 32.3504 42.429 33.6142 41.9854ZM36.4892 43.8957C37.2929 43.3585 35.5127 43.7219 36.4892 43.8957ZM9.51837 26.5769C10.5957 26.8178 13.8238 29.2241 11.9194 26.7434C10.944 26.4553 11.529 24.0765 10.5341 24.4975C11.2018 25.6105 11.0835 26.0843 9.68148 25.3826C7.91939 24.5244 8.69124 25.8079 9.03561 26.1616C8.56632 26.268 9.65636 26.568 9.51837 26.5769ZM4.60992 22.7094C4.8028 21.9134 2.83396 18.3307 3.68021 20.9141C3.98568 21.4553 3.95462 22.4809 4.60992 22.7094ZM13.619 28.251C13.5927 28.1855 13.0643 27.7881 13.619 28.251ZM14.9852 28.5682C14.9845 27.7251 13.4751 28.2258 14.9852 28.5682ZM26.8239 36.0144C25.9313 36.001 26.5981 35.4383 26.8239 36.0144ZM27.3924 36.4287C27.3084 36.1063 27.0644 36.4909 27.3924 36.4287ZM32.0848 39.3776C32.5362 39.045 31.5217 39.3351 32.0848 39.3776ZM7.06173 23.3339C8.3526 22.8352 5.67865 22.9783 7.06173 23.3339ZM25.7817 35.1006C25.7673 34.2668 24.9587 35.3075 25.7817 35.1006ZM6.5517 22.1481C7.3809 21.8686 5.78463 21.964 6.5517 22.1481ZM8.95848 23.3113C8.94344 23.0372 8.70389 23.415 8.95848 23.3113ZM38.314 41.2714C39.3802 41.0557 41.81 41.8128 42.2028 40.9893C40.9079 40.9579 37.7229 40.0778 37.5722 41.1993L37.8557 41.2439L38.314 41.2714ZM9.72341 23.5036C9.74195 22.6587 9.06305 23.472 9.72341 23.5036ZM3.39539 19.124C3.10801 17.5143 2.30238 18.8804 3.39539 19.124ZM4.9044 19.5024C4.92293 18.9855 3.5232 19.0373 4.9044 19.5024ZM5.76674 19.925C5.57163 20.1795 5.51747 19.7235 5.76674 19.925ZM11.1928 23.3979C11.4482 23.1637 10.588 23.2244 11.1928 23.3979ZM5.19238 18.972C5.04652 17.7562 3.44462 18.7898 5.19238 18.972ZM2.09868 16.9692C2.05468 16.4081 1.7972 17.1809 2.09868 16.9692ZM2.55886 16.6225C2.48378 15.9571 2.16376 16.7071 2.55886 16.6225ZM5.10145 18.1367C6.1766 17.7153 3.14307 17.2651 4.88177 18.0571L5.10145 18.1367ZM39.1301 39.1076C39.8182 38.4782 38.2555 38.913 39.1301 39.1076ZM43.241 41.2337C43.5167 40.4198 42.5467 41.3408 43.241 41.2337ZM5.3613 16.8071C5.47456 16.0198 4.50893 16.9634 5.3613 16.8071ZM1.74381 14.3889C1.54947 13.2775 1.57606 11.3265 3.43484 11.9858C0.953671 12.4773 5.15209 15.0626 4.6219 13.0214C5.66518 13.0724 6.66279 12.4062 6.11529 13.4171C8.17085 13.1906 9.59593 11.4123 11.5815 11.6615C13.1281 11.4573 14.8191 11.3024 16.4858 10.6812C17.8562 10.5827 19.1753 9.11072 18.4242 8.23823C16.5554 8.08048 14.5993 8.31376 12.5338 8.72337C10.2449 9.19809 8.16593 10.1 5.85657 10.4872C3.60559 10.7889 6.30934 11.3184 5.66457 11.4364C4.48997 11.843 7.06536 12.1172 5.51229 12.5459C4.55314 12.3639 3.55479 12.0351 3.9645 11.0266C1.80826 11.3058 -0.0864561 12.1987 1.6171 14.3879L1.74381 14.3889ZM6.93955 11.7488C7.44512 9.89061 9.64809 13.2779 7.7682 11.9956C7.54366 11.828 7.17437 11.6912 6.93955 11.7488ZM7.03791 10.8479C7.76758 10.3055 7.4258 11.152 7.03791 10.8479ZM7.96442 10.8626C8.03029 10.0075 10.0854 11.3152 8.30328 11.1704L7.96442 10.8626ZM9.23181 10.3542C9.69464 9.8146 9.36484 10.8341 9.23181 10.3542ZM9.55603 10.1375C10.3267 9.21367 13.9204 9.54792 11.2899 10.0475C10.5849 9.51787 10.0444 10.3597 9.55603 10.1375ZM14.2458 9.41626C16.5758 10.3131 14.1286 6.89267 14.2458 9.41626ZM15.5766 9.409C16.0631 8.13708 17.4645 8.89861 15.8017 9.15341C15.8378 9.28876 15.7529 9.81004 15.5766 9.409ZM4.83656 16.1542C6.2902 15.2661 3.29336 15.3837 4.83656 16.1542ZM5.91137 16.4522C6.42103 15.9115 4.80396 16.2329 5.91137 16.4522ZM2.74447 14.2098C3.57508 13.5732 1.76156 13.9677 2.74447 14.2098ZM45.6675 41.0011C45.6915 40.2625 45.0326 41.3339 45.6675 41.0011ZM41.3059 38.0315C41.43 37.1811 40.7455 38.1056 41.3059 38.0315ZM46.8668 41.2875C48.0281 41.2914 50.3855 40.9276 47.8587 40.9288C47.4622 40.9905 45.5483 40.9773 46.8668 41.2875ZM6.8568 15.931C7.79667 15.8666 8.32727 14.8966 6.67504 14.9524C4.11435 14.6879 8.93428 15.8272 6.34654 15.5014C5.99883 15.7312 6.83661 15.9946 6.8568 15.931ZM7.68455 16.349C7.58642 15.747 7.39391 16.6688 7.68455 16.349ZM8.66643 13.7368C9.07428 13.2321 8.10205 13.6018 8.66643 13.7368ZM5.54073 8.52394C7.21809 7.95461 9.51187 7.31486 10.3039 8.80426C9.49784 7.83636 9.97858 6.88352 10.7399 8.29866C11.8164 9.73049 12.3553 7.64743 11.6551 7.16717C12.453 8.15629 13.3605 8.62369 12.1893 7.22968C13.462 5.70227 9.641 7.4297 8.77251 7.4123C8.35465 7.59943 4.45841 8.40368 5.54073 8.52394ZM6.52376 6.64555C7.48038 5.92518 9.83225 7.07405 8.32307 5.92963C8.17551 5.79959 5.01794 6.79746 6.52376 6.64555ZM10.0113 6.78921C11.1309 6.81771 9.52837 5.28858 10.8625 5.98148C10.6434 5.26731 9.3092 5.13361 8.65692 4.84829C8.288 5.50123 9.40786 6.79798 10.0113 6.78921ZM7.13529 3.63062C7.52261 3.10676 6.45648 3.89621 7.13529 3.63062ZM8.56069 3.97101C10.3649 3.73226 8.10079 3.19581 8.19713 3.95183L8.56069 3.97101ZM5.89917 1.89319C4.62879 0.238616 8.28827 2.17132 6.99758 0.438923C5.91124 -0.424153 4.86733 1.41018 5.89917 1.89319ZM22.2024 10.6545C22.785 9.62397 19.7968 9.2654 21.8098 10.2893C21.9951 10.3511 21.9532 10.7258 22.2024 10.6545Z" fill="black"/>
</svg>
