<svg width="50" height="50" viewBox="0 0 50 50" fill="none" xmlns="http://www.w3.org/2000/svg">
<path d="M20.2083 2.06249C13.8541 3.47916 8.64575 6.99999 5.06242 12.3333C-1.20842 21.7292 0.0415846 34.3333 8.04158 42.375C10.4374 44.7917 14.0833 47.125 16.8333 48.0208C17.8541 48.3542 17.9791 48.3542 18.4374 48.0417C18.9374 47.7083 18.9583 47.625 18.9583 45.2292V42.7708L17.1249 42.875C14.9791 42.9792 13.3124 42.6042 12.3124 41.75C11.9583 41.4583 11.2708 40.4583 10.7916 39.5417C9.99992 38 9.41658 37.2917 7.79158 35.8542C7.24992 35.375 7.22908 35.3542 7.60408 35.0833C8.49992 34.4167 10.3124 35.0625 11.4583 36.4375C13.4583 38.875 14.2291 39.5208 15.3749 39.7708C16.3958 39.9792 17.3333 39.8958 18.7499 39.4792C18.9374 39.4167 19.1874 38.9792 19.3124 38.4792C19.4374 38 19.7708 37.2708 20.0416 36.875L20.5416 36.1458L18.8541 35.8125C15.3124 35.0833 13.1249 33.8125 11.6874 31.6458C10.3541 29.6458 9.91658 27.9167 9.89575 24.6875C9.89575 21.6458 10.2291 20.3958 11.5416 18.6875C12.1249 17.9375 12.1874 17.7083 12.0208 17.2708C11.7083 16.5208 11.7916 13.3542 12.1249 12.3958C12.3958 11.6875 12.5416 11.5625 13.1041 11.5C14.0416 11.3958 15.7916 12 17.5624 13L19.0833 13.875L20.4166 13.5625C22.3124 13.125 27.9999 13.1458 29.7083 13.5625L30.9999 13.8958L32.2083 13.1667C33.8124 12.2083 35.8541 11.4583 36.8749 11.4583C37.6874 11.4583 37.6874 11.4792 38.0208 12.5417C38.3749 13.7708 38.4374 16 38.1249 17.0625C37.9583 17.6875 37.9999 17.875 38.4583 18.4792C40.7291 21.4792 40.9791 26.4583 39.0624 30.5417C37.7708 33.2292 35.0416 35.1042 31.3749 35.7917L29.6249 36.125L30.2708 37.2708L30.9374 38.4375L30.9999 43.0833L31.0833 47.7292L31.6041 48.0625C32.0833 48.375 32.1874 48.375 33.1874 48.0208C34.8541 47.4583 37.7083 45.9167 39.2708 44.7292C48.5624 37.7708 51.5624 25.2917 46.4166 14.9167C43.3958 8.81249 37.6874 4.12499 31.1458 2.37499C28.2916 1.62499 22.9166 1.45832 20.2083 2.06249Z" fill="black"/>
</svg>
