<svg width="50" height="55" viewBox="0 0 50 55" fill="none" xmlns="http://www.w3.org/2000/svg">
<path d="M23.4482 0.0187263C22.4718 0.0321025 21.2037 0.109686 20.2647 0.21402C19.2775 0.326379 18.0362 0.518995 17.9881 0.569824C17.972 0.588551 15.7623 0.85206 14.3605 2.5C12.956 4.14794 12.7767 6.69074 12.6751 6.80578L12.4932 7.01712V8.99144V10.9684H18.3252H24.1572V11.7175V12.4666H16.0057H7.85164L6.70055 12.8139C3.30145 13.8396 0.823009 16.7677 0.373047 20.2896L0.229918 21.4098L0.19514 21.6667C0.0747551 22.5334 0.0239258 23.3066 0.0239258 24.2777C0.0239258 25.1391 0.050678 25.6554 0.136285 26.4179C0.304825 27.9374 0.735536 30.0482 1.11274 31.2012C1.70129 32.9963 2.56807 34.2857 3.75854 35.1391C4.06619 35.3612 4.77245 35.7143 5.14699 35.8347C5.49477 35.947 5.98433 36.0487 6.36421 36.0888C6.53008 36.1049 7.50386 36.1156 8.83077 36.1156H11.0218V33.2451C11.0218 30.8802 11.0298 30.3184 11.0619 30.0375C11.2492 28.4296 12.0009 26.9155 13.1994 25.7223C13.6141 25.3077 13.8789 25.091 14.3605 24.7699C15.1202 24.2643 16.0298 23.8791 16.8672 23.7052C17.6269 23.55 17.1695 23.5607 24.2107 23.542C30.6687 23.526 30.6713 23.526 30.9656 23.4671C33.2395 23.0257 35.0159 21.359 35.5804 19.1359C35.7676 18.3949 35.7543 18.9326 35.7543 12.1054C35.7543 5.27822 35.7676 5.82665 35.5804 5.12039C35.0159 2.99358 33.0871 1.25201 30.6045 0.628677C29.0903 0.24612 25.9924 -0.0160516 23.4482 0.0187263ZM18.1379 3.63831C18.7585 3.8122 19.2508 4.22419 19.529 4.80203C19.6922 5.13644 19.7404 5.31568 19.7618 5.67148C19.7965 6.29213 19.5879 6.87801 19.1759 7.31942C18.1994 8.36276 16.5354 8.229 15.7462 7.03852C15.5028 6.67202 15.3824 6.27073 15.3824 5.81059C15.3797 4.70305 16.1127 3.80685 17.1882 3.5955C17.4423 3.54735 17.8784 3.56608 18.1379 3.63831Z" fill="#3E7BAC"/>
<path d="M26.3062 50.0968C27.2826 50.0835 28.5507 50.0059 29.4897 49.9016C30.4769 49.7892 31.7182 49.5966 31.7663 49.5457C31.7824 49.527 33.9921 49.2635 35.3939 47.6156C36.7984 45.9676 36.9777 43.4248 37.0793 43.3098L37.2612 43.0984V41.1241V39.1471H31.4292H25.5972V38.3981V37.649H33.7487H41.9028L43.0538 37.3017C46.4529 36.276 48.9314 33.3478 49.3813 29.826L49.5245 28.7057L49.5593 28.4489C49.6796 27.5821 49.7305 26.809 49.7305 25.8379C49.7305 24.9765 49.7037 24.4601 49.6181 23.6977C49.4496 22.1782 49.0189 20.0674 48.6417 18.9144C48.0531 17.1193 47.1863 15.8299 45.9959 14.9765C45.6882 14.7544 44.9819 14.4013 44.6074 14.2809C44.2596 14.1685 43.7701 14.0669 43.3902 14.0268C43.2243 14.0107 42.2505 14 40.9236 14H38.7326V16.8705C38.7326 19.2354 38.7246 19.7972 38.6925 20.0781C38.5052 21.6859 37.7535 23.2001 36.555 24.3933C36.1403 24.8079 35.8755 25.0246 35.3939 25.3456C34.6342 25.8513 33.7246 26.2365 32.8872 26.4104C32.1275 26.5655 32.5849 26.5548 25.5437 26.5736C19.0857 26.5896 19.0831 26.5896 18.7888 26.6485C16.5148 27.0899 14.7385 28.7566 14.174 30.9797C13.9868 31.7207 14.0001 31.183 14.0001 38.0102C14.0001 44.8373 13.9868 44.2889 14.174 44.9952C14.7385 47.122 16.6673 48.8636 19.1499 49.4869C20.6641 49.8695 23.762 50.1316 26.3062 50.0968ZM31.6165 46.4773C30.9959 46.3034 30.5036 45.8914 30.2254 45.3135C30.0622 44.9791 30.014 44.7999 29.9926 44.4441C29.9579 43.8234 30.1665 43.2376 30.5785 42.7961C31.555 41.7528 33.219 41.8866 34.0082 43.077C34.2516 43.4436 34.372 43.8448 34.372 44.305C34.3747 45.4125 33.6417 46.3087 32.5662 46.5201C32.3121 46.5682 31.876 46.5495 31.6165 46.4773Z" fill="#FFE15E"/>
</svg>
