<svg width="52" height="52" viewBox="0 0 52 52" fill="none" xmlns="http://www.w3.org/2000/svg">
<path d="M41.8398 18.3047C41.3125 18.1289 40.7852 17.9629 40.2578 17.8066C40.3457 17.4453 40.4238 17.084 40.502 16.7227C41.7031 10.9023 40.9121 6.22461 38.2461 4.68164C35.6777 3.20703 31.4883 4.74023 27.25 8.43164C26.8301 8.79297 26.4199 9.17383 26.0293 9.55469C25.7656 9.30078 25.4922 9.04687 25.2188 8.80273C20.7754 4.85742 16.3223 3.19727 13.6563 4.75C11.0977 6.23437 10.3359 10.6387 11.4102 16.1465C11.5176 16.6934 11.6348 17.2305 11.7715 17.7773C11.1465 17.9531 10.5312 18.1484 9.95508 18.3535C4.74023 20.1602 1 23.0117 1 25.9609C1 29.0078 4.98438 32.0645 10.4043 33.9199C10.8438 34.0664 11.2832 34.2129 11.7324 34.3398C11.5859 34.9258 11.459 35.5019 11.3418 36.0977C10.3164 41.5176 11.1172 45.8144 13.6758 47.2891C16.3125 48.8125 20.7461 47.25 25.0625 43.4707C25.4043 43.168 25.7461 42.8555 26.0879 42.5234C26.5176 42.9434 26.9668 43.3437 27.416 43.7344C31.5957 47.3281 35.7266 48.7832 38.2754 47.3086C40.9121 45.7852 41.7715 41.166 40.6582 35.541C40.5703 35.1113 40.4727 34.6719 40.3652 34.2227C40.6777 34.1348 40.9805 34.0371 41.2832 33.9394C46.918 32.0742 51 29.0566 51 25.9609C51 23.002 47.1523 20.1309 41.8398 18.3047ZM28.627 10.0137C32.2598 6.84961 35.6484 5.60937 37.1914 6.49805C38.8418 7.44531 39.4766 11.2734 38.4414 16.3027C38.373 16.6348 38.3047 16.957 38.2168 17.2793C36.0488 16.791 33.8516 16.4395 31.6445 16.2441C30.375 14.4277 28.9883 12.6895 27.4844 11.0586C27.8652 10.6973 28.2363 10.3555 28.627 10.0137ZM15.9316 28.4805C16.3809 29.3398 16.8398 30.1894 17.3281 31.0293C17.8262 31.8789 18.334 32.7285 18.8711 33.5586C17.3477 33.3926 15.834 33.1484 14.3398 32.8262C14.7695 31.4199 15.3066 29.9648 15.9316 28.4805ZM15.9316 23.5391C15.3164 22.084 14.7988 20.6582 14.3691 19.2812C15.7754 18.9687 17.2695 18.7148 18.8223 18.5195C18.3047 19.3301 17.7969 20.1602 17.3184 21C16.8398 21.8301 16.3711 22.6797 15.9316 23.5391ZM17.0449 26.0098C17.6895 24.6621 18.3926 23.3437 19.1348 22.0449C19.877 20.7461 20.6777 19.4863 21.5176 18.2461C22.9824 18.1387 24.4766 18.0801 26 18.0801C27.5234 18.0801 29.0273 18.1387 30.4824 18.2461C31.3125 19.4766 32.1035 20.7363 32.8555 22.0254C33.6074 23.3145 34.3105 24.6328 34.9746 25.9707C34.3203 27.3184 33.6172 28.6465 32.8652 29.9551C32.123 31.2539 31.332 32.5137 30.502 33.7637C29.0469 33.8711 27.5332 33.9199 26 33.9199C24.4668 33.9199 22.9824 33.8711 21.5469 33.7832C20.6973 32.543 19.8965 31.2734 19.1445 29.9746C18.3926 28.6758 17.6992 27.3574 17.0449 26.0098ZM34.6816 31.0098C35.1797 30.1504 35.6484 29.2812 36.1074 28.4023C36.7324 29.8184 37.2793 31.2539 37.7578 32.7285C36.2441 33.0703 34.7109 33.334 33.168 33.5098C33.6953 32.6894 34.1934 31.8496 34.6816 31.0098ZM36.0879 23.5391C35.6289 22.6797 35.1602 21.8203 34.6719 20.9805C34.1934 20.1504 33.6953 19.3301 33.1777 18.5195C34.75 18.7148 36.2539 18.9785 37.6602 19.3008C37.2109 20.7461 36.6836 22.1523 36.0879 23.5391ZM26.0195 12.5527C27.0449 13.666 28.0117 14.8379 28.9102 16.0488C26.9766 15.9609 25.0332 15.9609 23.0996 16.0488C24.0566 14.7891 25.043 13.6172 26.0195 12.5527ZM14.6914 6.56641C16.332 5.60937 19.9746 6.97656 23.8125 10.375C24.0566 10.5898 24.3008 10.8242 24.5547 11.0586C23.041 12.6895 21.6445 14.4277 20.3652 16.2441C18.1582 16.4395 15.9707 16.7812 13.8027 17.2598C13.6758 16.7617 13.5684 16.2539 13.4609 15.7461C12.543 11.0195 13.1484 7.45508 14.6914 6.56641ZM12.2988 32.3086C11.8887 32.1914 11.4883 32.0645 11.0879 31.9277C9.00781 31.2734 6.64453 30.2383 4.93555 28.8809C3.94922 28.1973 3.28516 27.1426 3.09961 25.9609C3.09961 24.1738 6.18555 21.8887 10.6387 20.3359C11.1953 20.1406 11.7617 19.9648 12.3281 19.7988C12.9922 21.918 13.793 23.998 14.7207 26.0098C13.7832 28.0508 12.9727 30.1602 12.2988 32.3086ZM23.6855 41.8789C22.0742 43.3535 20.209 44.5254 18.1777 45.3262C17.0937 45.8437 15.8438 45.8926 14.7305 45.4531C13.1777 44.5547 12.5332 41.1074 13.4121 36.4687C13.5195 35.9219 13.6367 35.375 13.7734 34.8379C15.9609 35.3066 18.168 35.6289 20.4043 35.7949C21.6934 37.6211 23.1094 39.3691 24.623 41.0098C24.3105 41.3125 23.998 41.6055 23.6855 41.8789ZM26.0781 39.5059C25.082 38.4316 24.0859 37.2402 23.1191 35.9609C24.0566 36 25.0234 36.0195 26 36.0195C27.0059 36.0195 27.9922 36 28.9687 35.9512C28.0703 37.1914 27.1035 38.373 26.0781 39.5059ZM38.8418 42.4355C38.7539 43.6269 38.168 44.7402 37.2305 45.4922C35.6777 46.3906 32.3672 45.2187 28.793 42.1523C28.3828 41.8008 27.9727 41.4199 27.5527 41.0293C29.0469 39.3789 30.4238 37.6309 31.6738 35.7949C33.9102 35.6094 36.1367 35.2676 38.334 34.7695C38.4316 35.1699 38.5195 35.5703 38.5977 35.9609C39.0762 38.0703 39.1543 40.2676 38.8418 42.4355ZM40.6191 31.9375C40.3457 32.0254 40.0723 32.1133 39.7891 32.1914C39.1055 30.0625 38.2656 27.9824 37.2988 25.9609C38.2363 23.9687 39.0273 21.918 39.6914 19.8184C40.1992 19.9648 40.6875 20.1211 41.1563 20.2773C45.707 21.8398 48.9004 24.1641 48.9004 25.9414C48.9004 27.8555 45.4922 30.3262 40.6191 31.9375ZM26 21.5273C28.4707 21.5273 30.4727 23.5293 30.4727 26C30.4727 28.4707 28.4707 30.4727 26 30.4727C23.5293 30.4727 21.5273 28.4707 21.5273 26C21.5273 23.5293 23.5293 21.5273 26 21.5273Z" fill="#00B7FF"/>
</svg>
