<svg width="52" height="52" viewBox="0 0 52 52" fill="none" xmlns="http://www.w3.org/2000/svg">
<g clip-path="url(#clip0_302_114)">
<path d="M35.6447 35.1509C37.4899 34.96 38.8897 33.3693 38.8261 31.4604C38.7624 29.5515 37.1718 28.0244 35.263 28.0244H35.1357C33.1633 28.0881 31.6362 29.7424 31.6998 31.7149C31.7635 32.6694 32.1452 33.4966 32.7179 34.0692C30.5545 38.3324 27.2459 41.4502 22.283 44.059C18.9108 45.8407 15.4113 46.477 11.9118 46.0316C9.04859 45.6498 6.82164 44.3772 5.42184 42.2774C3.38578 39.1596 3.1949 35.7872 4.91283 32.4149C6.12174 29.9969 8.03056 28.2153 9.23947 27.3245C8.98496 26.4973 8.6032 25.0975 8.41232 24.0794C-0.813611 30.7605 0.140794 39.7959 2.94039 44.059C5.04008 47.2405 9.3031 49.213 14.0115 49.213C15.284 49.213 16.5566 49.0858 17.8291 48.7676C25.9734 47.1769 32.1452 42.3411 35.6447 35.1509ZM46.8431 27.2609C42.0074 21.5979 34.8812 18.48 26.7369 18.48H25.7189C25.1462 17.3347 23.9373 16.5711 22.6012 16.5711H22.4739C20.5015 16.6348 18.9744 18.2891 19.038 20.2616C19.1017 22.1705 20.6923 23.6976 22.6012 23.6976H22.7284C24.1282 23.634 25.3371 22.7432 25.8461 21.5342H26.9914C31.8271 21.5342 36.4082 22.9341 40.544 25.6701C43.7254 27.7699 46.0159 30.506 47.2885 33.8147C48.3701 36.4871 48.3065 39.096 47.1612 41.323C45.3797 44.6953 42.3892 46.5406 38.4443 46.5406C35.8992 46.5406 33.4814 45.777 32.2089 45.2044C31.509 45.8407 30.2364 46.8587 29.3456 47.495C32.0816 48.7676 34.8812 49.4675 37.5535 49.4675C43.6617 49.4675 48.1793 46.0952 49.8972 42.7228C51.7424 39.0323 51.6151 32.6694 46.8431 27.2609ZM14.5205 36.2326C14.5841 38.1415 16.1748 39.6686 18.0836 39.6686H18.2109C20.1833 39.605 21.7104 37.9506 21.6468 35.9781C21.5831 34.0692 19.9925 32.5421 18.0836 32.5421H17.9564C17.8291 32.5421 17.6382 32.5421 17.511 32.6058C14.9023 28.279 13.8206 23.5704 14.2024 18.48C14.4569 14.6623 15.7294 11.3535 17.9564 8.61746C19.8016 6.26317 23.3647 5.11784 25.7825 5.05421C32.527 4.92695 35.3902 13.326 35.5811 16.6984C36.4082 16.8893 37.808 17.3347 38.7624 17.6528C37.9989 7.34487 31.6362 2 25.528 2C19.8016 2 14.5205 6.13591 12.4208 12.2443C9.49398 20.3889 11.4028 28.2153 14.9659 34.3874C14.6478 34.8328 14.4569 35.5327 14.5205 36.2326Z" fill="#764ABC"/>
</g>
<defs>
<clipPath id="clip0_302_114">
<rect width="50" height="47.6562" fill="white" transform="translate(1 2)"/>
</clipPath>
</defs>
</svg>
