<svg width="50" height="50" viewBox="0 0 50 50" fill="none" xmlns="http://www.w3.org/2000/svg">
<path d="M24.046 11.7469C22.345 9.19585 21.9773 5.78647 21.897 4.38543C17.5762 5.31981 13.2835 6.99585 13.5314 8.23022C13.5627 8.38543 13.7585 8.57189 14.0835 8.75314L13.5752 9.66251C12.9543 9.3146 12.6054 8.91356 12.5106 8.43439C12.2304 7.03751 13.8127 5.77397 17.346 4.57085C19.7585 3.74897 22.1918 3.25835 22.295 3.23856L22.9168 3.11356V3.75001C22.9168 3.79376 22.9439 8.21668 24.9127 11.1698L24.046 11.7469Z" fill="#CFD8DC"/>
<path d="M25.7822 44.7917H25.5207C16.9874 44.7917 7.49049 42.1115 6.36862 37.6261C5.68424 34.8865 7.92279 31.8594 12.8415 28.875L13.3832 29.7646C8.95716 32.4511 6.82487 35.1521 7.38008 37.374C8.35404 41.2677 17.354 43.6948 25.2478 43.749C26.1863 42.3458 31.229 34.1031 28.3509 23.0479L29.3582 22.7854C32.6384 35.3813 26.0061 44.4906 25.9395 44.5813L25.7822 44.7917Z" fill="#CFD8DC"/>
<path d="M10.3448 40.9437C9.78332 40.9437 9.5052 40.8823 9.45936 40.8708C9.27603 40.826 9.13228 40.6854 9.08228 40.5042C9.03124 40.3229 9.08332 40.1281 9.21666 39.9958C9.29166 39.9208 16.7135 32.4875 17.7156 26.4771L18.7427 26.6479C17.8812 31.8187 12.7896 37.7135 10.7677 39.8844C12.7875 39.7687 17.8875 38.8229 27.6781 33.3427C20.0375 32.5052 18.8292 26.3885 18.8167 26.3229L19.8406 26.1344C19.8896 26.3906 21.1177 32.3958 29.4698 32.3958C29.4729 32.3958 29.475 32.3958 29.4781 32.3958C29.7146 32.3958 29.9198 32.5542 29.9802 32.7812C30.0427 33.0083 29.9427 33.249 29.7396 33.3677C18.0364 40.1479 12.3614 40.9427 10.3448 40.9437Z" fill="#CFD8DC"/>
<path d="M15.1293 43.4375C14.9137 43.4375 14.7178 43.3042 14.6418 43.099C14.5595 42.8792 14.6345 42.6302 14.8262 42.4927C14.8616 42.4667 16.7147 41.099 18.6866 38.0886C17.9283 37.7531 17.1605 37.3615 16.3991 36.9042C15.4741 36.349 14.7751 35.7531 14.2533 35.1427C11.5762 35.849 9.10534 36.1281 6.93555 35.9438L7.02305 34.9063C8.97721 35.0719 11.1991 34.8406 13.6074 34.2396C11.9689 31.4396 13.473 28.6604 13.4939 28.6229L14.4043 29.1302C14.3345 29.2573 13.0866 31.599 14.6637 33.9563C16.9564 33.2979 19.4022 32.324 21.9335 31.0583C22.5158 29.1469 22.971 26.9729 23.2095 24.5208C23.2262 24.3531 23.322 24.2042 23.4678 24.1198C23.6137 24.0354 23.7918 24.0281 23.9449 24.0979C23.9783 24.1136 27.3449 25.6511 29.7824 26.6542C29.9595 26.7271 30.0824 26.8917 30.1022 27.0823C30.1231 27.2729 30.0366 27.4583 29.8772 27.5667C27.4928 29.1917 25.1241 30.6011 22.8168 31.7771C22.0855 34.0948 21.1803 36.024 20.2553 37.6011C24.1116 39.0417 27.4585 39.0636 27.5012 39.0636C27.7387 39.0636 27.946 39.224 28.0053 39.4542C28.0647 39.6844 27.9616 39.925 27.7543 40.0406C23.0251 42.6677 15.497 43.4073 15.1793 43.4375C15.1626 43.4365 15.146 43.4375 15.1293 43.4375ZM19.697 38.5073C18.6137 40.1886 17.5491 41.3958 16.7533 42.1844C18.8345 41.8781 22.4835 41.2073 25.5116 39.9563C24.0616 39.7781 21.9626 39.3823 19.697 38.5073ZM15.3824 34.824C15.7918 35.2323 16.3022 35.6313 16.9345 36.0115C17.7012 36.4719 18.4793 36.8625 19.247 37.1938C20.0324 35.8771 20.8105 34.2969 21.4783 32.4354C19.373 33.4375 17.3293 34.2375 15.3824 34.824ZM24.1689 25.3427C23.9553 27.1844 23.6262 28.8646 23.2178 30.3948C24.947 29.4729 26.7116 28.4198 28.4908 27.2427C26.8772 26.5594 25.1033 25.7646 24.1689 25.3427Z" fill="#CFD8DC"/>
<path d="M18.6707 11.0417C18.5488 11.0417 18.428 10.9979 18.3321 10.9167C16.655 9.48126 14.6811 6.56042 14.5978 6.43647C14.4634 6.23751 14.4842 5.97188 14.6457 5.7948C14.8061 5.61668 15.0707 5.57501 15.279 5.68855C15.2905 5.69167 16.2561 6.08959 22.7967 7.17918C22.9853 7.21043 23.1405 7.34167 23.203 7.52084C23.2665 7.70001 23.2259 7.90001 23.0988 8.04167C21.2675 10.076 18.954 10.9719 18.8561 11.0083C18.7957 11.0302 18.7321 11.0417 18.6707 11.0417ZM16.2988 7.02709C16.9561 7.91147 17.903 9.10626 18.7696 9.91147C19.3019 9.66876 20.4957 9.05938 21.628 8.03855C18.9373 7.57917 17.2957 7.25209 16.2988 7.02709Z" fill="#CFD8DC"/>
<path d="M22.7533 25.4167C22.6825 25.4167 22.6106 25.4021 22.5439 25.3729C22.3366 25.2812 22.2116 25.0667 22.2356 24.8417C22.5397 21.9781 18.146 20.8292 18.1012 20.8187C17.92 20.7729 17.7762 20.6323 17.7272 20.4521C17.6783 20.2719 17.7293 20.0781 17.8616 19.9458C18.0772 19.7302 23.2147 14.6354 29.6606 11.8375C29.8408 11.7594 30.045 11.7885 30.197 11.9104C30.3481 12.0333 30.4179 12.2302 30.3783 12.4198C29.1429 18.4031 23.3887 24.9656 23.145 25.2417C23.0418 25.3552 22.8981 25.4167 22.7533 25.4167ZM19.2241 20.0885C20.4575 20.5521 22.6179 21.625 23.1647 23.5844C24.6741 21.701 27.896 17.3625 29.0991 13.2365C24.5293 15.4344 20.6814 18.749 19.2241 20.0885Z" fill="#B71C1C"/>
<path d="M13.6242 29.5417L13.1294 28.625C15.0909 27.5677 17.3377 25.6219 19.1784 23.3604C17.6117 24.4333 16.7148 25.1677 16.6867 25.1917L16.0211 24.3896C16.0617 24.3562 17.8586 22.8823 20.845 21.0354C21.6648 19.7167 22.295 18.3604 22.619 17.0604C22.6742 16.8396 22.7221 16.626 22.7606 16.4198C20.7554 15.7042 18.9054 15.2802 17.6346 15.0979C17.4419 15.0708 17.2815 14.9385 17.2169 14.7562C17.1523 14.5739 17.195 14.3698 17.3252 14.2281C17.4138 14.1323 19.5294 11.8656 22.1731 10.6208C22.3784 10.5239 22.6242 10.5719 22.7784 10.7396C22.8481 10.8156 24.2784 12.4219 23.9148 15.7448C25.1179 16.2135 26.3575 16.7833 27.5513 17.4614C30.4252 16.1698 33.6888 15.0073 37.1648 14.3052C37.344 14.2698 37.5429 14.3344 37.6659 14.4802C37.7877 14.626 37.8211 14.8271 37.7523 15.0042C36.3981 18.475 32.7669 22.1823 32.6127 22.3385C32.5075 22.4448 32.3638 22.4979 32.2138 22.4927C32.0648 22.4844 31.9273 22.4135 31.8336 22.2969C30.6669 20.8302 29.1419 19.6156 27.4971 18.6271C25.2315 19.6729 23.2252 20.7917 21.5763 21.8031C19.4721 25.0875 16.2961 28.1031 13.6242 29.5417ZM28.6377 18.1208C29.9815 18.9875 31.2325 20.0062 32.2669 21.1917C33.1294 20.2562 35.1992 17.8917 36.3731 15.5437C33.6127 16.1792 31.0002 17.0989 28.6377 18.1208ZM23.7492 16.7937C23.7148 16.9635 23.6752 17.1375 23.6315 17.3146C23.4127 18.1885 23.0648 19.0864 22.619 19.9823C23.7606 19.3302 25.0242 18.6573 26.3877 18.0052C25.5148 17.5427 24.6242 17.1406 23.7492 16.7937ZM18.8002 14.2417C19.9575 14.4687 21.3836 14.8396 22.9054 15.3729C23.0638 13.4531 22.545 12.2771 22.2315 11.7562C20.7981 12.5042 19.5429 13.5562 18.8002 14.2417Z" fill="#B71C1C"/>
<path d="M18.8021 19.2708C18.8021 23.8333 15 27.4583 12.2604 30.1042C11.8021 30.5521 10.25 30.625 10.25 30.625C10.6354 30.2292 11.0729 29.8125 11.5417 29.3646C14.1458 26.8437 17.7604 23.3958 17.7604 19.2708C17.7604 14.3854 15.7917 12.4583 14.2396 10.9167C13.5521 10.2187 12.9687 9.55207 12.6146 8.73957L12.9375 8.60416C13.2917 8.76041 13.6979 8.93749 14.0104 9.07291C14.2604 9.43749 14.5937 9.79166 14.9792 10.1771C16.5729 11.7708 18.8021 13.9583 18.8021 19.2708Z" fill="#B71C1C"/>
<path d="M44.724 20.6187C44.724 20.6187 44.0938 20.7083 43.9167 20.7292C34.7917 21.7396 25.375 24.3646 19.9896 26.5208C18.0417 27.3021 16.0208 28.25 14.1771 29.3125C14.1667 29.3229 14.1563 29.3229 14.1354 29.3333C13.0521 29.9583 10.4167 31.25 8.28125 32.3854C11.4063 29.0625 17.2604 26.5 19.5938 25.5625C24.875 23.4479 33.9479 20.8958 42.875 19.8021C41.8229 18.5729 39.25 15.9687 34.1875 14.0312C31.2292 12.8854 26.7292 12.2396 22.7604 11.6667C16.4479 10.7604 12.8542 10.1562 12.5104 8.43749C12.4375 8.09374 12.4896 7.74999 12.6458 7.41666C12.9896 7.97916 13.4792 8.37499 13.8021 8.60416C13.9583 8.70832 14.0729 8.77082 14.1146 8.79166L14.125 8.80207C15.6042 9.58332 19.5938 10.1562 22.9167 10.6354C26.9375 11.2187 31.4896 11.875 34.5625 13.0521C41.7188 15.8125 44.1875 19.7604 44.2917 19.9271C44.3854 20.0833 44.724 20.6187 44.724 20.6187Z" fill="#B71C1C"/>
</svg>
