<svg width="50" height="50" viewBox="0 0 50 50" fill="none" xmlns="http://www.w3.org/2000/svg">
<path d="M48.7366 7.24996L26.2978 47.324C25.8345 48.1513 24.6443 48.1562 24.1741 47.3328L1.29036 7.25382C0.778063 6.35658 1.54627 5.26976 2.56431 5.4515L25.0271 9.46154C25.1704 9.48712 25.3171 9.48688 25.4604 9.4608L47.4534 5.45724C48.4681 5.27255 49.2399 6.35095 48.7366 7.24996Z" fill="url(#paint0_linear_308_175)"/>
<path d="M35.7275 0.191753L19.1222 3.44142C18.8493 3.49483 18.6472 3.72583 18.6307 4.00305L17.6093 21.233C17.5852 21.6389 17.9584 21.9538 18.355 21.8625L22.9782 20.7969C23.4107 20.6972 23.8016 21.0777 23.7127 21.5122L22.3391 28.2297C22.2467 28.6818 22.6717 29.0684 23.1138 28.9343L25.9693 28.0678C26.4119 27.9336 26.8373 28.3213 26.7436 28.7738L24.5608 39.3255C24.4243 39.9855 25.3033 40.3454 25.6699 39.7796L25.9147 39.4016L39.4457 12.4321C39.6723 11.9806 39.2816 11.4657 38.785 11.5614L34.0262 12.4787C33.579 12.5648 33.1985 12.1488 33.3247 11.7119L36.4307 0.958165C36.5571 0.520453 36.1752 0.104153 35.7275 0.191753Z" fill="url(#paint1_linear_308_175)"/>
<defs>
<linearGradient id="paint0_linear_308_175" x1="0.731636" y1="4.01931" x2="28.6129" y2="41.932" gradientUnits="userSpaceOnUse">
<stop stop-color="#41D1FF"/>
<stop offset="1" stop-color="#BD34FE"/>
</linearGradient>
<linearGradient id="paint1_linear_308_175" x1="23.738" y1="1.07403" x2="28.7774" y2="35.6873" gradientUnits="userSpaceOnUse">
<stop stop-color="#FFEA83"/>
<stop offset="0.0833333" stop-color="#FFDD35"/>
<stop offset="1" stop-color="#FFA800"/>
</linearGradient>
</defs>
</svg>
