<svg width="59" height="95" viewBox="0 0 59 95" fill="none" xmlns="http://www.w3.org/2000/svg">
<path d="M37.2572 90.7797C37.0861 92.3254 35.9025 93.5706 35.3321 94H30.84C30.1983 93.4798 29.0859 92.0803 29.7704 90.6435M37.2572 90.7797C37.4711 88.8475 37.0433 82.4068 36.4016 80.0452M37.2572 90.7797C39.0398 93.0697 43.2038 96.0181 45.5996 89.4915C45.5855 89.1533 45.5671 88.7152 45.5452 88.2034M36.4016 80.0452C35.7599 77.6836 35.3321 76.3955 34.6903 72.9604C34.0486 69.5254 32.7652 68.452 33.193 61.5819M36.4016 80.0452C36.6155 78.8286 37.3856 76.009 38.7546 74.4633C40.4658 72.5311 42.1771 68.8814 42.6049 67.5932C43.0327 66.3051 43.0327 62.87 43.0327 61.5819M54.1558 64.3729C51.0185 68.1657 45.0006 76.6102 45.1718 80.0452C45.3092 82.8038 45.4558 86.1162 45.5452 88.2034M54.1558 64.3729C55.368 61.3672 56.4232 52.522 50.9472 41.1864C49.949 38.5386 47.7386 32.2553 46.883 28.3051V16.4972C46.883 15.9962 46.498 14.3073 44.9579 11.5593M54.1558 64.3729C56.0383 65.2316 57.2218 67.5932 57.5783 68.6667C58.4339 70.7277 57.7922 74.678 57.3643 76.3955C54.4552 83.7808 48.2728 87.3446 45.5452 88.2034M44.9579 11.5593C45.1718 10.8437 45.4712 9.0689 44.9579 7.69489C44.4445 6.32088 42.8901 3.54423 42.1771 2.32766C41.4641 1.32578 39.9097 -0.0768604 39.3963 2.32766C38.5407 3.90205 36.8294 7.17964 36.8294 7.69489M44.9579 11.5593C43.5889 9.15478 38.9685 7.98115 36.8294 7.69489M36.8294 7.69489C35.3321 7.69489 31.9951 7.86664 30.6261 8.55365M30.6261 8.55365C29.7705 7.05082 27.332 3.74461 24.4228 2.54235L23.5672 2.32766C23.4959 2.32766 23.3533 2.7141 23.3533 4.25986C23.3533 6.19206 23.3533 6.62144 23.1394 8.55365C22.9255 10.4859 22.7116 12.4181 22.4977 13.4915C22.2838 14.5649 22.0699 14.9943 22.0699 15.209M30.6261 8.55365C28.4158 9.48397 23.6101 12.1175 22.0699 15.209M22.0699 15.209C22.0699 15.4237 20.3586 17.3559 20.5725 20.7909C20.7437 23.1955 23.7812 27.0885 25.2786 28.7344M25.2786 28.7344L24.8507 34.9604C24.7081 36.177 23.2251 39.7265 18.4335 44.1921C13.642 48.6576 11.0181 51.7778 10.3051 52.7796C9.09297 54.1393 6.58313 57.4599 6.24088 59.8644C5.81307 62.87 5.38525 66.7345 6.24088 71.0282C6.75715 73.619 7.4291 77.6167 7.88091 80.4746M25.2786 28.7344C26.7045 29.8795 30.8399 31.6113 35.9737 29.3785C36.9006 29.2354 38.6689 29.2497 38.3267 30.452M28.487 87.3446C15.8665 89.7062 8.37977 85.8418 8.37977 85.4124C8.37977 84.983 8.37977 84.339 8.37977 83.9096C8.37977 83.7393 8.1779 82.3532 7.88091 80.4746M28.487 87.3446C30.0506 87.3446 32.163 88.0385 29.7704 90.6435M28.487 87.3446C28.7009 86.7721 29.0004 84.5966 28.487 80.4746C27.4174 78.9717 25.15 74.9785 24.6367 71.0282C24.1233 67.078 24.4228 60.6516 24.6367 57.9322M7.88091 80.4746C2.89001 82.1921 1.53477 84.1243 1.32086 84.5537C1.10695 84.983 0.465234 85.4124 1.96258 87.774C3.16045 89.6633 7.88066 91.2806 10.091 91.8531C21.5564 93.7424 27.1322 92.6403 28.487 91.8531C29.0123 91.4102 29.4355 91.0081 29.7704 90.6435" stroke="white" stroke-linecap="round" stroke-linejoin="round"/>
</svg>
