<svg width="150" height="113" viewBox="0 0 150 113" fill="none" xmlns="http://www.w3.org/2000/svg">
<circle cx="17.8571" cy="95.0476" r="17.3571" stroke="white"/>
<circle cx="1.19048" cy="1.19048" r="1.19048" transform="matrix(1 0 0 -1 16.6667 96.2381)" stroke="white"/>
<path d="M30.3574 95.0476C30.3574 101.951 24.761 107.548 17.8574 107.548C10.9539 107.548 5.35742 101.951 5.35742 95.0476" stroke="white" stroke-linecap="round"/>
<circle cx="102.381" cy="65.2857" r="47.119" stroke="white"/>
<path d="M116.666 65.7059C116.666 73.3636 110.27 79.5714 102.381 79.5714C94.4909 79.5714 88.095 73.3636 88.095 65.7059M83.3333 84.3333L102.381 65.2857L121.428 46.2381" stroke="white" stroke-linecap="round"/>
<circle cx="102.381" cy="65.2857" r="1.88095" fill="white" stroke="white"/>
<path d="M135.714 65.2857C135.714 83.6952 120.79 98.6191 102.38 98.6191C83.971 98.6191 69.0471 83.6952 69.0471 65.2857" stroke="white" stroke-linecap="round"/>
<circle cx="121.428" cy="46.2381" r="4.2619" fill="white" stroke="white"/>
<circle cx="83.3329" cy="84.3333" r="4.2619" fill="white" stroke="white"/>
<path d="M102.381 65.2857V10.5238M102.381 10.5238L102.282 3.35081C102.696 2.56721 102.033 1 96.0701 1M102.381 10.5238C94.3392 10.5238 80.8946 13.1534 68.7395 21.7057M17.8572 95.0476C30.7771 95.0476 41.8231 67.9982 45.1359 55.0687C50.0023 39.1626 58.9879 28.5669 68.7395 21.7057M68.7395 21.7057V12.7541M68.7395 12.7541C62.7765 12.7541 60.4576 11.1869 60.0435 10.4033M68.7395 12.7541L79.9202 10.4033" stroke="white" stroke-linecap="round"/>
</svg>
