<svg width="2162" height="189" viewBox="0 0 2162 189" fill="none" xmlns="http://www.w3.org/2000/svg">
<path d="M601.25 28.9121C601.272 28.9061 601.295 28.9 601.317 28.894M601.317 28.894C608.911 26.8686 621.926 27.123 613.75 44.2512L607 55.5669C601.667 62.3564 590.55 71.1072 588.75 51.795C588.417 48.526 588.5 40.9822 591.5 36.9589C593.795 34.3484 598.971 29.0807 601.317 28.894ZM1 58.5845C6.58333 62.0211 18.15 68.8943 19.75 68.8943C24.75 69.3973 33.3 68.3914 27.5 60.3447C21.7 52.2979 19.5833 48.9451 19.25 48.2746L13.75 40.7308C12.4167 38.8867 9.5 35.1986 8.5 35.1986C7.25 35.1986 2.29057 34.9064 1.5 35.7016L1 36.7074M1 65.3739C5.91667 66.7988 16.45 71.5598 19.25 79.2042C22.05 86.8486 21.75 91.1067 21.25 92.2802L13.25 104.602C12 107.619 7.8 113.453 1 112.648M1 144.332C3.16667 148.021 7.45 156.755 7.25 162.186C7.05 167.618 3 170.484 1 171.239M721 36.7074C718.5 38.7191 713.7 44.1506 714.5 49.7833C715.25 51.8788 717.6 56.5728 721 58.5845M721 65.3739C718.333 64.6195 711.8 63.6137 707 67.637C701 72.6662 700.5 79.9586 705.25 84.2334C709.05 87.6533 711.333 95.8844 712 99.5725C712.917 101.752 715.15 106.613 716.75 108.625C718.35 110.637 720.25 112.397 721 112.648M721 171.239L717.25 171.742C714.5 171.742 706.85 170.283 698.25 164.449C689.65 158.615 690.5 149.948 692 146.344C693.167 145.003 695.25 140.561 694.25 133.52C693.25 126.479 700 122.707 703.5 121.701C707.75 119.857 717.2 117.778 721 124.216V131.508C718.8 136.336 720.083 142.405 721 144.332M1 188.087H721M721 1H1M721 3.51461C719.917 3.59843 717.3 3.96724 715.5 4.77191C713.7 5.57658 710.083 5.10719 708.5 4.77191C704.417 3.26315 695.3 1.35205 691.5 5.77775C686.75 11.3099 696.25 23.1285 698 21.8712C699.4 20.8654 708.75 20.9492 713.25 21.1168C715 21.5359 719 21.318 721 17.0935M1 3.51461C3.16667 3.17933 7.4 3.01169 7 5.02337C6.6 7.03505 2.83333 13.9083 1 17.0935M13.25 181.046C16.5833 184.147 27.35 188.237 43.75 179.788C47.75 177.022 54.7 169.177 50.5 159.923C49.1667 155.229 44.65 145.791 37.25 145.59C34.9167 145.171 28.95 145.539 23.75 150.368C17.25 156.403 12.75 165.204 11.75 173.502C11.5 175.094 11.45 178.833 13.25 181.046ZM57.5 149.613L57.25 172.999C58 175.933 60.9 181.297 66.5 179.285C73.5 176.771 75.5 175.765 82 165.958C82.8334 163.36 82.85 156.805 76.25 151.373C69.65 145.942 65.3334 144.919 64 145.087C62.5834 144.752 59.3 145.187 57.5 149.613ZM83.5 186.326C85.1667 186.913 90.05 187.735 96.25 186.326C102.45 184.918 104.833 181.046 105.25 179.285C104.333 176.603 99.65 170.786 88.25 168.976C86.9167 168.808 83.95 170.032 82.75 176.268C81.55 182.504 82.75 185.572 83.5 186.326ZM86.5 155.145C87.9167 158.414 92.8 165.455 101 167.467C109.2 169.479 116.75 165.455 119.5 163.192C122.417 161.516 128.25 157.76 128.25 156.151C128.25 154.139 125.25 150.116 125 149.613C124.8 149.211 117.417 141.734 113.75 138.046C110.583 135.364 102.65 129.949 96.25 129.748C89.85 129.547 86.75 135.364 86 138.297C85.1667 140.058 84.1 145.892 86.5 155.145ZM137.75 162.438C133.75 164.03 125 169.479 122 178.531C121.167 180.543 120.6 184.918 125 186.326C129.4 187.735 139 185.404 143.25 184.063C145.833 182.638 150.85 177.777 150.25 169.73C149.25 167.048 145.35 161.834 137.75 162.438ZM128.25 138.297C130 144.835 137.15 158.263 151.75 159.672C170 161.432 160 138.549 153.75 134.526C144.75 133.771 127.05 133.469 128.25 138.297ZM104.25 121.953C104.5 122.707 110.25 131.759 128.25 129.748C146.25 127.736 149 124.97 149.75 123.964C150.5 122.958 153.5 119.438 150.5 103.093C147.5 86.748 141 82.2217 137.25 80.4615C133.5 78.7013 114.75 82.9761 111.25 91.0229C107.75 99.0696 103.25 105.608 104.25 121.953ZM157 182.554C158 182.554 160.4 182.856 162 184.063C164 185.572 163.5 185.572 166 185.572C168.5 185.572 174.25 186.075 176.25 185.572C178.25 185.069 187.25 182.554 188.5 180.04C189.75 177.525 190 175.514 187 171.742C184 167.97 177.5 161.18 173.75 160.426C170 159.672 169.5 159.672 167.25 161.432C165 163.192 157.5 170.987 157 172.496C156.5 174.005 155.25 174.508 155.25 179.285C155.25 183.108 156.417 183.057 157 182.554ZM201.25 186.326C206.417 186.997 217.75 187.785 221.75 185.572C226.75 182.806 229.25 181.549 229 175.262C228.8 170.233 209.583 170.82 200 171.742C198.333 172.328 194.85 174.558 194.25 178.783C193.65 183.007 198.667 185.572 201.25 186.326ZM220 163.695C221.833 165.204 226.05 168.221 228.25 168.221C231 168.221 237.75 168.221 239.75 160.426C241.35 154.19 237.083 148.775 234.75 146.847C232.917 144.919 227.9 142.623 222.5 148.859C222.25 149.529 221.75 151.927 221.75 156.151C221.5 156.906 220.9 158.716 220.5 159.923C220.1 161.13 220 162.941 220 163.695ZM243 167.215C244.25 172.999 248.85 184.365 257.25 183.56C265.65 182.756 271.417 180.04 273.25 178.783C276.417 177.609 282.85 173.2 283.25 164.952C283.65 156.704 280.583 150.787 279 148.859C278 147.434 274.8 144.634 270 144.835C265.2 145.037 263.333 148.104 263 149.613C262.5 150.451 260.1 152.53 254.5 154.139C248.9 155.749 245.333 159.001 244.25 160.426C243.833 160.845 243 162.79 243 167.215ZM162 134.526C163 135.783 168 145.841 178.75 154.139C179.667 154.978 182.05 157.811 184.25 162.438C186.45 167.065 200.167 164.366 206.75 162.438C210.667 160.929 218.5 155.296 218.5 144.835C218.5 131.759 216 128.742 214 124.719C212.4 121.5 206.667 119.857 204 119.438C201.583 120.36 195.1 122.154 188.5 121.953C181.9 121.751 172.417 121.366 168.5 121.198C166.333 121.617 162 123.411 162 127.233C162 131.055 162 133.687 162 134.526ZM222.5 130.251C225.917 134.777 236.7 144.031 252.5 144.835C259.833 144.5 274.7 139.655 275.5 122.958C275.333 116.923 272.15 103.546 260.75 98.3152C246.5 91.7772 240.75 100.578 240.25 101.081C239.75 101.584 240.75 107.368 234.75 112.146C228.75 116.923 223.25 117.426 222.5 122.958C221.9 127.384 222.25 129.664 222.5 130.251ZM282.25 144.081C286 150.87 293.7 166.612 294.5 175.262C295.5 186.075 312.25 183.812 315.25 181.297C318.25 178.783 321.5 173.753 322.25 170.736C323 167.718 322.25 153.637 319.5 146.596C316.75 139.555 314 128.239 302.25 124.216C292.85 120.997 285 132.43 282.25 138.549C281.917 139.219 281.45 141.265 282.25 144.081ZM285.5 185.823C288.083 186.075 293.25 186.427 293.25 185.823C293.25 185.069 295 184.315 290.75 179.788C287.35 176.167 283.167 178.28 281.5 179.788C280.167 180.375 277.8 182.152 279 184.566C280.2 186.98 283.833 186.41 285.5 185.823ZM330.75 150.619V175.262C332.25 179.621 339.1 187.835 354.5 185.823C369.9 183.812 374.083 177.944 374.25 175.262C375.333 172.664 376.85 166.008 374.25 160.174C371.65 154.341 365.167 152.547 362.25 152.379C358.083 151.625 349.3 149.613 347.5 147.601C345.7 145.59 340.083 145.422 337.5 145.59C336.083 145.506 332.75 146.394 330.75 150.619ZM378.5 159.42L388.75 179.788C390.333 181.297 394.95 183.409 400.75 179.788C406.55 176.167 412.5 167.551 414.75 163.695C416.083 160.174 417.95 151.625 414.75 145.59C411.55 139.555 406.583 137.208 404.5 136.789C402.083 136.705 395.9 138.348 390.5 145.59C388.333 147.182 383.45 150.569 381.25 151.373C379.05 152.178 378.5 157.073 378.5 159.42ZM429.5 146.596C425.083 149.948 416.75 160.979 418.75 178.28C420.25 181.968 427.8 187.282 446 179.034C447.583 178.196 450.45 174.659 449.25 167.215C447.75 157.911 440.75 150.368 440 149.865C439.25 149.362 438 145.59 429.5 146.596ZM448.75 149.11C448.667 151.29 449.5 156.654 453.5 160.677C457.5 164.701 466.333 156.486 470.25 151.876C472.583 149.026 476.55 142.472 473.75 139.052C470.95 135.632 466.917 136.956 465.25 138.046C460.833 139.806 451.35 144.483 448.75 149.11ZM486.5 145.841C492 149.529 503.45 158.666 505.25 165.707C507.05 172.748 506.5 177.525 506 179.034C505.417 181.13 502.15 185.421 493.75 185.823C483.25 186.326 481.75 186.326 476 184.818C470.25 183.309 464.75 177.022 464.75 176.519C464.75 176.017 461.75 172.748 464.75 167.215C467.15 162.79 477.583 152.128 482.5 147.35C482.917 146.847 484.3 145.841 486.5 145.841ZM493.75 140.561C498.167 148.272 508.25 164.097 513.25 165.707C519.5 167.718 532.25 168.724 538 165.707C543.75 162.689 546 154.139 545.75 153.134C545.5 152.128 544.25 145.087 539.75 137.292C535.25 129.496 532.25 124.467 524.75 122.958C518.75 121.751 510.25 122.455 506.75 122.958C502.833 123.713 494.65 126.429 493.25 131.257C491.85 136.085 493 139.471 493.75 140.561ZM541.5 125.724C542.917 133.687 549.55 150.217 564.75 152.631C567.25 153.385 572.65 153.234 574.25 146.596C576.05 140.762 574.333 135.95 573.25 134.274C571.167 129.999 566.85 121.399 566.25 121.198C565.5 120.947 555.25 119.186 548.75 121.701C546.333 122.036 541.5 123.31 541.5 125.724ZM519.25 169.981C522.5 169.981 529.55 170.535 531.75 172.748C534.5 175.514 535.5 175.765 538 180.794C540 184.818 531.5 183.477 527 182.303C523.5 182.135 516.55 180.895 516.75 177.274C516.95 173.653 516.833 171.742 516.75 171.239C517.083 170.809 518.05 169.955 519.25 169.981ZM544.5 168.473L553 184.315C553 185.321 556.45 187.03 570.25 185.823C584.05 184.616 571.833 171.406 564 164.952C561.833 163.024 557.35 159.169 556.75 159.169C556 159.169 547.5 156.906 544.5 168.473ZM575 165.707C579.917 171.49 590.7 183.108 594.5 183.309C599.25 183.56 599.5 183.812 601.75 180.04C604 176.268 604.25 172.496 604.25 171.239C604.25 169.981 609.5 159.169 610.25 159.169C611 159.169 611.75 149.613 608 148.859C604.25 148.104 599.75 148.356 598 147.853C596.25 147.35 592.5 143.327 583.75 148.859C576.75 153.284 575 161.935 575 165.707ZM613.5 180.04C613.25 181.549 615.55 184.918 626.75 186.326C637.95 187.735 639.417 187.919 638.75 187.835H650.25C652.667 186.662 657.6 183.611 658 180.794C658.5 177.274 658.75 169.227 656.25 167.97C653.75 166.712 650 162.689 639.75 165.707C631.55 168.121 624.5 169.73 622 170.233C618.5 170.903 611.9 173.804 613.5 180.04ZM656.25 157.408C657.417 161.599 660.6 170.987 664 175.011C667.4 179.034 679.25 175.011 684.75 172.496C686.75 169.059 690.15 159.521 687.75 148.859C684.75 135.531 684.25 135.028 681.5 135.028C679.3 135.028 672.583 139.219 669.5 141.315L658.75 145.841C657.083 147.601 654.25 152.379 656.25 157.408ZM702.25 170.233C708.667 172.496 720.9 177.777 718.5 180.794C716.1 183.812 712.667 184.734 711.25 184.818C705.75 186.075 694.05 187.584 691.25 183.56C687.75 178.531 687.75 178.783 689.5 174.005C691.25 169.227 694 166.461 702.25 170.233ZM611 141.315C613.167 142.908 617.6 146.445 618 147.853C618.5 149.613 621.75 157.66 625.25 159.923C628.05 161.734 634.583 160.677 637.5 159.923C641.25 157.911 649.1 153.083 650.5 149.865C652.25 145.841 657.75 141.818 654.5 131.508C651.9 123.26 644.583 120.025 641.25 119.438C636.417 118.264 625.3 116.974 619.5 121.198C613.7 125.423 610.917 129.161 610.25 130.502C609.167 132.346 607.8 137.09 611 141.315ZM641.25 109.882L660.75 128.742C663.167 131.592 669.35 135.179 674.75 126.73C680.15 118.281 684.833 111.978 686.5 109.882C689.167 105.608 692.3 94.5433 683.5 84.4849C674.7 74.4265 667 73.4206 664.25 74.175C662.333 73.5883 657.7 74.175 654.5 81.2159C650.5 90.017 650 90.017 647 94.7948C644.6 98.617 642.167 102.422 641.25 103.847C640.47 105.105 639.378 108.072 641.25 109.882ZM692.5 101.081C692 104.266 691.3 111.441 692.5 114.66C693.7 117.879 699.5 118.348 702.25 118.181C705.833 117.091 712.4 112.749 710 104.099C707.6 95.4486 701.833 93.6213 699.25 93.7889C697.22 93.6213 693.028 94.8451 692.5 101.081ZM693.25 25.8946C686.417 27.0681 674.45 33.539 681.25 50.0348C681.667 51.6274 682.25 56.9248 681.25 65.3739C680.25 73.823 687.833 74.7617 691.75 74.175C695.583 73.4206 704.5 68.14 709.5 53.0523C714.5 37.9647 714.083 28.6607 713.25 25.8946C712.667 24.154 709.4 21.2646 701 23.6314C692.6 25.9983 692.333 26.1264 693.25 25.8946ZM657.75 35.953C663.583 33.4384 675.5 32.0302 676.5 46.5144C677.75 64.6195 676.75 62.1049 662.75 67.637C659.75 69.1458 653.15 72.6662 650.75 74.6779C647.75 77.1925 641.25 74.175 641.25 69.3973C641.25 65.5751 639.417 55.3993 638.5 50.7892C637.5 48.0231 637.8 41.9881 647 39.9764C656.2 37.9647 658 36.4559 657.75 35.953ZM626.75 50.7892C629.25 51.7112 635.45 57.6792 640.25 74.175C645.05 90.6708 636.083 95.9682 631 96.555C627.667 97.6447 619.05 97.41 611.25 87.7539C601.5 75.6838 595.75 70.4031 609.5 60.0932L616.25 53.8067C618.833 51.795 624.55 48.3752 626.75 50.7892ZM610.25 98.3152C617.583 101.249 629.7 108.977 619.5 116.42C609.3 123.864 602.917 117.342 601 113.151C597.833 111.14 591.7 104.853 592.5 95.8006C590.667 90.6876 590.1 82.0709 602.5 88.5083C603.75 91.442 607.05 97.5105 610.25 98.3152ZM543.5 99.0696C545.25 107.452 553 120.192 570 104.099C591.25 83.982 587.75 80.2101 580 70.1516C573.8 62.1049 558.083 68.4752 551 72.6662C542.833 74.9294 529.9 83.3785 543.5 99.0696ZM533.75 99.0696C536.333 100.495 541.75 104.602 542.75 109.631C544 115.917 542.75 118.684 532 118.935C521.25 119.186 520.75 114.912 521 108.877C521.25 102.842 523.75 98.5667 529 98.3152C529.928 98.1476 532.178 98.0638 533.75 99.0696ZM490.75 125.724C485.75 131.927 475.45 139.504 474.25 120.192C472.75 96.0521 477.5 102.087 483.25 96.8065C487.85 92.5819 499.333 90.1847 504.5 89.5141C510.917 89.8494 522.05 93.8392 515.25 107.116C506.75 123.713 504.75 116.672 500.75 119.186C496.75 121.701 495.018 121.45 490.75 125.724ZM517 73.4206C523.667 72.2471 536.2 72.4651 533 82.7247C529 95.5491 523.75 88.5083 516.25 87.251C508.75 85.9936 504.5 82.4732 504.5 78.1984C504.5 73.9235 508.75 73.4206 510.75 73.4206C512.75 73.4206 514.5 74.175 517 73.4206ZM475.25 65.8768C486.333 61.0152 505.65 57.5786 494.25 82.7247C487.083 93.1184 469.75 108.172 457.75 85.2393C455.5 79.7071 453.85 68.492 465.25 67.8885C467.75 67.8885 473.25 67.4862 475.25 65.8768ZM591.75 112.648C596.833 114.912 605.1 122.053 597.5 132.514C588 145.59 575.75 143.83 578 129.748C578.083 127.233 577.85 121.299 576.25 117.678C574.25 113.151 579.25 107.368 585.5 109.631C590.5 111.441 591.75 112.397 591.75 112.648ZM570.25 21.6198C578.083 15.92 592.05 10.6561 585.25 35.1986C576.75 65.8768 573.75 61.602 562.75 61.3505C553.95 61.1494 554.75 40.8146 556.25 30.6723C557.25 29.5827 560.35 27.001 564.75 25.3917C569.15 23.7823 570.25 22.2065 570.25 21.6198ZM525 28.894C535.083 23.5356 553.95 18.5519 548.75 41.4851C548 43.9159 546.3 50.4874 545.5 57.3272C544.5 65.8768 526.5 68.14 521.75 69.1458C517 70.1516 509 61.3505 506.75 54.0582C504.5 46.7658 503.75 39.7249 512.75 35.1986C519.95 31.5776 523.917 29.4868 525 28.894ZM489.75 18.0993C496.333 23.5476 505.8 37.9144 491 51.795C472.5 69.1458 466.75 59.8418 466 57.8301C465.4 56.2207 458.417 44.9218 455 39.4735C451.583 34.0251 445.15 25.7437 456.75 18.0993C460.583 12.5672 469.45 2.05614 474.25 4.26899C480.25 7.03505 486.25 4.77191 489.75 8.54382C488.417 10.3416 486.55 14.7697 489.75 18.0993ZM443.25 140.561C453.5 141.818 469.25 135.531 469.25 123.964C470.25 112.648 470.25 110.637 460.75 105.356C457.417 104.686 450 102.489 447 99.0696C443.25 94.7948 434.25 94.5433 433 103.093C431.75 111.643 431.75 116.672 426.5 123.964C421.25 131.257 424 140.402 435 140.561C443.8 140.687 444.167 140.613 443.25 140.561ZM452.25 67.8885C452.25 77.1925 457.75 89.5141 433 91.0229C424.583 91.6934 407.7 89.5141 407.5 75.4323C406.829 63.741 401.417 45.5433 420 47.2687L436.5 48.0231C442.5 48.1069 454.05 52.1974 452.25 67.8885ZM436.5 37.4618C431.583 42.1557 421.9 47.4699 422.5 31.1753C422.417 26.9843 424.2 18.6525 432 18.8537C441.75 19.1052 441.5 20.8654 441 25.6431C440.5 30.4209 441.75 31.4267 436.5 37.4618ZM328.75 24.6373C331.083 29.4989 334.6 40.5799 330 46.0114C324.25 52.8009 314.5 51.5436 309.75 46.0114C305.95 41.5857 300.5 36.6236 298.25 34.6957C295.25 32.9355 290.9 27.2525 297.5 18.6022C304.1 9.952 308.917 8.29236 310.5 8.54382C314.083 7.95708 322.75 10.3543 328.75 24.6373ZM397 83.982C391 95.0462 375.7 110.888 362.5 85.7422C355.917 75.0132 341.8 52.4488 338 48.0231C334.2 43.5974 339.417 36.1207 342.5 32.9355C344.833 29.6665 352.55 25.5425 364.75 35.1986C380 47.2687 392.75 43.2454 397 51.0406C401.25 58.8359 404 68.14 397 83.982ZM393.5 98.3152C400 93.3698 415 86.5972 423 99.0696C431 111.542 423 118.935 419.5 123.21C417.167 126.395 411.3 132.916 406.5 133.52C400.5 134.274 396 135.531 396.25 129.999C396.45 125.574 389 119.941 385.25 117.678C382.5 116.169 378.55 111.743 384.75 106.11C390.95 100.478 393.167 98.5667 393.5 98.3152ZM363.5 121.701C366.5 114.157 372.35 104.35 382.75 121.45C387.75 125.976 395.25 136.94 385.25 144.584C375.25 152.228 366.917 149.781 364 147.601C363.5 147.099 361.05 145.791 355.25 144.584C349.45 143.377 354.667 134.023 358 129.496C359.833 127.401 363.5 122.908 363.5 121.701ZM356.75 123.21C351.167 131.927 338.15 146.596 330.75 135.531C328.417 134.19 324.35 128.088 326.75 114.409C329.15 100.729 333.083 93.1184 334.75 91.0229C335.917 89.5979 339.6 87.4018 345 90.017C350.4 92.6322 355.083 91.7772 356.75 91.0229C358.5 90.6038 362.3 91.4755 363.5 98.3152C364.7 105.155 359.5 117.761 356.75 123.21ZM326 61.8534C324.5 55.3155 336.25 47.5202 339 61.0991C339.5 61.8534 338 65.6253 343.75 69.3973C349.5 73.1692 346.5 80.2101 343 81.7188C339.5 83.2276 330.25 87.251 327.75 81.2159C325.75 76.3879 325.417 71.828 325.5 70.1516L326 61.8534ZM299.75 84.4849C306.917 77.9469 320.8 70.554 319 93.286C316.75 121.701 305.75 115.917 298 119.438C290.25 122.958 283.75 119.689 281.25 112.9C278.75 106.11 269.25 99.824 284.5 94.0404C299.75 88.2568 291.5 93.0345 299.75 84.4849ZM276.25 67.8885C279.5 75.6838 283.9 86.2451 303.5 75.1808C306.083 73.9235 311.6 71.0569 313 69.6487C314.75 67.8885 325.25 61.3505 313.5 53.3038C304.1 46.8664 298.75 44.7541 297.25 44.5027C292.667 43.0777 282.4 42.0384 278 49.2804C273.6 56.5225 275 64.7033 276.25 67.8885ZM230.75 86.2451C237.417 89.1788 253.3 93.5375 263.5 87.5024C276.25 79.9586 271.75 72.9177 272 67.8885C272.2 63.8651 265.917 55.8184 262.75 52.2979C255.5 41.8204 238.35 27.0513 227.75 51.795C226.25 54.5611 222.65 60.6967 220.25 63.1107C217.25 66.1283 214.75 74.4265 224 81.4674L230.75 86.2451ZM199.75 74.6779C201 80.2101 213 85.4907 212.5 72.1633L211.25 63.6137C210.667 60.5961 207.9 55.7178 201.5 60.3447C193.5 66.1283 195.25 65.3739 197.5 70.906L199.75 74.6779ZM208.5 107.368C207.695 112.732 209.368 121.802 222.5 115.163C238.915 106.865 232.25 94.7948 228.5 93.0345C224.75 91.2743 220 86.2451 212.5 87.251C205 88.2568 205 92.0287 206.25 97.8123C207.25 102.439 208.167 106.11 208.5 107.368ZM155.25 91.5258C155.333 97.3932 158.6 109.631 171 111.643C186.5 114.157 173.25 117.426 189.75 115.163C206.25 112.9 201.5 93.7889 201 93.0345C200.5 92.2802 200.75 69.3973 180.25 79.2042C173.25 82.5529 160.75 80.4615 157.5 85.2393C156.75 85.9098 155.25 88.1059 155.25 91.5258ZM250.75 20.8654C246.5 14.8303 251.75 2.50877 262.75 14.8303C265.167 17.6802 271.3 24.0841 276.5 26.9004C283 30.4209 285.5 35.4501 278.75 40.7308C272 46.0114 264.5 47.2687 260 39.222C255.5 31.1753 253.713 36.7074 251.5 26.1461L250.75 20.8654ZM207 41.9881C208.417 46.7658 213.6 54.1588 223 45.5085C232.4 36.8583 236.083 33.1869 236.75 32.4326C246.5 23.8829 246 21.3683 241.75 12.3157C238.667 6.69977 230.15 -1.66548 220.75 9.80112C218.917 14.0759 214.25 23.3297 210.25 26.1461C205.25 29.6665 206.345 40.2278 207 41.9881ZM198.5 35.4501C202 38.2162 205.55 46.967 191.75 59.8418C174.5 75.9352 169.75 74.6779 166 72.1633C163 70.1516 157.583 60.7638 155.25 56.3213C152.75 52.0465 150.2 42.3904 160 37.9647C169.8 33.539 175.25 31.0914 176.75 30.4209C180.917 29.2474 190.3 27.8057 194.5 31.4267C195.644 32.6002 198.046 35.0478 198.5 35.4501ZM134.5 72.1633C141.583 75.1808 155.45 78.8019 154.25 69.1458C154.333 66.1283 154.2 59.9423 153 59.3388C151.5 58.5845 150 54.0582 150.5 51.5436C151 49.029 146 39.222 137.25 39.222C128.5 39.222 126.25 40.4793 123 47.7717C119.75 55.064 113.75 63.6137 125.5 67.8885L134.5 72.1633ZM81 15.8362C84.5834 8.46 94.35 -1.86665 104.75 15.8362C117.75 37.9647 115.25 26.3975 116.5 38.4676C117.5 48.1237 107.917 56.0699 103 58.8359C96.4167 63.2784 82.8 69.1458 81 57.0757C79.0834 52.8009 74.2 43.0945 70 38.4676C64.75 32.684 65.75 27.1519 71.5 23.1285C74.0872 21.7036 79.6091 18.2502 81 15.8362ZM115.25 66.3797C120.75 68.9782 128.45 74.9797 115.25 78.1984C112.583 80.0424 106.4 81.8194 103 74.175C101.583 71.9119 99.6 66.8324 103 64.6195C107.25 61.8534 108.75 59.3388 115.25 66.3797ZM101.75 91.0229C103.167 86.1613 102.5 75.5832 88.5 72.1633C71 67.8885 74.75 55.8184 66.5 72.1633C64 76.7734 60 87.1001 64 91.5258C69 97.0579 79.25 102.339 79.75 102.59C80.25 102.842 97.3097 113.906 99.75 99.824L101.75 91.0229ZM86.5 129.748C91 123.377 94.95 110.637 74.75 110.637C72.1667 110.469 68.0384 105.806 62.25 104.35C55.25 102.59 43.25 103.344 45.5 114.409C46.5 122.036 50.55 137.493 58.75 138.297C69 139.303 71.25 140.812 77 138.297C81.6 136.286 85.25 131.759 86.5 129.748ZM35 140.058C41 140.141 51.5 137.795 45.5 127.736C39.5 117.678 37.5 112.481 37.25 111.14C32.5833 107.2 21.85 101.584 16.25 110.637C9.25001 121.953 12 124.216 16.25 129.748C20.5 135.28 23 141.818 29 140.058C33.8 138.649 35 139.471 35 140.058ZM5.25001 140.058C6.00001 135.531 9.25001 129.195 16.25 140.058C23.25 150.921 17.6667 151.96 14 151.122C10.3333 150.284 3.45001 146.897 5.25001 140.058ZM38.2501 100.327C42.5834 101.165 50.1636 99.575 55.0001 90.2685C60.7501 79.2042 58.0001 62.1049 43.5001 68.3914C41.6667 70.7384 37.1001 75.8849 33.5001 77.6955C29 79.9586 26.7501 88.0053 27.0001 91.5258C27.2501 95.0462 26.5001 97.8123 30.7501 99.0696C33.0001 99.2372 37.6501 99.7234 38.2501 100.327ZM58.2501 47.2687C64 43.7483 74.5001 42.7424 69.0001 55.5669C67.5834 59.3388 63.0501 65.9774 56.2501 62.3564C47.7501 57.8301 50.0001 55.3155 52.7501 51.5436L58.2501 47.2687ZM52.5001 21.6198C57.5834 24.1344 65.3001 32.0805 55.5001 43.7483L46.5001 53.8067C42.7501 57.3272 33.8001 62.0043 28.0001 52.5494C20.7501 40.7308 23.0001 36.2045 26.5001 33.1869C30.0001 30.1694 34.5001 25.6431 36.0001 21.3683C37.2001 17.9484 47.5001 20.111 52.5001 21.6198ZM376 28.894C381.667 36.0248 395.7 47.7214 406.5 37.4618C420 24.6373 423 29.6665 411.25 18.0993C399.5 6.53213 413.5 4.01753 390.5 4.26899C367.5 4.52045 344.5 3.76607 353.5 12.3157C362.5 20.8654 367.75 20.8654 369.25 20.8654C370.45 20.8654 374.25 26.2178 376 28.894ZM337.5 24.6373C344.167 25.3917 356.7 25.6934 353.5 20.8654C349.5 14.8303 347.25 5.52629 337.5 7.03505C327.75 8.54382 325.25 10.5555 330 18.0993C333.8 24.1344 336.583 24.9726 337.5 24.6373ZM447 14.8303C455 12.1481 466.35 6.53213 447.75 5.52629C424.5 4.26899 416 2.2573 419.5 8.54382C423 14.8303 425 14.8303 433 14.8303C439.4 14.8303 445 14.8303 447 14.8303ZM556.25 7.03505C562.646 9.04674 571.6 14.2268 556.25 18.8537C540.9 23.4806 519.521 24.6373 510.75 24.6373C505.5 23.7153 495.8 19.9601 499 12.3157C502.2 4.67133 509.5 2.76023 512.75 2.76023C521.25 2.34113 539.3 2.05614 543.5 4.26899C547.7 6.48184 553.75 7.03505 556.25 7.03505ZM596 21.6198C591.228 15.8362 583.646 4.26899 591.5 4.26899C601.317 4.26899 626.75 4.77191 626.75 8.54382L635.75 16.0876C642.95 22.1227 632.75 24.8049 626.75 25.3917C624.75 28.4092 605.417 24.1344 596 21.6198ZM274 14.8303C275.333 18.8537 279.45 25.6934 285.25 20.8654C292.5 14.8303 285.924 12.8186 296.25 11.3099C306.576 9.80112 300 1.25146 290.25 3.51461C283.25 2.50877 269.05 1.10059 268.25 3.51461C267.45 5.92863 271.75 12.0643 274 14.8303ZM208.25 20.8654C205.917 24.8887 199.6 30.5215 193 20.8654C184.75 8.79528 202.75 3.26315 207 4.01753C211.25 4.77191 217.25 9.54966 214.25 14.0759L208.25 20.8654ZM164.25 30.4209C151.5 32.7678 130.2 30.9238 147 4.77191C148 3.09551 155.55 0.748542 177.75 4.77191C183.333 5.10719 192.6 8.24206 185 18.0993C183.583 21.1168 179.75 27.2022 175.75 27.4034C171.75 27.6045 166.417 29.4989 164.25 30.4209ZM127.5 33.9413C132.917 34.6957 142.45 34.4442 137.25 27.4034C132.05 20.3625 135.083 12.7348 137.25 9.80112C133.917 5.19101 125.45 -1.81636 118.25 7.03505C111.05 15.8865 115.25 22.458 118.25 24.6373L127.5 33.9413ZM104.75 9.80112C106.083 13.1539 109.25 18.3508 111.25 12.3157C112.083 10.304 114.2 6.0795 116 5.27483C118.25 4.26899 114.25 -0.00583959 108 3.51461C101.75 7.03505 103 4.52045 104.75 9.80112ZM52.7501 14.3274C56.0001 18.4346 64.95 23.7823 74.75 12.3157C84.55 0.849126 66.5 1.67056 56.2501 3.51461C51.3334 3.68225 43.7501 6.0795 52.7501 14.3274ZM14.75 30.6723C16.25 33.3546 20.7001 36.8583 26.5001 29.415C32.3 21.9718 34.75 17.2611 35.25 15.8362C38.3333 11.9804 37.5 6.53213 30 5.77775C24.25 3.59843 12.95 0.547374 13.75 5.77775C14.75 12.3157 9.75 12.5672 11.75 21.6198L14.75 30.6723ZM631.25 41.9881C626.5 43.0777 618.25 42.6922 623.25 32.4326C628.25 22.173 638.833 27.4872 643.5 31.4267C645.25 32.9355 645.25 37.16 631.25 41.9881ZM654.5 27.9063C647.5 22.458 635.05 10.5052 641.25 6.28067C647.45 2.05614 670.5 3.17933 681.25 4.26899C688 10.1364 696.95 22.5753 678.75 25.3917C673.583 27.6548 661.5 31.3261 654.5 27.9063Z" stroke="white" stroke-linecap="round"/>
<path d="M1321.25 28.9121C1321.27 28.9061 1321.29 28.9 1321.32 28.894M1321.32 28.894C1328.91 26.8686 1341.93 27.123 1333.75 44.2512L1327 55.5669C1321.67 62.3564 1310.55 71.1072 1308.75 51.795C1308.42 48.526 1308.5 40.9822 1311.5 36.9589C1313.79 34.3484 1318.97 29.0807 1321.32 28.894ZM721 58.5845C726.583 62.0211 738.15 68.8943 739.75 68.8943C744.75 69.3973 753.3 68.3914 747.5 60.3447C741.7 52.2979 739.583 48.9451 739.25 48.2746L733.75 40.7308C732.417 38.8867 729.5 35.1986 728.5 35.1986C727.25 35.1986 722.291 34.9064 721.5 35.7016L721 36.7074M721 65.3739C725.917 66.7988 736.45 71.5598 739.25 79.2042C742.05 86.8486 741.75 91.1067 741.25 92.2802L733.25 104.602C732 107.619 727.8 113.453 721 112.648M721 144.332C723.167 148.021 727.45 156.755 727.25 162.186C727.05 167.618 723 170.484 721 171.239M1441 36.7074C1438.5 38.7191 1433.7 44.1506 1434.5 49.7833C1435.25 51.8788 1437.6 56.5728 1441 58.5845M1441 65.3739C1438.33 64.6195 1431.8 63.6137 1427 67.637C1421 72.6662 1420.5 79.9586 1425.25 84.2334C1429.05 87.6533 1431.33 95.8844 1432 99.5725C1432.92 101.752 1435.15 106.613 1436.75 108.625C1438.35 110.637 1440.25 112.397 1441 112.648M1441 171.239L1437.25 171.742C1434.5 171.742 1426.85 170.283 1418.25 164.449C1409.65 158.615 1410.5 149.948 1412 146.344C1413.17 145.003 1415.25 140.561 1414.25 133.52C1413.25 126.479 1420 122.707 1423.5 121.701C1427.75 119.857 1437.2 117.778 1441 124.216V131.508C1438.8 136.336 1440.08 142.405 1441 144.332M721 188.087H1441M1441 1H721M1441 3.51461C1439.92 3.59843 1437.3 3.96724 1435.5 4.77191C1433.7 5.57658 1430.08 5.10719 1428.5 4.77191C1424.42 3.26315 1415.3 1.35205 1411.5 5.77775C1406.75 11.3099 1416.25 23.1285 1418 21.8712C1419.4 20.8654 1428.75 20.9492 1433.25 21.1168C1435 21.5359 1439 21.318 1441 17.0935M721 3.51461C723.167 3.17933 727.4 3.01169 727 5.02337C726.6 7.03505 722.833 13.9083 721 17.0935M733.25 181.046C736.583 184.147 747.35 188.237 763.75 179.788C767.75 177.022 774.7 169.177 770.5 159.923C769.167 155.229 764.65 145.791 757.25 145.59C754.917 145.171 748.95 145.539 743.75 150.368C737.25 156.403 732.75 165.204 731.75 173.502C731.5 175.094 731.45 178.833 733.25 181.046ZM777.5 149.613L777.25 172.999C778 175.933 780.9 181.297 786.5 179.285C793.5 176.771 795.5 175.765 802 165.958C802.833 163.36 802.85 156.805 796.25 151.373C789.65 145.942 785.333 144.919 784 145.087C782.583 144.752 779.3 145.187 777.5 149.613ZM803.5 186.326C805.167 186.913 810.05 187.735 816.25 186.326C822.45 184.918 824.833 181.046 825.25 179.285C824.333 176.603 819.65 170.786 808.25 168.976C806.917 168.808 803.95 170.032 802.75 176.268C801.55 182.504 802.75 185.572 803.5 186.326ZM806.5 155.145C807.917 158.414 812.8 165.455 821 167.467C829.2 169.479 836.75 165.455 839.5 163.192C842.417 161.516 848.25 157.76 848.25 156.151C848.25 154.139 845.25 150.116 845 149.613C844.8 149.211 837.417 141.734 833.75 138.046C830.583 135.364 822.65 129.949 816.25 129.748C809.85 129.547 806.75 135.364 806 138.297C805.167 140.058 804.1 145.892 806.5 155.145ZM857.75 162.438C853.75 164.03 845 169.479 842 178.531C841.167 180.543 840.6 184.918 845 186.326C849.4 187.735 859 185.404 863.25 184.063C865.833 182.638 870.85 177.777 870.25 169.73C869.25 167.048 865.35 161.834 857.75 162.438ZM848.25 138.297C850 144.835 857.15 158.263 871.75 159.672C890 161.432 880 138.549 873.75 134.526C864.75 133.771 847.05 133.469 848.25 138.297ZM824.25 121.953C824.5 122.707 830.25 131.759 848.25 129.748C866.25 127.736 869 124.97 869.75 123.964C870.5 122.958 873.5 119.438 870.5 103.093C867.5 86.748 861 82.2217 857.25 80.4615C853.5 78.7013 834.75 82.9761 831.25 91.0229C827.75 99.0696 823.25 105.608 824.25 121.953ZM877 182.554C878 182.554 880.4 182.856 882 184.063C884 185.572 883.5 185.572 886 185.572C888.5 185.572 894.25 186.075 896.25 185.572C898.25 185.069 907.25 182.554 908.5 180.04C909.75 177.525 910 175.514 907 171.742C904 167.97 897.5 161.18 893.75 160.426C890 159.672 889.5 159.672 887.25 161.432C885 163.192 877.5 170.987 877 172.496C876.5 174.005 875.25 174.508 875.25 179.285C875.25 183.108 876.417 183.057 877 182.554ZM921.25 186.326C926.417 186.997 937.75 187.785 941.75 185.572C946.75 182.806 949.25 181.549 949 175.262C948.8 170.233 929.583 170.82 920 171.742C918.333 172.328 914.85 174.558 914.25 178.783C913.65 183.007 918.667 185.572 921.25 186.326ZM940 163.695C941.833 165.204 946.05 168.221 948.25 168.221C951 168.221 957.75 168.221 959.75 160.426C961.35 154.19 957.083 148.775 954.75 146.847C952.917 144.919 947.9 142.623 942.5 148.859C942.25 149.529 941.75 151.927 941.75 156.151C941.5 156.906 940.9 158.716 940.5 159.923C940.1 161.13 940 162.941 940 163.695ZM963 167.215C964.25 172.999 968.85 184.365 977.25 183.56C985.65 182.756 991.417 180.04 993.25 178.783C996.417 177.609 1002.85 173.2 1003.25 164.952C1003.65 156.704 1000.58 150.787 999 148.859C998 147.434 994.8 144.634 990 144.835C985.2 145.037 983.333 148.104 983 149.613C982.5 150.451 980.1 152.53 974.5 154.139C968.9 155.749 965.333 159.001 964.25 160.426C963.833 160.845 963 162.79 963 167.215ZM882 134.526C883 135.783 888 145.841 898.75 154.139C899.667 154.978 902.05 157.811 904.25 162.438C906.45 167.065 920.167 164.366 926.75 162.438C930.667 160.929 938.5 155.296 938.5 144.835C938.5 131.759 936 128.742 934 124.719C932.4 121.5 926.667 119.857 924 119.438C921.583 120.36 915.1 122.154 908.5 121.953C901.9 121.751 892.417 121.366 888.5 121.198C886.333 121.617 882 123.411 882 127.233C882 131.055 882 133.687 882 134.526ZM942.5 130.251C945.917 134.777 956.7 144.031 972.5 144.835C979.833 144.5 994.7 139.655 995.5 122.958C995.333 116.923 992.15 103.546 980.75 98.3152C966.5 91.7772 960.75 100.578 960.25 101.081C959.75 101.584 960.75 107.368 954.75 112.146C948.75 116.923 943.25 117.426 942.5 122.958C941.9 127.384 942.25 129.664 942.5 130.251ZM1002.25 144.081C1006 150.87 1013.7 166.612 1014.5 175.262C1015.5 186.075 1032.25 183.812 1035.25 181.297C1038.25 178.783 1041.5 173.753 1042.25 170.736C1043 167.718 1042.25 153.637 1039.5 146.596C1036.75 139.555 1034 128.239 1022.25 124.216C1012.85 120.997 1005 132.43 1002.25 138.549C1001.92 139.219 1001.45 141.265 1002.25 144.081ZM1005.5 185.823C1008.08 186.075 1013.25 186.427 1013.25 185.823C1013.25 185.069 1015 184.315 1010.75 179.788C1007.35 176.167 1003.17 178.28 1001.5 179.788C1000.17 180.375 997.8 182.152 999 184.566C1000.2 186.98 1003.83 186.41 1005.5 185.823ZM1050.75 150.619V175.262C1052.25 179.621 1059.1 187.835 1074.5 185.823C1089.9 183.812 1094.08 177.944 1094.25 175.262C1095.33 172.664 1096.85 166.008 1094.25 160.174C1091.65 154.341 1085.17 152.547 1082.25 152.379C1078.08 151.625 1069.3 149.613 1067.5 147.601C1065.7 145.59 1060.08 145.422 1057.5 145.59C1056.08 145.506 1052.75 146.394 1050.75 150.619ZM1098.5 159.42L1108.75 179.788C1110.33 181.297 1114.95 183.409 1120.75 179.788C1126.55 176.167 1132.5 167.551 1134.75 163.695C1136.08 160.174 1137.95 151.625 1134.75 145.59C1131.55 139.555 1126.58 137.208 1124.5 136.789C1122.08 136.705 1115.9 138.348 1110.5 145.59C1108.33 147.182 1103.45 150.569 1101.25 151.373C1099.05 152.178 1098.5 157.073 1098.5 159.42ZM1149.5 146.596C1145.08 149.948 1136.75 160.979 1138.75 178.28C1140.25 181.968 1147.8 187.282 1166 179.034C1167.58 178.196 1170.45 174.659 1169.25 167.215C1167.75 157.911 1160.75 150.368 1160 149.865C1159.25 149.362 1158 145.59 1149.5 146.596ZM1168.75 149.11C1168.67 151.29 1169.5 156.654 1173.5 160.677C1177.5 164.701 1186.33 156.486 1190.25 151.876C1192.58 149.026 1196.55 142.472 1193.75 139.052C1190.95 135.632 1186.92 136.956 1185.25 138.046C1180.83 139.806 1171.35 144.483 1168.75 149.11ZM1206.5 145.841C1212 149.529 1223.45 158.666 1225.25 165.707C1227.05 172.748 1226.5 177.525 1226 179.034C1225.42 181.13 1222.15 185.421 1213.75 185.823C1203.25 186.326 1201.75 186.326 1196 184.818C1190.25 183.309 1184.75 177.022 1184.75 176.519C1184.75 176.017 1181.75 172.748 1184.75 167.215C1187.15 162.79 1197.58 152.128 1202.5 147.35C1202.92 146.847 1204.3 145.841 1206.5 145.841ZM1213.75 140.561C1218.17 148.272 1228.25 164.097 1233.25 165.707C1239.5 167.718 1252.25 168.724 1258 165.707C1263.75 162.689 1266 154.139 1265.75 153.134C1265.5 152.128 1264.25 145.087 1259.75 137.292C1255.25 129.496 1252.25 124.467 1244.75 122.958C1238.75 121.751 1230.25 122.455 1226.75 122.958C1222.83 123.713 1214.65 126.429 1213.25 131.257C1211.85 136.085 1213 139.471 1213.75 140.561ZM1261.5 125.724C1262.92 133.687 1269.55 150.217 1284.75 152.631C1287.25 153.385 1292.65 153.234 1294.25 146.596C1296.05 140.762 1294.33 135.95 1293.25 134.274C1291.17 129.999 1286.85 121.399 1286.25 121.198C1285.5 120.947 1275.25 119.186 1268.75 121.701C1266.33 122.036 1261.5 123.31 1261.5 125.724ZM1239.25 169.981C1242.5 169.981 1249.55 170.535 1251.75 172.748C1254.5 175.514 1255.5 175.765 1258 180.794C1260 184.818 1251.5 183.477 1247 182.303C1243.5 182.135 1236.55 180.895 1236.75 177.274C1236.95 173.653 1236.83 171.742 1236.75 171.239C1237.08 170.809 1238.05 169.955 1239.25 169.981ZM1264.5 168.473L1273 184.315C1273 185.321 1276.45 187.03 1290.25 185.823C1304.05 184.616 1291.83 171.406 1284 164.952C1281.83 163.024 1277.35 159.169 1276.75 159.169C1276 159.169 1267.5 156.906 1264.5 168.473ZM1295 165.707C1299.92 171.49 1310.7 183.108 1314.5 183.309C1319.25 183.56 1319.5 183.812 1321.75 180.04C1324 176.268 1324.25 172.496 1324.25 171.239C1324.25 169.981 1329.5 159.169 1330.25 159.169C1331 159.169 1331.75 149.613 1328 148.859C1324.25 148.104 1319.75 148.356 1318 147.853C1316.25 147.35 1312.5 143.327 1303.75 148.859C1296.75 153.284 1295 161.935 1295 165.707ZM1333.5 180.04C1333.25 181.549 1335.55 184.918 1346.75 186.326C1357.95 187.735 1359.42 187.919 1358.75 187.835H1370.25C1372.67 186.662 1377.6 183.611 1378 180.794C1378.5 177.274 1378.75 169.227 1376.25 167.97C1373.75 166.712 1370 162.689 1359.75 165.707C1351.55 168.121 1344.5 169.73 1342 170.233C1338.5 170.903 1331.9 173.804 1333.5 180.04ZM1376.25 157.408C1377.42 161.599 1380.6 170.987 1384 175.011C1387.4 179.034 1399.25 175.011 1404.75 172.496C1406.75 169.059 1410.15 159.521 1407.75 148.859C1404.75 135.531 1404.25 135.028 1401.5 135.028C1399.3 135.028 1392.58 139.219 1389.5 141.315L1378.75 145.841C1377.08 147.601 1374.25 152.379 1376.25 157.408ZM1422.25 170.233C1428.67 172.496 1440.9 177.777 1438.5 180.794C1436.1 183.812 1432.67 184.734 1431.25 184.818C1425.75 186.075 1414.05 187.584 1411.25 183.56C1407.75 178.531 1407.75 178.783 1409.5 174.005C1411.25 169.227 1414 166.461 1422.25 170.233ZM1331 141.315C1333.17 142.908 1337.6 146.445 1338 147.853C1338.5 149.613 1341.75 157.66 1345.25 159.923C1348.05 161.734 1354.58 160.677 1357.5 159.923C1361.25 157.911 1369.1 153.083 1370.5 149.865C1372.25 145.841 1377.75 141.818 1374.5 131.508C1371.9 123.26 1364.58 120.025 1361.25 119.438C1356.42 118.264 1345.3 116.974 1339.5 121.198C1333.7 125.423 1330.92 129.161 1330.25 130.502C1329.17 132.346 1327.8 137.09 1331 141.315ZM1361.25 109.882L1380.75 128.742C1383.17 131.592 1389.35 135.179 1394.75 126.73C1400.15 118.281 1404.83 111.978 1406.5 109.882C1409.17 105.608 1412.3 94.5433 1403.5 84.4849C1394.7 74.4265 1387 73.4206 1384.25 74.175C1382.33 73.5883 1377.7 74.175 1374.5 81.2159C1370.5 90.017 1370 90.017 1367 94.7948C1364.6 98.617 1362.17 102.422 1361.25 103.847C1360.47 105.105 1359.38 108.072 1361.25 109.882ZM1412.5 101.081C1412 104.266 1411.3 111.441 1412.5 114.66C1413.7 117.879 1419.5 118.348 1422.25 118.181C1425.83 117.091 1432.4 112.749 1430 104.099C1427.6 95.4486 1421.83 93.6213 1419.25 93.7889C1417.22 93.6213 1413.03 94.8451 1412.5 101.081ZM1413.25 25.8946C1406.42 27.0681 1394.45 33.539 1401.25 50.0348C1401.67 51.6274 1402.25 56.9248 1401.25 65.3739C1400.25 73.823 1407.83 74.7617 1411.75 74.175C1415.58 73.4206 1424.5 68.14 1429.5 53.0523C1434.5 37.9647 1434.08 28.6607 1433.25 25.8946C1432.67 24.154 1429.4 21.2646 1421 23.6314C1412.6 25.9983 1412.33 26.1264 1413.25 25.8946ZM1377.75 35.953C1383.58 33.4384 1395.5 32.0302 1396.5 46.5144C1397.75 64.6195 1396.75 62.1049 1382.75 67.637C1379.75 69.1458 1373.15 72.6662 1370.75 74.6779C1367.75 77.1925 1361.25 74.175 1361.25 69.3973C1361.25 65.5751 1359.42 55.3993 1358.5 50.7892C1357.5 48.0231 1357.8 41.9881 1367 39.9764C1376.2 37.9647 1378 36.4559 1377.75 35.953ZM1346.75 50.7892C1349.25 51.7112 1355.45 57.6792 1360.25 74.175C1365.05 90.6708 1356.08 95.9682 1351 96.555C1347.67 97.6447 1339.05 97.41 1331.25 87.7539C1321.5 75.6838 1315.75 70.4031 1329.5 60.0932L1336.25 53.8067C1338.83 51.795 1344.55 48.3752 1346.75 50.7892ZM1330.25 98.3152C1337.58 101.249 1349.7 108.977 1339.5 116.42C1329.3 123.864 1322.92 117.342 1321 113.151C1317.83 111.14 1311.7 104.853 1312.5 95.8006C1310.67 90.6876 1310.1 82.0709 1322.5 88.5083C1323.75 91.442 1327.05 97.5105 1330.25 98.3152ZM1263.5 99.0696C1265.25 107.452 1273 120.192 1290 104.099C1311.25 83.982 1307.75 80.2101 1300 70.1516C1293.8 62.1049 1278.08 68.4752 1271 72.6662C1262.83 74.9294 1249.9 83.3785 1263.5 99.0696ZM1253.75 99.0696C1256.33 100.495 1261.75 104.602 1262.75 109.631C1264 115.917 1262.75 118.684 1252 118.935C1241.25 119.186 1240.75 114.912 1241 108.877C1241.25 102.842 1243.75 98.5667 1249 98.3152C1249.93 98.1476 1252.18 98.0638 1253.75 99.0696ZM1210.75 125.724C1205.75 131.927 1195.45 139.504 1194.25 120.192C1192.75 96.0521 1197.5 102.087 1203.25 96.8065C1207.85 92.5819 1219.33 90.1847 1224.5 89.5141C1230.92 89.8494 1242.05 93.8392 1235.25 107.116C1226.75 123.713 1224.75 116.672 1220.75 119.186C1216.75 121.701 1215.02 121.45 1210.75 125.724ZM1237 73.4206C1243.67 72.2471 1256.2 72.4651 1253 82.7247C1249 95.5491 1243.75 88.5083 1236.25 87.251C1228.75 85.9936 1224.5 82.4732 1224.5 78.1984C1224.5 73.9235 1228.75 73.4206 1230.75 73.4206C1232.75 73.4206 1234.5 74.175 1237 73.4206ZM1195.25 65.8768C1206.33 61.0152 1225.65 57.5786 1214.25 82.7247C1207.08 93.1184 1189.75 108.172 1177.75 85.2393C1175.5 79.7071 1173.85 68.492 1185.25 67.8885C1187.75 67.8885 1193.25 67.4862 1195.25 65.8768ZM1311.75 112.648C1316.83 114.912 1325.1 122.053 1317.5 132.514C1308 145.59 1295.75 143.83 1298 129.748C1298.08 127.233 1297.85 121.299 1296.25 117.678C1294.25 113.151 1299.25 107.368 1305.5 109.631C1310.5 111.441 1311.75 112.397 1311.75 112.648ZM1290.25 21.6198C1298.08 15.92 1312.05 10.6561 1305.25 35.1986C1296.75 65.8768 1293.75 61.602 1282.75 61.3505C1273.95 61.1494 1274.75 40.8146 1276.25 30.6723C1277.25 29.5827 1280.35 27.001 1284.75 25.3917C1289.15 23.7823 1290.25 22.2065 1290.25 21.6198ZM1245 28.894C1255.08 23.5356 1273.95 18.5519 1268.75 41.4851C1268 43.9159 1266.3 50.4874 1265.5 57.3272C1264.5 65.8768 1246.5 68.14 1241.75 69.1458C1237 70.1516 1229 61.3505 1226.75 54.0582C1224.5 46.7658 1223.75 39.7249 1232.75 35.1986C1239.95 31.5776 1243.92 29.4868 1245 28.894ZM1209.75 18.0993C1216.33 23.5476 1225.8 37.9144 1211 51.795C1192.5 69.1458 1186.75 59.8418 1186 57.8301C1185.4 56.2207 1178.42 44.9218 1175 39.4735C1171.58 34.0251 1165.15 25.7437 1176.75 18.0993C1180.58 12.5672 1189.45 2.05614 1194.25 4.26899C1200.25 7.03505 1206.25 4.77191 1209.75 8.54382C1208.42 10.3416 1206.55 14.7697 1209.75 18.0993ZM1163.25 140.561C1173.5 141.818 1189.25 135.531 1189.25 123.964C1190.25 112.648 1190.25 110.637 1180.75 105.356C1177.42 104.686 1170 102.489 1167 99.0696C1163.25 94.7948 1154.25 94.5433 1153 103.093C1151.75 111.643 1151.75 116.672 1146.5 123.964C1141.25 131.257 1144 140.402 1155 140.561C1163.8 140.687 1164.17 140.613 1163.25 140.561ZM1172.25 67.8885C1172.25 77.1925 1177.75 89.5141 1153 91.0229C1144.58 91.6934 1127.7 89.5141 1127.5 75.4323C1126.83 63.741 1121.42 45.5433 1140 47.2687L1156.5 48.0231C1162.5 48.1069 1174.05 52.1974 1172.25 67.8885ZM1156.5 37.4618C1151.58 42.1557 1141.9 47.4699 1142.5 31.1753C1142.42 26.9843 1144.2 18.6525 1152 18.8537C1161.75 19.1052 1161.5 20.8654 1161 25.6431C1160.5 30.4209 1161.75 31.4267 1156.5 37.4618ZM1048.75 24.6373C1051.08 29.4989 1054.6 40.5799 1050 46.0114C1044.25 52.8009 1034.5 51.5436 1029.75 46.0114C1025.95 41.5857 1020.5 36.6236 1018.25 34.6957C1015.25 32.9355 1010.9 27.2525 1017.5 18.6022C1024.1 9.952 1028.92 8.29236 1030.5 8.54382C1034.08 7.95708 1042.75 10.3543 1048.75 24.6373ZM1117 83.982C1111 95.0462 1095.7 110.888 1082.5 85.7422C1075.92 75.0132 1061.8 52.4488 1058 48.0231C1054.2 43.5974 1059.42 36.1207 1062.5 32.9355C1064.83 29.6665 1072.55 25.5425 1084.75 35.1986C1100 47.2687 1112.75 43.2454 1117 51.0406C1121.25 58.8359 1124 68.14 1117 83.982ZM1113.5 98.3152C1120 93.3698 1135 86.5972 1143 99.0696C1151 111.542 1143 118.935 1139.5 123.21C1137.17 126.395 1131.3 132.916 1126.5 133.52C1120.5 134.274 1116 135.531 1116.25 129.999C1116.45 125.574 1109 119.941 1105.25 117.678C1102.5 116.169 1098.55 111.743 1104.75 106.11C1110.95 100.478 1113.17 98.5667 1113.5 98.3152ZM1083.5 121.701C1086.5 114.157 1092.35 104.35 1102.75 121.45C1107.75 125.976 1115.25 136.94 1105.25 144.584C1095.25 152.228 1086.92 149.781 1084 147.601C1083.5 147.099 1081.05 145.791 1075.25 144.584C1069.45 143.377 1074.67 134.023 1078 129.496C1079.83 127.401 1083.5 122.908 1083.5 121.701ZM1076.75 123.21C1071.17 131.927 1058.15 146.596 1050.75 135.531C1048.42 134.19 1044.35 128.088 1046.75 114.409C1049.15 100.729 1053.08 93.1184 1054.75 91.0229C1055.92 89.5979 1059.6 87.4018 1065 90.017C1070.4 92.6322 1075.08 91.7772 1076.75 91.0229C1078.5 90.6038 1082.3 91.4755 1083.5 98.3152C1084.7 105.155 1079.5 117.761 1076.75 123.21ZM1046 61.8534C1044.5 55.3155 1056.25 47.5202 1059 61.0991C1059.5 61.8534 1058 65.6253 1063.75 69.3973C1069.5 73.1692 1066.5 80.2101 1063 81.7188C1059.5 83.2276 1050.25 87.251 1047.75 81.2159C1045.75 76.3879 1045.42 71.828 1045.5 70.1516L1046 61.8534ZM1019.75 84.4849C1026.92 77.9469 1040.8 70.554 1039 93.286C1036.75 121.701 1025.75 115.917 1018 119.438C1010.25 122.958 1003.75 119.689 1001.25 112.9C998.75 106.11 989.25 99.824 1004.5 94.0404C1019.75 88.2568 1011.5 93.0345 1019.75 84.4849ZM996.25 67.8885C999.5 75.6838 1003.9 86.2451 1023.5 75.1808C1026.08 73.9235 1031.6 71.0569 1033 69.6487C1034.75 67.8885 1045.25 61.3505 1033.5 53.3038C1024.1 46.8664 1018.75 44.7541 1017.25 44.5027C1012.67 43.0777 1002.4 42.0384 998 49.2804C993.6 56.5225 995 64.7033 996.25 67.8885ZM950.75 86.2451C957.417 89.1788 973.3 93.5375 983.5 87.5024C996.25 79.9586 991.75 72.9177 992 67.8885C992.2 63.8651 985.917 55.8184 982.75 52.2979C975.5 41.8204 958.35 27.0513 947.75 51.795C946.25 54.5611 942.65 60.6967 940.25 63.1107C937.25 66.1283 934.75 74.4265 944 81.4674L950.75 86.2451ZM919.75 74.6779C921 80.2101 933 85.4907 932.5 72.1633L931.25 63.6137C930.667 60.5961 927.9 55.7178 921.5 60.3447C913.5 66.1283 915.25 65.3739 917.5 70.906L919.75 74.6779ZM928.5 107.368C927.695 112.732 929.368 121.802 942.5 115.163C958.915 106.865 952.25 94.7948 948.5 93.0345C944.75 91.2743 940 86.2451 932.5 87.251C925 88.2568 925 92.0287 926.25 97.8123C927.25 102.439 928.167 106.11 928.5 107.368ZM875.25 91.5258C875.333 97.3932 878.6 109.631 891 111.643C906.5 114.157 893.25 117.426 909.75 115.163C926.25 112.9 921.5 93.7889 921 93.0345C920.5 92.2802 920.75 69.3973 900.25 79.2042C893.25 82.5529 880.75 80.4615 877.5 85.2393C876.75 85.9098 875.25 88.1059 875.25 91.5258ZM970.75 20.8654C966.5 14.8303 971.75 2.50877 982.75 14.8303C985.167 17.6802 991.3 24.0841 996.5 26.9004C1003 30.4209 1005.5 35.4501 998.75 40.7308C992 46.0114 984.5 47.2687 980 39.222C975.5 31.1753 973.713 36.7074 971.5 26.1461L970.75 20.8654ZM927 41.9881C928.417 46.7658 933.6 54.1588 943 45.5085C952.4 36.8583 956.083 33.1869 956.75 32.4326C966.5 23.8829 966 21.3683 961.75 12.3157C958.667 6.69977 950.15 -1.66548 940.75 9.80112C938.917 14.0759 934.25 23.3297 930.25 26.1461C925.25 29.6665 926.345 40.2278 927 41.9881ZM918.5 35.4501C922 38.2162 925.55 46.967 911.75 59.8418C894.5 75.9352 889.75 74.6779 886 72.1633C883 70.1516 877.583 60.7638 875.25 56.3213C872.75 52.0465 870.2 42.3904 880 37.9647C889.8 33.539 895.25 31.0914 896.75 30.4209C900.917 29.2474 910.3 27.8057 914.5 31.4267C915.644 32.6002 918.046 35.0478 918.5 35.4501ZM854.5 72.1633C861.583 75.1808 875.45 78.8019 874.25 69.1458C874.333 66.1283 874.2 59.9423 873 59.3388C871.5 58.5845 870 54.0582 870.5 51.5436C871 49.029 866 39.222 857.25 39.222C848.5 39.222 846.25 40.4793 843 47.7717C839.75 55.064 833.75 63.6137 845.5 67.8885L854.5 72.1633ZM801 15.8362C804.583 8.46 814.35 -1.86665 824.75 15.8362C837.75 37.9647 835.25 26.3975 836.5 38.4676C837.5 48.1237 827.917 56.0699 823 58.8359C816.417 63.2784 802.8 69.1458 801 57.0757C799.083 52.8009 794.2 43.0945 790 38.4676C784.75 32.684 785.75 27.1519 791.5 23.1285C794.087 21.7036 799.609 18.2502 801 15.8362ZM835.25 66.3797C840.75 68.9782 848.45 74.9797 835.25 78.1984C832.583 80.0424 826.4 81.8194 823 74.175C821.583 71.9119 819.6 66.8324 823 64.6195C827.25 61.8534 828.75 59.3388 835.25 66.3797ZM821.75 91.0229C823.167 86.1613 822.5 75.5832 808.5 72.1633C791 67.8885 794.75 55.8184 786.5 72.1633C784 76.7734 780 87.1001 784 91.5258C789 97.0579 799.25 102.339 799.75 102.59C800.25 102.842 817.31 113.906 819.75 99.824L821.75 91.0229ZM806.5 129.748C811 123.377 814.95 110.637 794.75 110.637C792.167 110.469 788.038 105.806 782.25 104.35C775.25 102.59 763.25 103.344 765.5 114.409C766.5 122.036 770.55 137.493 778.75 138.297C789 139.303 791.25 140.812 797 138.297C801.6 136.286 805.25 131.759 806.5 129.748ZM755 140.058C761 140.141 771.5 137.795 765.5 127.736C759.5 117.678 757.5 112.481 757.25 111.14C752.583 107.2 741.85 101.584 736.25 110.637C729.25 121.953 732 124.216 736.25 129.748C740.5 135.28 743 141.818 749 140.058C753.8 138.649 755 139.471 755 140.058ZM725.25 140.058C726 135.531 729.25 129.195 736.25 140.058C743.25 150.921 737.667 151.96 734 151.122C730.333 150.284 723.45 146.897 725.25 140.058ZM758.25 100.327C762.583 101.165 770.164 99.575 775 90.2685C780.75 79.2042 778 62.1049 763.5 68.3914C761.667 70.7384 757.1 75.8849 753.5 77.6955C749 79.9586 746.75 88.0053 747 91.5258C747.25 95.0462 746.5 97.8123 750.75 99.0696C753 99.2372 757.65 99.7234 758.25 100.327ZM778.25 47.2687C784 43.7483 794.5 42.7424 789 55.5669C787.583 59.3388 783.05 65.9774 776.25 62.3564C767.75 57.8301 770 55.3155 772.75 51.5436L778.25 47.2687ZM772.5 21.6198C777.583 24.1344 785.3 32.0805 775.5 43.7483L766.5 53.8067C762.75 57.3272 753.8 62.0043 748 52.5494C740.75 40.7308 743 36.2045 746.5 33.1869C750 30.1694 754.5 25.6431 756 21.3683C757.2 17.9484 767.5 20.111 772.5 21.6198ZM1096 28.894C1101.67 36.0248 1115.7 47.7214 1126.5 37.4618C1140 24.6373 1143 29.6665 1131.25 18.0993C1119.5 6.53213 1133.5 4.01753 1110.5 4.26899C1087.5 4.52045 1064.5 3.76607 1073.5 12.3157C1082.5 20.8654 1087.75 20.8654 1089.25 20.8654C1090.45 20.8654 1094.25 26.2178 1096 28.894ZM1057.5 24.6373C1064.17 25.3917 1076.7 25.6934 1073.5 20.8654C1069.5 14.8303 1067.25 5.52629 1057.5 7.03505C1047.75 8.54382 1045.25 10.5555 1050 18.0993C1053.8 24.1344 1056.58 24.9726 1057.5 24.6373ZM1167 14.8303C1175 12.1481 1186.35 6.53213 1167.75 5.52629C1144.5 4.26899 1136 2.2573 1139.5 8.54382C1143 14.8303 1145 14.8303 1153 14.8303C1159.4 14.8303 1165 14.8303 1167 14.8303ZM1276.25 7.03505C1282.65 9.04674 1291.6 14.2268 1276.25 18.8537C1260.9 23.4806 1239.52 24.6373 1230.75 24.6373C1225.5 23.7153 1215.8 19.9601 1219 12.3157C1222.2 4.67133 1229.5 2.76023 1232.75 2.76023C1241.25 2.34113 1259.3 2.05614 1263.5 4.26899C1267.7 6.48184 1273.75 7.03505 1276.25 7.03505ZM1316 21.6198C1311.23 15.8362 1303.65 4.26899 1311.5 4.26899C1321.32 4.26899 1346.75 4.77191 1346.75 8.54382L1355.75 16.0876C1362.95 22.1227 1352.75 24.8049 1346.75 25.3917C1344.75 28.4092 1325.42 24.1344 1316 21.6198ZM994 14.8303C995.333 18.8537 999.45 25.6934 1005.25 20.8654C1012.5 14.8303 1005.92 12.8186 1016.25 11.3099C1026.58 9.80112 1020 1.25146 1010.25 3.51461C1003.25 2.50877 989.05 1.10059 988.25 3.51461C987.45 5.92863 991.75 12.0643 994 14.8303ZM928.25 20.8654C925.917 24.8887 919.6 30.5215 913 20.8654C904.75 8.79528 922.75 3.26315 927 4.01753C931.25 4.77191 937.25 9.54966 934.25 14.0759L928.25 20.8654ZM884.25 30.4209C871.5 32.7678 850.2 30.9238 867 4.77191C868 3.09551 875.55 0.748542 897.75 4.77191C903.333 5.10719 912.6 8.24206 905 18.0993C903.583 21.1168 899.75 27.2022 895.75 27.4034C891.75 27.6045 886.417 29.4989 884.25 30.4209ZM847.5 33.9413C852.917 34.6957 862.45 34.4442 857.25 27.4034C852.05 20.3625 855.083 12.7348 857.25 9.80112C853.917 5.19101 845.45 -1.81636 838.25 7.03505C831.05 15.8865 835.25 22.458 838.25 24.6373L847.5 33.9413ZM824.75 9.80112C826.083 13.1539 829.25 18.3508 831.25 12.3157C832.083 10.304 834.2 6.0795 836 5.27483C838.25 4.26899 834.25 -0.00583959 828 3.51461C821.75 7.03505 823 4.52045 824.75 9.80112ZM772.75 14.3274C776 18.4346 784.95 23.7823 794.75 12.3157C804.55 0.849126 786.5 1.67056 776.25 3.51461C771.333 3.68225 763.75 6.0795 772.75 14.3274ZM734.75 30.6723C736.25 33.3546 740.7 36.8583 746.5 29.415C752.3 21.9718 754.75 17.2611 755.25 15.8362C758.333 11.9804 757.5 6.53213 750 5.77775C744.25 3.59843 732.95 0.547374 733.75 5.77775C734.75 12.3157 729.75 12.5672 731.75 21.6198L734.75 30.6723ZM1351.25 41.9881C1346.5 43.0777 1338.25 42.6922 1343.25 32.4326C1348.25 22.173 1358.83 27.4872 1363.5 31.4267C1365.25 32.9355 1365.25 37.16 1351.25 41.9881ZM1374.5 27.9063C1367.5 22.458 1355.05 10.5052 1361.25 6.28067C1367.45 2.05614 1390.5 3.17933 1401.25 4.26899C1408 10.1364 1416.95 22.5753 1398.75 25.3917C1393.58 27.6548 1381.5 31.3261 1374.5 27.9063Z" stroke="white" stroke-linecap="round"/>
<path d="M2041.25 28.9121C2041.27 28.9061 2041.29 28.9 2041.32 28.894M2041.32 28.894C2048.91 26.8686 2061.93 27.123 2053.75 44.2512L2047 55.5669C2041.67 62.3564 2030.55 71.1072 2028.75 51.795C2028.42 48.526 2028.5 40.9822 2031.5 36.9589C2033.79 34.3484 2038.97 29.0807 2041.32 28.894ZM1441 58.5845C1446.58 62.0211 1458.15 68.8943 1459.75 68.8943C1464.75 69.3973 1473.3 68.3914 1467.5 60.3447C1461.7 52.2979 1459.58 48.9451 1459.25 48.2746L1453.75 40.7308C1452.42 38.8867 1449.5 35.1986 1448.5 35.1986C1447.25 35.1986 1442.29 34.9064 1441.5 35.7016L1441 36.7074M1441 65.3739C1445.92 66.7988 1456.45 71.5598 1459.25 79.2042C1462.05 86.8486 1461.75 91.1067 1461.25 92.2802L1453.25 104.602C1452 107.619 1447.8 113.453 1441 112.648M1441 144.332C1443.17 148.021 1447.45 156.755 1447.25 162.186C1447.05 167.618 1443 170.484 1441 171.239M2161 36.7074C2158.5 38.7191 2153.7 44.1506 2154.5 49.7833C2155.25 51.8788 2157.6 56.5728 2161 58.5845M2161 65.3739C2158.33 64.6195 2151.8 63.6137 2147 67.637C2141 72.6662 2140.5 79.9586 2145.25 84.2334C2149.05 87.6533 2151.33 95.8844 2152 99.5725C2152.92 101.752 2155.15 106.613 2156.75 108.625C2158.35 110.637 2160.25 112.397 2161 112.648M2161 171.239L2157.25 171.742C2154.5 171.742 2146.85 170.283 2138.25 164.449C2129.65 158.615 2130.5 149.948 2132 146.344C2133.17 145.003 2135.25 140.561 2134.25 133.52C2133.25 126.479 2140 122.707 2143.5 121.701C2147.75 119.857 2157.2 117.778 2161 124.216V131.508C2158.8 136.336 2160.08 142.405 2161 144.332M1441 188.087H2161M2161 1H1441M2161 3.51461C2159.92 3.59843 2157.3 3.96724 2155.5 4.77191C2153.7 5.57658 2150.08 5.10719 2148.5 4.77191C2144.42 3.26315 2135.3 1.35205 2131.5 5.77775C2126.75 11.3099 2136.25 23.1285 2138 21.8712C2139.4 20.8654 2148.75 20.9492 2153.25 21.1168C2155 21.5359 2159 21.318 2161 17.0935M1441 3.51461C1443.17 3.17933 1447.4 3.01169 1447 5.02337C1446.6 7.03505 1442.83 13.9083 1441 17.0935M1453.25 181.046C1456.58 184.147 1467.35 188.237 1483.75 179.788C1487.75 177.022 1494.7 169.177 1490.5 159.923C1489.17 155.229 1484.65 145.791 1477.25 145.59C1474.92 145.171 1468.95 145.539 1463.75 150.368C1457.25 156.403 1452.75 165.204 1451.75 173.502C1451.5 175.094 1451.45 178.833 1453.25 181.046ZM1497.5 149.613L1497.25 172.999C1498 175.933 1500.9 181.297 1506.5 179.285C1513.5 176.771 1515.5 175.765 1522 165.958C1522.83 163.36 1522.85 156.805 1516.25 151.373C1509.65 145.942 1505.33 144.919 1504 145.087C1502.58 144.752 1499.3 145.187 1497.5 149.613ZM1523.5 186.326C1525.17 186.913 1530.05 187.735 1536.25 186.326C1542.45 184.918 1544.83 181.046 1545.25 179.285C1544.33 176.603 1539.65 170.786 1528.25 168.976C1526.92 168.808 1523.95 170.032 1522.75 176.268C1521.55 182.504 1522.75 185.572 1523.5 186.326ZM1526.5 155.145C1527.92 158.414 1532.8 165.455 1541 167.467C1549.2 169.479 1556.75 165.455 1559.5 163.192C1562.42 161.516 1568.25 157.76 1568.25 156.151C1568.25 154.139 1565.25 150.116 1565 149.613C1564.8 149.211 1557.42 141.734 1553.75 138.046C1550.58 135.364 1542.65 129.949 1536.25 129.748C1529.85 129.547 1526.75 135.364 1526 138.297C1525.17 140.058 1524.1 145.892 1526.5 155.145ZM1577.75 162.438C1573.75 164.03 1565 169.479 1562 178.531C1561.17 180.543 1560.6 184.918 1565 186.326C1569.4 187.735 1579 185.404 1583.25 184.063C1585.83 182.638 1590.85 177.777 1590.25 169.73C1589.25 167.048 1585.35 161.834 1577.75 162.438ZM1568.25 138.297C1570 144.835 1577.15 158.263 1591.75 159.672C1610 161.432 1600 138.549 1593.75 134.526C1584.75 133.771 1567.05 133.469 1568.25 138.297ZM1544.25 121.953C1544.5 122.707 1550.25 131.759 1568.25 129.748C1586.25 127.736 1589 124.97 1589.75 123.964C1590.5 122.958 1593.5 119.438 1590.5 103.093C1587.5 86.748 1581 82.2217 1577.25 80.4615C1573.5 78.7013 1554.75 82.9761 1551.25 91.0229C1547.75 99.0696 1543.25 105.608 1544.25 121.953ZM1597 182.554C1598 182.554 1600.4 182.856 1602 184.063C1604 185.572 1603.5 185.572 1606 185.572C1608.5 185.572 1614.25 186.075 1616.25 185.572C1618.25 185.069 1627.25 182.554 1628.5 180.04C1629.75 177.525 1630 175.514 1627 171.742C1624 167.97 1617.5 161.18 1613.75 160.426C1610 159.672 1609.5 159.672 1607.25 161.432C1605 163.192 1597.5 170.987 1597 172.496C1596.5 174.005 1595.25 174.508 1595.25 179.285C1595.25 183.108 1596.42 183.057 1597 182.554ZM1641.25 186.326C1646.42 186.997 1657.75 187.785 1661.75 185.572C1666.75 182.806 1669.25 181.549 1669 175.262C1668.8 170.233 1649.58 170.82 1640 171.742C1638.33 172.328 1634.85 174.558 1634.25 178.783C1633.65 183.007 1638.67 185.572 1641.25 186.326ZM1660 163.695C1661.83 165.204 1666.05 168.221 1668.25 168.221C1671 168.221 1677.75 168.221 1679.75 160.426C1681.35 154.19 1677.08 148.775 1674.75 146.847C1672.92 144.919 1667.9 142.623 1662.5 148.859C1662.25 149.529 1661.75 151.927 1661.75 156.151C1661.5 156.906 1660.9 158.716 1660.5 159.923C1660.1 161.13 1660 162.941 1660 163.695ZM1683 167.215C1684.25 172.999 1688.85 184.365 1697.25 183.56C1705.65 182.756 1711.42 180.04 1713.25 178.783C1716.42 177.609 1722.85 173.2 1723.25 164.952C1723.65 156.704 1720.58 150.787 1719 148.859C1718 147.434 1714.8 144.634 1710 144.835C1705.2 145.037 1703.33 148.104 1703 149.613C1702.5 150.451 1700.1 152.53 1694.5 154.139C1688.9 155.749 1685.33 159.001 1684.25 160.426C1683.83 160.845 1683 162.79 1683 167.215ZM1602 134.526C1603 135.783 1608 145.841 1618.75 154.139C1619.67 154.978 1622.05 157.811 1624.25 162.438C1626.45 167.065 1640.17 164.366 1646.75 162.438C1650.67 160.929 1658.5 155.296 1658.5 144.835C1658.5 131.759 1656 128.742 1654 124.719C1652.4 121.5 1646.67 119.857 1644 119.438C1641.58 120.36 1635.1 122.154 1628.5 121.953C1621.9 121.751 1612.42 121.366 1608.5 121.198C1606.33 121.617 1602 123.411 1602 127.233C1602 131.055 1602 133.687 1602 134.526ZM1662.5 130.251C1665.92 134.777 1676.7 144.031 1692.5 144.835C1699.83 144.5 1714.7 139.655 1715.5 122.958C1715.33 116.923 1712.15 103.546 1700.75 98.3152C1686.5 91.7772 1680.75 100.578 1680.25 101.081C1679.75 101.584 1680.75 107.368 1674.75 112.146C1668.75 116.923 1663.25 117.426 1662.5 122.958C1661.9 127.384 1662.25 129.664 1662.5 130.251ZM1722.25 144.081C1726 150.87 1733.7 166.612 1734.5 175.262C1735.5 186.075 1752.25 183.812 1755.25 181.297C1758.25 178.783 1761.5 173.753 1762.25 170.736C1763 167.718 1762.25 153.637 1759.5 146.596C1756.75 139.555 1754 128.239 1742.25 124.216C1732.85 120.997 1725 132.43 1722.25 138.549C1721.92 139.219 1721.45 141.265 1722.25 144.081ZM1725.5 185.823C1728.08 186.075 1733.25 186.427 1733.25 185.823C1733.25 185.069 1735 184.315 1730.75 179.788C1727.35 176.167 1723.17 178.28 1721.5 179.788C1720.17 180.375 1717.8 182.152 1719 184.566C1720.2 186.98 1723.83 186.41 1725.5 185.823ZM1770.75 150.619V175.262C1772.25 179.621 1779.1 187.835 1794.5 185.823C1809.9 183.812 1814.08 177.944 1814.25 175.262C1815.33 172.664 1816.85 166.008 1814.25 160.174C1811.65 154.341 1805.17 152.547 1802.25 152.379C1798.08 151.625 1789.3 149.613 1787.5 147.601C1785.7 145.59 1780.08 145.422 1777.5 145.59C1776.08 145.506 1772.75 146.394 1770.75 150.619ZM1818.5 159.42L1828.75 179.788C1830.33 181.297 1834.95 183.409 1840.75 179.788C1846.55 176.167 1852.5 167.551 1854.75 163.695C1856.08 160.174 1857.95 151.625 1854.75 145.59C1851.55 139.555 1846.58 137.208 1844.5 136.789C1842.08 136.705 1835.9 138.348 1830.5 145.59C1828.33 147.182 1823.45 150.569 1821.25 151.373C1819.05 152.178 1818.5 157.073 1818.5 159.42ZM1869.5 146.596C1865.08 149.948 1856.75 160.979 1858.75 178.28C1860.25 181.968 1867.8 187.282 1886 179.034C1887.58 178.196 1890.45 174.659 1889.25 167.215C1887.75 157.911 1880.75 150.368 1880 149.865C1879.25 149.362 1878 145.59 1869.5 146.596ZM1888.75 149.11C1888.67 151.29 1889.5 156.654 1893.5 160.677C1897.5 164.701 1906.33 156.486 1910.25 151.876C1912.58 149.026 1916.55 142.472 1913.75 139.052C1910.95 135.632 1906.92 136.956 1905.25 138.046C1900.83 139.806 1891.35 144.483 1888.75 149.11ZM1926.5 145.841C1932 149.529 1943.45 158.666 1945.25 165.707C1947.05 172.748 1946.5 177.525 1946 179.034C1945.42 181.13 1942.15 185.421 1933.75 185.823C1923.25 186.326 1921.75 186.326 1916 184.818C1910.25 183.309 1904.75 177.022 1904.75 176.519C1904.75 176.017 1901.75 172.748 1904.75 167.215C1907.15 162.79 1917.58 152.128 1922.5 147.35C1922.92 146.847 1924.3 145.841 1926.5 145.841ZM1933.75 140.561C1938.17 148.272 1948.25 164.097 1953.25 165.707C1959.5 167.718 1972.25 168.724 1978 165.707C1983.75 162.689 1986 154.139 1985.75 153.134C1985.5 152.128 1984.25 145.087 1979.75 137.292C1975.25 129.496 1972.25 124.467 1964.75 122.958C1958.75 121.751 1950.25 122.455 1946.75 122.958C1942.83 123.713 1934.65 126.429 1933.25 131.257C1931.85 136.085 1933 139.471 1933.75 140.561ZM1981.5 125.724C1982.92 133.687 1989.55 150.217 2004.75 152.631C2007.25 153.385 2012.65 153.234 2014.25 146.596C2016.05 140.762 2014.33 135.95 2013.25 134.274C2011.17 129.999 2006.85 121.399 2006.25 121.198C2005.5 120.947 1995.25 119.186 1988.75 121.701C1986.33 122.036 1981.5 123.31 1981.5 125.724ZM1959.25 169.981C1962.5 169.981 1969.55 170.535 1971.75 172.748C1974.5 175.514 1975.5 175.765 1978 180.794C1980 184.818 1971.5 183.477 1967 182.303C1963.5 182.135 1956.55 180.895 1956.75 177.274C1956.95 173.653 1956.83 171.742 1956.75 171.239C1957.08 170.809 1958.05 169.955 1959.25 169.981ZM1984.5 168.473L1993 184.315C1993 185.321 1996.45 187.03 2010.25 185.823C2024.05 184.616 2011.83 171.406 2004 164.952C2001.83 163.024 1997.35 159.169 1996.75 159.169C1996 159.169 1987.5 156.906 1984.5 168.473ZM2015 165.707C2019.92 171.49 2030.7 183.108 2034.5 183.309C2039.25 183.56 2039.5 183.812 2041.75 180.04C2044 176.268 2044.25 172.496 2044.25 171.239C2044.25 169.981 2049.5 159.169 2050.25 159.169C2051 159.169 2051.75 149.613 2048 148.859C2044.25 148.104 2039.75 148.356 2038 147.853C2036.25 147.35 2032.5 143.327 2023.75 148.859C2016.75 153.284 2015 161.935 2015 165.707ZM2053.5 180.04C2053.25 181.549 2055.55 184.918 2066.75 186.326C2077.95 187.735 2079.42 187.919 2078.75 187.835H2090.25C2092.67 186.662 2097.6 183.611 2098 180.794C2098.5 177.274 2098.75 169.227 2096.25 167.97C2093.75 166.712 2090 162.689 2079.75 165.707C2071.55 168.121 2064.5 169.73 2062 170.233C2058.5 170.903 2051.9 173.804 2053.5 180.04ZM2096.25 157.408C2097.42 161.599 2100.6 170.987 2104 175.011C2107.4 179.034 2119.25 175.011 2124.75 172.496C2126.75 169.059 2130.15 159.521 2127.75 148.859C2124.75 135.531 2124.25 135.028 2121.5 135.028C2119.3 135.028 2112.58 139.219 2109.5 141.315L2098.75 145.841C2097.08 147.601 2094.25 152.379 2096.25 157.408ZM2142.25 170.233C2148.67 172.496 2160.9 177.777 2158.5 180.794C2156.1 183.812 2152.67 184.734 2151.25 184.818C2145.75 186.075 2134.05 187.584 2131.25 183.56C2127.75 178.531 2127.75 178.783 2129.5 174.005C2131.25 169.227 2134 166.461 2142.25 170.233ZM2051 141.315C2053.17 142.908 2057.6 146.445 2058 147.853C2058.5 149.613 2061.75 157.66 2065.25 159.923C2068.05 161.734 2074.58 160.677 2077.5 159.923C2081.25 157.911 2089.1 153.083 2090.5 149.865C2092.25 145.841 2097.75 141.818 2094.5 131.508C2091.9 123.26 2084.58 120.025 2081.25 119.438C2076.42 118.264 2065.3 116.974 2059.5 121.198C2053.7 125.423 2050.92 129.161 2050.25 130.502C2049.17 132.346 2047.8 137.09 2051 141.315ZM2081.25 109.882L2100.75 128.742C2103.17 131.592 2109.35 135.179 2114.75 126.73C2120.15 118.281 2124.83 111.978 2126.5 109.882C2129.17 105.608 2132.3 94.5433 2123.5 84.4849C2114.7 74.4265 2107 73.4206 2104.25 74.175C2102.33 73.5883 2097.7 74.175 2094.5 81.2159C2090.5 90.017 2090 90.017 2087 94.7948C2084.6 98.617 2082.17 102.422 2081.25 103.847C2080.47 105.105 2079.38 108.072 2081.25 109.882ZM2132.5 101.081C2132 104.266 2131.3 111.441 2132.5 114.66C2133.7 117.879 2139.5 118.348 2142.25 118.181C2145.83 117.091 2152.4 112.749 2150 104.099C2147.6 95.4486 2141.83 93.6213 2139.25 93.7889C2137.22 93.6213 2133.03 94.8451 2132.5 101.081ZM2133.25 25.8946C2126.42 27.0681 2114.45 33.539 2121.25 50.0348C2121.67 51.6274 2122.25 56.9248 2121.25 65.3739C2120.25 73.823 2127.83 74.7617 2131.75 74.175C2135.58 73.4206 2144.5 68.14 2149.5 53.0523C2154.5 37.9647 2154.08 28.6607 2153.25 25.8946C2152.67 24.154 2149.4 21.2646 2141 23.6314C2132.6 25.9983 2132.33 26.1264 2133.25 25.8946ZM2097.75 35.953C2103.58 33.4384 2115.5 32.0302 2116.5 46.5144C2117.75 64.6195 2116.75 62.1049 2102.75 67.637C2099.75 69.1458 2093.15 72.6662 2090.75 74.6779C2087.75 77.1925 2081.25 74.175 2081.25 69.3973C2081.25 65.5751 2079.42 55.3993 2078.5 50.7892C2077.5 48.0231 2077.8 41.9881 2087 39.9764C2096.2 37.9647 2098 36.4559 2097.75 35.953ZM2066.75 50.7892C2069.25 51.7112 2075.45 57.6792 2080.25 74.175C2085.05 90.6708 2076.08 95.9682 2071 96.555C2067.67 97.6447 2059.05 97.41 2051.25 87.7539C2041.5 75.6838 2035.75 70.4031 2049.5 60.0932L2056.25 53.8067C2058.83 51.795 2064.55 48.3752 2066.75 50.7892ZM2050.25 98.3152C2057.58 101.249 2069.7 108.977 2059.5 116.42C2049.3 123.864 2042.92 117.342 2041 113.151C2037.83 111.14 2031.7 104.853 2032.5 95.8006C2030.67 90.6876 2030.1 82.0709 2042.5 88.5083C2043.75 91.442 2047.05 97.5105 2050.25 98.3152ZM1983.5 99.0696C1985.25 107.452 1993 120.192 2010 104.099C2031.25 83.982 2027.75 80.2101 2020 70.1516C2013.8 62.1049 1998.08 68.4752 1991 72.6662C1982.83 74.9294 1969.9 83.3785 1983.5 99.0696ZM1973.75 99.0696C1976.33 100.495 1981.75 104.602 1982.75 109.631C1984 115.917 1982.75 118.684 1972 118.935C1961.25 119.186 1960.75 114.912 1961 108.877C1961.25 102.842 1963.75 98.5667 1969 98.3152C1969.93 98.1476 1972.18 98.0638 1973.75 99.0696ZM1930.75 125.724C1925.75 131.927 1915.45 139.504 1914.25 120.192C1912.75 96.0521 1917.5 102.087 1923.25 96.8065C1927.85 92.5819 1939.33 90.1847 1944.5 89.5141C1950.92 89.8494 1962.05 93.8392 1955.25 107.116C1946.75 123.713 1944.75 116.672 1940.75 119.186C1936.75 121.701 1935.02 121.45 1930.75 125.724ZM1957 73.4206C1963.67 72.2471 1976.2 72.4651 1973 82.7247C1969 95.5491 1963.75 88.5083 1956.25 87.251C1948.75 85.9936 1944.5 82.4732 1944.5 78.1984C1944.5 73.9235 1948.75 73.4206 1950.75 73.4206C1952.75 73.4206 1954.5 74.175 1957 73.4206ZM1915.25 65.8768C1926.33 61.0152 1945.65 57.5786 1934.25 82.7247C1927.08 93.1184 1909.75 108.172 1897.75 85.2393C1895.5 79.7071 1893.85 68.492 1905.25 67.8885C1907.75 67.8885 1913.25 67.4862 1915.25 65.8768ZM2031.75 112.648C2036.83 114.912 2045.1 122.053 2037.5 132.514C2028 145.59 2015.75 143.83 2018 129.748C2018.08 127.233 2017.85 121.299 2016.25 117.678C2014.25 113.151 2019.25 107.368 2025.5 109.631C2030.5 111.441 2031.75 112.397 2031.75 112.648ZM2010.25 21.6198C2018.08 15.92 2032.05 10.6561 2025.25 35.1986C2016.75 65.8768 2013.75 61.602 2002.75 61.3505C1993.95 61.1494 1994.75 40.8146 1996.25 30.6723C1997.25 29.5827 2000.35 27.001 2004.75 25.3917C2009.15 23.7823 2010.25 22.2065 2010.25 21.6198ZM1965 28.894C1975.08 23.5356 1993.95 18.5519 1988.75 41.4851C1988 43.9159 1986.3 50.4874 1985.5 57.3272C1984.5 65.8768 1966.5 68.14 1961.75 69.1458C1957 70.1516 1949 61.3505 1946.75 54.0582C1944.5 46.7658 1943.75 39.7249 1952.75 35.1986C1959.95 31.5776 1963.92 29.4868 1965 28.894ZM1929.75 18.0993C1936.33 23.5476 1945.8 37.9144 1931 51.795C1912.5 69.1458 1906.75 59.8418 1906 57.8301C1905.4 56.2207 1898.42 44.9218 1895 39.4735C1891.58 34.0251 1885.15 25.7437 1896.75 18.0993C1900.58 12.5672 1909.45 2.05614 1914.25 4.26899C1920.25 7.03505 1926.25 4.77191 1929.75 8.54382C1928.42 10.3416 1926.55 14.7697 1929.75 18.0993ZM1883.25 140.561C1893.5 141.818 1909.25 135.531 1909.25 123.964C1910.25 112.648 1910.25 110.637 1900.75 105.356C1897.42 104.686 1890 102.489 1887 99.0696C1883.25 94.7948 1874.25 94.5433 1873 103.093C1871.75 111.643 1871.75 116.672 1866.5 123.964C1861.25 131.257 1864 140.402 1875 140.561C1883.8 140.687 1884.17 140.613 1883.25 140.561ZM1892.25 67.8885C1892.25 77.1925 1897.75 89.5141 1873 91.0229C1864.58 91.6934 1847.7 89.5141 1847.5 75.4323C1846.83 63.741 1841.42 45.5433 1860 47.2687L1876.5 48.0231C1882.5 48.1069 1894.05 52.1974 1892.25 67.8885ZM1876.5 37.4618C1871.58 42.1557 1861.9 47.4699 1862.5 31.1753C1862.42 26.9843 1864.2 18.6525 1872 18.8537C1881.75 19.1052 1881.5 20.8654 1881 25.6431C1880.5 30.4209 1881.75 31.4267 1876.5 37.4618ZM1768.75 24.6373C1771.08 29.4989 1774.6 40.5799 1770 46.0114C1764.25 52.8009 1754.5 51.5436 1749.75 46.0114C1745.95 41.5857 1740.5 36.6236 1738.25 34.6957C1735.25 32.9355 1730.9 27.2525 1737.5 18.6022C1744.1 9.952 1748.92 8.29236 1750.5 8.54382C1754.08 7.95708 1762.75 10.3543 1768.75 24.6373ZM1837 83.982C1831 95.0462 1815.7 110.888 1802.5 85.7422C1795.92 75.0132 1781.8 52.4488 1778 48.0231C1774.2 43.5974 1779.42 36.1207 1782.5 32.9355C1784.83 29.6665 1792.55 25.5425 1804.75 35.1986C1820 47.2687 1832.75 43.2454 1837 51.0406C1841.25 58.8359 1844 68.14 1837 83.982ZM1833.5 98.3152C1840 93.3698 1855 86.5972 1863 99.0696C1871 111.542 1863 118.935 1859.5 123.21C1857.17 126.395 1851.3 132.916 1846.5 133.52C1840.5 134.274 1836 135.531 1836.25 129.999C1836.45 125.574 1829 119.941 1825.25 117.678C1822.5 116.169 1818.55 111.743 1824.75 106.11C1830.95 100.478 1833.17 98.5667 1833.5 98.3152ZM1803.5 121.701C1806.5 114.157 1812.35 104.35 1822.75 121.45C1827.75 125.976 1835.25 136.94 1825.25 144.584C1815.25 152.228 1806.92 149.781 1804 147.601C1803.5 147.099 1801.05 145.791 1795.25 144.584C1789.45 143.377 1794.67 134.023 1798 129.496C1799.83 127.401 1803.5 122.908 1803.5 121.701ZM1796.75 123.21C1791.17 131.927 1778.15 146.596 1770.75 135.531C1768.42 134.19 1764.35 128.088 1766.75 114.409C1769.15 100.729 1773.08 93.1184 1774.75 91.0229C1775.92 89.5979 1779.6 87.4018 1785 90.017C1790.4 92.6322 1795.08 91.7772 1796.75 91.0229C1798.5 90.6038 1802.3 91.4755 1803.5 98.3152C1804.7 105.155 1799.5 117.761 1796.75 123.21ZM1766 61.8534C1764.5 55.3155 1776.25 47.5202 1779 61.0991C1779.5 61.8534 1778 65.6253 1783.75 69.3973C1789.5 73.1692 1786.5 80.2101 1783 81.7188C1779.5 83.2276 1770.25 87.251 1767.75 81.2159C1765.75 76.3879 1765.42 71.828 1765.5 70.1516L1766 61.8534ZM1739.75 84.4849C1746.92 77.9469 1760.8 70.554 1759 93.286C1756.75 121.701 1745.75 115.917 1738 119.438C1730.25 122.958 1723.75 119.689 1721.25 112.9C1718.75 106.11 1709.25 99.824 1724.5 94.0404C1739.75 88.2568 1731.5 93.0345 1739.75 84.4849ZM1716.25 67.8885C1719.5 75.6838 1723.9 86.2451 1743.5 75.1808C1746.08 73.9235 1751.6 71.0569 1753 69.6487C1754.75 67.8885 1765.25 61.3505 1753.5 53.3038C1744.1 46.8664 1738.75 44.7541 1737.25 44.5027C1732.67 43.0777 1722.4 42.0384 1718 49.2804C1713.6 56.5225 1715 64.7033 1716.25 67.8885ZM1670.75 86.2451C1677.42 89.1788 1693.3 93.5375 1703.5 87.5024C1716.25 79.9586 1711.75 72.9177 1712 67.8885C1712.2 63.8651 1705.92 55.8184 1702.75 52.2979C1695.5 41.8204 1678.35 27.0513 1667.75 51.795C1666.25 54.5611 1662.65 60.6967 1660.25 63.1107C1657.25 66.1283 1654.75 74.4265 1664 81.4674L1670.75 86.2451ZM1639.75 74.6779C1641 80.2101 1653 85.4907 1652.5 72.1633L1651.25 63.6137C1650.67 60.5961 1647.9 55.7178 1641.5 60.3447C1633.5 66.1283 1635.25 65.3739 1637.5 70.906L1639.75 74.6779ZM1648.5 107.368C1647.7 112.732 1649.37 121.802 1662.5 115.163C1678.92 106.865 1672.25 94.7948 1668.5 93.0345C1664.75 91.2743 1660 86.2451 1652.5 87.251C1645 88.2568 1645 92.0287 1646.25 97.8123C1647.25 102.439 1648.17 106.11 1648.5 107.368ZM1595.25 91.5258C1595.33 97.3932 1598.6 109.631 1611 111.643C1626.5 114.157 1613.25 117.426 1629.75 115.163C1646.25 112.9 1641.5 93.7889 1641 93.0345C1640.5 92.2802 1640.75 69.3973 1620.25 79.2042C1613.25 82.5529 1600.75 80.4615 1597.5 85.2393C1596.75 85.9098 1595.25 88.1059 1595.25 91.5258ZM1690.75 20.8654C1686.5 14.8303 1691.75 2.50877 1702.75 14.8303C1705.17 17.6802 1711.3 24.0841 1716.5 26.9004C1723 30.4209 1725.5 35.4501 1718.75 40.7308C1712 46.0114 1704.5 47.2687 1700 39.222C1695.5 31.1753 1693.71 36.7074 1691.5 26.1461L1690.75 20.8654ZM1647 41.9881C1648.42 46.7658 1653.6 54.1588 1663 45.5085C1672.4 36.8583 1676.08 33.1869 1676.75 32.4326C1686.5 23.8829 1686 21.3683 1681.75 12.3157C1678.67 6.69977 1670.15 -1.66548 1660.75 9.80112C1658.92 14.0759 1654.25 23.3297 1650.25 26.1461C1645.25 29.6665 1646.34 40.2278 1647 41.9881ZM1638.5 35.4501C1642 38.2162 1645.55 46.967 1631.75 59.8418C1614.5 75.9352 1609.75 74.6779 1606 72.1633C1603 70.1516 1597.58 60.7638 1595.25 56.3213C1592.75 52.0465 1590.2 42.3904 1600 37.9647C1609.8 33.539 1615.25 31.0914 1616.75 30.4209C1620.92 29.2474 1630.3 27.8057 1634.5 31.4267C1635.64 32.6002 1638.05 35.0478 1638.5 35.4501ZM1574.5 72.1633C1581.58 75.1808 1595.45 78.8019 1594.25 69.1458C1594.33 66.1283 1594.2 59.9423 1593 59.3388C1591.5 58.5845 1590 54.0582 1590.5 51.5436C1591 49.029 1586 39.222 1577.25 39.222C1568.5 39.222 1566.25 40.4793 1563 47.7717C1559.75 55.064 1553.75 63.6137 1565.5 67.8885L1574.5 72.1633ZM1521 15.8362C1524.58 8.46 1534.35 -1.86665 1544.75 15.8362C1557.75 37.9647 1555.25 26.3975 1556.5 38.4676C1557.5 48.1237 1547.92 56.0699 1543 58.8359C1536.42 63.2784 1522.8 69.1458 1521 57.0757C1519.08 52.8009 1514.2 43.0945 1510 38.4676C1504.75 32.684 1505.75 27.1519 1511.5 23.1285C1514.09 21.7036 1519.61 18.2502 1521 15.8362ZM1555.25 66.3797C1560.75 68.9782 1568.45 74.9797 1555.25 78.1984C1552.58 80.0424 1546.4 81.8194 1543 74.175C1541.58 71.9119 1539.6 66.8324 1543 64.6195C1547.25 61.8534 1548.75 59.3388 1555.25 66.3797ZM1541.75 91.0229C1543.17 86.1613 1542.5 75.5832 1528.5 72.1633C1511 67.8885 1514.75 55.8184 1506.5 72.1633C1504 76.7734 1500 87.1001 1504 91.5258C1509 97.0579 1519.25 102.339 1519.75 102.59C1520.25 102.842 1537.31 113.906 1539.75 99.824L1541.75 91.0229ZM1526.5 129.748C1531 123.377 1534.95 110.637 1514.75 110.637C1512.17 110.469 1508.04 105.806 1502.25 104.35C1495.25 102.59 1483.25 103.344 1485.5 114.409C1486.5 122.036 1490.55 137.493 1498.75 138.297C1509 139.303 1511.25 140.812 1517 138.297C1521.6 136.286 1525.25 131.759 1526.5 129.748ZM1475 140.058C1481 140.141 1491.5 137.795 1485.5 127.736C1479.5 117.678 1477.5 112.481 1477.25 111.14C1472.58 107.2 1461.85 101.584 1456.25 110.637C1449.25 121.953 1452 124.216 1456.25 129.748C1460.5 135.28 1463 141.818 1469 140.058C1473.8 138.649 1475 139.471 1475 140.058ZM1445.25 140.058C1446 135.531 1449.25 129.195 1456.25 140.058C1463.25 150.921 1457.67 151.96 1454 151.122C1450.33 150.284 1443.45 146.897 1445.25 140.058ZM1478.25 100.327C1482.58 101.165 1490.16 99.575 1495 90.2685C1500.75 79.2042 1498 62.1049 1483.5 68.3914C1481.67 70.7384 1477.1 75.8849 1473.5 77.6955C1469 79.9586 1466.75 88.0053 1467 91.5258C1467.25 95.0462 1466.5 97.8123 1470.75 99.0696C1473 99.2372 1477.65 99.7234 1478.25 100.327ZM1498.25 47.2687C1504 43.7483 1514.5 42.7424 1509 55.5669C1507.58 59.3388 1503.05 65.9774 1496.25 62.3564C1487.75 57.8301 1490 55.3155 1492.75 51.5436L1498.25 47.2687ZM1492.5 21.6198C1497.58 24.1344 1505.3 32.0805 1495.5 43.7483L1486.5 53.8067C1482.75 57.3272 1473.8 62.0043 1468 52.5494C1460.75 40.7308 1463 36.2045 1466.5 33.1869C1470 30.1694 1474.5 25.6431 1476 21.3683C1477.2 17.9484 1487.5 20.111 1492.5 21.6198ZM1816 28.894C1821.67 36.0248 1835.7 47.7214 1846.5 37.4618C1860 24.6373 1863 29.6665 1851.25 18.0993C1839.5 6.53213 1853.5 4.01753 1830.5 4.26899C1807.5 4.52045 1784.5 3.76607 1793.5 12.3157C1802.5 20.8654 1807.75 20.8654 1809.25 20.8654C1810.45 20.8654 1814.25 26.2178 1816 28.894ZM1777.5 24.6373C1784.17 25.3917 1796.7 25.6934 1793.5 20.8654C1789.5 14.8303 1787.25 5.52629 1777.5 7.03505C1767.75 8.54382 1765.25 10.5555 1770 18.0993C1773.8 24.1344 1776.58 24.9726 1777.5 24.6373ZM1887 14.8303C1895 12.1481 1906.35 6.53213 1887.75 5.52629C1864.5 4.26899 1856 2.2573 1859.5 8.54382C1863 14.8303 1865 14.8303 1873 14.8303C1879.4 14.8303 1885 14.8303 1887 14.8303ZM1996.25 7.03505C2002.65 9.04674 2011.6 14.2268 1996.25 18.8537C1980.9 23.4806 1959.52 24.6373 1950.75 24.6373C1945.5 23.7153 1935.8 19.9601 1939 12.3157C1942.2 4.67133 1949.5 2.76023 1952.75 2.76023C1961.25 2.34113 1979.3 2.05614 1983.5 4.26899C1987.7 6.48184 1993.75 7.03505 1996.25 7.03505ZM2036 21.6198C2031.23 15.8362 2023.65 4.26899 2031.5 4.26899C2041.32 4.26899 2066.75 4.77191 2066.75 8.54382L2075.75 16.0876C2082.95 22.1227 2072.75 24.8049 2066.75 25.3917C2064.75 28.4092 2045.42 24.1344 2036 21.6198ZM1714 14.8303C1715.33 18.8537 1719.45 25.6934 1725.25 20.8654C1732.5 14.8303 1725.92 12.8186 1736.25 11.3099C1746.58 9.80112 1740 1.25146 1730.25 3.51461C1723.25 2.50877 1709.05 1.10059 1708.25 3.51461C1707.45 5.92863 1711.75 12.0643 1714 14.8303ZM1648.25 20.8654C1645.92 24.8887 1639.6 30.5215 1633 20.8654C1624.75 8.79528 1642.75 3.26315 1647 4.01753C1651.25 4.77191 1657.25 9.54966 1654.25 14.0759L1648.25 20.8654ZM1604.25 30.4209C1591.5 32.7678 1570.2 30.9238 1587 4.77191C1588 3.09551 1595.55 0.748542 1617.75 4.77191C1623.33 5.10719 1632.6 8.24206 1625 18.0993C1623.58 21.1168 1619.75 27.2022 1615.75 27.4034C1611.75 27.6045 1606.42 29.4989 1604.25 30.4209ZM1567.5 33.9413C1572.92 34.6957 1582.45 34.4442 1577.25 27.4034C1572.05 20.3625 1575.08 12.7348 1577.25 9.80112C1573.92 5.19101 1565.45 -1.81636 1558.25 7.03505C1551.05 15.8865 1555.25 22.458 1558.25 24.6373L1567.5 33.9413ZM1544.75 9.80112C1546.08 13.1539 1549.25 18.3508 1551.25 12.3157C1552.08 10.304 1554.2 6.0795 1556 5.27483C1558.25 4.26899 1554.25 -0.00583959 1548 3.51461C1541.75 7.03505 1543 4.52045 1544.75 9.80112ZM1492.75 14.3274C1496 18.4346 1504.95 23.7823 1514.75 12.3157C1524.55 0.849126 1506.5 1.67056 1496.25 3.51461C1491.33 3.68225 1483.75 6.0795 1492.75 14.3274ZM1454.75 30.6723C1456.25 33.3546 1460.7 36.8583 1466.5 29.415C1472.3 21.9718 1474.75 17.2611 1475.25 15.8362C1478.33 11.9804 1477.5 6.53213 1470 5.77775C1464.25 3.59843 1452.95 0.547374 1453.75 5.77775C1454.75 12.3157 1449.75 12.5672 1451.75 21.6198L1454.75 30.6723ZM2071.25 41.9881C2066.5 43.0777 2058.25 42.6922 2063.25 32.4326C2068.25 22.173 2078.83 27.4872 2083.5 31.4267C2085.25 32.9355 2085.25 37.16 2071.25 41.9881ZM2094.5 27.9063C2087.5 22.458 2075.05 10.5052 2081.25 6.28067C2087.45 2.05614 2110.5 3.17933 2121.25 4.26899C2128 10.1364 2136.95 22.5753 2118.75 25.3917C2113.58 27.6548 2101.5 31.3261 2094.5 27.9063Z" stroke="white" stroke-linecap="round"/>
</svg>
