<svg width="162" height="433" viewBox="0 0 162 433" fill="none" xmlns="http://www.w3.org/2000/svg">
<path d="M10.0995 221.501C9.76251 216.106 12.8799 203.851 28.0458 197.984C47.0032 190.651 92.7536 181.042 129.404 197.984C135.892 200.26 148.716 208.149 148.109 221.501M10.0995 221.501C5.04423 217.792 -2.03318 207.087 10.0995 193.938M10.0995 221.501L9.8704 226.811M148.109 221.501L161 432.392H1L9.8704 226.811M148.109 221.501C158.422 211.386 151.732 198.911 147.098 193.938M10.0995 193.938L9.594 168.651M10.0995 193.938C12.0767 191.795 15.0936 189.601 18.9463 187.484M147.098 193.938V170.674M147.098 193.938C144.105 191.576 140.979 189.454 137.746 187.555M147.098 170.674C147.65 170.145 148.217 169.468 148.748 168.651M147.098 170.674C145.076 159.57 142.211 156.27 141.032 156.008C137.998 156.413 137.577 161.571 137.746 164.1M142.801 140.077C121.821 125.748 67.376 105.687 17.4297 140.077C15.1548 141.847 9.79621 147.158 6.56082 154.238M142.801 140.077C153.937 153.307 152.022 163.616 148.748 168.651M142.801 140.077C142.632 139.15 141.739 136.841 139.515 135.02M6.56082 154.238C6.56082 156.162 6.75833 159.463 7.37873 162.583M6.56082 154.238C5.9065 145.135 13.5341 136.79 17.4297 133.756M9.594 168.651C8.55202 167.175 7.84562 164.93 7.37873 162.583M9.594 168.651C9.84676 166.123 11.3633 160.509 15.4076 158.284C16.4186 158.452 18.5419 160.104 18.9463 165.364M7.37873 162.583C13.0039 151.288 35.0727 128.698 78.346 128.698C132.438 128.698 147.617 156.514 148.748 168.651M139.515 135.02C136.735 132.744 127.382 110.745 78.346 111.756C64.9494 111.756 34.0111 116.156 17.4297 133.756M139.515 135.02C141.942 114.993 121.821 103.074 111.458 99.6184M17.4297 133.756C16.8399 125.664 21.8278 107.508 46.4976 99.6184M46.4976 99.6184C77.3349 89.7566 103.37 97.5955 111.458 99.6184M46.4976 99.6184L48.7388 94.8139M111.458 99.6184L109.224 94.8139M57.3665 74.8374L53.575 77.3661V79.8947M57.3665 74.8374L60.3997 79.1361M57.3665 74.8374H61.6635M57.3665 74.8374C58.0166 73.4697 58.7464 71.9357 59.532 70.2858M53.575 84.4464H60.3997M53.575 84.4464L51.6877 88.4923M53.575 84.4464V79.8947M60.3997 79.1361L61.6635 74.8374M60.3997 79.1361V79.8947M60.3997 84.4464L61.6635 81.412M60.3997 84.4464V79.8947M48.7388 94.8139C59.7306 90.4309 87.2162 84.2946 109.224 94.8139M48.7388 94.8139L51.6877 88.4923M109.224 94.8139L106.285 88.4923M109.224 94.8139C109.224 91.8638 109.224 85.6096 109.224 84.1935C109.224 82.7774 106.838 80.2319 105.645 79.1361M51.6877 88.4923C61.338 84.1092 85.7678 77.973 106.285 88.4923M106.285 88.4923L104.287 84.1935M61.6635 74.8374V81.412M61.6635 74.8374C66.7188 73.1516 80.4692 70.7915 95.0284 74.8374C95.8416 75.0903 98.1498 75.8489 100.877 76.8603M61.6635 81.412C67.2243 78.8833 82.8957 75.3431 101.095 81.412C101.79 81.6648 103.403 82.5751 104.287 84.1935M61.6635 81.412L66.2133 76.8603M60.3997 79.8947H53.575M104.287 84.1935L103.346 82.1706M100.877 76.8603L97.8206 70.2858M100.877 76.8603L101.348 77.8718M59.532 70.2858C64.7158 67.9257 79.631 64.6215 97.8206 70.2858M59.532 70.2858C60.2063 68.8694 60.9219 67.3676 61.6635 65.8122M97.8206 70.2858L95.7407 65.8122M61.6635 65.8122C67.3622 62.6352 82.1557 58.1874 95.7407 65.8122M61.6635 65.8122C62.6855 63.6687 63.7572 61.4234 64.839 59.1596M95.7407 65.8122L92.6477 59.1596M64.839 59.1596C69.355 56.5466 81.2392 52.8885 92.6477 59.1596M64.839 59.1596C65.7673 57.217 66.7031 55.2608 67.6216 53.3436M92.6477 59.1596L89.9438 53.3436M67.6216 53.3436C71.3453 50.5621 81.0229 46.6679 89.9438 53.3436M67.6216 53.3436C68.6239 51.2514 69.6056 49.2057 70.5342 47.2748M89.9438 53.3436L87.1222 47.2748M70.5342 47.2748C73.2596 44.999 80.3928 41.8129 87.1222 47.2748M70.5342 47.2748C71.5957 45.0677 72.5878 43.0107 73.4625 41.206M87.1222 47.2748L84.3006 41.206M73.4625 41.206C75.0159 40.1102 79.3582 38.5762 84.3006 41.206M73.4625 41.206C74.2179 39.6473 74.8856 38.2767 75.4346 37.1601M84.3006 41.206L82.4196 37.1601M75.4346 37.1601C76.0814 35.8444 76.5633 34.8814 76.8294 34.3785C77.5268 33.0607 78.2217 32.5425 78.8515 32.4851M75.4346 37.1601C76.5932 35.8958 79.6122 34.1257 82.4196 37.1601M82.4196 37.1601L81.1264 34.3785C80.7106 33.4947 79.8653 32.3928 78.8515 32.4851M78.8515 32.4851C75.8183 31.3462 71.5719 28.158 78.8515 24.5167M78.8515 32.4851C86.1311 29.1497 81.8847 25.7831 78.8515 24.5167M78.8515 24.5167C75.6498 22.4095 71.1675 16.2732 78.8515 8.58603M78.8515 24.5167C81.8004 22.1566 85.9289 15.6663 78.8515 8.58603M78.8515 8.58603V1M18.9463 165.364V187.484M18.9463 165.364L23.7488 162.583M18.9463 187.484C20.4275 186.671 22.0322 185.868 23.7488 185.085M23.7488 162.583C23.2433 158.958 23.8499 150.951 30.3207 147.916C31.5003 147.242 34.5671 146.298 37.3981 147.916C40.2291 149.535 40.9368 152.299 40.9368 153.479H41.4423M23.7488 162.583V185.085M48.267 153.479V177.214M48.267 153.479H41.4423M48.267 153.479C48.2879 153.089 48.3268 152.665 48.3859 152.215M48.267 177.214C45.9258 177.723 43.6474 178.276 41.4423 178.867M48.267 177.214C51.6041 176.49 55.0687 175.856 58.6303 175.332M41.4423 153.479V159.548M41.4423 178.867V159.548M41.4423 178.867C39.5313 179.379 37.6754 179.92 35.8815 180.485M41.4423 159.548C39.7572 159.042 36.2859 159.599 35.8815 165.87M35.8815 165.87V180.485M35.8815 165.87L24.0016 164.1M35.8815 180.485C31.4183 181.891 27.3388 183.447 23.7488 185.085M72.0269 149.433C70.8136 140.33 64.1069 138.223 60.9052 138.307C52.1873 139.049 49.0417 147.225 48.3859 152.215M72.0269 149.433V152.215M72.0269 149.433H81.6319M72.0269 173.946C71.0962 174.002 70.1693 174.066 69.2464 174.138M72.0269 173.946V152.215M72.0269 173.946C75.1922 173.755 78.4 173.66 81.6319 173.672M48.3859 152.215L58.6303 158.284M58.6303 158.284V175.332M58.6303 158.284C58.5461 156.092 59.5908 151.659 64.4439 151.456C65.8763 151.456 68.842 152.266 69.2464 155.502V157.019M58.6303 175.332C62.087 174.824 65.6351 174.42 69.2464 174.138M69.2464 174.138V157.019M69.2464 157.019L72.0269 152.215M81.6319 149.433V173.672M81.6319 149.433L86.1817 155.502M81.6319 149.433C81.4634 145.303 83.5529 137.043 93.2591 137.043C97.3033 136.959 105.392 139.875 105.392 152.215M81.6319 173.672C83.1439 173.678 84.6611 173.707 86.1817 173.76M86.1817 155.502V173.76M86.1817 155.502C87.951 152.552 92.6019 148.523 97.0506 156.008M86.1817 173.76C89.7939 173.888 93.4253 174.154 97.0506 174.576M97.0506 156.008V174.576M97.0506 156.008L104.128 152.974M97.0506 174.576C99.4146 174.85 101.776 175.191 104.128 175.602M104.128 152.974V175.602M104.128 152.974L105.392 152.215M104.128 175.602C107.354 176.165 110.561 176.861 113.733 177.701M105.392 152.215L113.733 152.974M113.733 152.974C114.07 150.108 116.412 144.477 123.085 144.882C125.985 145.545 131.783 149.744 132.17 161.228M113.733 152.974V155.502M113.733 177.701V155.502M113.733 177.701C116.546 178.446 119.331 179.303 122.074 180.282M132.185 184.555V162.835M132.185 184.555C128.896 182.929 125.517 181.51 122.074 180.282M132.185 184.555C134.069 185.486 135.925 186.485 137.746 187.555M132.185 162.835V161.824C132.181 161.623 132.176 161.425 132.17 161.228M132.185 162.835L122.074 164.1M122.074 164.1C122.074 160.728 120.406 154.288 113.733 155.502M122.074 164.1V180.282M132.17 161.228L137.746 164.1M137.746 164.1V187.555M101.348 77.8718L105.645 79.1361M101.348 77.8718L103.346 82.1706M105.645 79.1361L103.346 82.1706M123.085 215.938V206.834C124.349 203.8 127.231 199.552 128.646 206.834V215.938M98.8199 210.122V200.26C98.4829 197.9 96.6967 194.14 92.248 197.984V206.834M58.1248 210.122V202.536C59.3886 199.67 62.2701 195.658 63.6856 202.536V209.11M28.0458 216.19V207.593C28.7199 205.064 30.9779 201.828 34.6177 209.11V215.432M15.9131 226.811L13.891 219.478C13.3412 217.876 12.0154 215.634 11.1106 219.478C10.759 220.489 10.0188 223.372 9.8704 226.811M54.5861 239.454C54.5861 235.324 54.9905 226.507 56.6082 224.282C58.4618 220.742 63.1801 215.786 67.2243 224.282V239.454H54.5861ZM121.316 245.017C120.895 240.887 120.457 232.121 122.074 230.098C124.096 227.57 125.36 227.317 126.877 227.317C128.393 227.317 129.657 227.822 130.415 229.34C131.022 230.553 131.511 232.205 131.679 232.88C131.679 235.914 131.679 242.185 131.679 242.994C131.679 243.804 131.679 246.872 131.679 248.305L121.316 245.017ZM11.1106 257.661C12.2902 257.408 14.9021 256.346 15.9131 254.121C17.1769 251.339 15.9131 240.466 15.9131 239.454C15.9131 238.443 13.891 234.397 11.1106 240.719C9.93102 243.753 7.9763 250.833 9.594 254.879C9.93102 255.851 10.7062 257.768 11.1106 257.661Z" stroke="white" stroke-linecap="round" stroke-linejoin="round"/>
</svg>
