<svg width="81" height="215" viewBox="0 0 81 215" fill="none" xmlns="http://www.w3.org/2000/svg">
<path d="M5.49289 109.872C5.32649 107.209 6.86572 101.157 14.3539 98.2608C23.7141 94.6401 46.3033 89.8957 64.3997 98.2608C67.6029 99.3845 73.9346 103.28 73.6351 109.872M5.49289 109.872C2.99684 108.041 -0.49763 102.756 5.49289 96.2632M5.49289 109.872L5.37976 112.494M73.6351 109.872L80 214H1L5.37976 112.494M73.6351 109.872C78.727 104.878 75.4239 98.7186 73.1359 96.2632M5.49289 96.2632L5.24329 83.7778M5.49289 96.2632C6.46913 95.2052 7.95872 94.1217 9.86098 93.0766M73.1359 96.2632V84.7767M73.1359 96.2632C71.6582 95.097 70.1147 94.0491 68.5182 93.1113M73.1359 84.7767C73.4086 84.5154 73.6883 84.1808 73.9503 83.7778M73.1359 84.7767C72.1374 79.2939 70.723 77.6645 70.1406 77.5352C68.643 77.7349 68.435 80.2819 68.5182 81.5305M71.0142 69.6694C60.6556 62.5944 33.7731 52.6893 9.11216 69.6694C7.98894 70.5434 5.34313 73.1653 3.74566 76.6612M71.0142 69.6694C76.5128 76.2016 75.567 81.2916 73.9503 83.7778M71.0142 69.6694C70.931 69.2116 70.49 68.0713 69.3918 67.1723M3.74566 76.6612C3.74566 77.6111 3.84317 79.2411 4.1495 80.7814M3.74566 76.6612C3.42258 72.1665 7.18871 68.0463 9.11216 66.5481M5.24329 83.7778C4.72881 83.0487 4.38003 81.9405 4.1495 80.7814M5.24329 83.7778C5.36809 82.5293 6.1169 79.7576 8.11374 78.6589C8.61295 78.7421 9.6613 79.5578 9.86098 82.1548M4.1495 80.7814C6.92694 75.2046 17.8234 64.051 39.1896 64.051C65.8973 64.051 73.392 77.7849 73.9503 83.7778M69.3918 67.1723C68.019 66.0487 63.4013 55.1864 39.1896 55.6858C32.575 55.6858 17.2992 57.8583 9.11216 66.5481M69.3918 67.1723C70.5899 57.2839 60.6556 51.3992 55.5387 49.6929M9.11216 66.5481C8.82096 62.5528 11.2837 53.5883 23.4645 49.6929M23.4645 49.6929C38.6904 44.8236 51.545 48.694 55.5387 49.6929M23.4645 49.6929L24.571 47.3206M55.5387 49.6929L54.4358 47.3206M28.831 37.4572L26.9589 38.7057V39.9543M28.831 37.4572L30.3286 39.5797M28.831 37.4572H30.9526M28.831 37.4572C29.152 36.7819 29.5123 36.0245 29.9002 35.2098M26.9589 42.2016H30.3286M26.9589 42.2016L26.0271 44.1993M26.9589 42.2016V39.9543M30.3286 39.5797L30.9526 37.4572M30.3286 39.5797V39.9543M30.3286 42.2016L30.9526 40.7034M30.3286 42.2016V39.9543M24.571 47.3206C29.9982 45.1565 43.5693 42.1267 54.4358 47.3206M24.571 47.3206L26.0271 44.1993M54.4358 47.3206L52.9846 44.1993M54.4358 47.3206C54.4358 45.864 54.4358 42.776 54.4358 42.0768C54.4358 41.3776 53.2574 40.1208 52.6682 39.5797M26.0271 44.1993C30.7919 42.0352 42.8541 39.0054 52.9846 44.1993M52.9846 44.1993L51.9978 42.0768M30.9526 37.4572V40.7034M30.9526 37.4572C33.4487 36.6249 40.2379 35.4596 47.4265 37.4572C47.828 37.5821 48.9677 37.9566 50.3144 38.456M30.9526 40.7034C33.6983 39.4549 41.436 37.7069 50.4218 40.7034C50.7652 40.8283 51.5613 41.2777 51.9978 42.0768M30.9526 40.7034L33.1991 38.456M30.3286 39.9543H26.9589M51.9978 42.0768L51.5334 41.078M50.3144 38.456L48.8052 35.2098M50.3144 38.456L50.5466 38.9555M29.9002 35.2098C32.4597 34.0445 39.824 32.4131 48.8052 35.2098M29.9002 35.2098C30.2331 34.5105 30.5864 33.769 30.9526 33.001M48.8052 35.2098L47.7782 33.001M30.9526 33.001C33.7663 31.4324 41.0706 29.2363 47.7782 33.001M30.9526 33.001C31.4572 31.9427 31.9864 30.8341 32.5205 29.7163M47.7782 33.001L46.2511 29.7163M32.5205 29.7163C34.7503 28.4261 40.6181 26.6199 46.2511 29.7163M32.5205 29.7163C32.9789 28.7572 33.4409 27.7913 33.8944 26.8447M46.2511 29.7163L44.916 26.8447M33.8944 26.8447C35.733 25.4713 40.5113 23.5485 44.916 26.8447M33.8944 26.8447C34.3893 25.8116 34.874 24.8016 35.3325 23.8482M44.916 26.8447L43.5228 23.8482M35.3325 23.8482C36.6782 22.7245 40.2002 21.1513 43.5228 23.8482M35.3325 23.8482C35.8566 22.7584 36.3465 21.7428 36.7784 20.8517M43.5228 23.8482L42.1297 20.8517M36.7784 20.8517C37.5453 20.3107 39.6894 19.5532 42.1297 20.8517M36.7784 20.8517C37.1513 20.0821 37.481 19.4054 37.7521 18.854M42.1297 20.8517L41.2009 18.854M37.7521 18.854C38.0714 18.2044 38.3094 17.7289 38.4408 17.4807C38.7851 16.83 39.1282 16.5741 39.4392 16.5458M37.7521 18.854C38.3241 18.2298 39.8148 17.3558 41.2009 18.854M41.2009 18.854L40.5624 17.4807C40.3571 17.0443 39.9398 16.5002 39.4392 16.5458M39.4392 16.5458C37.9415 15.9834 35.8449 14.4093 39.4392 12.6114M39.4392 16.5458C43.0335 14.8989 40.9368 13.2367 39.4392 12.6114M39.4392 12.6114C37.8583 11.5709 35.6452 8.54115 39.4392 4.7456M39.4392 12.6114C40.8952 11.4461 42.9337 8.2415 39.4392 4.7456M39.4392 4.7456V1M9.86098 82.1548V93.0766M9.86098 82.1548L12.2322 80.7814M9.86098 93.0766C10.5923 92.6748 11.3846 92.2788 12.2322 91.892M12.2322 80.7814C11.9826 78.9918 12.2821 75.0381 15.4771 73.5399C16.0595 73.2069 17.5738 72.7408 18.9716 73.5399C20.3694 74.3389 20.7188 75.704 20.7188 76.2866H20.9684M12.2322 80.7814V91.892M24.3381 76.2866V88.0058M24.3381 76.2866H20.9684M24.3381 76.2866C24.3484 76.0939 24.3676 75.8845 24.3968 75.6624M24.3381 88.0058C23.1821 88.2568 22.0571 88.5299 20.9684 88.8218M24.3381 88.0058C25.9858 87.648 27.6964 87.3351 29.455 87.0766M20.9684 76.2866V79.2831M20.9684 88.8218V79.2831M20.9684 88.8218C20.0248 89.0748 19.1085 89.3418 18.2227 89.6208M20.9684 79.2831C20.1364 79.0334 18.4224 79.3081 18.2227 82.4045M18.2227 82.4045V89.6208M18.2227 82.4045L12.357 81.5305M18.2227 89.6208C16.019 90.315 14.0048 91.0831 12.2322 91.892M36.0695 74.289C35.4705 69.7943 32.159 68.7538 30.5782 68.7954C26.2737 69.1619 24.7206 73.1984 24.3968 75.6624M36.0695 74.289V75.6624M36.0695 74.289H40.812M36.0695 86.3919C35.61 86.4195 35.1523 86.4512 34.6967 86.4868M36.0695 86.3919V75.6624M36.0695 86.3919C37.6324 86.2979 39.2163 86.2509 40.812 86.2569M24.3968 75.6624L29.455 78.6589M29.455 78.6589V87.0766M29.455 78.6589C29.4134 77.5768 29.9292 75.3877 32.3254 75.2878C33.0326 75.2878 34.497 75.6873 34.6967 77.2855V78.0346M29.455 87.0766C31.1617 86.8258 32.9136 86.6263 34.6967 86.4868M34.6967 86.4868V78.0346M34.6967 78.0346L36.0695 75.6624M40.812 74.289V86.2569M40.812 74.289L43.0585 77.2855M40.812 74.289C40.7288 72.2497 41.7605 68.1712 46.5529 68.1712C48.5498 68.1295 52.5434 69.5695 52.5434 75.6624M40.812 86.2569C41.5585 86.2596 42.3077 86.274 43.0585 86.3005M43.0585 77.2855V86.3005M43.0585 77.2855C43.9321 75.8288 46.2284 73.8395 48.425 77.5352M43.0585 86.3005C44.842 86.3634 46.635 86.4949 48.425 86.7029M48.425 77.5352V86.7029M48.425 77.5352L51.9194 76.0369M48.425 86.7029C49.5922 86.8386 50.7582 87.0067 51.9194 87.2096M51.9194 76.0369V87.2096M51.9194 76.0369L52.5434 75.6624M51.9194 87.2096C53.5121 87.4879 55.0959 87.8315 56.6619 88.2461M52.5434 75.6624L56.6619 76.0369M56.6619 76.0369C56.8283 74.6219 57.9848 71.8419 61.2796 72.0416C62.7112 72.369 65.5743 74.4423 65.7651 80.1127M56.6619 76.0369V77.2855M56.6619 88.2461V77.2855M56.6619 88.2461C58.0508 88.6137 59.4257 89.0372 60.7804 89.5205M65.7725 91.6301V80.9062M65.7725 91.6301C64.1485 90.8276 62.4804 90.127 60.7804 89.5205M65.7725 91.6301C66.703 92.0899 67.619 92.5831 68.5182 93.1113M65.7725 80.9062V80.4068C65.7708 80.3077 65.7683 80.2097 65.7651 80.1127M65.7725 80.9062L60.7804 81.5305M60.7804 81.5305C60.7804 79.8658 59.9567 76.6862 56.6619 77.2855M60.7804 81.5305V89.5205M65.7651 80.1127L68.5182 81.5305M68.5182 81.5305V93.1113M50.5466 38.9555L52.6682 39.5797M50.5466 38.9555L51.5334 41.078M52.6682 39.5797L51.5334 41.078M61.2796 107.125V102.631C61.9036 101.132 63.3264 99.0349 64.0253 102.631V107.125M49.2986 104.254V99.3845C49.1322 98.2192 48.2502 96.3631 46.0537 98.2608V102.631M29.2054 104.254V100.508C29.8294 99.0932 31.2521 97.1122 31.951 100.508V103.754M14.3539 107.25V103.005C14.6867 101.757 15.8016 100.159 17.5987 103.754V106.876M8.36335 112.494L7.36493 108.873C7.09348 108.083 6.43888 106.976 5.9921 108.873C5.81851 109.373 5.45303 110.796 5.37976 112.494M27.4581 118.737C27.4581 116.698 27.6578 112.344 28.4566 111.246C29.3718 109.498 31.7014 107.051 33.6983 111.246V118.737H27.4581ZM60.406 121.484C60.198 119.444 59.9817 115.116 60.7804 114.117C61.7788 112.869 62.4028 112.744 63.1517 112.744C63.9005 112.744 64.5245 112.994 64.8989 113.743C65.1984 114.342 65.4397 115.158 65.5229 115.491C65.5229 116.989 65.5229 120.085 65.5229 120.485C65.5229 120.884 65.5229 122.399 65.5229 123.107L60.406 121.484ZM5.9921 127.726C6.57451 127.601 7.86414 127.077 8.36335 125.978C8.98736 124.605 8.36335 119.236 8.36335 118.737C8.36335 118.237 7.36493 116.24 5.9921 119.361C5.40969 120.859 4.44455 124.355 5.24329 126.353C5.40969 126.833 5.79242 127.779 5.9921 127.726Z" stroke="white" stroke-linecap="round" stroke-linejoin="round"/>
</svg>
