<svg width="242" height="649" viewBox="0 0 242 649" fill="none" xmlns="http://www.w3.org/2000/svg">
<path d="M14.6493 331.751C14.1438 323.659 18.8199 305.276 41.5687 296.476C70.0047 285.476 138.63 271.063 193.607 296.476C203.338 299.89 222.573 311.724 221.664 331.751M14.6493 331.751C7.06635 326.188 -3.54976 310.131 14.6493 290.407M14.6493 331.751L14.3056 339.716M221.664 331.751L241 648.089H1L14.3056 339.716M221.664 331.751C237.133 316.579 227.098 297.867 220.147 290.407M14.6493 290.407L13.891 252.477M14.6493 290.407C17.6151 287.193 22.1404 283.901 27.9194 280.726M220.147 290.407V255.511M220.147 290.407C215.658 286.864 210.969 283.681 206.118 280.832M220.147 255.511C220.975 254.718 221.825 253.701 222.621 252.477M220.147 255.511C217.114 238.855 212.817 233.905 211.047 233.512C206.498 234.119 205.866 241.857 206.118 245.65M213.701 209.616C182.232 188.122 100.564 158.031 25.6446 209.616C22.2322 212.271 14.1943 220.236 9.34123 230.857M213.701 209.616C230.406 229.461 227.533 244.924 222.621 252.477M213.701 209.616C213.449 208.225 212.109 204.761 208.773 202.03M9.34123 230.857C9.34123 233.742 9.63749 238.695 10.5681 243.374M9.34123 230.857C8.35974 217.202 19.8012 204.685 25.6446 200.133M13.891 252.477C12.328 250.262 11.2684 246.895 10.5681 243.374M13.891 252.477C14.2701 248.684 16.545 240.263 22.6114 236.926C24.128 237.179 27.3128 239.657 27.9194 247.546M10.5681 243.374C19.0059 226.432 52.109 192.547 117.019 192.547C198.156 192.547 220.925 234.271 222.621 252.477M208.773 202.03C204.602 198.616 190.573 165.617 117.019 167.134C96.9242 167.134 50.5166 173.734 25.6446 200.133M208.773 202.03C212.412 171.989 182.232 154.111 166.687 148.928M25.6446 200.133C24.7599 187.996 32.2417 160.762 69.2464 148.928M69.2464 148.928C115.502 134.135 154.555 145.893 166.687 148.928M69.2464 148.928L72.6082 141.721M166.687 148.928L163.337 141.721M85.5498 111.756L79.8626 115.549V119.342M85.5498 111.756L90.0995 118.204M85.5498 111.756H91.9953M85.5498 111.756C86.5249 109.705 87.6196 107.404 88.7979 104.929M79.8626 126.17H90.0995M79.8626 126.17L77.0316 132.238M79.8626 126.17V119.342M90.0995 118.204L91.9953 111.756M90.0995 118.204V119.342M90.0995 126.17L91.9953 121.618M90.0995 126.17V119.342M72.6082 141.721C89.0959 135.146 130.324 125.942 163.337 141.721M72.6082 141.721L77.0316 132.238M163.337 141.721L158.928 132.238M163.337 141.721C163.337 137.296 163.337 127.914 163.337 125.79C163.337 123.666 159.757 119.848 157.967 118.204M77.0316 132.238C91.507 125.664 128.152 116.459 158.928 132.238M158.928 132.238L155.93 125.79M91.9953 111.756V121.618M91.9953 111.756C99.5782 109.227 120.204 105.687 142.043 111.756C143.262 112.135 146.725 113.273 150.816 114.791M91.9953 121.618C100.336 117.825 123.844 112.515 151.142 121.618C152.186 121.997 154.604 123.363 155.93 125.79M91.9953 121.618L98.8199 114.791M90.0995 119.342H79.8626M155.93 125.79L154.519 122.756M150.816 114.791L146.231 104.929M150.816 114.791L151.521 116.308M88.7979 104.929C96.5737 101.389 118.946 96.4323 146.231 104.929M88.7979 104.929C89.8095 102.804 90.8828 100.551 91.9953 98.2183M146.231 104.929L143.111 98.2183M91.9953 98.2183C100.543 93.4528 122.734 86.7812 143.111 98.2183M91.9953 98.2183C93.5283 95.003 95.1358 91.6351 96.7585 88.2394M143.111 98.2183L138.472 88.2394M96.7585 88.2394C103.533 84.3199 121.359 78.8327 138.472 88.2394M96.7585 88.2394C98.151 85.3255 99.5547 82.3912 100.932 79.5154M138.472 88.2394L134.416 79.5154M100.932 79.5154C106.518 75.3431 121.034 69.5019 134.416 79.5154M100.932 79.5154C102.436 76.3771 103.908 73.3085 105.301 70.4122M134.416 79.5154L130.183 70.4122M105.301 70.4122C109.389 66.9985 120.089 62.2193 130.183 70.4122M105.301 70.4122C106.893 67.1016 108.382 64.0161 109.694 61.309M130.183 70.4122L125.951 61.309M109.694 61.309C112.024 59.6653 118.537 57.3642 125.951 61.309M109.694 61.309C110.827 58.9709 111.828 56.915 112.652 55.2401M125.951 61.309L123.129 55.2401M112.652 55.2401C113.622 53.2667 114.345 51.8221 114.744 51.0678C115.79 49.0911 116.832 48.3137 117.777 48.2277M112.652 55.2401C114.39 53.3436 118.918 50.6885 123.129 55.2401M123.129 55.2401L121.19 51.0678C120.566 49.7421 119.298 48.0892 117.777 48.2277M117.777 48.2277C113.227 46.5193 106.858 41.737 117.777 36.2751M117.777 48.2277C128.697 43.2246 122.327 38.1747 117.777 36.2751M117.777 36.2751C112.975 33.1142 106.251 23.9098 117.777 12.3791M117.777 36.2751C122.201 32.7349 128.393 22.9995 117.777 12.3791M117.777 12.3791V1M27.9194 247.546V280.726M27.9194 247.546L35.1232 243.374M27.9194 280.726C30.1412 279.506 32.5482 278.303 35.1232 277.128M35.1232 243.374C34.3649 237.937 35.2749 225.926 44.981 221.374C46.7504 220.363 51.3507 218.947 55.5972 221.374C59.8436 223.802 60.9052 227.949 60.9052 229.719H61.6635M35.1232 243.374V277.128M71.9005 229.719V265.321M71.9005 229.719H61.6635M71.9005 229.719C71.9318 229.133 71.9902 228.497 72.0788 227.822M71.9005 265.321C68.3887 266.084 64.9711 266.914 61.6635 267.8M71.9005 265.321C76.9061 264.234 82.1031 263.284 87.4455 262.499M61.6635 229.719V238.822M61.6635 267.8V238.822M61.6635 267.8C58.797 268.569 56.0132 269.38 53.3223 270.228M61.6635 238.822C59.1359 238.064 53.9289 238.898 53.3223 248.305M53.3223 248.305V270.228M53.3223 248.305L35.5024 245.65M53.3223 270.228C46.6275 272.337 40.5082 274.67 35.1232 277.128M107.54 223.65C105.72 209.995 95.6604 206.834 90.8578 206.961C77.7809 208.074 73.0625 220.337 72.0788 227.822M107.54 223.65V227.822M107.54 223.65H121.948M107.54 260.418C106.144 260.502 104.754 260.599 103.37 260.707M107.54 260.418V227.822M107.54 260.418C112.288 260.133 117.1 259.99 121.948 260.008M72.0788 227.822L87.4455 236.926M87.4455 236.926V262.499M87.4455 236.926C87.3191 233.638 88.8863 226.988 96.1659 226.684C98.3144 226.684 102.763 227.898 103.37 232.753V235.029M87.4455 262.499C92.6306 261.737 97.9526 261.13 103.37 260.707M103.37 260.707V235.029M103.37 235.029L107.54 227.822M121.948 223.65V260.008M121.948 223.65L128.773 232.753M121.948 223.65C121.695 217.455 124.829 205.064 139.389 205.064C145.455 204.938 157.588 209.312 157.588 227.822M121.948 260.008C124.216 260.017 126.492 260.06 128.773 260.141M128.773 232.753V260.141M128.773 232.753C131.427 228.328 138.403 222.285 145.076 233.512M128.773 260.141C134.191 260.332 139.638 260.731 145.076 261.363M145.076 233.512V261.363M145.076 233.512L155.692 228.96M145.076 261.363C148.622 261.775 152.164 262.286 155.692 262.903M155.692 228.96V262.903M155.692 228.96L157.588 227.822M155.692 262.903C160.531 263.748 165.342 264.792 170.1 266.051M157.588 227.822L170.1 228.96M170.1 228.96C170.605 224.662 174.118 216.216 184.128 216.823C188.477 217.817 197.175 224.116 197.755 241.342M170.1 228.96V232.753M170.1 266.051V232.753M170.1 266.051C174.319 267.168 178.496 268.455 182.611 269.923M197.777 276.332V243.753M197.777 276.332C192.844 273.894 187.776 271.765 182.611 269.923M197.777 276.332C200.604 277.729 203.387 279.227 206.118 280.832M197.777 243.753V242.236C197.772 241.935 197.765 241.637 197.755 241.342M197.777 243.753L182.611 245.65M182.611 245.65C182.611 240.592 180.109 230.933 170.1 232.753M182.611 245.65V269.923M197.755 241.342L206.118 245.65M206.118 245.65V280.832M151.521 116.308L157.967 118.204M151.521 116.308L154.519 122.756M157.967 118.204L154.519 122.756M184.128 323.406V309.752C186.024 305.2 190.346 298.828 192.469 309.752V323.406M147.73 314.682V299.89C147.224 296.35 144.545 290.711 137.872 296.476V309.752M86.6872 314.682V303.303C88.5829 299.005 92.9052 292.986 95.0284 303.303V313.165M41.5687 323.786V310.889C42.5798 307.096 45.9668 302.241 51.4265 313.165V322.648M23.3697 339.716L20.3365 328.717C19.5118 326.314 17.5232 322.951 16.1659 328.717C15.6385 330.234 14.5282 334.558 14.3056 339.716M81.3791 358.681C81.3791 352.486 81.9858 339.261 84.4123 335.923C87.1927 330.613 94.2701 323.179 100.336 335.923V358.681H81.3791ZM181.474 367.026C180.842 360.831 180.185 347.682 182.611 344.647C185.645 340.854 187.54 340.475 189.815 340.475C192.09 340.475 193.986 341.234 195.123 343.509C196.033 345.33 196.766 347.808 197.019 348.82C197.019 353.371 197.019 362.778 197.019 363.992C197.019 365.205 197.019 369.808 197.019 371.957L181.474 367.026ZM16.1659 385.991C17.9352 385.612 21.8531 384.019 23.3697 380.681C25.2654 376.509 23.3697 360.199 23.3697 358.681C23.3697 357.164 20.3365 351.095 16.1659 360.578C14.3965 365.13 11.4645 375.75 13.891 381.819C14.3965 383.277 15.5592 386.152 16.1659 385.991Z" stroke="white" stroke-linecap="round" stroke-linejoin="round"/>
</svg>
