<svg width="243" height="89" viewBox="0 0 243 89" fill="none" xmlns="http://www.w3.org/2000/svg">
<path d="M89.3552 28.7587C88.4146 26.4739 87.6375 21.7331 92.0544 21.0477C94.1926 20.7159 96.1295 20.8679 97.6981 21.2009M89.3552 28.7587C89.2129 29.4064 89.0489 30.21 88.8875 31.0842M89.3552 28.7587C90.6283 28.5772 91.7695 28.5082 92.7905 28.5284M100.643 33.0425C101.446 33.7981 102.716 34.6 103.71 34.3101M100.643 33.0425C97.7725 36.8409 95.6188 38.9101 94.1401 39.9785C93.7171 40.2841 93.3494 40.5078 93.0359 40.6667M100.643 33.0425C100.586 32.7126 100.459 32.3347 100.246 31.941M88.8875 31.0842C88.3068 34.2297 87.7593 38.2886 88.3737 39.2847C89.1589 40.5577 91.2773 40.8759 92.0544 40.9983C92.2826 40.9793 92.6089 40.8832 93.0359 40.6667M88.8875 31.0842C85.7717 29.6154 76.3501 23.4956 63.5904 10.7664C62.159 10.032 58.6582 8.78357 56.1063 9.66482C55.7154 10.0054 55.7781 11.022 57.8239 12.844M24.4522 32.7977C30.4395 25.9435 31.9363 21.7005 31.9363 20.4357C32.4271 12.0148 12.1832 9.25683 2 8.93044C18.8821 -5.07171 41.3426 2.60662 50.4625 8.19606L57.8239 12.844M24.4522 32.7977C32.0181 31.7778 48.9412 31.4759 56.1063 38.428C60.0733 41.2023 67.2466 48.9541 64.2038 57.7666C69.5204 55.3187 83.1962 53.5317 95.367 65.9671M24.4522 32.7977C37.8627 29.0035 66.6232 23.6915 74.3816 32.7977M95.367 65.9671C95.367 73.5557 98.1889 78.9412 130.334 78.9412C131.111 79.1452 132.002 81.2177 129.352 87.8761C131.724 88.5289 136.37 86.9214 135.977 75.2693C128.883 74.3812 116.941 72.1187 109.967 68.6667M95.367 65.9671V61.8927M115.856 54.3395C121.868 58.8682 136.689 67.7297 147.878 66.9463C148.326 66.8501 148.877 66.7456 149.473 66.6514M115.856 54.3395C116.797 52.0548 115.611 50.3004 112.789 50.6676M115.856 54.3395C112.008 57.7107 107.763 59.6676 103.955 60.7429M109.967 68.6667C114.057 70.8676 125.549 75.1714 138.308 74.2901L141.008 74.0453C153.522 71.9646 150.577 78.4516 150.577 81.2667C150.373 82.0419 150.308 83.3474 151.682 82.3683C153.056 81.3891 153.972 79.6755 154.258 78.9412C155.73 76.3708 155.853 68.2927 154.994 66.9463C154.455 66.1002 151.659 66.3065 149.473 66.6514M109.967 68.6667C108.822 67.9559 106.016 65.376 103.955 60.7429M103.71 34.3101C104.487 34.0834 105.096 33.1894 105.182 31.0842C105.196 30.7513 105.195 30.4275 105.182 30.1128M103.71 34.3101C102.896 34.7939 102.41 35.4841 103.71 35.9333M191.433 67.6807C190.746 47.3139 224.191 43.3646 241 43.9358C222.351 27.5347 206.156 22.5164 177.201 22.5164C172.71 22.5164 168.398 22.812 164.319 23.3173M191.433 67.6807C182.272 64.9064 161.374 60.5083 151.068 65.1104L149.473 66.6514M191.433 67.6807C179.737 56.2978 151.706 35.0253 133.156 40.9983M94.1401 57.7666L92.0544 56.053C82.7299 48.8072 78.1904 39.1623 77.0862 35.2457C76.1299 34.4142 75.2293 33.5975 74.3816 32.7977M94.1401 57.7666C93.2813 58.4194 92.0789 60.1411 94.1401 61.8057C94.5004 61.8473 94.9114 61.8776 95.367 61.8927M94.1401 57.7666C104.053 57.1791 110.703 52.7891 112.789 50.6676M112.789 50.6676L110.581 48.5869M95.367 61.8927C97.4752 61.9628 100.539 61.7078 103.955 60.7429M133.156 40.9983C135.528 39.4071 141.548 35.5884 146.651 33.0425C151.755 30.4967 160.556 29.1258 164.319 28.7587C174.134 24.3175 168.408 23.2806 164.319 23.3173M133.156 40.9983C130.824 42.5894 123.488 46.2613 112.789 48.2197L110.581 48.5869M164.319 23.3173C147.361 25.4177 134.429 31.1411 129.352 34.3101C128.412 34.6627 123.782 35.5394 112.789 36.2248C107.553 36.5513 104.892 36.342 103.71 35.9333M110.581 48.5869C109.435 47.4445 107.096 44.4254 106.9 41.4879M74.3816 32.7977C65.745 24.6496 62.6022 18.2574 62.118 15.9211C60.1553 14.7126 58.7752 13.6912 57.8239 12.844M103.71 35.9333C102.565 39.784 100.839 48.4155 103.096 52.1364C105.918 56.7874 97.5186 48.291 93.0359 40.6667M97.6981 21.2009C99.3698 21.5559 100.623 22.1165 101.256 22.5164C102.01 22.9812 103.16 24.0511 104.022 25.6988M97.6981 21.2009C95.4897 21.6491 91.4164 23.742 92.7905 28.5284M92.7905 28.5284C94.4715 28.5615 95.8264 28.8362 96.907 29.2482M104.022 25.6988C102.245 25.2908 98.3353 25.4295 96.907 29.2482M104.022 25.6988C104.639 26.8777 105.109 28.3524 105.182 30.1128M96.907 29.2482C98.6893 29.9279 99.725 30.9813 100.246 31.941M105.182 30.1128C103.404 29.743 99.9282 29.591 100.246 31.941" stroke="white"/>
</svg>
