<svg width="82" height="402" viewBox="0 0 82 402" fill="none" xmlns="http://www.w3.org/2000/svg">
<path d="M21.578 388.871V401H56.4985V388.871M21.578 388.871H56.4985M21.578 388.871L26.9702 383.968H30.3081M56.4985 388.871L51.6199 383.968H48.0251M48.0251 383.968L46.7413 298.29M48.0251 383.968H30.3081M46.7413 298.29C48.9666 298.634 52.0821 297.877 46.7413 292.097M46.7413 298.29C44.2592 298.29 37.8058 298.29 31.8488 298.29M46.7413 292.097H31.8488M46.7413 292.097L46.6272 220.756M31.8488 292.097C29.3667 294.161 25.8917 298.29 31.8488 298.29M31.8488 292.097L33.9029 220.756M31.8488 298.29L30.3081 383.968M36.4706 131.581H46.4845M36.4706 131.581L34.1077 213.645M36.4706 131.581C35.4435 131.237 33.6975 130.135 34.93 128.484C35.354 128.413 35.876 128.337 36.4706 128.265M46.4845 131.581L46.6158 213.645M46.4845 131.581C49.1549 130.342 48.4531 129 47.7684 128.484C47.359 128.381 46.9291 128.294 46.4845 128.222M33.9029 220.756C36.3945 219.514 42.4276 217.774 46.6272 220.756M33.9029 220.756L34.1077 213.645M46.6272 220.756L46.6158 213.645M34.1077 213.645C36.0099 211.581 41.1746 208.69 46.6158 213.645M46.4845 128.222C48.1963 127.191 51.3631 123.477 50.336 116.871M46.4845 128.222C43.2043 127.69 39.118 127.943 36.4706 128.265M50.336 116.871C54.1876 116.527 62.2501 115.013 63.688 111.71C64.3298 110.235 63.1881 109.152 61.3771 108.381M50.336 116.871C42.7357 118.601 35.1867 117.592 32.3623 116.871M53.674 106.806C55.8539 106.949 59.1305 107.424 61.3771 108.381M53.674 106.806C54.2903 83.0645 61.2915 67.9253 64.715 63.3234M53.674 106.806C49.8068 106.483 39.7057 106.037 28.7675 106.674M32.3623 116.871C28.4252 116.011 19.9861 113.774 17.7265 111.71C16.4213 110.517 18.3088 109.325 20.8949 108.381M32.3623 116.871C31.9343 120.252 32.1569 127.264 36.4706 128.265M61.3771 108.381C63.2258 92.2984 73.1028 73.9635 77.8102 66.8064M77.8102 66.8064C74.937 65.6412 70.4697 64.3388 64.715 63.3234M77.8102 66.8064L76.7831 63.6502M77.8102 66.8064C77.4679 67.8387 77.348 69.9548 79.6076 70.1613C82.432 70.4194 81.405 67.5806 80.8914 66.8064C80.4806 66.1871 77.9814 64.4442 76.7831 63.6502M5.40165 66.8064C9.82482 72.9313 19.1159 89.8209 20.8949 108.381M5.40165 66.8064C10.2456 65.4734 14.9641 64.4367 19.5239 63.6502M5.40165 66.8064V63.3234M5.40165 66.8064C5.81247 69.0774 4.54576 69.4731 3.86106 69.3871C3.09075 69.3011 1.44742 68.6645 1.03659 66.8064C0.625766 64.9484 3.77545 63.7102 5.40165 63.3234M20.8949 108.381C22.7859 107.691 25.0505 107.133 26.7134 106.806C27.4005 106.758 28.0856 106.714 28.7675 106.674M64.715 63.3234C53.6703 61.3747 37.8834 60.4836 19.5239 63.6502M19.5239 63.6502C22.7763 70.2916 29.1784 88.1943 28.7675 106.674M5.40165 63.3234C19.8662 58.6813 54.393 52.2478 76.7831 63.6502M5.40165 63.3234C19.3698 52.6919 22.8619 40.5705 22.8619 35.8387M76.7831 63.6502C72.4181 58.5087 64.4583 45.9032 67.5395 36.6129M67.5395 36.6129C60.2644 33 41.1437 27.7871 22.8619 35.8387M67.5395 36.6129C65.6908 29.3871 60.7779 26.2043 58.5526 25.5161C55.7431 24.6197 52.9634 24.0314 50.2866 23.6773M22.8619 35.8387C23.1186 33.3441 24.6592 27.7871 28.7675 25.5161C30.4612 24.8738 33.2384 24.1355 36.7273 23.6773M36.7273 23.6773C34.7588 21.5376 32.7731 16.2774 40.5789 12.3548C40.8295 12.2192 41.1783 12.0713 41.6059 11.9401C42.3453 11.7133 43.3201 11.5364 44.4304 11.5588M36.7273 23.6773C40.5541 23.1749 45.2373 23.0094 50.2866 23.6773M50.2866 23.6773C53.9444 18.6966 50.3031 14.0537 48.0251 12.3548C46.759 11.7981 45.5285 11.581 44.4304 11.5588M44.4304 11.5588C40.8356 9.93168 35.803 5.54194 44.4304 1C53.4686 5.54194 48.1963 9.93168 44.4304 11.5588Z" stroke="white" stroke-linecap="round" stroke-linejoin="round"/>
</svg>
