<svg width="34" height="161" viewBox="0 0 34 161" fill="none" xmlns="http://www.w3.org/2000/svg">
<path d="M9.17977 155.179V160H23.0606V155.179M9.17977 155.179H23.0606M9.17977 155.179L11.3231 153.23H12.65M23.0606 155.179L21.1214 153.23H19.6925M19.6925 153.23L19.1822 119.173M19.6925 153.23H12.65M19.1822 119.173C20.0667 119.31 21.3051 119.009 19.1822 116.711M19.1822 119.173C18.1955 119.173 15.6303 119.173 13.2624 119.173M19.1822 116.711H13.2624M19.1822 116.711L19.1368 88.3531M13.2624 116.711C12.2757 117.532 10.8945 119.173 13.2624 119.173M13.2624 116.711L14.0789 88.3531M13.2624 119.173L12.65 153.23M15.0996 52.9058H19.0801M15.0996 52.9058L14.1603 85.5265M15.0996 52.9058C14.6913 52.769 13.9973 52.3314 14.4872 51.6748C14.6557 51.6466 14.8632 51.6165 15.0996 51.5878M19.0801 52.9058L19.1323 85.5265M19.0801 52.9058C20.1416 52.4134 19.8626 51.88 19.5904 51.6748C19.4277 51.6339 19.2568 51.5995 19.0801 51.5708M14.0789 88.3531C15.0693 87.8592 17.4675 87.1677 19.1368 88.3531M14.0789 88.3531L14.1603 85.5265M19.1368 88.3531L19.1323 85.5265M14.1603 85.5265C14.9164 84.7058 16.9694 83.5569 19.1323 85.5265M19.0801 51.5708C19.7605 51.161 21.0193 49.6848 20.6111 47.0587M19.0801 51.5708C17.7762 51.3591 16.1519 51.4599 15.0996 51.5878M20.6111 47.0587C22.1421 46.9219 25.3469 46.3201 25.9185 45.0071C26.1736 44.4211 25.7198 43.9903 24.9999 43.6839M20.6111 47.0587C17.59 47.7465 14.5892 47.3453 13.4665 47.0587M21.9379 43.0581C22.8044 43.1149 24.1069 43.3037 24.9999 43.6839M21.9379 43.0581C22.1829 33.6206 24.9659 27.6028 26.3267 25.7736M21.9379 43.0581C20.4007 42.9293 16.3855 42.7521 12.0376 43.0055M13.4665 47.0587C11.9015 46.7168 8.54696 45.8277 7.64879 45.0071C7.12998 44.5331 7.88026 44.059 8.90822 43.6839M13.4665 47.0587C13.2964 48.4026 13.3849 51.1899 15.0996 51.5878M24.9999 43.6839C25.7348 37.2911 29.6609 30.003 31.5321 27.1581M31.5321 27.1581C30.39 26.6949 28.6142 26.1772 26.3267 25.7736M31.5321 27.1581L31.1238 25.9035M31.5321 27.1581C31.396 27.5684 31.3483 28.4095 32.2465 28.4916C33.3692 28.5942 32.961 27.4658 32.7568 27.1581C32.5935 26.9119 31.6001 26.2191 31.1238 25.9035M2.74966 27.1581C4.50787 29.5927 8.20107 36.3063 8.90822 43.6839M2.74966 27.1581C4.67513 26.6282 6.55073 26.2161 8.36325 25.9035M2.74966 27.1581V25.7736M2.74966 27.1581C2.91296 28.0608 2.40944 28.2181 2.13727 28.1839C1.83107 28.1497 1.17785 27.8966 1.01455 27.1581C0.851242 26.4195 2.10324 25.9273 2.74966 25.7736M8.90822 43.6839C9.6599 43.4095 10.5601 43.188 11.2211 43.0581C11.4942 43.0388 11.7665 43.0213 12.0376 43.0055M26.3267 25.7736C21.9364 24.9989 15.6612 24.6447 8.36325 25.9035M8.36325 25.9035C9.65607 28.5434 12.2009 35.6598 12.0376 43.0055M2.74966 25.7736C8.49933 23.9283 22.2237 21.371 31.1238 25.9035M2.74966 25.7736C8.30201 21.5475 9.69009 16.7293 9.69009 14.8484M31.1238 25.9035C29.3887 23.8597 26.2247 18.849 27.4494 15.1561M27.4494 15.1561C24.5576 13.72 16.9571 11.6479 9.69009 14.8484M27.4494 15.1561C26.7146 12.2839 24.7617 11.0187 23.8772 10.7452C22.7604 10.3888 21.6554 10.155 20.5914 10.0142M9.69009 14.8484C9.79216 13.8568 10.4046 11.6479 12.0376 10.7452C12.7108 10.4898 13.8147 10.1963 15.2016 10.0142M15.2016 10.0142C14.4191 9.16369 13.6298 7.07278 16.7326 5.51355C16.8322 5.45963 16.9709 5.40085 17.1409 5.34871C17.4347 5.25855 17.8222 5.18822 18.2636 5.19713M15.2016 10.0142C16.7228 9.81451 18.5843 9.74875 20.5914 10.0142M20.5914 10.0142C22.0454 8.03441 20.598 6.18885 19.6925 5.51355C19.1892 5.29226 18.7001 5.20594 18.2636 5.19713M18.2636 5.19713C16.8347 4.55034 14.8342 2.80542 18.2636 1C21.8563 2.80542 19.7605 4.55034 18.2636 5.19713Z" stroke="white" stroke-linecap="round" stroke-linejoin="round"/>
</svg>
