<svg width="65" height="77" viewBox="0 0 65 77" fill="none" xmlns="http://www.w3.org/2000/svg">
<path d="M42.1054 69.6303C45.6036 73.4616 41.7584 75.3911 39.3985 75.877H27.842M42.1054 69.6303C43.4936 70.2549 46.3532 70.6297 46.6863 67.1316C46.8251 66.7151 46.603 65.7989 44.6041 65.4658C44.5347 62.8283 44.4375 56.8037 44.6041 53.8052C44.8123 50.0572 47.7274 52.1394 51.059 41.3118C51.6143 40.4095 52.5582 36.8558 51.8919 29.8595M42.1054 69.6303C41.5501 69.3526 39.9398 68.8807 37.9409 69.2138M51.8919 29.8595C55.0153 30.3453 61.7201 29.8178 63.5525 23.821C63.7607 23.1269 63.5524 21.239 61.0537 18.4071C60.7464 18.0589 59.8044 16.6164 59.8044 11.9522C59.8044 11.1193 58.1386 9.16198 53.9742 7.99593C54.113 6.8854 54.8487 4.20625 56.6811 2.37388C57.0975 1.74921 57.0142 0.624797 53.3495 1.12453C48.7686 1.74921 47.5192 5.08079 47.311 5.08079C47.1444 5.08079 44.8123 4.87257 43.1465 5.28902C40.6478 5.91369 36.4001 9.20363 34.4011 14.0344C32.527 14.8673 28.6125 18.2406 24.6146 23.4045C17.9514 24.4456 4.41683 30.6924 1.91814 45.6845C-1.20522 64.4247 4.62505 68.1727 4.83328 72.5454C4.99986 76.0436 5.45795 76.224 5.66618 75.877H16.2856M51.8919 29.8595C49.6709 30.0677 44.8123 29.0682 43.1465 23.4045M16.2856 75.877C16.4244 73.4477 18.9925 67.5897 28.1543 63.5918M16.2856 75.877H27.842M37.9409 69.2138C35.109 73.878 30.0284 75.5994 27.842 75.877M37.9409 69.2138C41.2725 62.8977 43.9794 46.7256 28.1543 32.5664" stroke="white" stroke-linecap="round" stroke-linejoin="round"/>
</svg>
