<svg width="118" height="120" viewBox="0 0 118 120" fill="none" xmlns="http://www.w3.org/2000/svg">
<path d="M39.8902 109.446C39.7784 112.631 41.5329 119 49.4451 119C57.3572 119 59.1118 112.631 59 109.446V57.9886M59 57.9886C55.7592 57.1506 47.4 57.6534 39.8902 66.3693M59 57.9886C66.1075 55.9773 74.9249 62.7377 78.4451 66.3693M39.8902 66.3693C37.264 63.5758 29.4301 57.9886 19.104 57.9886C8.77804 57.9886 2.73218 63.5758 1 66.3693C2.17341 47.0379 15.4162 8.375 59 8.375M39.8902 66.3693C40.8289 19.8398 53.0212 8.31913 59 8.375M59 8.375C102.584 8.375 115.827 47.0379 117 66.3693C114.653 63.5758 107.78 57.9886 99.0636 57.9886C90.3468 57.9886 81.6859 63.5758 78.4451 66.3693M59 8.375V1M59 8.375C65.4817 7.81629 78.4451 18.633 78.4451 66.3693" stroke="white" stroke-linecap="round" stroke-linejoin="round"/>
</svg>
