<svg width="129" height="122" viewBox="0 0 129 122" fill="none" xmlns="http://www.w3.org/2000/svg">
<path d="M95.3779 85.5589C97.089 84.7062 112.667 94.2638 120.242 99.1491C121.044 104.479 120.242 110.874 120.242 112.206C120.242 113.272 117.034 113.716 115.43 113.805C112.008 116.577 113.648 117.802 114.895 118.069H120.242C123.023 117.216 124.253 114.516 124.52 113.272C128.263 103.946 127.996 100.215 127.996 99.1491C127.996 98.2964 127.639 97.195 127.461 96.7509C125.857 91.4214 114.628 79.6965 114.628 79.1636C114.628 78.6306 114.895 70.9029 114.628 68.2381C114.36 65.5734 111.954 59.9774 110.617 57.8456C109.548 56.1402 109.815 54.8256 110.083 54.3815C119.708 43.1896 123.451 32.2641 123.718 31.9976C123.985 31.7312 126.124 24.8028 127.194 17.0751C128.049 10.8929 127.728 5.43906 127.461 3.48492C127.372 3.04079 126.98 1.99266 126.124 1.35312C125.269 0.713584 124.164 1.08665 123.718 1.35312C122.916 1.79725 121.044 4.81729 119.975 13.3445C118.638 24.0034 117.301 27.7341 117.034 28.8C116.767 29.8659 115.43 36.5277 112.222 41.8572C109.013 47.1867 106.607 49.8514 100.992 53.3156C96.5009 56.0869 83.4359 54.6479 77.4648 53.5821C69.9788 52.5162 66.7705 53.0491 63.0274 53.3156C60.3606 53.5054 57.1455 55.1809 52.8678 55.9803C48.59 56.7797 45.1143 57.0462 42.7081 56.5133C40.3019 55.9803 22.9235 48.7855 21.3193 47.1867C19.7152 45.5878 13.8333 45.8543 13.0312 46.1208C12.3895 46.334 8.12959 42.479 6.07983 40.5248L8.48607 49.3185C5.27775 49.052 3.6736 53.0491 3.40624 58.1121C3.19235 62.1625 1.71296 64.0634 1 64.5075C1.35648 66.0175 3.24582 69.0908 7.95135 69.304C13.8333 69.5705 12.7638 68.2381 15.9721 67.7052C19.1805 67.1722 22.1214 68.7711 25.3297 72.2352C28.1701 75.3022 28.7054 80.4578 31.2027 82.8942M95.3779 85.5589C92.445 85.717 86.1843 86.0577 82.2773 86.2811M95.3779 85.5589C94.3085 87.9039 98.6754 95.7738 100.992 99.4156C100.137 100.481 96.3583 109.275 94.5759 113.539C92.437 117.376 88.5157 118.868 86.8224 119.135H80.9405C79.8711 118.602 79.069 118.868 79.3364 115.937C79.5503 113.592 82.0991 113.361 83.3468 113.539C85.2718 113.752 86.466 113.45 86.8224 113.272C90.0308 108.742 89.496 107.41 90.5655 105.278C91.421 103.573 90.922 102.08 90.5655 101.547C89.1396 99.1491 85.8599 93.7663 84.1488 91.4214C82.4377 89.0764 82.1882 87.0174 82.2773 86.2811M61.958 85.5589C62.7601 85.2925 71.0482 85.8254 72.385 85.8254C73.7218 85.8254 76.3954 86.6248 80.9405 86.3584C81.3425 86.3348 81.7917 86.3088 82.2773 86.2811M61.958 85.5589C61.1559 85.8254 60.8886 85.8254 61.6906 87.4243C62.4927 89.0231 63.0274 89.0231 64.0969 91.9543C65.1663 94.8855 64.8989 102.88 64.0969 107.41C63.2948 111.94 63.5621 110.341 63.0274 114.072C62.4927 117.802 62.2254 115.937 61.4233 119.934C61.4233 120.112 61.1024 120.574 59.8191 121H54.4719C52.5764 120.734 50.2434 119.348 56.0761 115.937C56.4326 115.937 57.2525 115.404 57.6802 113.272C57.9476 110.696 58.3219 104.425 57.6802 99.9485C56.4326 97.9944 52.44 93.7663 46.4511 92.4873C45.5954 92.3045 44.7956 92.073 44.0449 91.8035M61.958 85.5589C59.9082 85.1148 55.274 83.1607 53.1351 78.8971M31.2027 82.8942C31.5262 83.2098 31.8825 83.4797 32.2811 83.6936C35.3595 85.3457 38.2281 89.7153 44.0449 91.8035M31.2027 82.8942C31.3839 84.1378 31.5325 87.4776 30.6769 90.8884C29.8214 94.2993 24.9732 99.9485 22.6561 102.347C20.7846 105.012 16.5603 111.087 14.6353 114.072C14.2789 114.693 12.7638 116.044 9.55551 116.47C5.54511 117.003 6.88191 120.201 10.0902 120.201C12.6569 120.201 14.9027 120.201 15.7048 120.201C17.9328 119.135 23.2978 115.297 26.9339 108.476C30.57 101.654 39.8563 94.5185 44.0449 91.8035" stroke="white" stroke-linecap="round" stroke-linejoin="round"/>
</svg>
