<svg width="47" height="45" viewBox="0 0 47 45" fill="none" xmlns="http://www.w3.org/2000/svg">
<path d="M34.441 30.9618C35.0473 30.6597 40.5671 34.0462 43.2512 35.7772C43.5354 37.6656 43.2512 39.9317 43.2512 40.4038C43.2512 40.7815 42.1144 40.9389 41.546 40.9703C40.3334 41.9523 40.9145 42.3866 41.3566 42.4811H43.2512C44.2365 42.1789 44.6722 41.2221 44.767 40.7815C46.0933 37.4768 45.9985 36.1549 45.9985 35.7772C45.9985 35.4751 45.8722 35.0848 45.8091 34.9275C45.2406 33.0391 41.2618 28.8846 41.2618 28.6957C41.2618 28.5069 41.3566 25.7687 41.2618 24.8245C41.1671 23.8803 40.3145 21.8975 39.8408 21.1422C39.4619 20.5379 39.5566 20.0721 39.6514 19.9147C43.0618 15.9491 44.388 12.0778 44.4828 11.9834C44.5775 11.889 45.3354 9.43408 45.7143 6.6959C46.0175 4.50536 45.9038 2.57289 45.8091 1.88048C45.7775 1.72312 45.6385 1.35173 45.3354 1.12512C45.0322 0.898514 44.6407 1.0307 44.4828 1.12512C44.1986 1.28249 43.5354 2.35258 43.1565 5.37402C42.6828 9.15082 42.2092 10.4727 42.1144 10.8504C42.0197 11.2281 41.546 13.5886 40.4092 15.477C39.2724 17.3654 38.4198 18.3096 36.4304 19.537C34.8389 20.519 30.2096 20.0091 28.0938 19.6314C25.4413 19.2538 24.3045 19.4426 22.9782 19.537C22.0333 19.6043 20.8941 20.198 19.3783 20.4812C17.8626 20.7645 16.6311 20.8589 15.7785 20.6701C14.9259 20.4812 8.76817 17.9319 8.19976 17.3654C7.63136 16.7988 5.54722 16.8933 5.26302 16.9877C5.03566 17.0632 3.52623 15.6973 2.79994 15.0049L3.65254 18.1207C2.51574 18.0263 1.94734 19.4426 1.8526 21.2366C1.77682 22.6718 1.25262 23.3453 1 23.5027C1.12631 24.0377 1.79576 25.1267 3.46308 25.2022C5.54722 25.2966 5.16828 24.8245 6.30509 24.6357C7.44189 24.4469 8.48396 25.0134 9.62077 26.2408C10.6272 27.3275 10.8169 29.1543 11.7017 30.0176M34.441 30.9618C33.4018 31.0178 31.1834 31.1385 29.7991 31.2177M34.441 30.9618C34.0621 31.7927 35.6094 34.5813 36.4304 35.8717C36.1273 36.2493 34.7884 39.3652 34.1568 40.8759C33.3989 42.2356 32.0095 42.7643 31.4095 42.8587H29.3254C28.9464 42.6699 28.6622 42.7643 28.757 41.7257C28.8328 40.8948 29.7359 40.813 30.178 40.8759C30.8601 40.9515 31.2832 40.8445 31.4095 40.7815C32.5463 39.1764 32.3569 38.7043 32.7358 37.9489C33.0389 37.3446 32.8621 36.8159 32.7358 36.627C32.2306 35.7772 31.0685 33.87 30.4622 33.0391C29.8559 32.2082 29.7675 31.4786 29.7991 31.2177M22.5993 30.9618C22.8835 30.8674 25.8202 31.0562 26.2939 31.0562C26.7676 31.0562 27.7149 31.3395 29.3254 31.2451C29.4678 31.2367 29.627 31.2275 29.7991 31.2177M22.5993 30.9618C22.3151 31.0562 22.2204 31.0562 22.5046 31.6228C22.7888 32.1893 22.9782 32.1893 23.3572 33.2279C23.7361 34.2665 23.6414 37.0991 23.3572 38.7043C23.073 40.3094 23.1677 39.7429 22.9782 41.0648C22.7888 42.3866 22.694 41.7257 22.4098 43.142C22.4098 43.2049 22.2961 43.3686 21.8414 43.5197H19.9467C19.2751 43.4253 18.4484 42.9343 20.5151 41.7257C20.6415 41.7257 20.932 41.5369 21.0835 40.7815C21.1783 39.8688 21.3109 37.6468 21.0835 36.0605C20.6415 35.3681 19.2268 33.87 17.1047 33.4167C16.8015 33.352 16.5181 33.27 16.2521 33.1745M22.5993 30.9618C21.873 30.8045 20.2309 30.112 19.4731 28.6013M11.7017 30.0176C11.8164 30.1294 11.9426 30.2251 12.0838 30.3009C13.1746 30.8863 14.1911 32.4346 16.2521 33.1745M11.7017 30.0176C11.766 30.4583 11.8186 31.6417 11.5154 32.8502C11.2123 34.0588 9.49446 36.0605 8.67343 36.9103C8.0103 37.8545 6.5135 40.0073 5.83142 41.0648C5.70511 41.2851 5.16828 41.7635 4.03148 41.9145C2.61047 42.1034 3.08414 43.2364 4.22095 43.2364C5.13039 43.2364 5.92615 43.2364 6.21035 43.2364C6.9998 42.8587 8.90079 41.4991 10.1892 39.0819C11.4775 36.6648 14.768 34.1365 16.2521 33.1745" stroke="white" stroke-linecap="round" stroke-linejoin="round"/>
</svg>
