<svg width="304" height="171" viewBox="0 0 304 171" fill="none" xmlns="http://www.w3.org/2000/svg">
<path d="M32.5295 141.552C-28.3925 173.795 13.4916 173.795 37.6551 165.001L87.4474 148.88C112.636 129.534 153.349 134.957 168.725 123.232C205.63 95.0935 224.619 92.4555 229.501 94.6538C248.832 100.516 258.79 78.5326 272.703 72.6703C286.615 66.808 312.976 47.7555 299.063 40.4277C268.327 24.2388 303.457 17.7114 266.845 8.18523C230.233 -1.34099 218.517 -4.27214 184.102 17.7114C156.57 35.2983 137.483 37.2524 131.381 36.0311C97.9916 37.2036 94.7697 44.8245 64.7481 63.877C47.6626 71.4491 19.2031 90.2573 42.0488 104.913C64.8945 119.569 45.2216 135.446 32.5295 141.552Z" stroke="white"/>
</svg>
