<svg width="420" height="295" viewBox="0 0 420 295" fill="none" xmlns="http://www.w3.org/2000/svg">
<path d="M73.7019 222.015C4.41209 275.557 70.2864 294.537 113.224 293.563C157.87 295.754 247.162 290.789 247.162 253.409C247.162 216.029 301.322 201.817 328.402 199.383C352.067 190.135 389.003 172.224 347.432 174.56C295.467 177.481 327.67 162.879 389.882 139.516C439.651 120.826 414.522 115.667 395.737 115.424C388.906 115.667 373.048 111.481 364.265 92.7913C355.482 74.1012 331.33 72.8357 320.351 74.5393C262.971 69.2827 211.055 36.3316 192.269 20.5131C175.436 12.7255 133.717 -1.97343 101.514 1.53096C61.2594 5.91145 113.224 11.022 41.4985 20.5131C-30.2275 30.0041 1.976 70.8887 70.7744 103.012C125.813 128.711 114.2 151.198 101.514 159.228C66.3826 197.193 125.667 181.861 73.7019 222.015Z" stroke="white"/>
</svg>
