<svg width="491" height="338" viewBox="0 0 491 338" fill="none" xmlns="http://www.w3.org/2000/svg">
<path d="M32.777 288.354C26.3327 332.243 53.5258 338.826 67.928 336.632C79.4009 335.169 104.836 331.073 114.796 326.391C124.755 321.71 152.144 328.342 164.593 332.243C197.547 327.854 177.775 343.947 222.446 324.928C253.316 311.785 291.039 322.002 305.197 326.391C417.241 316.15 330.096 248.122 442.872 204.964C543.064 166.622 460.692 99.6305 405.524 66.7137C342.545 34.5283 327.899 66.7137 219.517 19.1672C130.105 -20.0568 56.6992 13.803 32.777 31.6025C-19.9492 65.9823 -3.39866 84.2695 55.4784 84.2695C104.544 84.2695 110.402 131.085 67.928 174.242C59.8725 177.412 43.1756 192.676 40.8322 228.372C37.9029 272.993 40.8325 233.493 32.777 288.354Z" stroke="white"/>
</svg>
