<svg width="281" height="317" viewBox="0 0 281 317" fill="none" xmlns="http://www.w3.org/2000/svg">
<path d="M250.055 294.091C293.985 294.091 280.063 306.273 267.621 313.094C263.473 315.287 244.931 318.357 203.944 313.094C152.71 306.516 134.411 264.124 102.939 199.805C71.4665 135.486 54.6321 149.373 19.5 106.981C-8.6057 73.0667 1.44599 47.534 9.98504 39.0068C26.8192 26.5815 -6.11717 1.00006 61.2193 1C92.0383 0.999975 113.186 5.3854 143.926 39.0068C174.667 72.6282 182.718 54.3557 197.356 72.6282C209.067 87.2462 240.783 105.519 255.178 112.828C296.165 144.256 232.488 161.798 255.178 177.878C274.737 191.74 245.801 211.243 226.284 224.397L225.901 224.655C206.139 242.928 195.161 294.091 250.055 294.091Z" stroke="white"/>
</svg>
