<svg width="469" height="117" viewBox="0 0 469 117" fill="none" xmlns="http://www.w3.org/2000/svg">
<path d="M27.1437 101.01C-20.2051 85.8456 7.41506 78.6523 27.1437 76.9512C38.2503 75.286 44.9239 69.939 46.8723 67.4736C61.4862 63.8284 57.102 47.7892 108.25 52.8926C149.169 56.9753 173.526 42.9289 180.589 35.3954C214.201 14.2529 235.391 23.7305 292.385 18.6272C334.215 14.8816 397.848 5.26118 424.64 2.58796C469.212 -4.70255 434.139 14.9819 455.329 23.7305C471.335 30.3387 474.327 51.4344 451.676 52.1635C433.554 52.7467 426.101 64.5574 424.64 70.3898C421.717 80.5965 409.588 99.406 384.452 92.9904C359.316 86.5747 338.418 99.0658 331.111 106.113C304.222 124.194 246.351 111.946 214.931 111.946H122.864C51.9872 103.197 89.2524 120.901 27.1437 101.01Z" stroke="white"/>
</svg>
