<svg width="312" height="295" viewBox="0 0 312 295" fill="none" xmlns="http://www.w3.org/2000/svg">
<path d="M8.41145 238.372C-9.18766 256.795 9.63031 255.667 23.7691 255.91C58.8728 255.91 72.036 269.551 74.2297 276.372C102.312 310.28 126.397 287.577 134.929 271.987C151.896 248.602 184.659 268.333 224.15 248.602C275.727 241.344 280.401 205.964 285.478 167.532L285.581 166.756C290.233 131.558 292.406 106.832 302.401 98.0631C325.072 50.5627 298.744 71.0244 271.686 76.1398C232.744 83.5018 232.438 46.4218 237.314 35.2166C243.164 -1.32211 221.225 35.2165 208.792 11.8317C196.9 -10.536 167.838 6.7163 152.481 19.1395C85.9308 29.3703 162.719 57.8705 85.9308 106.832C41.8175 134.96 14.7494 170.653 8.41145 187.948C-14.2591 225.218 23.769 222.295 8.41145 238.372Z" stroke="white"/>
</svg>
