<svg width="363" height="383" viewBox="0 0 363 383" fill="none" xmlns="http://www.w3.org/2000/svg">
<path d="M5.855 261.638C2.68834 258.805 -2.145 251.538 3.855 245.138M5.855 261.638C22.1925 265.638 61.7651 273.138 89.3555 271.138C91.9166 278.511 95.8753 285.27 100.855 291.206M5.855 261.638L10.0059 281.638M3.855 245.138C2.85516 241.805 2.25547 234.238 7.85547 230.638M3.855 245.138C6.57013 245.746 9.77689 246.428 13.3555 247.148M7.85547 230.638C13.2344 227.361 21.971 222.828 32.8555 218.359M7.85547 230.638C15.0646 230.75 24.1679 231.28 33.3555 232.42M7.85547 230.638C12.7696 220.028 22.6135 202.232 30.185 189.138M100.855 202.638L55.3555 177.638C48.1922 174.056 45.2797 171.386 43.3555 170.881M100.855 202.638C99.3555 189.805 95.2555 161.838 90.8555 152.638C87.1888 151.305 81.7555 147.138 89.3555 141.138M100.855 202.638C101.395 205.428 101.731 211.911 100.855 222.009M100.855 202.638C80.416 203.257 60.1631 208.344 43.3555 214.335M89.3555 141.138C98.8555 133.638 103.355 100.638 90.8555 65.1381C87.3555 63.6381 82.1555 59.3381 89.3555 54.1381L119.355 53.1381C125.355 53.1381 125.355 51.6381 124.355 42.6381L121.855 5.63807C123.855 2.13807 128.855 -2.76193 132.855 5.63807C137.855 16.1381 132.855 53.1381 138.855 51.1381C160.455 51.1381 167.189 51.1381 167.855 51.1381C169.355 50.9714 172.455 52.2381 172.855 58.6381C182.522 69.4714 199.855 103.638 183.855 133.638M89.3555 141.138C99.9254 136.309 118.456 129.975 137.855 127.709M183.855 133.638C185.189 134.638 187.455 137.538 185.855 141.138C199.022 155.471 220.955 196.038 203.355 243.638M183.855 133.638C170.62 126.748 153.939 125.83 137.855 127.709M203.355 243.638C206.522 245.305 210.955 249.638 203.355 253.638L157.855 259.138C152.855 260.138 152.855 259.138 152.855 266.638L153.855 289.638C155.855 293.138 184.055 294.038 196.855 275.638M203.355 243.638L155.355 249.638C151.355 250.138 150.355 250.638 150.355 245.138V243.849M203.355 243.638C184.328 241.797 166.263 242.251 150.355 243.849M196.855 275.638C197.522 271.638 200.855 263.938 208.855 265.138L236.355 261.138C238.022 260.805 241.155 259.238 240.355 255.638C239.355 251.138 240.355 251.638 234.855 252.638C230.455 253.438 224.355 254.971 221.855 255.638C218.522 254.471 213.455 250.738 219.855 245.138M196.855 275.638C198.055 279.238 196.355 282.471 195.355 283.638C148.155 330.438 109.022 284.471 95.3555 255.638M219.855 245.138C226.255 239.538 223.855 197.638 214.855 170.638C208.855 170.638 206.355 162.638 214.855 159.138M219.855 245.138C227.189 240.305 251.155 230.038 288.355 227.638M214.855 159.138C218.855 155.638 221.355 119.138 221.355 89.6381C214.855 91.1381 209.355 83.1381 217.855 79.1381C218.855 79.3047 220.455 78.0381 218.855 71.6381L216.855 58.6381C214.855 54.1381 221.355 48.1381 225.355 53.1381C226.022 55.1381 227.955 61.6381 230.355 71.6381L231.355 75.6381C234.189 75.8047 239.055 77.9381 235.855 85.1381C238.855 91.1381 271.155 109.438 262.355 150.638M214.855 159.138C220.355 153.805 237.555 144.638 262.355 150.638M262.355 150.638C263.855 151.471 266.555 154.138 265.355 158.138C282.855 177.638 293.355 197.638 288.355 227.638M288.355 227.638C291.189 229.305 295.355 233.638 289.355 237.638L257.855 246.638C256.522 246.971 253.955 248.538 254.355 252.138C254.855 256.638 252.855 257.638 258.855 255.638C264.855 253.638 278.717 247.5 282.855 251.638C284.459 253.242 285.034 255.873 284.053 259.138M95.3555 255.638C103.069 252.62 117.803 248.386 136.855 245.535M95.3555 255.638C96.9415 248.641 98.1413 242.305 99.0361 236.638M150.355 243.849C145.657 244.321 141.147 244.893 136.855 245.535M136.855 245.535C136.855 252.138 139.355 253.638 129.855 253.638L95.3555 256.138C89.5577 256.558 82.7102 256.452 75.3555 255.984M89.3555 146.138C101.885 144.925 121.128 143.101 138.855 141.498M138.855 141.498C157.678 139.796 174.794 138.344 180.355 138.138C191.155 137.738 157.189 140.212 138.855 141.498ZM138.855 141.498L137.855 127.709M90.8555 58.6381C109.522 59.3047 150.855 59.5381 166.855 55.1381M135.355 4.63806C156.855 9.63806 167.855 -4.36194 188.355 8.13806C191.522 10.9714 195.955 16.3381 188.355 15.1381C172.855 12.6907 166.855 34.1381 138.855 32.1381M214.855 164.638C227.689 164.471 255.155 162.338 262.355 155.138M284.053 259.138C283.504 260.963 282.469 262.986 280.855 265.138C280.817 265.629 280.773 266.129 280.722 266.638M284.053 259.138L355.355 234.638C359.355 233.138 365.555 241.938 358.355 245.138L277.539 282.638M277.539 282.638C279.232 276.736 280.253 271.312 280.722 266.638M277.539 282.638C276.53 286.155 275.281 289.841 273.769 293.638M280.722 266.638L212.355 281.638C185.323 331.48 127.96 323.516 100.855 291.206M10.0059 281.638L11.355 288.138C15.4569 309.878 24.9432 302.005 29.5989 308.138M10.0059 281.638C27.6225 285.85 70.4555 293.661 100.855 291.206M29.5989 308.138C30.6182 309.481 31.406 311.495 31.855 314.638C33.53 320.004 36.2616 326.21 40.1527 332.638M29.5989 308.138C74.9598 318.638 187.299 330.438 273.769 293.638M273.769 293.638C270.123 302.789 264.939 312.587 257.855 322.221M40.1527 332.638C75.2203 342.694 167.855 354.688 257.855 322.221M40.1527 332.638C46.37 342.909 55.5478 353.748 68.1068 362.638M257.855 322.221C249.034 334.22 237.267 345.964 221.855 355.887M68.1068 362.638C89.9207 378.079 121.935 387.642 166.355 378.138C188.676 373.362 206.966 365.475 221.855 355.887M68.1068 362.638C95.1897 368.138 163.855 374.487 221.855 355.887M100.855 222.009L85.3555 213.138L49.3555 219.138C47.8555 219.471 44.9555 220.938 45.3555 224.138C45.7555 227.338 48.8555 228.138 50.3555 228.138C68.8555 227.638 93.7555 230.838 95.3555 245.638C95.3092 247.515 95.9806 248.342 99.0361 236.638M100.855 222.009C100.488 226.249 99.9061 231.128 99.0361 236.638M75.3555 255.984C79.7398 244.217 63.2112 237.53 43.8555 234.009M75.3555 255.984C72.5845 255.807 69.7415 255.58 66.8555 255.31M32.8555 218.359L33.3555 232.42M32.8555 218.359C36.1679 216.999 39.6793 215.646 43.3555 214.335M33.3555 232.42C36.8771 232.856 40.411 233.383 43.8555 234.009M43.3555 214.335L43.8555 234.009M30.185 189.138C31.6826 186.548 33.0914 184.142 34.3555 182.012M30.185 189.138L34.3555 182.012M34.3555 182.012C34.5316 181.715 34.705 181.424 34.8753 181.138M41.3555 171.357C40.6565 171.942 39.9058 173.004 38.8555 174.638C37.8976 176.128 36.5252 178.37 34.8753 181.138M41.3555 171.357L28.6528 165.138M41.3555 171.357C42.0011 170.817 42.6026 170.683 43.3555 170.881M34.8753 181.138L6.85547 165.138C6.35547 164.138 5.65547 161.538 6.85547 159.138C8.05547 156.738 12.3555 157.471 14.3555 158.138L28.6528 165.138M28.6528 165.138L28.3555 145.638C28.6528 136.138 14.8555 145.638 15.3555 130.638C15.1888 129.471 14.4555 123.438 12.8555 108.638C15.7867 106.207 20.7664 103.341 26.8555 101.902M43.3555 170.881L41.8555 146.638C41.3555 131.138 52.8555 152.138 53.8555 119.638L54.8555 108.138C49.649 104.142 44.3723 102.092 39.3555 101.333M18.8555 135.638C24.0221 132.638 37.4555 128.238 49.8555 134.638M29.8555 136.138C31.5221 135.638 35.7555 134.938 39.3555 136.138M38.8555 71.6381C53.8555 68.1381 62.3555 79.6381 71.3555 76.6381C74.6888 76.1381 79.8555 76.6381 73.8555 82.6381C60.8555 95.6381 55.3555 87.1381 41.8555 92.1381M13.3555 247.148V241.138C13.1888 240.305 13.5555 238.738 16.3555 239.138C19.8555 239.638 19.8555 239.638 19.8555 241.138C19.8555 242.338 19.8555 246.491 19.8555 248.418M13.3555 247.148C15.4074 247.561 17.5816 247.987 19.8555 248.418M19.8555 248.418C22.4073 248.902 25.0846 249.392 27.8555 249.88M27.8555 249.88V243.638C27.8555 241.138 27.0555 240.738 29.8555 241.138C33.8555 241.138 33.8555 241.238 33.8555 243.638V250.907M27.8555 249.88C29.8125 250.225 31.8163 250.569 33.8555 250.907M33.8555 250.907C37.1136 251.448 40.4622 251.977 43.8555 252.48M43.8555 252.48V246.138C43.8555 243.638 43.8555 242.638 47.3555 243.638L50.8555 244.638V253.468M43.8555 252.48C46.1729 252.823 48.5111 253.154 50.8555 253.468M50.8555 253.468C53.5213 253.826 56.1951 254.162 58.8555 254.47M58.8555 254.47V245.138C62.3555 245.752 68.8555 248.647 66.8555 255.31M58.8555 254.47C61.5433 254.781 64.2173 255.063 66.8555 255.31M26.8555 101.902V96.1381V70.1381C28.1888 67.6381 31.9555 64.2381 36.3555 70.6381L38.8555 98.1381L39.3555 101.333M26.8555 101.902C30.6647 101.002 34.908 100.66 39.3555 101.333M136.855 281.638C133.189 279.706 125.155 273.7 122.355 265.138C122.028 264.138 121.755 262.638 127.355 262.638C135.855 262.638 135.855 261.138 135.855 268.638L136.855 281.638ZM18.8555 114.138C17.3555 110.638 23.5555 106.738 24.3555 113.138L25.3555 124.138C25.0221 126.971 23.6555 130.938 20.8555 124.138L18.8555 114.138ZM31.8555 122.638C32.3555 125.638 34.8555 126.638 35.8555 122.638V111.138C34.3555 107.638 30.8555 109.638 30.8555 111.638L31.8555 122.638ZM42.8555 111.638C41.8555 110.138 47.8555 109.138 47.8555 111.638L46.3555 124.638C45.6888 126.638 43.8555 129.338 41.8555 124.138L42.8555 111.638ZM226.355 292.138C226.355 290.305 227.355 286.638 231.355 286.638C235.355 286.638 236.355 290.305 236.355 292.138C236.355 293.805 235.355 297.138 231.355 297.138C227.355 297.138 226.355 293.805 226.355 292.138ZM251.855 281.638C253.855 281.471 257.855 282.238 257.855 286.638C257.855 291.038 254.522 292.138 252.855 292.138C251.355 292.305 248.155 291.538 247.355 287.138C246.555 282.738 250.022 281.638 251.855 281.638ZM24.8555 275.138C24.8555 273.805 25.6555 271.138 28.8555 271.138C32.0555 271.138 33.1888 273.805 33.3555 275.138C33.3511 276.805 32.5937 280.138 29.5989 280.138C26.6042 280.138 25.1888 276.805 24.8555 275.138ZM51.3555 274.638C53.0221 274.638 56.3555 275.538 56.3555 279.138C56.3555 282.738 53.6888 283.638 52.3555 283.638C50.5221 283.471 46.8555 282.338 46.8555 279.138C46.8555 275.938 49.8555 274.805 51.3555 274.638ZM74.3555 276.638C75.8555 276.638 78.8555 277.538 78.8555 281.138C78.8555 284.738 75.8555 285.971 74.3555 286.138C72.5221 286.305 68.8555 285.538 68.8555 281.138C68.8555 277.538 72.5221 276.638 74.3555 276.638Z" stroke="white"/>
</svg>
