<svg width="256" height="68" viewBox="0 0 256 68" fill="none" xmlns="http://www.w3.org/2000/svg">
<path d="M212.755 10.8468C212.763 10.8446 212.771 10.8425 212.779 10.8404M212.779 10.8404C215.457 10.1259 220.049 10.2156 217.165 16.2581L214.783 20.25C212.902 22.6452 208.98 25.7323 208.345 18.9194C208.228 17.7661 208.257 15.1048 209.315 13.6855C210.125 12.7646 211.951 10.9063 212.779 10.8404ZM1 21.3145C2.96968 22.5269 7.05014 24.9516 7.61458 24.9516C9.37847 25.129 12.3947 24.7742 10.3486 21.9355C8.3025 19.0968 7.55579 17.914 7.4382 17.6774L5.49792 15.0161C5.02755 14.3656 3.99861 13.0645 3.64583 13.0645C3.20486 13.0645 1.45528 12.9614 1.17639 13.2419L1 13.5968M1 23.7097C2.73449 24.2124 6.45042 25.8919 7.4382 28.5887C8.42597 31.2855 8.32014 32.7876 8.14375 33.2016L5.32153 37.5484C4.88056 38.6129 3.39889 40.671 1 40.3871M1 51.5645C1.76435 52.8656 3.27542 55.9468 3.20486 57.8629C3.13431 59.779 1.70556 60.7903 1 61.0565M255 13.5968C254.118 14.3065 252.425 16.2226 252.707 18.2097C252.972 18.9489 253.801 20.6048 255 21.3145M255 23.7097C254.059 23.4435 251.754 23.0887 250.061 24.5081C247.944 26.2823 247.768 28.8548 249.444 30.3629C250.784 31.5694 251.59 34.4731 251.825 35.7742C252.148 36.543 252.936 38.2581 253.501 38.9677C254.065 39.6774 254.735 40.2984 255 40.3871M255 61.0565L253.677 61.2339C252.707 61.2339 250.008 60.7194 246.974 58.6613C243.94 56.6032 244.24 53.5457 244.769 52.2742C245.181 51.8011 245.916 50.2339 245.563 47.75C245.21 45.2661 247.592 43.9355 248.826 43.5806C250.326 42.9301 253.659 42.1968 255 44.4677V47.0403C254.224 48.7435 254.677 50.8844 255 51.5645M1 67H255M255 1H1M255 1.8871C254.618 1.91667 253.695 2.04678 253.06 2.33065C252.425 2.61452 251.149 2.44893 250.59 2.33065C249.15 1.79839 245.934 1.1242 244.593 2.68549C242.917 4.6371 246.269 8.80645 246.886 8.3629C247.38 8.00807 250.678 8.03764 252.266 8.09678C252.883 8.24463 254.294 8.16774 255 6.67742M1 1.8871C1.76435 1.76882 3.25778 1.70968 3.11667 2.41936C2.97556 3.12903 1.64676 5.55377 1 6.67742M5.32153 64.5161C6.49746 65.6102 10.2957 67.0532 16.0813 64.0726C17.4924 63.0968 19.9442 60.329 18.4625 57.0645C17.9921 55.4086 16.3988 52.079 13.7882 52.0081C12.965 51.8602 10.8601 51.9903 9.0257 53.6936C6.73264 55.8226 5.14514 58.9274 4.79236 61.8548C4.70417 62.4167 4.68653 63.7355 5.32153 64.5161ZM20.932 53.4274L20.8438 61.6774C21.1083 62.7124 22.1314 64.6048 24.107 63.8952C26.5764 63.0081 27.2819 62.6532 29.575 59.1935C29.869 58.2769 29.8749 55.9645 27.5465 54.0484C25.2182 52.1323 23.6954 51.7715 23.225 51.8306C22.7252 51.7124 21.567 51.8661 20.932 53.4274ZM30.1042 66.379C30.6921 66.586 32.4149 66.8758 34.6021 66.379C36.7893 65.8823 37.6301 64.5161 37.7771 63.8952C37.4537 62.9489 35.8015 60.8968 31.7799 60.2581C31.3095 60.1989 30.2629 60.6306 29.8396 62.8306C29.4163 65.0306 29.8396 66.1129 30.1042 66.379ZM31.1625 55.379C31.6623 56.5323 33.385 59.0161 36.2778 59.7258C39.1706 60.4355 41.834 59.0161 42.8042 58.2177C43.8331 57.6263 45.891 56.3016 45.891 55.7339C45.891 55.0242 44.8326 53.6048 44.7445 53.4274C44.6739 53.2855 42.0692 50.6479 40.7757 49.3468C39.6586 48.4005 36.8599 46.4903 34.6021 46.4194C32.3443 46.3484 31.2507 48.4005 30.9861 49.4355C30.6921 50.0565 30.3158 52.1145 31.1625 55.379ZM49.2424 57.9516C47.8313 58.5134 44.7445 60.4355 43.6861 63.629C43.3921 64.3387 43.1922 65.8823 44.7445 66.379C46.2967 66.8758 49.6833 66.0538 51.1826 65.5806C52.094 65.078 53.8638 63.3629 53.6521 60.5242C53.2993 59.578 51.9235 57.7387 49.2424 57.9516ZM45.891 49.4355C46.5083 51.7419 49.0307 56.479 54.1813 56.9758C60.6195 57.5968 57.0917 49.5242 54.8868 48.1048C51.7118 47.8387 45.4676 47.7323 45.891 49.4355ZM37.4243 43.6694C37.5125 43.9355 39.541 47.129 45.891 46.4194C52.241 45.7097 53.2111 44.7339 53.4757 44.379C53.7403 44.0242 54.7986 42.7823 53.7403 37.0161C52.682 31.25 50.3889 29.6532 49.066 29.0323C47.7431 28.4113 41.1285 29.9194 39.8938 32.7581C38.659 35.5968 37.0715 37.9032 37.4243 43.6694ZM56.0333 65.0484C56.3861 65.0484 57.2328 65.1548 57.7972 65.5806C58.5028 66.1129 58.3264 66.1129 59.2083 66.1129C60.0903 66.1129 62.1188 66.2903 62.8243 66.1129C63.5299 65.9355 66.7049 65.0484 67.1458 64.1613C67.5868 63.2742 67.675 62.5645 66.6167 61.2339C65.5583 59.9032 63.2653 57.5081 61.9424 57.2419C60.6195 56.9758 60.4431 56.9758 59.6493 57.5968C58.8556 58.2177 56.2097 60.9677 56.0333 61.5C55.857 62.0323 55.416 62.2097 55.416 63.8952C55.416 65.2436 55.8276 65.2258 56.0333 65.0484ZM71.6438 66.379C73.4664 66.6156 77.4646 66.8936 78.8757 66.1129C80.6396 65.1371 81.5215 64.6936 81.4333 62.4758C81.3628 60.7016 74.5836 60.9086 71.2028 61.2339C70.6148 61.4409 69.386 62.2274 69.1743 63.7177C68.9627 65.2081 70.7324 66.1129 71.6438 66.379ZM78.2583 58.3952C78.9051 58.9274 80.3927 59.9919 81.1688 59.9919C82.1389 59.9919 84.5202 59.9919 85.2257 57.2419C85.7902 55.0419 84.285 53.1317 83.4618 52.4516C82.8151 51.7715 81.0453 50.9613 79.1403 53.1613C79.0521 53.3979 78.8757 54.2436 78.8757 55.7339C78.7875 56 78.5758 56.6387 78.4347 57.0645C78.2936 57.4903 78.2583 58.129 78.2583 58.3952ZM86.3722 59.6371C86.8132 61.6774 88.436 65.6871 91.3993 65.4032C94.3626 65.1194 96.397 64.1613 97.0438 63.7177C98.1609 63.3038 100.43 61.7484 100.572 58.8387C100.713 55.929 99.6308 53.8414 99.0722 53.1613C98.7195 52.6586 97.5906 51.671 95.8972 51.7419C94.2039 51.8129 93.5454 52.8952 93.4278 53.4274C93.2514 53.7231 92.4047 54.4565 90.4292 55.0242C88.4536 55.5919 87.1954 56.7392 86.8132 57.2419C86.6662 57.3898 86.3722 58.0758 86.3722 59.6371ZM57.7972 48.1048C58.15 48.5484 59.9139 52.0968 63.7063 55.0242C64.0296 55.3199 64.8704 56.3194 65.6465 57.9516C66.4227 59.5839 71.2616 58.6317 73.584 57.9516C74.9658 57.4194 77.7292 55.4323 77.7292 51.7419C77.7292 47.129 76.8472 46.0645 76.1417 44.6452C75.5772 43.5097 73.5546 42.9301 72.6139 42.7823C71.7614 43.1075 69.4742 43.7403 67.1458 43.6694C64.8175 43.5984 61.472 43.4624 60.0903 43.4032C59.3259 43.5511 57.7972 44.1839 57.7972 45.5323C57.7972 46.8806 57.7972 47.8091 57.7972 48.1048ZM79.1403 46.5968C80.3456 48.1936 84.1497 51.4581 89.7236 51.7419C92.3107 51.6237 97.5553 49.9145 97.8375 44.0242C97.7787 41.8952 96.6557 37.1758 92.634 35.3306C87.607 33.0242 85.5785 36.129 85.4021 36.3065C85.2257 36.4839 85.5785 38.5242 83.4618 40.2097C81.3452 41.8952 79.4049 42.0726 79.1403 44.0242C78.9286 45.5855 79.0521 46.3898 79.1403 46.5968ZM100.219 51.4758C101.542 53.871 104.258 59.4242 104.54 62.4758C104.893 66.2903 110.802 65.4919 111.86 64.6048C112.919 63.7177 114.065 61.9436 114.33 60.879C114.594 59.8145 114.33 54.8468 113.36 52.3629C112.39 49.879 111.419 45.8871 107.274 44.4677C103.958 43.3323 101.189 47.3656 100.219 49.5242C100.101 49.7608 99.9365 50.4823 100.219 51.4758ZM101.365 66.2016C102.277 66.2903 104.099 66.4145 104.099 66.2016C104.099 65.9355 104.717 65.6694 103.217 64.0726C102.018 62.7952 100.542 63.5403 99.9542 64.0726C99.4838 64.2796 98.6489 64.9065 99.0722 65.7581C99.4956 66.6097 100.777 66.4086 101.365 66.2016ZM117.328 53.7823V62.4758C117.858 64.0134 120.274 66.9113 125.707 66.2016C131.14 65.4919 132.616 63.422 132.674 62.4758C133.056 61.5591 133.592 59.2113 132.674 57.1532C131.757 55.0952 129.47 54.4624 128.441 54.4032C126.971 54.1371 123.873 53.4274 123.238 52.7177C122.603 52.0081 120.621 51.9489 119.71 52.0081C119.21 51.9785 118.034 52.2919 117.328 53.7823ZM134.174 56.8871L137.79 64.0726C138.348 64.6048 139.977 65.35 142.023 64.0726C144.069 62.7952 146.168 59.7554 146.962 58.3952C147.432 57.1532 148.091 54.1371 146.962 52.0081C145.833 49.879 144.081 49.0511 143.346 48.9032C142.493 48.8737 140.312 49.4532 138.407 52.0081C137.643 52.5699 135.92 53.7645 135.144 54.0484C134.368 54.3323 134.174 56.0591 134.174 56.8871ZM152.165 52.3629C150.607 53.5457 147.667 57.4371 148.373 63.5403C148.902 64.8414 151.566 66.7161 157.986 63.8065C158.545 63.5108 159.556 62.2629 159.133 59.6371C158.603 56.3548 156.134 53.6936 155.869 53.5161C155.605 53.3387 155.164 52.0081 152.165 52.3629ZM158.956 53.25C158.927 54.0188 159.221 55.9113 160.632 57.3306C162.043 58.75 165.159 55.8522 166.541 54.2258C167.364 53.2204 168.763 50.9081 167.776 49.7016C166.788 48.4952 165.365 48.9624 164.777 49.3468C163.219 49.9677 159.873 51.6177 158.956 53.25ZM172.274 52.0968C174.214 53.3979 178.253 56.621 178.888 59.1048C179.523 61.5887 179.329 63.2742 179.153 63.8065C178.947 64.5457 177.795 66.0597 174.831 66.2016C171.127 66.379 170.598 66.379 168.569 65.8468C166.541 65.3145 164.601 63.0968 164.601 62.9194C164.601 62.7419 163.542 61.5887 164.601 59.6371C165.447 58.0758 169.128 54.3145 170.863 52.629C171.01 52.4516 171.498 52.0968 172.274 52.0968ZM174.831 50.2339C176.389 52.9543 179.947 58.5371 181.71 59.1048C183.915 59.8145 188.413 60.1694 190.442 59.1048C192.47 58.0403 193.264 55.0242 193.176 54.6694C193.087 54.3145 192.647 51.8306 191.059 49.0806C189.472 46.3306 188.413 44.5565 185.767 44.0242C183.651 43.5984 180.652 43.8468 179.417 44.0242C178.036 44.2903 175.149 45.2484 174.655 46.9516C174.161 48.6548 174.567 49.8495 174.831 50.2339ZM191.676 45C192.176 47.8091 194.516 53.6403 199.878 54.4919C200.76 54.7581 202.665 54.7048 203.23 52.3629C203.865 50.3048 203.259 48.6075 202.877 48.0161C202.142 46.5081 200.619 43.4742 200.408 43.4032C200.143 43.3145 196.527 42.6936 194.234 43.5806C193.381 43.6989 191.676 44.1484 191.676 45ZM183.827 60.6129C184.974 60.6129 187.461 60.8081 188.237 61.5887C189.207 62.5645 189.56 62.6532 190.442 64.4274C191.147 65.8468 188.149 65.3737 186.561 64.9597C185.326 64.9005 182.875 64.4629 182.945 63.1855C183.016 61.9081 182.975 61.2339 182.945 61.0565C183.063 60.9047 183.404 60.6036 183.827 60.6129ZM192.735 60.0806L195.733 65.6694C195.733 66.0242 196.95 66.6274 201.819 66.2016C206.687 65.7758 202.377 61.1156 199.614 58.8387C198.85 58.1586 197.268 56.7984 197.056 56.7984C196.792 56.7984 193.793 56 192.735 60.0806ZM203.494 59.1048C205.229 61.1452 209.033 65.2436 210.374 65.3145C212.049 65.4032 212.137 65.4919 212.931 64.1613C213.725 62.8306 213.813 61.5 213.813 61.0565C213.813 60.6129 215.665 56.7984 215.93 56.7984C216.194 56.7984 216.459 53.4274 215.136 53.1613C213.813 52.8952 212.226 52.9839 211.608 52.8065C210.991 52.629 209.668 51.2097 206.581 53.1613C204.112 54.7226 203.494 57.7742 203.494 59.1048ZM217.076 64.1613C216.988 64.6936 217.8 65.8823 221.751 66.379C225.702 66.8758 226.219 66.9409 225.984 66.9113H230.041C230.894 66.4973 232.634 65.421 232.775 64.4274C232.951 63.1855 233.04 60.3468 232.158 59.9032C231.276 59.4597 229.953 58.0403 226.337 59.1048C223.444 59.9565 220.957 60.5242 220.075 60.7016C218.84 60.9382 216.512 61.9613 217.076 64.1613ZM232.158 56.1774C232.569 57.6559 233.692 60.9677 234.892 62.3871C236.091 63.8065 240.272 62.3871 242.212 61.5C242.917 60.2876 244.117 56.9226 243.27 53.1613C242.212 48.4597 242.035 48.2823 241.065 48.2823C240.289 48.2823 237.92 49.7608 236.832 50.5L233.04 52.0968C232.452 52.7177 231.452 54.4032 232.158 56.1774ZM248.385 60.7016C250.649 61.5 254.965 63.3629 254.118 64.4274C253.271 65.4919 252.06 65.8172 251.56 65.8468C249.62 66.2903 245.493 66.8226 244.505 65.4032C243.27 63.629 243.27 63.7177 243.887 62.0323C244.505 60.3468 245.475 59.371 248.385 60.7016ZM216.194 50.5C216.959 51.0618 218.523 52.3097 218.664 52.8065C218.84 53.4274 219.987 56.2661 221.222 57.0645C222.209 57.7032 224.514 57.3306 225.543 57.0645C226.866 56.3548 229.635 54.6516 230.129 53.5161C230.747 52.0968 232.687 50.6774 231.54 47.0403C230.623 44.1306 228.042 42.9892 226.866 42.7823C225.161 42.3683 221.239 41.9129 219.193 43.4032C217.147 44.8935 216.165 46.2124 215.93 46.6855C215.548 47.336 215.066 49.0097 216.194 50.5ZM226.866 39.4113L233.745 46.0645C234.598 47.0699 236.779 48.3355 238.684 45.3548C240.589 42.3742 242.241 40.1505 242.829 39.4113C243.77 37.9032 244.875 34 241.771 30.4516C238.666 26.9032 235.95 26.5484 234.98 26.8145C234.304 26.6075 232.669 26.8145 231.54 29.2984C230.129 32.4032 229.953 32.4032 228.894 34.0887C228.048 35.4371 227.189 36.7796 226.866 37.2823C226.591 37.7258 226.206 38.7726 226.866 39.4113ZM244.946 36.3065C244.769 37.4301 244.522 39.9613 244.946 41.0968C245.369 42.2323 247.415 42.3979 248.385 42.3387C249.65 41.9543 251.966 40.4226 251.119 37.371C250.273 34.3194 248.238 33.6747 247.327 33.7339C246.611 33.6747 245.132 34.1065 244.946 36.3065ZM245.21 9.78226C242.8 10.1962 238.578 12.479 240.977 18.2984C241.124 18.8602 241.33 20.729 240.977 23.7097C240.624 26.6903 243.3 27.0215 244.681 26.8145C246.034 26.5484 249.179 24.6855 250.943 19.3629C252.707 14.0403 252.56 10.7581 252.266 9.78226C252.06 9.16822 250.908 8.14889 247.944 8.98387C244.981 9.81886 244.887 9.86404 245.21 9.78226ZM232.687 13.3306C234.745 12.4436 238.949 11.9468 239.301 17.0565C239.742 23.4435 239.39 22.5565 234.451 24.5081C233.392 25.0403 231.064 26.2823 230.217 26.9919C229.159 27.879 226.866 26.8145 226.866 25.129C226.866 23.7806 226.219 20.1909 225.896 18.5645C225.543 17.5887 225.649 15.4597 228.894 14.75C232.14 14.0403 232.775 13.5081 232.687 13.3306ZM221.751 18.5645C222.633 18.8898 224.82 20.9952 226.513 26.8145C228.207 32.6339 225.043 34.5027 223.25 34.7097C222.074 35.0941 219.034 35.0113 216.283 31.6048C212.843 27.3468 210.815 25.4839 215.665 21.8468L218.047 19.629C218.958 18.9194 220.975 17.7129 221.751 18.5645ZM215.93 35.3306C218.517 36.3656 222.791 39.0919 219.193 41.7177C215.595 44.3435 213.343 42.043 212.667 40.5645C211.55 39.8548 209.386 37.6371 209.668 34.4435C209.021 32.6398 208.821 29.6 213.196 31.871C213.637 32.9059 214.801 35.0468 215.93 35.3306ZM192.382 35.5968C192.999 38.5538 195.733 43.0484 201.731 37.371C209.227 30.2742 207.992 28.9435 205.258 25.3952C203.071 22.5565 197.527 24.8038 195.028 26.2823C192.147 27.0806 187.584 30.0613 192.382 35.5968ZM188.942 35.5968C189.854 36.0995 191.765 37.5484 192.117 39.3226C192.558 41.5403 192.117 42.5161 188.325 42.6048C184.533 42.6935 184.356 41.1855 184.444 39.0565C184.533 36.9274 185.415 35.4194 187.267 35.3306C187.594 35.2715 188.388 35.2419 188.942 35.5968ZM173.773 45C172.009 47.1882 168.375 49.8613 167.952 43.0484C167.423 34.5323 169.099 36.6613 171.127 34.7984C172.75 33.3081 176.801 32.4624 178.624 32.2258C180.887 32.3441 184.815 33.7516 182.416 38.4355C179.417 44.2903 178.712 41.8065 177.301 42.6935C175.89 43.5806 175.279 43.4919 173.773 45ZM183.033 26.5484C185.385 26.1344 189.807 26.2113 188.678 29.8306C187.267 34.3548 185.415 31.871 182.769 31.4274C180.123 30.9839 178.624 29.7419 178.624 28.2339C178.624 26.7258 180.123 26.5484 180.828 26.5484C181.534 26.5484 182.151 26.8145 183.033 26.5484ZM168.305 23.8871C172.215 22.172 179.029 20.9597 175.008 29.8306C172.479 33.4973 166.365 38.8081 162.131 30.7177C161.338 28.7661 160.755 24.8097 164.777 24.5968C165.659 24.5968 167.599 24.4548 168.305 23.8871ZM209.403 40.3871C211.197 41.1855 214.113 43.7048 211.432 47.3952C208.081 52.0081 203.759 51.3871 204.553 46.4194C204.582 45.5323 204.5 43.4387 203.935 42.1613C203.23 40.5645 204.994 38.5242 207.199 39.3226C208.962 39.9613 209.403 40.2984 209.403 40.3871ZM201.819 8.2742C204.582 6.26344 209.509 4.40645 207.11 13.0645C204.112 23.8871 203.053 22.379 199.173 22.2903C196.068 22.2194 196.351 15.0457 196.88 11.4677C197.233 11.0833 198.326 10.1726 199.878 9.60484C201.431 9.0371 201.819 8.48118 201.819 8.2742ZM185.856 10.8404C189.413 8.95005 196.068 7.19194 194.234 15.2823C193.969 16.1398 193.37 18.4581 193.087 20.871C192.735 23.8871 186.385 24.6855 184.709 25.0403C183.033 25.3952 180.211 22.2903 179.417 19.7177C178.624 17.1452 178.359 14.6613 181.534 13.0645C184.074 11.7871 185.473 11.0495 185.856 10.8404ZM173.42 7.03226C175.743 8.9543 179.082 14.0226 173.861 18.9194C167.335 25.0403 165.306 21.7581 165.042 21.0484C164.83 20.4806 162.366 16.4946 161.161 14.5726C159.956 12.6505 157.686 9.72903 161.778 7.03226C163.131 5.08065 166.259 1.37258 167.952 2.15323C170.069 3.12903 172.185 2.33065 173.42 3.66129C172.95 4.29552 172.291 5.85763 173.42 7.03226ZM157.016 50.2339C160.632 50.6774 166.188 48.4597 166.188 44.379C166.541 40.3871 166.541 39.6774 163.19 37.8145C162.014 37.578 159.397 36.8032 158.339 35.5968C157.016 34.0887 153.841 34 153.4 37.0161C152.959 40.0323 152.959 41.8064 151.107 44.379C149.255 46.9516 150.225 50.178 154.106 50.2339C157.21 50.2786 157.339 50.2525 157.016 50.2339ZM160.191 24.5968C160.191 27.879 162.131 32.2258 153.4 32.7581C150.431 32.9946 144.475 32.2258 144.404 27.2581C144.168 23.1336 142.258 16.7139 148.814 17.3226L154.635 17.5887C156.751 17.6183 160.826 19.0613 160.191 24.5968ZM154.635 13.8629C152.9 15.5188 149.484 17.3936 149.696 11.6452C149.666 10.1667 150.296 7.22742 153.047 7.29839C156.487 7.3871 156.399 8.00807 156.222 9.69355C156.046 11.379 156.487 11.7339 154.635 13.8629ZM116.623 9.33871C117.446 11.0538 118.687 14.9629 117.064 16.879C115.035 19.2742 111.596 18.8306 109.92 16.879C108.58 15.3177 106.657 13.5672 105.863 12.8871C104.805 12.2661 103.27 10.2613 105.599 7.20968C107.927 4.15807 109.626 3.57258 110.185 3.66129C111.449 3.4543 114.506 4.3 116.623 9.33871ZM140.7 30.2742C138.583 34.1774 133.186 39.7661 128.529 30.8952C126.207 27.1102 121.227 19.15 119.886 17.5887C118.546 16.0274 120.386 13.3898 121.474 12.2661C122.297 11.1129 125.019 9.65807 129.323 13.0645C134.703 17.3226 139.201 15.9032 140.7 18.6532C142.199 21.4032 143.169 24.6855 140.7 30.2742ZM139.465 35.3306C141.758 33.586 147.05 31.1968 149.872 35.5968C152.694 39.9968 149.872 42.6048 148.638 44.1129C147.814 45.2366 145.745 47.5371 144.051 47.75C141.935 48.0161 140.347 48.4597 140.435 46.5081C140.506 44.9468 137.878 42.9597 136.555 42.1613C135.585 41.629 134.191 40.0677 136.378 38.0806C138.566 36.0935 139.348 35.4194 139.465 35.3306ZM128.882 43.5806C129.94 40.9194 132.004 37.4597 135.673 43.4919C137.437 45.0887 140.083 48.9565 136.555 51.6532C133.027 54.35 130.087 53.4866 129.058 52.7177C128.882 52.5403 128.018 52.079 125.972 51.6532C123.925 51.2274 125.766 47.9274 126.942 46.3306C127.588 45.5914 128.882 44.0065 128.882 43.5806ZM126.501 44.1129C124.531 47.1882 119.939 52.3629 117.328 48.4597C116.505 47.9866 115.071 45.8339 115.917 41.0081C116.764 36.1823 118.152 33.4973 118.74 32.7581C119.151 32.2554 120.451 31.4806 122.356 32.4032C124.261 33.3258 125.913 33.0242 126.501 32.7581C127.118 32.6102 128.459 32.9177 128.882 35.3306C129.305 37.7435 127.471 42.1909 126.501 44.1129ZM115.653 22.4677C115.124 20.1613 119.269 17.4113 120.239 22.2016C120.415 22.4677 119.886 23.7984 121.915 25.129C123.943 26.4597 122.885 28.9435 121.65 29.4758C120.415 30.0081 117.152 31.4274 116.27 29.2984C115.565 27.5952 115.447 25.9866 115.476 25.3952L115.653 22.4677ZM106.392 30.4516C108.921 28.1452 113.818 25.5371 113.183 33.5565C112.39 43.5806 108.509 41.5403 105.775 42.7823C103.041 44.0242 100.748 42.871 99.866 40.4758C98.984 38.0806 95.6326 35.8629 101.013 33.8226C106.392 31.7823 103.482 33.4677 106.392 30.4516ZM98.1021 24.5968C99.2486 27.3468 100.801 31.0726 107.715 27.1694C108.627 26.7258 110.573 25.7145 111.067 25.2177C111.684 24.5968 115.388 22.2903 111.243 19.4516C107.927 17.1806 106.04 16.4355 105.51 16.3468C103.894 15.8441 100.272 15.4774 98.7195 18.0323C97.1672 20.5871 97.6611 23.4731 98.1021 24.5968ZM82.0507 31.0726C84.4026 32.1075 90.0058 33.6452 93.6042 31.5161C98.1021 28.8548 96.5146 26.371 96.6028 24.5968C96.6733 23.1774 94.4567 20.3387 93.3396 19.0968C90.782 15.4005 84.7318 10.1903 80.9924 18.9194C80.4632 19.8952 79.1932 22.0597 78.3465 22.9113C77.2882 23.9758 76.4063 26.9032 79.6695 29.3871L82.0507 31.0726ZM71.1146 26.9919C71.5556 28.9435 75.7889 30.8065 75.6125 26.1048L75.1715 23.0887C74.9658 22.0242 73.9897 20.3032 71.732 21.9355C68.9097 23.9758 69.5271 23.7097 70.3208 25.6613L71.1146 26.9919ZM74.2014 38.5242C73.9174 40.4167 74.5076 43.6161 79.1403 41.2742C84.9312 38.3468 82.5799 34.0887 81.257 33.4677C79.934 32.8468 78.2583 31.0726 75.6125 31.4274C72.9667 31.7823 72.9667 33.1129 73.4077 35.1532C73.7604 36.7855 74.0838 38.0806 74.2014 38.5242ZM55.416 32.9355C55.4454 35.0054 56.5978 39.3226 60.9722 40.0323C66.4403 40.9194 61.766 42.0726 67.5868 41.2742C73.4077 40.4758 71.732 33.7339 71.5556 33.4677C71.3792 33.2016 71.4674 25.129 64.2354 28.5887C61.766 29.7701 57.3563 29.0323 56.2097 30.7177C55.9451 30.9543 55.416 31.729 55.416 32.9355ZM89.1063 8.00807C87.607 5.87903 89.459 1.53226 93.3396 5.87903C94.1921 6.88441 96.3558 9.14355 98.1903 10.1371C100.483 11.379 101.365 13.1532 98.984 15.0161C96.6028 16.879 93.957 17.3226 92.3695 14.4839C90.782 11.6452 90.1514 13.5968 89.3708 9.87097L89.1063 8.00807ZM73.6722 15.4597C74.172 17.1452 76.0006 19.7532 79.3167 16.7016C82.6328 13.65 83.9322 12.3548 84.1674 12.0887C87.607 9.07258 87.4306 8.18549 85.9313 4.99194C84.8435 3.01075 81.839 0.0596795 78.5229 4.10484C77.8762 5.61291 76.2299 8.87742 74.8188 9.87097C73.0549 11.1129 73.4411 14.8387 73.6722 15.4597ZM70.6736 13.1532C71.9083 14.129 73.1607 17.2161 68.2924 21.7581C62.207 27.4355 60.5313 26.9919 59.2083 26.1048C58.15 25.3952 56.2391 22.0833 55.416 20.5161C54.534 19.0081 53.6345 15.6016 57.0917 14.0403C60.5489 12.479 62.4715 11.6156 63.0007 11.379C64.4706 10.9651 67.7808 10.4565 69.2625 11.7339C69.6661 12.1479 70.5135 13.0113 70.6736 13.1532ZM48.0958 26.1048C50.5947 27.1694 55.4865 28.4468 55.0632 25.0403C55.0926 23.9758 55.0456 21.7935 54.6222 21.5806C54.0931 21.3145 53.5639 19.7177 53.7403 18.8306C53.9167 17.9435 52.1528 14.4839 49.066 14.4839C45.9792 14.4839 45.1854 14.9274 44.0389 17.5C42.8924 20.0726 40.7757 23.0887 44.9208 24.5968L48.0958 26.1048ZM29.2222 6.23387C30.4863 3.63172 33.9318 -0.0112885 37.6007 6.23387C42.1868 14.0403 41.3049 9.95968 41.7458 14.2177C42.0986 17.6242 38.7178 20.4274 36.9833 21.4032C34.6609 22.9704 29.8572 25.0403 29.2222 20.7823C28.5461 19.2742 26.8233 15.85 25.3417 14.2177C23.4896 12.1774 23.8424 10.2258 25.8708 8.80645C26.7835 8.30377 28.7316 7.08549 29.2222 6.23387ZM41.3049 24.0645C43.2451 24.9812 45.9615 27.0984 41.3049 28.2339C40.3641 28.8844 38.1828 29.5113 36.9833 26.8145C36.4836 26.0161 35.7839 24.2242 36.9833 23.4435C38.4826 22.4677 39.0118 21.5806 41.3049 24.0645ZM36.5424 32.7581C37.0421 31.043 36.807 27.3113 31.8681 26.1048C25.6944 24.5968 27.0174 20.3387 24.107 26.1048C23.225 27.7312 21.8139 31.3742 23.225 32.9355C24.9889 34.8871 28.6049 36.75 28.7813 36.8387C28.9576 36.9274 34.9759 40.8306 35.8368 35.8629L36.5424 32.7581ZM31.1625 46.4194C32.75 44.172 34.1435 39.6774 27.0174 39.6774C26.106 39.6183 24.6497 37.9732 22.6076 37.4597C20.1382 36.8387 15.9049 37.1048 16.6986 41.0081C17.0514 43.6989 18.4801 49.1516 21.3729 49.4355C24.9889 49.7903 25.7826 50.3226 27.8111 49.4355C29.4339 48.7258 30.7215 47.129 31.1625 46.4194ZM12.9944 50.0565C15.1111 50.086 18.8153 49.2581 16.6986 45.7097C14.5819 42.1613 13.8764 40.328 13.7882 39.8548C12.1419 38.4651 8.35542 36.4839 6.37987 39.6774C3.91042 43.6694 4.88056 44.4677 6.37987 46.4194C7.87917 48.371 8.76112 50.6774 10.8778 50.0565C12.5711 49.5597 12.9944 49.8495 12.9944 50.0565ZM2.49931 50.0565C2.76389 48.4597 3.91042 46.2242 6.37987 50.0565C8.84931 53.8887 6.87963 54.2554 5.58612 53.9597C4.2926 53.664 1.86431 52.4694 2.49931 50.0565ZM14.141 36.0403C15.6697 36.336 18.3438 35.7751 20.05 32.4919C22.0785 28.5887 21.1084 22.5565 15.9931 24.7742C15.3463 25.6022 13.7353 27.4177 12.4653 28.0565C10.8778 28.8548 10.0841 31.6935 10.1722 32.9355C10.2604 34.1774 9.99587 35.1532 11.4952 35.5968C12.2889 35.6559 13.9293 35.8274 14.141 36.0403ZM21.1966 17.3226C23.225 16.0806 26.9292 15.7258 24.9889 20.25C24.4891 21.5806 22.8899 23.9226 20.491 22.6452C17.4924 21.0484 18.2861 20.1613 19.2563 18.8306L21.1966 17.3226ZM19.1681 8.2742C20.9614 9.16129 23.6836 11.9645 20.2264 16.0806L17.0514 19.629C15.7285 20.871 12.5711 22.521 10.525 19.1855C7.96738 15.0161 8.76113 13.4194 9.99586 12.3548C11.2306 11.2903 12.8181 9.69355 13.3472 8.18549C13.7706 6.97903 17.4042 7.74194 19.1681 8.2742ZM133.292 10.8404C135.291 13.356 140.241 17.4823 144.051 13.8629C148.814 9.33871 149.872 11.1129 145.727 7.03226C141.582 2.95161 146.521 2.06452 138.407 2.15323C130.293 2.24194 122.179 1.97581 125.354 4.99194C128.529 8.00807 130.381 8.00807 130.91 8.00807C131.334 8.00807 132.674 9.89629 133.292 10.8404ZM119.71 9.33871C122.062 9.60484 126.483 9.71129 125.354 8.00807C123.943 5.87903 123.149 2.59678 119.71 3.12903C116.27 3.66129 115.388 4.37097 117.064 7.03226C118.404 9.16129 119.386 9.45699 119.71 9.33871ZM158.339 5.87903C161.161 4.9328 165.165 2.95161 158.603 2.59678C150.401 2.15323 147.403 1.44355 148.638 3.66129C149.872 5.87903 150.578 5.87903 153.4 5.87903C155.658 5.87903 157.633 5.87903 158.339 5.87903ZM196.88 3.12903C199.136 3.83871 202.295 5.66613 196.88 7.29839C191.465 8.93065 183.923 9.33871 180.828 9.33871C178.976 9.01344 175.554 7.68871 176.683 4.99194C177.812 2.29516 180.388 1.62097 181.534 1.62097C184.533 1.47312 190.9 1.37258 192.382 2.15323C193.864 2.93387 195.998 3.12903 196.88 3.12903ZM210.903 8.2742C209.219 6.23387 206.545 2.15323 209.315 2.15323C212.779 2.15323 221.751 2.33065 221.751 3.66129L224.926 6.32258C227.466 8.45161 223.867 9.39785 221.751 9.60484C221.045 10.6694 214.225 9.16129 210.903 8.2742ZM97.3083 5.87903C97.7787 7.29839 99.231 9.71129 101.277 8.00807C103.835 5.87903 101.515 5.16936 105.158 4.6371C108.8 4.10484 106.481 1.08871 103.041 1.8871C100.572 1.53226 95.5621 1.03549 95.2799 1.8871C94.9976 2.73871 96.5146 4.90323 97.3083 5.87903ZM74.1132 8.00807C73.2901 9.42742 71.0617 11.4145 68.7333 8.00807C65.8229 3.75 72.1729 1.79839 73.6722 2.06452C75.1715 2.33065 77.2882 4.01613 76.2299 5.61291L74.1132 8.00807ZM58.591 11.379C54.0931 12.207 46.5789 11.5565 52.5056 2.33065C52.8583 1.73925 55.5218 0.911292 63.3535 2.33065C65.3232 2.44893 68.5922 3.55484 65.9111 7.03226C65.4113 8.09678 64.059 10.2436 62.6479 10.3145C61.2368 10.3855 59.3553 11.0538 58.591 11.379ZM45.6264 12.621C47.5373 12.8871 50.9004 12.7984 49.066 10.3145C47.2315 7.83065 48.3016 5.13979 49.066 4.10484C47.8901 2.4785 44.9032 0.00645354 42.3632 3.12903C39.8232 6.25161 41.3049 8.56989 42.3632 9.33871L45.6264 12.621ZM37.6007 4.10484C38.0711 5.28764 39.1882 7.12097 39.8938 4.99194C40.1877 4.28226 40.9344 2.79194 41.5694 2.50807C42.3632 2.15323 40.9521 0.645163 38.7472 1.8871C36.5424 3.12903 36.9833 2.24194 37.6007 4.10484ZM19.2563 5.70161C20.4028 7.15054 23.5601 9.0371 27.0174 4.99194C30.4746 0.946776 24.107 1.23656 20.491 1.8871C18.7565 1.94624 16.0813 2.79194 19.2563 5.70161ZM5.85069 11.4677C6.37988 12.414 7.94976 13.65 9.99586 11.0242C12.0419 8.39839 12.9063 6.73656 13.0826 6.23387C14.1704 4.87366 13.8764 2.95161 11.2306 2.68549C9.20208 1.91667 5.2157 0.840325 5.49792 2.68549C5.85069 4.99194 4.08681 5.08065 4.79236 8.2742L5.85069 11.4677ZM223.338 15.4597C221.663 15.8441 218.752 15.7081 220.516 12.0887C222.28 8.46936 226.013 10.3441 227.66 11.7339C228.277 12.2661 228.277 13.7565 223.338 15.4597ZM231.54 10.4919C229.071 8.56989 224.679 4.35323 226.866 2.86291C229.053 1.37258 237.185 1.76882 240.977 2.15323C243.358 4.22312 246.516 8.61129 240.095 9.60484C238.272 10.4032 234.01 11.6984 231.54 10.4919Z" stroke="white" stroke-linecap="round"/>
</svg>
