<?xml version="1.0" encoding="utf-8"?>
<!-- Generator: Adobe Illustrator 25.0.1, SVG Export Plug-In . SVG Version: 6.00 Build 0)  -->
<svg version="1.0" id="katman_1" xmlns="http://www.w3.org/2000/svg" xmlns:xlink="http://www.w3.org/1999/xlink" x="0px" y="0px"
	 viewBox="0 0 600 400" style="enable-background:new 0 0 600 400;" xml:space="preserve">
<style type="text/css">
	.st0{fill-rule:evenodd;clip-rule:evenodd;fill:#0D3274;}
	.st1{fill-rule:evenodd;clip-rule:evenodd;fill:#C90632;}
	.st2{fill-rule:evenodd;clip-rule:evenodd;fill:#F29000;}
	.st3{fill:#0D3274;}
</style>
<path class="st0" d="M447.3,153.3L447.3,153.3c0,0-0.1,0-0.1,0c-0.1,0-0.2,0-0.3,0.1c-0.1,0.1-0.2,0.2-0.2,0.3l0,0
	c0,0.1,0,0.1,0,0.2c0,0.1,0,0.2,0.1,0.2c0.1,0.1,0.2,0.2,0.3,0.2h0h0l0,0c0.1,0,0.3,0,0.4-0.1c0.1,0,0.1-0.1,0.2-0.2
	c0,0,0-0.1,0.1-0.1l0,0c0-0.1,0-0.3-0.1-0.4c-0.1-0.1-0.1-0.1-0.2-0.2C447.4,153.3,447.3,153.3,447.3,153.3 M463.7,141.3
	L463.7,141.3l0.2,0.3l0,0c0.1,0.1,0.2,0.1,0.2,0.1l0,0c0.1,0,0.3,0,0.4-0.1c0,0,0.1-0.1,0.1-0.1c0-0.1,0.1-0.1,0.1-0.2l0,0
	c0-0.1,0-0.3-0.1-0.4c-0.1-0.1-0.2-0.2-0.3-0.2l0,0c-0.1,0-0.3,0-0.4,0.1c-0.1,0.1-0.2,0.2-0.2,0.3l0,0
	C463.7,141.1,463.7,141.2,463.7,141.3z M432.6,175.4L432.6,175.4L432.6,175.4c-0.1-0.1-0.2-0.2-0.3-0.2l0,0c-0.1,0-0.3,0-0.4,0.1
	c-0.1,0.1-0.2,0.2-0.2,0.3l0,0c0,0.1,0,0.3,0.1,0.4c0.1,0.1,0.2,0.2,0.3,0.2l0,0c0.1,0,0.3,0,0.4-0.1c0.1-0.1,0.2-0.2,0.2-0.3l0,0
	C432.7,175.7,432.7,175.5,432.6,175.4z M443.8,172c0-0.1,0-0.3-0.1-0.4c-0.1-0.1-0.2-0.2-0.3-0.2l0,0c-0.1,0-0.3,0-0.4,0.1
	c-0.1,0.1-0.2,0.2-0.2,0.3l0,0.1c0,0.1,0,0.2,0.1,0.3c0,0,0,0,0,0.1c0.1,0.1,0.2,0.1,0.3,0.2h0c0.1,0,0.2,0,0.3,0c0,0,0,0,0.1,0
	C443.7,172.3,443.8,172.2,443.8,172L443.8,172L443.8,172L443.8,172z M441,176L441,176l-0.1,0.2l-0.2,0.1l0-0.1
	c0,0.1-0.1,0.1-0.1,0.2l0,0c0,0.1,0,0.3,0.1,0.4c0.1,0.1,0.2,0.2,0.3,0.2l0,0c0.1,0,0.3,0,0.4-0.1c0.1-0.1,0.2-0.2,0.2-0.3l0,0
	c0-0.1,0-0.3-0.1-0.4c-0.1-0.1-0.2-0.2-0.3-0.2h0h0l0,0C441.1,176,441.1,176,441,176z M385.3,176.4L385.3,176.4c0,0-0.1,0-0.1,0
	c-0.1,0-0.2,0-0.3,0.1c-0.1,0.1-0.2,0.2-0.2,0.3l0,0v0l0,0c0,0.1,0,0.1,0,0.2c0,0.1,0,0.2,0.1,0.2c0.1,0.1,0.2,0.2,0.3,0.2l0,0h0
	l0,0c0.1,0,0.3,0,0.4-0.1c0.1,0,0.1-0.1,0.2-0.2c0,0,0-0.1,0.1-0.1l0,0c0-0.1,0-0.3-0.1-0.4c-0.1-0.1-0.1-0.1-0.2-0.2
	C385.4,176.5,385.3,176.5,385.3,176.4z M455,149.2l-4-0.8l-0.3-0.5l-0.1-0.2l-0.7-1l-0.8-0.2c-0.2,0.3-0.5,0.5-0.8,0.4
	c-0.4-0.1-0.7-0.5-0.6-0.9c0.1-0.4,0.5-0.7,0.9-0.6c0.3,0.1,0.6,0.4,0.6,0.7l0.9,0.2l0,0.1l0.8,1.3l0.1,0.2l0.1,0.1l4,0.8l0.9,1.3
	l0.1,0.2l4.8,1l0.7-0.5c-0.1-0.1-0.1-0.3,0-0.4c0-0.1,0.1-0.2,0.1-0.3c0,0,0.1-0.1,0.1-0.1c0.2-0.2,0.4-0.3,0.7-0.2
	c0.3,0.1,0.5,0.2,0.6,0.5c0,0,0,0.1,0,0.2c0,0.1,0,0.2,0,0.3c-0.1,0.4-0.5,0.7-0.9,0.6c-0.1,0-0.2-0.1-0.3-0.2l-0.8,0.6l-0.1,0
	l-0.1,0l-5.1-1l0-0.1L455,149.2z M450.6,160.7l-0.7-1.1l0.6-2.9l-1.6-2.3l-0.7-0.1c0,0,0,0,0,0c-0.1,0.2-0.2,0.3-0.3,0.4
	c-0.2,0.1-0.4,0.2-0.7,0.1l0,0c-0.2,0-0.4-0.2-0.6-0.4c-0.1-0.1-0.2-0.3-0.2-0.5c0-0.1,0-0.1,0-0.2l0,0c0-0.2,0.2-0.4,0.3-0.5
	c0,0,0,0,0,0c0.2-0.1,0.4-0.2,0.7-0.1l0,0c0.2,0,0.4,0.2,0.6,0.4c0,0,0,0,0,0c0.1,0.1,0.1,0.3,0.1,0.4l0.9,0.2l1.8,2.6l-0.6,2.9
	l0.7,0.9c0.1-0.1,0.3-0.1,0.4,0c0.4,0.1,0.7,0.5,0.6,0.9c0,0.1,0,0.1-0.1,0.2c-0.2,0.3-0.5,0.5-0.8,0.4c-0.3-0.1-0.6-0.4-0.6-0.7
	c0-0.1,0-0.1,0-0.2C450.4,160.9,450.5,160.8,450.6,160.7z M459.8,144.6c0-0.1-0.1-0.3,0-0.4c0.1-0.4,0.5-0.7,0.9-0.6
	c0.4,0.1,0.7,0.5,0.6,0.9c-0.1,0.4-0.5,0.7-0.9,0.6c-0.1,0-0.3-0.1-0.4-0.2l-0.6,0.4l-0.1,0l-0.1,0l-4.4-0.9l-2.7-4L450,140
	l-3.8,2.6l-0.1,0l-1.3-0.3l-1.3,0.9c0,0.1,0.1,0.3,0,0.4c-0.1,0.4-0.5,0.7-0.9,0.6c-0.4-0.1-0.7-0.5-0.6-0.9
	c0.1-0.4,0.5-0.7,0.9-0.6c0.1,0,0.3,0.1,0.4,0.2l1.4-0.9l0.1,0l1.3,0.3l3.9-2.6l2.5,0.5l0,0.1l0.1,0.2l2.5,3.7l4.2,0.8L459.8,144.6z
	 M459.2,146.2l0.4,0.1l2.3-1.6l0.5-2.7l0.1,0l0.8-0.6c0-0.1,0-0.1,0-0.2c0-0.1,0-0.2,0-0.3l0,0c0-0.2,0.2-0.4,0.4-0.6
	c0.2-0.1,0.3-0.2,0.5-0.2c0.1,0,0.1,0,0.2,0l0,0c0.1,0,0.1,0,0.2,0c0.2,0.1,0.3,0.2,0.4,0.3c0.1,0.2,0.2,0.4,0.1,0.7l0,0v0l0,0
	c0,0.1,0,0.2-0.1,0.3c-0.1,0.1-0.2,0.2-0.3,0.3c-0.1,0-0.1,0.1-0.2,0.1c-0.2,0.1-0.3,0.1-0.5,0l0,0c-0.2,0-0.3-0.1-0.4-0.2
	c0,0,0,0-0.1-0.1l-0.5,0.3l-0.2,0.2l-0.5,2.6l0,0.1l-0.1,0l-2.5,1.6l-0.1,0l-0.6-0.1c-0.2,0.3-0.5,0.5-0.8,0.4
	c-0.4-0.1-0.7-0.5-0.6-0.9c0.1-0.4,0.5-0.7,0.9-0.6C459,145.6,459.2,145.9,459.2,146.2z M431.5,175.1l-0.3-0.5l0-0.1l0-0.1l0.5-2.4
	l-1-1.5l0-0.1l0.7-3.5l0.1-0.3l0.1-0.5l1.3,1.9l0,0.1l-0.3,1.3l1,1.5l3.2,0.6l0.1,0l0,0.1l0.5,0.7l2,0.4l2.1-1.4l0.1,0l0.1,0l1,0.2
	c0.1-0.2,0.2-0.3,0.3-0.4c0.2-0.1,0.4-0.2,0.7-0.1l0,0l0,0c0.2,0,0.4,0.2,0.6,0.4c0.1,0.2,0.2,0.4,0.1,0.7l0,0v0l0,0
	c0,0.2-0.1,0.3-0.2,0.5c0,0-0.1,0.1-0.1,0.1c-0.2,0.1-0.4,0.2-0.7,0.1l0,0c-0.2,0-0.4-0.2-0.6-0.4c0,0-0.1-0.1-0.1-0.2
	c0-0.1-0.1-0.2-0.1-0.3l-0.9-0.2l-2.2,1.5l-0.1,0l-2.3-0.5l0-0.1l-0.5-0.7l-3.2-0.6l-0.1,0l0-0.1l-0.7-1l-0.4-0.6l0-0.1l0.3-1.4
	l-0.5-0.7l-0.2-0.3l-0.5,2.7l-0.1,0.5l1,1.5l0,0.1l-0.5,2.3l0.3,0.5c0.2-0.1,0.3-0.1,0.5-0.1l0,0c0.2,0,0.4,0.2,0.6,0.4
	c0.1,0.2,0.2,0.4,0.1,0.7l0,0c0,0.2-0.2,0.4-0.4,0.6c-0.2,0.1-0.4,0.2-0.7,0.1l0,0c-0.2,0-0.4-0.2-0.6-0.4c-0.1-0.2-0.2-0.4-0.1-0.7
	l0,0C431.3,175.3,431.4,175.2,431.5,175.1z M440.2,176.4L440.2,176.4c0-0.2,0.1-0.4,0.3-0.5l-1.3-1.9l-1.6-0.3l-0.7,0.4l-0.3,0.2
	c0,0.1,0.1,0.3,0,0.4c-0.1,0.4-0.5,0.7-0.9,0.6c-0.4-0.1-0.7-0.5-0.6-0.9c0.1-0.4,0.5-0.7,0.9-0.6c0.1,0,0.3,0.1,0.4,0.2l1.1-0.8
	l0.1,0l1.8,0.3l0.1,0l0,0.1l1.3,2c0.2-0.1,0.3-0.1,0.5,0l0,0c0.2,0,0.4,0.2,0.6,0.4c0.1,0.2,0.2,0.4,0.1,0.7l0,0
	c0,0.2-0.2,0.4-0.4,0.6c-0.2,0.1-0.4,0.2-0.7,0.1l0,0c-0.2,0-0.4-0.2-0.6-0.4C440.2,176.8,440.2,176.6,440.2,176.4z M388.6,183.8
	l-0.7-1.1l0.2-0.9l0.4-2l-1.6-2.3l-0.7-0.1c0,0,0,0,0,0c-0.1,0.2-0.2,0.3-0.3,0.4c-0.2,0.1-0.4,0.2-0.7,0.1l0,0
	c-0.2,0-0.4-0.2-0.6-0.4c-0.1-0.1-0.2-0.3-0.2-0.5c0-0.1,0-0.1,0-0.2l0,0l0,0c0-0.2,0.2-0.4,0.3-0.5c0,0,0,0,0,0
	c0.2-0.1,0.4-0.2,0.7-0.1l0,0c0.2,0,0.4,0.2,0.6,0.4c0,0,0,0,0,0c0.1,0.1,0.1,0.3,0.1,0.4l0.9,0.2l1.8,2.6l-0.1,0.3l-0.5,2.6
	l0.7,0.9c0.1-0.1,0.3-0.1,0.4,0c0.4,0.1,0.7,0.5,0.6,0.9c0,0.1,0,0.1-0.1,0.2c-0.2,0.3-0.5,0.5-0.8,0.4c-0.3-0.1-0.6-0.4-0.6-0.7
	c0-0.1,0-0.1,0-0.2C388.5,184,388.5,183.9,388.6,183.8z M359.9,196.5c-0.2,0.2-0.5,0.5-0.7,0.7c0.1,0,0.1,0.1,0.2,0.1h0
	c0.1,0,0.2,0,0.3,0l0,0l0.2-0.1c0.1-0.1,0.1-0.2,0.1-0.2l0,0l0,0c0,0,0,0,0,0C360,196.7,360,196.6,359.9,196.5L359.9,196.5z
	 M362.5,193.9L362.5,193.9C362.5,194,362.5,194,362.5,193.9L362.5,193.9z M402.5,163.2c-0.1,0.1-0.2,0.1-0.2,0.2c0,0,0,0,0.1,0
	c0.1,0,0.1,0,0.2,0l0,0l0,0c0,0,0.1,0,0.1,0L402.5,163.2z M418.1,153.5l-0.2,0.1l0,0L418.1,153.5z M434.5,144.4l-0.2,0.1l0.1,0.1
	l0,0.1l-0.1,0.5c0.2,0.1,0.3,0.2,0.4,0.3c0.1,0.2,0.2,0.4,0.2,0.6c0,0,0,0.1,0,0.1l0,0l0,0c0,0.2-0.1,0.3-0.3,0.5
	c0,0-0.1,0.1-0.1,0.1c-0.1,0-0.1,0.1-0.2,0.1c-0.1,0-0.1,0-0.2,0c-0.1,0-0.2,0-0.3,0l0,0c-0.1,0-0.2-0.1-0.3-0.1
	c0,0-0.1-0.1-0.1-0.1c-0.1-0.1-0.1-0.1-0.2-0.2c0,0-0.1-0.1-0.1-0.1c-0.1-0.2-0.1-0.4-0.1-0.5l0,0l0,0c0,0,0-0.1,0-0.1
	c0.1-0.2,0.2-0.4,0.4-0.5c0.1-0.1,0.3-0.1,0.5-0.2l0.1-0.3l-0.1-0.1c-1.1,0.6-2.1,1.1-3.2,1.7l9.1,1.8c0,0-0.1-0.1-0.1-0.1
	c0,0-0.1-0.1-0.1-0.1c0,0,0,0,0,0c0,0,0,0,0-0.1c0-0.1-0.1-0.2-0.1-0.3c0-0.1,0-0.2,0-0.3l0,0l0,0c0-0.1,0.1-0.2,0.1-0.3
	c0,0,0.1-0.1,0.1-0.1l-0.4-0.6l-4.2-0.8l-0.4-0.6l-0.1-0.2L434.5,144.4z M435.1,144l-0.2,0.1l0.3,0.5l0.1,0.2l0.1,0.2l2.7,0.5
	c0,0-0.1-0.1-0.1-0.1c0,0,0,0-0.1-0.1c0,0,0-0.1-0.1-0.1c-0.1-0.1-0.1-0.3-0.1-0.4l-2.5-0.5L435.1,144z M444.3,139.3
	c-1.9,1-3.8,1.9-5.7,2.9l2.7,0.5l2.9-1.9l0.1,0l1.3,0.2l0.8-0.5l-0.6-0.9L444.3,139.3z M448,137.4c-0.4,0.2-0.8,0.4-1.3,0.6l1.6,0.3
	c0,0-0.1,0-0.1-0.1c0,0-0.1-0.1-0.1-0.1c0-0.1-0.1-0.1-0.1-0.2C448,137.8,448,137.7,448,137.4L448,137.4
	C448,137.5,448,137.5,448,137.4z M463,130.5c-3.6,1.6-7.1,3.2-10.7,4.9l1.4,0.3l0,0.1l1.8,2.7l2.4,0.5l4.4-2.9l0.1,0l1.3,0.2
	l0.4-0.3c-0.1-0.2-0.1-0.3-0.1-0.5c0-0.1,0.1-0.2,0.2-0.3c0.2-0.2,0.5-0.3,0.8-0.3c0,0,0,0,0.1,0c0.1-0.1,0.3-0.2,0.5-0.2l0.1-0.5
	l-0.7-1c-0.1,0-0.3,0.1-0.4,0c-0.4-0.1-0.7-0.5-0.6-0.9c0-0.1,0.1-0.3,0.2-0.4L463,130.5z M483.5,122.1c-0.5,0.2-1,0.4-1.5,0.6
	l0.1,0.1l0.2,0.2l4.5,0.9l1.2-0.8l-4.2-0.8l-0.1,0L483.5,122.1z M496.6,117.5L496.6,117.5L496.6,117.5
	C496.6,117.5,496.6,117.5,496.6,117.5L496.6,117.5z M497.9,117.1c-0.3,0.1-0.6,0.2-0.9,0.3c0.1,0.1,0.2,0.1,0.3,0.2l0,0
	c0.1,0,0.2,0,0.2,0l0.1-0.1l0,0c0,0,0,0,0,0C497.8,117.4,497.8,117.3,497.9,117.1L497.9,117.1z M505,114.9c-1,0.3-2,0.6-3,0.9
	l1.3,0.3l0.2-0.1L505,114.9z M520.5,111.1c-1,0.2-2,0.4-3,0.6l2.4,0.5l0.5-0.3c0-0.1-0.1-0.3,0-0.4
	C520.3,111.4,520.4,111.2,520.5,111.1z M522.9,111.7c1.3-0.6,2.6-1.2,3.9-1.8c-1.2,0.2-2.5,0.4-3.7,0.7L522.9,111.7z M516.3,114.9
	c0.7-0.3,1.4-0.7,2-1c-0.1-0.2-0.1-0.3-0.1-0.5c0.1-0.4,0.5-0.7,0.9-0.6c0.3,0.1,0.5,0.2,0.6,0.5c0.9-0.4,1.9-0.9,2.8-1.3l0.2-1.2
	c-0.5,0.1-0.9,0.2-1.4,0.3c0.3,0.1,0.5,0.5,0.5,0.9c-0.1,0.4-0.5,0.7-0.9,0.6c-0.1,0-0.3-0.1-0.4-0.2l-0.6,0.4l-0.1,0l-0.1,0
	l-3.3-0.7c-1.6,0.4-3.2,0.7-4.8,1.1l0.7,1L516.3,114.9z M514.3,115.9c0.5-0.2,0.9-0.5,1.4-0.7l-3.5-0.7l-0.8-1.2
	c-0.5,0.1-0.9,0.2-1.4,0.4l0.7,0.1l0,0.1l0.8,1.3l0.1,0.2l0.1,0.1L514.3,115.9z M508.7,118.7c0.2-0.1,0.5-0.2,0.7-0.4l-4.1-0.8
	l-0.4,0.3l-1,0.7l-1.6,1.1l-0.1,0l-2.1-0.4l-0.1,0l0-0.1l0,0l-0.4-0.6c-0.1,0-0.3,0.1-0.4,0c-0.4-0.1-0.7-0.5-0.6-0.9
	c0-0.1,0.1-0.2,0.1-0.3c0.2-0.2,0.5-0.3,0.8-0.3c0.3,0.1,0.5,0.3,0.6,0.6c0,0.1,0,0.2,0,0.3c0,0.1-0.1,0.3-0.2,0.4l0.3,0.5l1.9,0.4
	l3-2l0.1,0l0.1,0l4.7,0.9c1.2-0.6,2.5-1.3,3.7-1.9l-2.2-0.4l-0.3-0.5l-0.1-0.2l-0.7-1l-0.8-0.2c-0.2,0.3-0.5,0.5-0.8,0.4
	c-0.2,0-0.4-0.1-0.5-0.3l0,0c-0.6,0.2-1.1,0.3-1.7,0.5l0,0c0,0.1,0,0.2,0,0.3c-0.1,0.4-0.5,0.7-0.9,0.6c-0.1,0-0.3-0.1-0.4-0.2
	l-1.8,1.2l-0.1,0l-0.1,0l-2.1-0.4c-1,0.3-2,0.6-3,0.9l0,0c0,0.1,0,0.1,0,0.2l0,0l0,0c0,0.2-0.2,0.4-0.4,0.6c0,0,0,0,0,0l0.6,0.9
	l0.6,0.9l0.7,1l2.2,0.4l4.2-2.8L508.7,118.7z M507.3,119.5c0.3-0.2,0.6-0.3,0.9-0.5l-2-0.4l-1.6,1.1l-0.3,0.2l-2.3,1.5l-2.5-0.5
	l0-0.1l-1.5-2.2l-0.5-0.7c-0.1,0-0.2,0-0.3,0l0,0c0,0,0,0-0.1,0l2.4,3.6l2.2,0.4l2.2-1.5l0.9-0.6l1-0.7l0.1,0l0.1,0L507.3,119.5z
	 M500,123.6c2.2-1.3,4.5-2.6,6.8-3.9l-0.8-0.1l-4.1,2.7l-0.1,0l-0.1,0l-2.4-0.5l-0.1,0l-2.6-3.9l-0.9-0.2c-2,0.7-4,1.3-6,2l8.7,1.7
	l0.1,0l0,0.1L500,123.6z M498.3,124.6c0.4-0.3,0.9-0.5,1.3-0.8l-1.3-1.9l-9.3-1.8c-0.1,0.1-0.3,0.1-0.4,0.2l7.8,1.5L498.3,124.6z
	 M497.8,124.9l0.1-0.1l-1.8-2.7l-8.3-1.6c-0.3,0.1-0.5,0.2-0.8,0.3l9.2,1.8L497.8,124.9z M495.3,126.5c0.7-0.5,1.5-0.9,2.2-1.4
	l-1.4-2.2l-9.4-1.9l-0.1,0l-0.1-0.1c-0.8,0.3-1.7,0.6-2.5,0.9l4.9,1l-1.5,1l-0.6,0.4l-4.8-0.9l0-0.1l-0.3-0.5
	c-0.7,0.3-1.4,0.5-2.1,0.8l8.4,1.7l2.4-1.6l0.1,0l4.2,0.8l0.1,0l0,0.1l0.5,0.8l0.2,0.4l0,0.1L495.3,126.5z M494.6,126.9l0.2-0.2
	l0.2-1l-0.6-0.9l-4.1-0.8l-2.4,1.6l-0.1,0l-9-1.8c-0.1,0.1-0.3,0.1-0.4,0.2l9.6,1.9l2.3-1.5l3.5,0.7l0.1,0l0,0l0.7,1l0,0.1
	L494.6,126.9z M491.5,128.9c0.9-0.6,1.8-1.1,2.7-1.7l0.2-0.9l-0.6-0.8l-3.3-0.6l-2.3,1.5l-0.1,0l-10.3-2c-0.2,0.1-0.4,0.2-0.6,0.2
	l13.1,2.6L491.5,128.9z M490.4,129.6c0.3-0.2,0.5-0.4,0.8-0.5l-1.1-1.7l-13.5-2.7c-0.2,0.1-0.4,0.2-0.6,0.2l13.6,2.7l0.9,1.3l0,0.1
	L490.4,129.6z M484.1,134c1.7-1.2,3.4-2.4,5.1-3.6l0-0.1c0.1-0.3,0.4-0.6,0.7-0.6l0.1-0.5l-0.7-1.1l-14.1-2.8
	c-0.2,0.1-0.5,0.2-0.7,0.3l0.9,1.3l4.6,0.9l0.9,1.3l2.9,0.6l0.1,0l0,0.1l0.7,1l0,0.1l-0.2,0.9c0.2,0.1,0.3,0.2,0.4,0.3
	c0.1,0.1,0.1,0.2,0.1,0.3c0,0.1,0,0.3,0,0.4l0,0l0,0c0,0,0,0,0,0.1c0,0.1-0.1,0.2-0.1,0.3c-0.1,0.1-0.1,0.2-0.2,0.2
	c-0.1,0-0.1,0.1-0.2,0.1c-0.1,0-0.2,0.1-0.3,0.1l-0.1,0.4L484.1,134z M476.7,139.7c2.3-1.9,4.7-3.7,7.1-5.5l-0.2-0.4l0.1-0.6
	c-0.1,0-0.2-0.1-0.2-0.1c-0.1,0-0.1-0.1-0.1-0.2c-0.1-0.1-0.1-0.2-0.1-0.3c0-0.1,0-0.2,0-0.3c0,0,0-0.1,0-0.1l0,0
	c0-0.1,0.1-0.3,0.2-0.4c0.1-0.1,0.1-0.1,0.2-0.2c0.1-0.1,0.3-0.1,0.5-0.2l0.2-0.8l-0.5-0.8l-2.9-0.6l-0.1,0l0-0.1l-0.8-1.2l-4.6-0.9
	l0-0.1l-1-1.4c-1.3,0.5-2.6,1.1-3.9,1.6l1.9,2.8l0.5,0.8l1.8,2.6l0,0.1l0,0.1l-0.4,2l2,3L476.7,139.7z M475.7,140.5
	c0.2-0.2,0.5-0.4,0.7-0.6l-2.8-4.2l0-0.1l0.4-1.9l0-0.1l-4.1-6.2c-0.2,0.1-0.4,0.2-0.6,0.2l-0.1,0.3l0.8,1.2l0.6,0.8l2.7,4.1l0,0.1
	l-0.4,2.2l0,0L475.7,140.5z M461.1,154.3c0.1-0.1,0.1-0.1,0.2-0.2l0,0l-1.2-1.9l-5.6-1.1l-1.2,0.8l-0.1,0l-8.3-1.6l-0.4,0.3
	l-0.9,0.6l-0.1,0.1l-1.6,1.1l-2.1-0.4l-0.1,0l0-0.1l0,0l-0.4-0.6c-0.1,0-0.3,0.1-0.4,0c-0.4-0.1-0.7-0.5-0.6-0.9
	c0-0.1,0.1-0.2,0.1-0.3c0.2-0.2,0.5-0.3,0.8-0.3c0.3,0.1,0.5,0.3,0.6,0.6c0,0.1,0,0.2,0,0.3c0,0.1-0.1,0.3-0.2,0.4l0.3,0.5l1.9,0.4
	l3-2l0.1,0l0.1,0l8.3,1.6l1-0.7l0.1-0.1l0,0l0,0l0.1,0l5.8,1.2l0,0l1.2,1.8l0.1,0c3.3-3.5,6.7-6.8,10.3-10l-0.3-0.5l0.7-3.6
	l-0.5-0.8l-0.7-1.1l-1.1-1.7l0-0.1l0-0.1l0-0.1l0.4-1.9c-0.2-0.1-0.3-0.2-0.4-0.3c-0.1-0.2-0.2-0.4-0.1-0.7l0,0l0,0
	c0-0.2,0.2-0.4,0.4-0.6c0.2-0.1,0.4-0.2,0.7-0.1l0,0l0,0c0.2,0,0.4,0.2,0.6,0.4c0.1,0.2,0.2,0.4,0.1,0.7l0,0c0,0.2-0.2,0.4-0.4,0.6
	c-0.2,0.1-0.3,0.2-0.5,0.2l-0.4,2l1.9,2.9l0.4,0.6l0,0.1l0,0.1l-0.7,3.5l0.2,0.3c1-0.9,2.1-1.8,3.2-2.7l-2.9-4.3l0.4-2.2l-0.5-0.7
	l-3.6-5.3l0-0.1l0-0.2c-0.2,0.1-0.5,0.2-0.7,0.3l0,0.1l1.4,2.1l-1,4.9l1.4,2.1l0.7,1.1l0.3,0.5l-0.6,2.9l0,0.2l-0.2,0l-1.6-0.3
	l-1.4,1l-0.4,1.8l0,0.1l-0.6,0.4c0,0.1,0.1,0.3,0,0.4c-0.1,0.4-0.5,0.7-0.9,0.6c-0.4-0.1-0.7-0.5-0.6-0.9c0.1-0.4,0.5-0.7,0.9-0.6
	c0.1,0,0.3,0.1,0.4,0.2l0.4-0.3l0.1-0.7l0.2-1.2l1.7-1.1l1.5,0.3l0.5-2.6l-1.1-1.6l-1.3-1.9l-0.1-0.1l0-0.1l1-4.9l-1-1.6l-0.3-0.5
	l0-0.1l0,0c-1.5,0.6-3,1.3-4.4,1.9l0.9,1.3c0.1,0,0.3-0.1,0.4,0c0.2,0,0.4,0.2,0.5,0.4c0.1,0.2,0.1,0.4,0.1,0.5
	c0,0.1-0.1,0.3-0.2,0.4l0.8,1.2l-0.1,0.6c0.2,0.1,0.3,0.2,0.4,0.4c0.1,0.1,0.1,0.3,0,0.5c-0.1,0.4-0.5,0.7-0.9,0.6c0,0,0,0-0.1,0
	c-0.2,0.2-0.4,0.2-0.7,0.2c-0.1,0-0.2-0.1-0.3-0.1l-0.5,0.4l-0.1,0l-1.3-0.3l-4.2,2.8l-0.1,0.1l-0.1,0l-0.1,0l-2.6-0.5l-0.1,0
	l-1.8-2.7l-1.7-0.3l-0.1,0.1l1.6,0.3l2.2,3.3l0.2,0.3l0.4,0.6l0.5,0.7c0.1,0,0.3-0.1,0.4,0c0.2,0,0.4,0.2,0.5,0.4
	c0.1,0.1,0.1,0.3,0.1,0.5c-0.1,0.4-0.5,0.7-0.9,0.6c-0.4-0.1-0.7-0.5-0.6-0.9c0-0.1,0.1-0.3,0.2-0.4l-3.1-4.6l-0.1-0.1l-2-0.4
	l-0.1,0.1l1.2,0.2l0.8,1.2c0.1,0,0.1,0,0.2,0c0.1,0,0.2,0,0.3,0l0,0c0.1,0,0.2,0,0.2,0.1c0.1,0.1,0.2,0.2,0.3,0.3
	c0.1,0.1,0.1,0.3,0.2,0.4c0,0.1,0,0.2,0,0.3l0,0l0,0c0,0.2-0.2,0.4-0.4,0.6c-0.2,0.1-0.4,0.2-0.7,0.1l0,0c-0.2,0-0.4-0.2-0.6-0.4
	l0,0c-0.1-0.2-0.2-0.4-0.1-0.7l0,0c0-0.1,0-0.2,0.1-0.2c0-0.1,0.1-0.2,0.2-0.2l-0.7-1l-1.5-0.3c-0.3,0.2-0.6,0.3-1,0.5
	c0.2,0.1,0.3,0.2,0.4,0.3c0.1,0.1,0.1,0.2,0.1,0.3c0,0.1,0,0.3,0,0.4l0,0c0,0.2-0.1,0.3-0.2,0.4c0,0.1-0.1,0.1-0.2,0.1
	c0,0-0.1,0.1-0.1,0.1c0,0-0.1,0-0.1,0l4.7,0.9l0.3,0.4l0.2,0.4c0.1,0,0.3,0,0.4,0l0,0l0,0c0.2,0,0.4,0.2,0.6,0.4
	c0.1,0.1,0.1,0.3,0.1,0.4c0,0.1,0,0.2,0,0.3l0,0c0,0.2-0.2,0.4-0.4,0.6c-0.2,0.1-0.4,0.2-0.7,0.1h0l0,0c-0.2,0-0.4-0.2-0.6-0.4
	c-0.1-0.2-0.2-0.4-0.1-0.7v0l0,0c0-0.1,0-0.2,0.1-0.2c0.1-0.1,0.1-0.2,0.2-0.3l-0.4-0.6l-7.4-1.5c-0.5,0.2-0.9,0.4-1.4,0.7l1,0.2
	l0.1,0l0,0.1l0.8,1.1l0.1,0.2l-1.3,0.8l-1.3-0.2l-3,2l-0.1,0l-3.2-0.6l-1.2,0.6l3.6,0.7l1.1,1.6l1.5,0.3l2-1.4l0.1,0l5.7,1.1l0.1,0
	l1,1.4l5.2,1l0.1,0l0.7,1l2.1,0.4c0.1-0.2,0.2-0.3,0.3-0.4c0.2-0.1,0.4-0.2,0.7-0.1l0,0l0,0c0.2,0,0.4,0.2,0.6,0.4
	c0.1,0.2,0.2,0.4,0.1,0.7l0,0c0,0,0,0.1,0,0.1c0,0,0,0.1-0.1,0.1c-0.1,0.1-0.2,0.3-0.3,0.3c-0.2,0.1-0.4,0.2-0.7,0.1l0,0
	c-0.2,0-0.4-0.2-0.6-0.4c-0.1-0.1-0.1-0.3-0.2-0.4c0,0,0,0,0,0l-2.2-0.4l-0.1,0l0-0.1l-0.6-0.9l-5.3-1l-1-1.4l-5.5-1.1l-2,1.4
	l-0.1,0l-0.1,0l-1.6-0.3l-0.1,0l-1.1-1.6l-3.9-0.8c-0.3,0.2-0.6,0.3-0.9,0.5l0.1,0.2l2.3,0.5c0.1-0.2,0.2-0.3,0.3-0.4
	c0.2-0.1,0.4-0.2,0.7-0.1l0,0l0,0c0.2,0,0.4,0.2,0.6,0.4c0.1,0.2,0.2,0.4,0.1,0.7l0,0c0,0.2-0.1,0.4-0.3,0.5c0,0-0.1,0-0.1,0.1
	c0,0-0.1,0-0.1,0c0,0-0.1,0-0.1,0.1l0.7,0.1l0,0.1l0.4,0.7c0.2-0.1,0.3-0.1,0.5,0l0,0c0.2,0,0.4,0.2,0.6,0.4
	c0.1,0.1,0.1,0.2,0.1,0.3c0,0.1,0,0.2,0,0.4l0,0l0,0c0,0.1,0,0.2-0.1,0.2c0,0.1-0.1,0.2-0.2,0.2c0,0,0,0-0.1,0.1c0,0,0,0,0,0
	c0,0-0.1,0.1-0.1,0.1c0,0-0.1,0-0.1,0l2.2,0.4l0.2-0.1l1.5-1c0-0.1-0.1-0.3,0-0.4c0-0.2,0.2-0.4,0.3-0.5c0.1,0,0.2-0.1,0.2-0.1
	c0.1,0,0.2,0,0.3,0c0.1,0,0.2,0.1,0.3,0.1c0.1,0.1,0.1,0.1,0.2,0.2c0.1,0.2,0.2,0.4,0.1,0.6c-0.1,0.4-0.5,0.7-0.9,0.6
	c-0.1,0-0.3-0.1-0.4-0.2l-1.8,1.2l-0.1,0l-0.1,0l-12.7-2.5c-0.1,0.1-0.3,0.1-0.4,0.2l3.9,0.8l1.6,2.4l0.8,0.1c0,0,0,0,0,0
	c-0.1-0.2-0.2-0.4-0.1-0.7v0l0,0c0.1-0.2,0.2-0.4,0.4-0.6c0.1,0,0.1-0.1,0.2-0.1c0.1,0,0.3-0.1,0.4,0h0c0.1,0,0.3,0.1,0.4,0.2
	c0.1,0.1,0.1,0.1,0.2,0.2c0.1,0.2,0.2,0.4,0.1,0.7l0,0c0,0.2-0.2,0.4-0.4,0.6c0,0,0,0,0,0l0.6,0.9l0.6,0.9l0.7,1l2.2,0.4l4.2-2.8
	l0.1,0l7.2,1.4l1.3-0.9l5.8,1.1l0,0.1L461.1,154.3z M457.3,158.6c1.1-1.3,2.3-2.7,3.5-4l-1.1-1.6l-5.5-1.1l-1.2,0.8l-0.1,0l-7.3-1.4
	l-1.6,1.1l-0.3,0.2l-2.3,1.5l-2.5-0.5l0-0.1l-0.9-1.3l-1.1-1.6c-0.1,0-0.2,0-0.3,0l0,0c0,0,0,0-0.1,0l2.4,3.6l2.2,0.4l2.2-1.5
	l0.9-0.6l1-0.7l4.4,0.9l0.1,0l0.7,1.1l0.2,0.2l2.9,0.6l0,0.1l0.9,1.3l1.3,0.2l0,0.1L457.3,158.6z M421.5,178.6c0.3,0,0.7,0,1,0
	l0.3-1.4l0.2-1.1l-1.1-1.6c-0.2,0.1-0.4,0.1-0.6,0.1l0,0l0,0c-0.2,0-0.4-0.2-0.6-0.4c-0.1-0.2-0.2-0.4-0.1-0.7l0,0c0,0,0,0,0-0.1
	c0.1-0.2,0.2-0.4,0.4-0.5c0.2-0.1,0.4-0.2,0.7-0.1l0,0c0.2,0,0.4,0.2,0.6,0.4c0.1,0.2,0.2,0.4,0.1,0.6c0,0,0,0.1,0,0.1l0,0l0,0
	c0,0.1-0.1,0.3-0.2,0.4l1.2,1.8l-0.5,2.5c2.7-0.1,5.5,0,8.3,0.1l-1.7-0.3l-0.1,0l-0.9-1.4l0-0.1l0-0.1l0.3-1.7l-1.5-2.2
	c-0.2,0.1-0.4,0.1-0.6,0.1h0l0,0c-0.2,0-0.4-0.2-0.6-0.4c-0.1-0.2-0.2-0.4-0.1-0.7l0,0c0-0.2,0.2-0.4,0.4-0.6
	c0.2-0.1,0.4-0.2,0.7-0.1c0.2,0,0.4,0.2,0.6,0.4c0.1,0.2,0.2,0.4,0.1,0.7l0,0l0,0c0,0.1-0.1,0.3-0.2,0.4l1.6,2.4l0,0.1l0,0l0,0.1
	l-0.3,1.6l0.8,1.2l2.3,0.5l0.1,0.3c0.5,0,1,0.1,1.5,0.1c0-0.1,0-0.1,0-0.2c0-0.1,0.1-0.2,0.2-0.3l-0.3-0.5l-2.7-0.5l-1.3-1.9l0-0.1
	l0.2-0.9l-1.8-2.7l0-0.1l0-0.1l0.4-1.8l1.2-0.8l0.3-1.4c-0.1-0.1-0.2-0.2-0.3-0.3l0,0c-0.1-0.1-0.1-0.3-0.2-0.5c0-0.1,0-0.1,0-0.2
	l0,0c0,0,0,0,0-0.1c0-0.2,0.1-0.3,0.3-0.4c0,0,0.1-0.1,0.1-0.1c0.2-0.1,0.4-0.2,0.7-0.1l0,0c0.2,0,0.4,0.2,0.6,0.4
	c0,0,0,0.1,0.1,0.1c0.1,0.2,0.1,0.3,0.1,0.5c0,0,0,0,0,0l0,0l0,0c0,0.1,0,0.1-0.1,0.2c-0.1,0.1-0.2,0.3-0.3,0.4
	c-0.2,0.1-0.4,0.2-0.6,0.2l-0.3,1.5l0,0.1l-1.2,0.8l-0.3,1.6l1.9,2.8l-0.2,1l1.1,1.7l2.7,0.5l0.4,0.6c0.1-0.1,0.3-0.1,0.4,0
	c0.4,0.1,0.7,0.5,0.6,0.9l0,0c2.5,0.2,5.1,0.6,7.7,1c4.1-7.6,8.8-14.5,14.3-21l-1.5-2.2l-1.2-0.2l-0.1,0l0-0.1l-0.9-1.3l-2.9-0.6
	l0-0.1l-0.8-1.2l-4.2-0.8l-4.1,2.7l-0.1,0l-0.1,0l-2.4-0.5l-0.1,0l-2.6-3.9l-1.1-0.2l-1.6-2.4l-4.2-0.8c-1.4,0.8-2.8,1.5-4.2,2.3
	l1.7,2.5l11.2,2.2l0.1,0l0,0.1l0,0l1.9,2.9l1,0.2c0.2-0.3,0.5-0.5,0.8-0.4c0.4,0.1,0.7,0.5,0.6,0.9c0,0,0,0.1,0,0.1
	c-0.1,0.4-0.5,0.6-0.9,0.5c-0.3-0.1-0.6-0.4-0.6-0.7l-1.1-0.2l-2-3l-11.3-2.2l-0.2-0.3l-1.6-2.4l-0.2,0.1l1.9,2.8l9.4,1.9l1.7,2.5
	l3.2,4.8l0.1,0.2l0.5,0.1c0-0.1,0.1-0.1,0.1-0.2c0.2-0.2,0.5-0.3,0.7-0.3c0.3,0.1,0.5,0.3,0.6,0.5c0,0.1,0,0.3,0,0.4
	c-0.1,0.4-0.5,0.7-0.9,0.6c-0.3-0.1-0.6-0.4-0.6-0.7l-0.6-0.1l0-0.1l-0.5-0.8l-4.5-6.7l-9.4-1.9l-2-3l-0.2,0.1l2.3,3.4l9.4,1.9
	l0,0.1l2.2,3.3l1.4,2.1l0,0.1l-0.1,0.8c0.3,0.2,0.5,0.5,0.4,0.8c-0.1,0.4-0.5,0.7-0.9,0.6c-0.4-0.1-0.7-0.5-0.6-0.9
	c0.1-0.3,0.4-0.6,0.7-0.6l0.1-0.7l-3.5-5.2l-9.4-1.9l-0.1,0l0-0.1l-2.2-3.3l-0.3-0.1c-1.6,0.9-3.1,1.8-4.6,2.7l1.1,0.2l0.1,0
	l1.6,2.4l4.5,0.9l0.2-0.2l1-0.6l-4.3-0.8l0-0.1l-0.3-0.4c-0.1,0-0.3,0.1-0.4,0c-0.3-0.1-0.5-0.3-0.6-0.5c0-0.1,0-0.2,0-0.4
	c0.1-0.4,0.5-0.7,0.9-0.6c0.4,0.1,0.7,0.5,0.6,0.9c0,0.1-0.1,0.2-0.2,0.3c0,0,0,0,0,0l0.2,0.3l5,1l-1.5,1l-0.6,0.4l-4.8-0.9l0-0.1
	l-1.6-2.3l-0.9-0.2l-0.9,0.6l-0.6-0.1c-0.3,0.2-0.6,0.4-0.9,0.5l2,0.4c0,0,0,0,0,0c0.1-0.1,0.2-0.2,0.3-0.3c0.2-0.1,0.4-0.2,0.7-0.1
	h0l0,0c0.2,0,0.4,0.2,0.6,0.4c0.1,0.1,0.1,0.2,0.1,0.4c0,0.1,0,0.2,0,0.3l0,0c0,0.2-0.2,0.4-0.4,0.6c-0.2,0.1-0.4,0.2-0.7,0.1l0,0
	c-0.2,0-0.4-0.2-0.6-0.4c-0.1-0.2-0.2-0.4-0.2-0.6l-2.3-0.5l-0.6,0.4l0.3,0.4l11.8,2.3l2.4-1.6l4.3,0.8l0.1,0l0,0.1l0.5,0.8l0.2,0.4
	l-0.4,2.2l-0.7,3.3l2.1,3.2l0.6,0.1c0.2-0.3,0.5-0.5,0.8-0.4c0.4,0.1,0.7,0.4,0.6,0.9c0,0,0,0,0,0.1c0,0.1-0.1,0.3-0.2,0.4
	c-0.1,0.1-0.2,0.2-0.4,0.2c-0.1,0-0.2,0-0.3,0c-0.1,0-0.2-0.1-0.3-0.1c-0.1-0.1-0.2-0.2-0.3-0.3c0-0.1-0.1-0.2-0.1-0.2l-0.7-0.1
	l0-0.1l-2.2-3.4l0-0.1l1.1-5.5l-0.6-0.9l-4.1-0.8l-2.4,1.6l-0.1,0l-12-2.4l0-0.1l-0.4-0.5l-0.2,0.1l0.5,0.7l12.3,2.4l2.3-1.5l0,0
	l3.5,0.7l0.1,0l0,0.1l0.6,1l0,0.1l-0.3,1.6l-0.8,4l1.6,2.5l0.3,0.5c0.1,0,0.2,0,0.4,0l0,0c0.1,0,0.2,0.1,0.3,0.1
	c0.1,0.1,0.2,0.1,0.2,0.2c0,0,0,0.1,0.1,0.1c0.1,0.1,0.1,0.3,0.1,0.4c0,0,0,0.1,0,0.1l0,0c0,0.2-0.2,0.4-0.4,0.6
	c-0.2,0.1-0.4,0.2-0.7,0.1l0,0c-0.2,0-0.4-0.2-0.6-0.4c-0.1-0.2-0.2-0.4-0.1-0.7l0,0l0,0c0,0,0-0.1,0-0.1c0.1-0.1,0.1-0.3,0.3-0.4
	c0,0,0,0,0,0l-0.1-0.1l0,0l-0.3-0.5l-1.5-2.3l0-0.1l0-0.1l1.1-5.6l-0.6-0.8l-3.3-0.6l-2.3,1.5l-0.1,0l-12.5-2.5l-0.1,0l0-0.1
	l-0.5-0.8c-0.2,0.1-0.3,0.2-0.5,0.3l0.5,0.8l15.2,3l2.2,3.3l-0.4,2.2l1.7,2.6l-0.3,1.6l0.7,1l2.9,0.6l1-0.7l0.6,0.1
	c0.2-0.3,0.5-0.5,0.8-0.4c0.4,0.1,0.7,0.5,0.6,0.9c-0.1,0.3-0.3,0.5-0.5,0.6c-0.1,0-0.2,0-0.4,0c-0.1,0-0.2-0.1-0.3-0.2
	c-0.2-0.1-0.3-0.3-0.3-0.6l-0.4-0.1l-1,0.7l-3.2-0.6l-0.8-1.3l0.3-1.6l-1.7-2.6l0.4-2.2l-2-3l-15.2-3l-0.6-1l-0.1,0.1l0.8,1.2
	l14.7,2.9l0.9,1.3l0,0.1l0,0.1l-0.1,0.6c0.3,0.2,0.5,0.5,0.4,0.8c-0.1,0.4-0.5,0.7-0.9,0.6c-0.4-0.1-0.7-0.5-0.6-0.9
	c0.1-0.3,0.4-0.6,0.7-0.6l0.1-0.5l-0.7-1.1l-14.7-2.9l0-0.1l-0.9-1.3l-0.3,0.2l2,2.9l4.6,0.9l0.9,1.3l2.9,0.6l0.1,0l0,0.1l0.6,0.9
	l0.1,0.1l0,0.1l-0.2,0.9c0.2,0.1,0.3,0.2,0.4,0.3c0.1,0.1,0.1,0.2,0.1,0.3c0,0.1,0,0.3,0,0.4v0l0,0c0,0,0,0,0,0.1
	c0,0.1-0.1,0.2-0.1,0.3c-0.1,0.1-0.1,0.2-0.2,0.2c-0.1,0-0.1,0.1-0.2,0.1c-0.1,0-0.2,0.1-0.3,0.1l-0.1,0.4l1.8,2.6l-0.4,1.9
	c0.3,0.1,0.5,0.5,0.4,0.8c0,0,0,0,0,0.1c-0.1,0.4-0.5,0.7-0.9,0.6c-0.4-0.1-0.7-0.5-0.6-0.9c0,0,0,0,0-0.1c0.1-0.3,0.4-0.5,0.7-0.6
	l0.3-1.7l-1.8-2.6l0-0.1l0.1-0.5c-0.1,0-0.2-0.1-0.2-0.1c-0.1,0-0.1-0.1-0.1-0.2c-0.1-0.1-0.1-0.2-0.1-0.3c0-0.1,0-0.2,0-0.3
	c0,0,0-0.1,0-0.1l0,0c0-0.1,0.1-0.3,0.2-0.4c0.1-0.1,0.1-0.1,0.2-0.2c0.1-0.1,0.3-0.1,0.5-0.2l0.2-0.8l-0.5-0.8l-2.9-0.6l-0.1,0
	l0-0.1l-0.8-1.2l-4.6-0.9l0-0.1l-2.1-3c-0.9,0.5-1.7,1.1-2.6,1.6l-0.3,1.5l2.1,3.2l0.3,0.5l1.8,2.6l0,0.1l0,0.1l-0.4,2l0.8,1.1
	l2.5,3.8l3.3,0.7l0.1,0l0,0.1l1.6,2.4l0,0.1L421.5,178.6z M402.3,181.2c3.8-0.9,7.8-1.6,11.8-2.1l0,0c0-0.1,0.1-0.3,0.2-0.4
	l-0.5-0.8l-1.6-0.3l0-0.1l-1.1-1.6l0.7-3.6l-0.5-0.8l-0.7-1.1l-1.1-1.7l0-0.1l0-0.1l0-0.1l0.4-1.9c-0.2-0.1-0.3-0.2-0.4-0.3
	c-0.1-0.2-0.2-0.4-0.1-0.7l0,0l0,0c0-0.2,0.2-0.4,0.4-0.6c0.2-0.1,0.4-0.2,0.7-0.1l0,0l0,0c0.2,0,0.4,0.2,0.6,0.4
	c0.1,0.2,0.2,0.4,0.1,0.7v0c0,0.2-0.2,0.4-0.4,0.6c-0.2,0.1-0.3,0.2-0.5,0.2l-0.4,2l1.9,2.9l0.4,0.6l0,0.1l-0.7,3.6l0.9,1.4l1.6,0.3
	l0,0.1l0.5,0.8c0.1,0,0.3-0.1,0.4,0c0.2,0,0.5,0.2,0.6,0.4l0,0c1.8-0.2,3.6-0.3,5.5-0.4l0.4-2l-1.5-2.2l-3.3-0.7l-0.1,0l0-0.1
	l-3.4-5.1l0.4-2.1l-4.3-6.4l0.3-1.3l-0.4,0.3l-0.4,1.8l0.8,1.2l3.3,4.9l-0.4,2.2l0,0l3.4,5.1l3.7,0.7l0.2,0.3c0.1,0,0.3-0.1,0.4,0
	c0.4,0.1,0.7,0.5,0.6,0.9c-0.1,0.4-0.5,0.7-0.9,0.6c-0.4-0.1-0.7-0.5-0.6-0.9c0-0.1,0.1-0.3,0.2-0.4l-0.1-0.1l-3.7-0.7l0-0.1
	l-3.6-5.3l0.4-2.2l-0.5-0.7l-3.6-5.3l0-0.1l0.3-1.6c-0.2,0.2-0.5,0.3-0.7,0.5l-0.3,1.3l1.4,2.1l0,0.1l-1,4.9l1.4,2.1l0.7,1.1
	l0.3,0.5l0,0.1l-0.6,2.8l0,0.2l-0.2,0l-1.6-0.3l-1.4,1l-0.4,1.9l-0.6,0.4c0,0.1,0.1,0.3,0,0.4c-0.1,0.4-0.5,0.7-0.9,0.6
	c-0.4-0.1-0.7-0.5-0.6-0.9c0.1-0.4,0.5-0.7,0.9-0.6c0.1,0,0.3,0.1,0.4,0.2l0.4-0.3l0.4-1.9l1.7-1.1l1.5,0.3l0.5-2.6l-2.4-3.5
	l-0.1-0.2l1-4.9l-1-1.6l-0.3-0.5l0-0.1l0-0.1l0.2-1.1c-1.6,1-3.1,2-4.7,3l0.9,1.4c0.1,0,0.3-0.1,0.4,0c0.2,0,0.4,0.2,0.5,0.4
	c0.1,0.2,0.1,0.4,0.1,0.5c0,0.1-0.1,0.3-0.2,0.4l0.8,1.2l0,0.1l-0.1,0.6c0.2,0.1,0.3,0.2,0.4,0.4c0.1,0.1,0.1,0.3,0,0.5
	c-0.1,0.4-0.5,0.7-0.9,0.6c-0.4-0.1-0.7-0.5-0.6-0.9c0-0.2,0.1-0.3,0.2-0.4c0.1-0.1,0.3-0.2,0.5-0.2l0.1-0.5l-0.7-1
	c-0.1,0-0.3,0.1-0.4,0c-0.4-0.1-0.7-0.5-0.6-0.9c0-0.1,0.1-0.3,0.2-0.4l-0.2-0.3c0,0,0,0.1,0,0.1l0,0l0,0c0,0.1,0,0.2-0.1,0.2
	c-0.1,0.1-0.2,0.2-0.3,0.3c-0.1,0-0.1,0.1-0.2,0.1c-0.2,0.1-0.3,0.1-0.5,0l0,0c-0.2,0-0.3-0.1-0.4-0.2c0,0,0,0-0.1-0.1l-0.5,0.3
	l-0.2,0.2l-0.5,2.6l0,0.1l-0.1,0l-2.5,1.7l-0.6-0.1c-0.2,0.3-0.5,0.5-0.8,0.4c-0.4-0.1-0.7-0.5-0.6-0.9c0.1-0.4,0.5-0.7,0.9-0.6
	c0.3,0.1,0.6,0.4,0.6,0.7l0.4,0.1l2.3-1.6l0.5-2.7l0.9-0.6c0-0.1,0-0.1,0-0.2c0-0.1,0-0.2,0-0.3l0,0l0,0c0-0.1,0-0.2,0.1-0.2
	c-2,1.3-3.9,2.6-5.8,3.9l1.7,0.3l0.5-0.3c0-0.1-0.1-0.3,0-0.4c0.1-0.4,0.5-0.7,0.9-0.6c0.4,0.1,0.7,0.5,0.6,0.9
	c-0.1,0.4-0.5,0.7-0.9,0.6c-0.1,0-0.3-0.1-0.4-0.2l-0.6,0.4l-2.2-0.4c-1.1,0.8-2.2,1.5-3.3,2.3l3.2,0.6l0.1,0l0.7,1l2.1,0.4
	c0.1-0.2,0.2-0.3,0.3-0.4c0.2-0.1,0.4-0.2,0.7-0.1l0,0c0.2,0,0.4,0.2,0.6,0.4c0.1,0.2,0.2,0.4,0.1,0.7v0l0,0c0,0,0,0.1,0,0.1
	c0,0,0,0.1-0.1,0.1c-0.1,0.1-0.2,0.3-0.3,0.3c-0.2,0.1-0.4,0.2-0.7,0.1l0,0c-0.2,0-0.4-0.2-0.6-0.4c-0.1-0.1-0.1-0.3-0.2-0.4
	c0,0,0,0,0,0l-2.2-0.4l-0.1,0l0-0.1l-0.6-0.9l-3.5-0.7c-0.4,0.3-0.7,0.5-1.1,0.8l2.9,0.6l0.9,1.3l0.1,0.2l4.8,1l0.7-0.5
	c-0.1-0.1-0.1-0.3,0-0.4c0-0.1,0.1-0.2,0.1-0.3c0,0,0.1-0.1,0.1-0.1c0.2-0.2,0.4-0.3,0.7-0.2c0.3,0.1,0.5,0.2,0.6,0.5
	c0,0,0,0.1,0,0.2c0,0.1,0,0.2,0,0.3c-0.1,0.4-0.5,0.7-0.9,0.6c-0.1,0-0.2-0.1-0.3-0.2l-0.8,0.6l-0.1,0l-5.2-1l0-0.1l-0.9-1.4
	l-3.1-0.6c-1,0.7-1.9,1.4-2.9,2.1l4.1,0.8l1.2-0.8l0.1,0l5.8,1.2l0,0l1.2,1.8l0.6,0.1c0.1-0.2,0.2-0.4,0.4-0.5c0,0,0.1,0,0.1-0.1
	c0.2-0.1,0.4-0.1,0.6-0.1l0,0l0,0c0.2,0,0.4,0.1,0.5,0.3c0,0,0.1,0.1,0.1,0.1c0.1,0.2,0.2,0.4,0.1,0.7l0,0c0,0.2-0.2,0.4-0.4,0.6
	c-0.1,0-0.2,0.1-0.2,0.1c-0.1,0-0.3,0.1-0.5,0h0c-0.1,0-0.3-0.1-0.4-0.2c-0.1-0.1-0.1-0.1-0.2-0.2c-0.1-0.1-0.1-0.3-0.1-0.4
	l-0.7-0.1l-0.1,0l-1.2-1.9l-5.6-1.1l-1.2,0.8l-0.1,0l-4.5-0.9c-0.2,0.1-0.4,0.3-0.5,0.4l4.9,1l0.3-0.2l1-0.7l0.1,0l5.7,1.1l0,0.1
	l3.1,4.6c0.2-0.1,0.4-0.1,0.5-0.1C402,180.5,402.3,180.8,402.3,181.2z M397.5,182.4c1.1-0.3,2.2-0.6,3.3-0.9
	c-0.1-0.2-0.1-0.3-0.1-0.5c0-0.1,0-0.2,0.1-0.2l-1-1.4l-2.1-3.2l-5.5-1.1l-1.2,0.8l-0.1,0l-5.4-1.1c-0.2,0.2-0.5,0.4-0.7,0.5l3,0.6
	l0.7,1.1l0.2,0.2l2.8,0.6l0.1,0l0,0.1l0.9,1.3l1.3,0.2l0,0.1l1.9,2.8l0.4,0.1c0.1-0.2,0.2-0.3,0.4-0.4c0.2-0.1,0.3-0.1,0.5-0.1
	c0.2,0,0.3,0.1,0.4,0.2C397.5,182.3,397.5,182.3,397.5,182.4L397.5,182.4z M375.8,191.3c6.5-3.4,13.2-6.3,20.3-8.4l0,0
	c0,0,0,0,0-0.1l-0.5-0.1l-0.1,0l0-0.1l-1.9-2.8l-1.3-0.2l0-0.1l-0.9-1.3l-2.9-0.6l0-0.1l-0.4-0.5l-0.5-0.7l-3.2-0.6
	c-2.1,1.6-4.2,3.1-6.2,4.7l0.7,0.1c0.2-0.3,0.5-0.5,0.8-0.4c0.4,0.1,0.7,0.5,0.6,0.9c0,0,0,0.1,0,0.1c-0.1,0.4-0.5,0.6-0.9,0.5
	c-0.3-0.1-0.6-0.4-0.6-0.7l-1-0.2c-0.4,0.3-0.8,0.7-1.2,1l2.2,3.3l0.1,0.2l0.5,0.1c0-0.1,0.1-0.1,0.1-0.2c0.2-0.2,0.5-0.3,0.7-0.3
	c0.3,0.1,0.5,0.3,0.6,0.5c0,0.1,0,0.3,0,0.4c-0.1,0.4-0.5,0.7-0.9,0.6c-0.3-0.1-0.6-0.4-0.6-0.7l-0.6-0.1l0-0.1l-2.4-3.5l-0.1,0.1
	l1.2,1.9l0,0.1l-0.2,0.8c0.3,0.2,0.5,0.5,0.4,0.8c-0.1,0.4-0.5,0.7-0.9,0.6c-0.4-0.1-0.7-0.5-0.6-0.9c0.1-0.3,0.4-0.6,0.7-0.6
	l0.1-0.7l-1.1-1.7c-1.3,1-2.5,2-3.7,3l-0.3,1.7l2.1,3.2l0.6,0.1c0.2-0.3,0.5-0.5,0.8-0.4c0.4,0.1,0.7,0.4,0.6,0.8c0,0,0,0,0,0.1
	C376,191,375.9,191.1,375.8,191.3C375.8,191.2,375.8,191.2,375.8,191.3z M371.6,193.5c1.3-0.7,2.6-1.4,3.9-2.1c-0.1,0-0.2,0-0.3,0
	c-0.1,0-0.2-0.1-0.3-0.1c-0.1-0.1-0.2-0.2-0.3-0.3c0-0.1-0.1-0.2-0.1-0.2l-0.7-0.1l-0.6-0.9l-1.7-2.6l0-0.1l0.3-1.4
	c-0.1,0.1-0.2,0.1-0.3,0.2l-0.3,1.7l1.7,2.5l0.3,0.5c0.1,0,0.2,0,0.4,0l0,0c0.1,0,0.2,0.1,0.3,0.1c0.1,0.1,0.2,0.1,0.2,0.2
	c0,0,0,0.1,0.1,0.1c0.1,0.1,0.1,0.3,0.1,0.4c0,0,0,0.1,0,0.1l0,0c0,0.2-0.2,0.4-0.4,0.6c-0.2,0.1-0.4,0.2-0.7,0.1l0,0
	c-0.2,0-0.4-0.2-0.6-0.4c-0.1-0.2-0.2-0.4-0.1-0.7l0,0l0,0c0,0,0-0.1,0-0.1c0.1-0.1,0.1-0.3,0.3-0.4c0,0,0,0,0,0l-0.1-0.1l0,0
	l-0.3-0.5l-1.5-2.3l0-0.1l0-0.1l0.3-1.3c-0.4,0.4-0.8,0.7-1.3,1.1l-0.2,1l1.7,2.5l0,0.1l0,0.1l-0.3,1.5L371.6,193.5z M369.7,194.7
	c0.4-0.2,0.8-0.4,1.2-0.7l-0.4-0.6l-0.4-0.6l0-0.1l0.3-1.4l-0.6-1l-0.6,3.2L369.7,194.7z M361.2,199.9c1.6-1,3.1-2,4.7-3l-0.6-0.9
	c-0.2,0.1-0.4,0.1-0.6,0.1h0l0,0c-0.2,0-0.4-0.2-0.6-0.4c-0.1-0.2-0.2-0.4-0.1-0.7l0,0c0-0.2,0.2-0.4,0.4-0.6
	c0.2-0.1,0.4-0.2,0.7-0.1c0.2,0,0.4,0.2,0.6,0.4c0.1,0.2,0.2,0.4,0.1,0.7l0,0l0,0c0,0.1-0.1,0.3-0.2,0.4l0.6,0.9
	c1-0.6,2-1.2,3.1-1.8l-0.8-1.1l0.8-4.3l1.3,1.9l0,0.1l-0.3,1.3l0.7,1.1l0.1-0.1l-0.7-1l0-0.1l0.3-1.5l-1.7-2.5l0-0.1l0.1-0.7
	c-2.2,1.9-4.3,3.8-6.3,5.7l-0.1,0.6c0.3,0.1,0.5,0.5,0.4,0.8c0,0,0,0,0,0.1c-0.1,0.4-0.5,0.7-0.9,0.6c-0.4-0.1-0.7-0.5-0.6-0.9
	c-0.5,0.5-1.1,1-1.6,1.6l0,0c0,0,0,0,0.1,0.1c0.1,0.2,0.2,0.4,0.1,0.6c0,0,0,0.1,0,0.1l0,0c0,0.1-0.1,0.3-0.2,0.4l1.2,1.8l0,0.1
	L361.2,199.9z M359.6,201c0.4-0.3,0.8-0.5,1.1-0.8l0.2-1.1l-1.1-1.6c-0.2,0.1-0.4,0.1-0.6,0.1l0,0l0,0c-0.1,0-0.3-0.1-0.4-0.2l0,0
	c-0.1,0.1-0.2,0.2-0.3,0.3l1.2,1.8l0,0.1L359.6,201z M349.2,208.5c3.3-2.5,6.6-4.9,9.9-7.2l0.3-1.6l-1.1-1.7
	c-0.1,0.1-0.2,0.2-0.3,0.3c0,0,0,0,0,0c0.4,0.1,0.7,0.5,0.6,0.9c-0.1,0.4-0.5,0.7-0.9,0.6c-0.3-0.1-0.6-0.3-0.6-0.6
	C354.2,202.4,351.5,205.5,349.2,208.5z"/>
<path class="st1" d="M348.5,220c23.7,23.7,50.6,42.1,89.5,41.1c12.7,33.8,39.6,59.5,74.4,80.8C455,324.3,372,261.7,348.5,220"/>
<path class="st2" d="M425,205.6c-2.6-1.6-5.5-3.1-8.7-4.5c0.4,3.8,0.7,7.9,0.7,12.2c0,0.5,0,1,0,1.5
	C420.1,211.7,422.8,208.6,425,205.6 M400.1,225.9c-4.1-1.2-8-2.5-11.6-3.9c0.5,3.9,1.3,7.4,2.3,10.6c3.6-1.4,7.6-3.5,11.5-6.1
	C401.6,226.3,400.8,226.1,400.1,225.9z M406.8,208c1.9,2.5,1.4,6.1-1.1,8c-2.5,1.9-6.1,1.4-8-1.1c-1.9-2.5-1.4-6.1,1.1-8
	C401.3,205,404.9,205.5,406.8,208z M398,245.3L398,245.3c1.3,0.6,2.6,1.2,4,1.7c0.2,0,0.4,0,0.6,0c5.1-0.2,9.3-7.6,11.2-18.4
	c-2.8-0.3-5.7-0.8-8.6-1.5c-4.7,3-9.4,5.4-13.7,7.1C393.1,239.3,395.4,243.2,398,245.3z M381.3,236.9c4.2,2.4,8.6,4.6,12.9,6.6
	l-0.1-0.1c-1.4-2.4-2.6-5.4-3.6-8.9C387.1,235.8,384,236.6,381.3,236.9z M372.8,231.9L372.8,231.9c1.6,1,3.3,2,5,3
	c3.2,0.5,7.4-0.3,12.2-2.1c-0.8-3.4-1.5-7.1-1.9-11c-4.2-1.7-8-3.6-11.2-5.5C372.5,222.7,370.8,228.5,372.8,231.9z M364.4,202.5
	c-7,2.9-12.9,5.9-16.6,8.6c4.8,6.3,12.6,12.8,21.7,18.7c0.1-3.8,2.5-8.8,6.6-14C368.9,211.4,364.5,206.6,364.4,202.5z M367.9,201.1
	c-0.5,0.2-1,0.4-1.5,0.6C367,201.5,367.4,201.3,367.9,201.1z M410.7,188.6c-13.9,2.8-29.8,7.5-42.7,12.5c0.2,3.7,4,8,10.2,12.2
	c3.5-4,7.9-8,13-11.7c-4.9,3.9-9.1,8.1-12.3,12.2c2.6,1.7,5.7,3.4,9.1,5c-0.1-1.4-0.1-2.9-0.2-4.4c0.1,1.5,0.2,3,0.3,4.5
	c3.6,1.7,7.7,3.3,11.9,4.7c1.6,0.5,3.1,1,4.6,1.4c1.3-0.9,2.5-1.8,3.8-2.8c2.2-1.7,4.3-3.5,6.3-5.3c0-1.4,0-2.8-0.1-4.2
	c-0.2-4.5-0.6-8.7-1.3-12.7c-1.4-0.5-2.8-1.1-4.3-1.5c1.4,0.4,2.9,0.9,4.2,1.4c-0.7-4.1-1.7-7.9-2.8-11.1L410.7,188.6z M425.6,186.3
	c-3.6,0.3-7.6,0.9-11.8,1.7c1.1,3.8,1.9,8.1,2.5,12.8c3.3,1.3,6.4,2.7,9.2,4.2c5.1-7.1,7-13.3,4.4-16.6
	C428.9,187.3,427.4,186.6,425.6,186.3z M431,208.5c2.5-6.3,6.7-12.2,12.6-17.8c-0.2-4.1-6.6-5.3-16-4.6c2.8,0.2,5,1,6.2,2.7
	c2.7,3.7,0.3,10.3-5.5,17.8C429.2,207.2,430.2,207.9,431,208.5z M428.4,226.8c-0.6-6,0.1-11.7,2.1-17.1c-0.9-0.8-1.9-1.5-2.9-2.3
	c-2.9,3.6-6.6,7.3-10.9,11c-0.2,3-0.5,5.9-0.9,8.6C420.7,227.6,425,227.5,428.4,226.8z M428.5,227.7c0-0.2-0.1-0.5-0.1-0.7
	C428.5,227.2,428.5,227.4,428.5,227.7z M437.9,252.2c-5.2-8.3-8.2-16.2-9.3-23.7c-3.7,0.6-8.2,0.7-13.1,0.2
	c-1.8,9.7-5.3,17-9.4,19.9C423.3,255.4,437.4,257.9,437.9,252.2z M409.2,224.3c1.9-1.4,3.7-2.7,5.4-4.1c-0.1,2.3-0.3,4.5-0.6,6.6
	c-2.1-0.3-4.3-0.7-6.6-1.2C408,225.2,408.6,224.8,409.2,224.3z"/>
<path class="st0" d="M356.8,174.7c-1.6,3.6-3,7.1-4.3,10.5l0.1-0.1c0.2,0.1,0.4,0.2,0.6,0.4c0,0,0.1,0.1,0.1,0.1l2.7-1.9
	c-1.3-2.4-1.1-5.5,0.8-7.7c0.2-0.2,0.4-0.5,0.7-0.7L356.8,174.7z M363.8,160.3c-2.4,4.5-4.5,9-6.5,13.4l1,1c1.8-1.1,4.1-1.3,6.1-0.5
	l3.2-7.2c-0.5-0.2-0.9-0.5-1.3-0.9C364.6,164.6,363.8,162.4,363.8,160.3z M378.5,135c-2,3.2-4,6.4-5.9,9.6l2.8-0.9
	c-0.7-1.4-0.5-3.1,0.5-4.3c0.7-0.8,1.6-1.2,2.5-1.3L378.5,135z M382.5,129c-0.4,0.6-0.8,1.1-1.1,1.7L382.5,129z M384.1,126.6
	c-0.4,0.6-0.8,1.2-1.2,1.8L384.1,126.6z M393.1,113.8c-1.8,2.5-3.6,4.9-5.3,7.4c0.9-0.3,2-0.2,2.8,0.4l4.3-6.3
	c-0.3-0.2-0.7-0.4-1-0.7C393.6,114.3,393.3,114.1,393.1,113.8z M399,106.1c-0.5,0.6-0.9,1.2-1.4,1.8
	C398.1,107.2,398.5,106.7,399,106.1z M400.8,103.8c-0.4,0.5-0.9,1.1-1.3,1.6C399.9,104.9,400.4,104.3,400.8,103.8z M418.2,83.4
	c-2.3,2.5-4.6,5.1-6.9,7.7l1.2-1.3l6.3-3.9C418.3,85.2,418.1,84.3,418.2,83.4L418.2,83.4z M421.9,79.6l-0.5,0.5l0.1-0.1
	c0.1,0,0.3,0,0.4,0L421.9,79.6z M421,96c2.7-5.5,5.8-11,9.3-16.4c-0.8-1.7-0.6-3.7,0.7-5.3c1-1.2,2.5-1.7,3.9-1.6
	c3.4-4.8,7-9.6,10.9-14.4c-7.5,5.4-15.2,12.3-22.9,20.1l0.1,1.6c0.6,0.1,1.1,0.4,1.6,0.8c1.6,1.4,1.8,3.9,0.4,5.5
	c-1.4,1.6-3.9,1.8-5.5,0.4l-0.1-0.1l-7.7,4.8c0.6,0.8,0.8,1.9,0.6,2.8l5.3,2.5C418.5,95.9,419.8,95.6,421,96z M415.7,108.2
	c0.8-2.2,1.7-4.4,2.7-6.6c-0.2-0.1-0.3-0.2-0.5-0.3c-1-0.8-1.3-2.2-0.9-3.3l-5.1-2.4c-0.1,0.3-0.3,0.6-0.6,0.8
	c-0.4,0.4-0.8,0.7-1.3,1l1.6,7.2c0.7,0.1,1.3,0.3,1.8,0.8c0.8,0.7,1.2,1.6,1.1,2.6L415.7,108.2z M411.1,123.2
	c1.1-4.7,2.5-9.4,4.2-14l-0.8-0.2c-0.1,0.3-0.3,0.7-0.6,1c-1.2,1.4-3.3,1.5-4.7,0.3c-1.4-1.2-1.5-3.3-0.3-4.7c0.5-0.5,1.1-0.9,1.7-1
	l-1.6-7c-0.9,0.1-1.9-0.1-2.8-0.6c-1.7,2.1-3.4,4.2-5.1,6.3c0.6,0.3,1.1,0.6,1.6,1c2.8,2.4,3.2,6.7,0.7,9.5
	c-0.2,0.2-0.4,0.4-0.6,0.6l3.7,3.3c1.1-0.5,2.3-0.3,3.3,0.5c1.2,1.1,1.4,2.9,0.4,4.2L411.1,123.2z M411,124l0.1-0.6
	C411,123.6,411,123.8,411,124z M393.8,151.1c4.5-2.3,9.3-4.3,14.6-6c0-1.8,0.1-3.5,0.2-5.3c-0.8,0.9-2.3,1-3.2,0.2
	c-1-0.8-1.1-2.3-0.2-3.2c0.8-1,2.3-1.1,3.3-0.2c0,0,0.1,0.1,0.1,0.1l0.4-0.3c0.4-4,1.1-7.9,1.9-11.8l-1.4-1.3
	c-1.1,0.7-2.6,0.6-3.6-0.3c-1.3-1.1-1.4-3-0.3-4.3c0,0,0.1-0.1,0.1-0.1l-3.7-3.3c-1.8,1.1-4.1,1.4-6.1,0.6l-4.5,6.7
	c0.5,0.8,0.6,1.7,0.4,2.5l5.2,3.3c1.5-1.6,4-1.8,5.7-0.4c1.7,1.5,1.9,4,0.4,5.7c-1.5,1.7-4.1,1.9-5.8,0.4c-1.4-1.2-1.8-3.2-1-4.8
	l-5.1-3.3c0,0-0.1,0.1-0.1,0.1c-1.1,1.3-3.1,1.4-4.3,0.3c-0.7-0.6-1.1-1.4-1.1-2.3c-0.5,0.8-1.1,1.6-1.6,2.3c0,1.1-0.3,2.1-1,3
	l4.5,3.7c0.9-0.7,2.1-0.7,3,0c1,0.8,1.1,2.3,0.2,3.2c-0.8,1-2.3,1.1-3.3,0.2c-0.8-0.7-1-1.7-0.6-2.6l-4.7-3.8
	c-0.4,0.3-0.8,0.5-1.2,0.7c-0.5,0.7-0.9,1.4-1.4,2.2l-0.1,4.9c0.7,0.1,1.3,0.4,1.9,0.9c1.1,1,1.6,2.4,1.3,3.7l5.2,1.8
	c0.1-0.3,0.3-0.5,0.5-0.8c1.4-1.6,3.9-1.8,5.5-0.4c1.6,1.4,1.8,3.9,0.4,5.5c-0.3,0.3-0.6,0.6-0.9,0.8L393.8,151.1z M392.9,151.6
	l0.8-0.4C393.4,151.3,393.1,151.5,392.9,151.6z M378.7,161c1.9-1.6,3.9-3.1,6-4.5l-0.5-1.6c-0.7,0.2-1.5,0-2.1-0.5
	c-1-0.8-1.1-2.3-0.2-3.2c0.8-1,2.3-1.1,3.3-0.2c1,0.8,1.1,2.3,0.2,3.2c-0.1,0.1-0.1,0.1-0.2,0.2l0.5,1.4c2.2-1.5,4.6-2.9,7-4.2
	l-0.2-1.6c-1.2,0.3-2.6,0.1-3.6-0.8c-1.1-0.9-1.5-2.3-1.3-3.7l-5.2-1.8c-0.1,0.2-0.3,0.5-0.5,0.7c-1.4,1.6-3.9,1.8-5.5,0.4
	c-0.1-0.1-0.2-0.2-0.2-0.2l-4.4,1.5l0.7-1.3c-1.9,3.2-3.8,6.5-5.5,9.7c2.7-1.9,6.5-1.9,9.2,0.4C378,156.5,378.8,158.8,378.7,161z
	 M365.9,173.7c1.7-2,3.4-3.9,5.2-5.8c-0.8,0-1.7-0.2-2.5-0.4L365.9,173.7z M347.3,203.8c0.7-1.5,1.5-3,2.3-4.6
	c0-0.8,0.2-1.5,0.7-2.2c0.2-0.2,0.4-0.4,0.7-0.6c2-3.8,4.2-7.5,6.4-11.1c-0.3-0.3-0.6-0.5-0.8-0.8l-2.7,2c0.2,0.7,0.1,1.6-0.5,2.2
	c-0.6,0.7-1.5,0.9-2.3,0.7l0.1-0.2C349.4,194.5,348.1,199.3,347.3,203.8z"/>
<path class="st1" d="M416.7,340.9c-14.4-16.9-25-35.6-22.1-61c-21.8-10.3-37.3-29.4-49.4-53.4C353.5,265,390.4,323,416.7,340.9"/>
<path class="st1" d="M365.1,297.6c-18.2-28.5-24-59.2-21.3-91.5c0,0-4.9,4.7-7.2,4.9C333.2,235.1,347.7,282.6,365.1,297.6"/>
<path class="st1" d="M328.5,177.1c5.4,8.4,7,17.4,6.3,26.9c0,0,1.5-1.4,2.1-1.4C337.9,195.5,333.7,181.5,328.5,177.1"/>
<path class="st1" d="M348.9,175.6c-5.5,8.3-7.3,17.3-6.7,26.8c0,0-1.4-1.4-2.1-1.5C339.3,193.9,343.7,180,348.9,175.6"/>
<path class="st3" d="M328.4,293.3c0-0.7-0.4-1.1-1.1-1.1h-18.8c-10.3,0-12-2.6-12-9.7v-15.7h29.9c1.1,0,2-0.8,2-1.9v-3.6
	c0-1-0.9-1.9-2-1.9h-29.9v-13c0-7.1,1.7-9.7,12-9.7h18.8c0.7,0,1.1-0.4,1.1-1.1v-4.7c0-0.7-0.3-1.2-1-1.3c-4.1-0.5-13.3-0.6-19-0.6
	c-13.7,0-20.8,5-20.8,17.4v36c0,12.5,7,17.4,20.8,17.4c5.7,0,15.4,0,19-0.5c0.7-0.1,1-0.7,1-1.3V293.3z M279.7,293.1
	c0-1-0.9-1.6-1.9-1.6h-35c-0.7,0-1-0.2-1-0.6c0-0.3,0.1-0.6,0.3-0.8l34.8-48.8c1.1-1.4,1.6-3.7,1.6-5.5c0-5.1-2.8-6.2-8.3-6.2h-34.7
	c-1.1,0-2,0.6-2,1.6v4.4c0,1,0.9,1.6,2,1.6h32.4c0.7,0,1,0.2,1,0.7c0,0.2-0.1,0.5-0.3,0.7l-34.9,48.8c-1.1,1.4-1.5,3.8-1.5,5.4
	c0,5,1.9,6.4,8.1,6.4h37.5c1.1,0,1.9-0.7,1.9-1.7V293.1z M217.7,280c0,10.1-7.5,12.6-19.6,12.6c-3.4,0-6.9-0.3-10.1-0.4v-25.7h15
	c11.5,0,14.7,5.6,14.7,11.9V280z M217.4,248.5c0,6-3,11.1-14.3,11.1h-15v-23.2c2.7-0.1,6.2-0.3,9.7-0.3c11.9,0,19.7,1.9,19.7,10.9
	V248.5z M226.6,278.4c0-7.2-4.1-12.9-10.8-15.2c6.6-2.5,10.4-7.7,10.4-14.7V247c0-14.1-13.1-18.1-28.6-18.1
	c-6.3,0-12.3,0.4-15.5,0.7c-2,0.2-3.1,1.3-3.1,3.5v62.3c0,2.3,1,3.2,3.2,3.5c3.8,0.7,9.4,0.8,15.9,0.8c15.2,0,28.5-4.1,28.5-19.8
	V278.4z M170.9,293.3c0-0.7-0.4-1.1-1.1-1.1H151c-10.3,0-12-2.6-12-9.7v-15.7h29.9c1.1,0,2-0.8,2-1.9v-3.6c0-1-0.9-1.9-2-1.9H139
	v-13c0-7.1,1.7-9.7,12-9.7h18.8c0.7,0,1.1-0.4,1.1-1.1v-4.7c0-0.7-0.3-1.2-1-1.3c-4.1-0.5-13.3-0.6-19-0.6c-13.7,0-20.8,5-20.8,17.4
	v36c0,12.5,7,17.4,20.8,17.4c5.7,0,15.4,0,19-0.5c0.7-0.1,1-0.7,1-1.3V293.3z M119.7,264.9c0-1-0.8-1.9-1.9-1.9h-5.3
	c-1.1,0-1.8,0.8-1.8,1.9v26.8c-2.3,0.3-6.3,0.6-12.3,0.6c-9.1,0-16.4-6.1-16.4-21.5v-12.5c0-16.9,8.2-21.5,17.3-21.5
	c8.4,0,12.8,0.2,18.5,0.7h0.4c0.9,0,1.3-0.3,1.3-0.9v-4.7c0-1-0.8-1.3-1.7-1.4c-3.8-0.7-9.5-1.3-18.5-1.3
	c-12.5,0-26.1,6.5-26.1,29.2v12.5c0,21.4,13.1,29.1,25.3,29.1c9.3,0,14.6-0.7,19.4-1.4c1.2-0.2,1.8-0.8,1.8-2.1V264.9z"/>
<path class="st3" d="M328.3,314.1c0-0.3-0.2-0.6-0.6-0.6h-2.5c-0.3,0-0.6,0.2-0.6,0.6v2.8c0,0.3,0.2,0.6,0.6,0.6h2.5
	c0.3,0,0.6-0.3,0.6-0.6V314.1z M328.4,320.3c0-0.3-0.2-0.6-0.6-0.6h-2.7c-0.3,0-0.6,0.2-0.6,0.6V341c0,0.3,0.2,0.6,0.6,0.6h2.7
	c0.3,0,0.6-0.3,0.6-0.6V320.3z M322.7,335.7c0-2.4-0.8-4.2-3.8-6l-3.3-2c-1.8-1.1-2.3-1.6-2.3-2.6c0-1.3,0.8-2.1,2.9-2.1
	c1.8,0,3.6,0.1,5.4,0.3h0.1c0.3,0,0.5-0.2,0.5-0.5v-2.2c0-0.3-0.2-0.5-0.5-0.6c-0.9-0.2-3.5-0.5-5.3-0.5c-5.1,0-6.9,2.4-6.9,5.6
	c0,2.1,0.7,3.8,3.3,5.4l3.6,2.3c1.8,1.2,2.3,1.7,2.3,2.9c0,1.7-0.7,2.6-3.2,2.6c-1,0-3.8-0.1-4.9-0.3h-0.1c-0.3,0-0.5,0.2-0.5,0.6
	v2.1c0,0.3,0.2,0.5,0.5,0.6c1.3,0.3,2.8,0.5,4.9,0.5C320.9,341.9,322.7,338.7,322.7,335.7z M307.9,339c0-0.3-0.2-0.6-0.6-0.6h-5.6
	c-1.6,0-2.2-0.6-2.2-2.5V332h7.5c0.3,0,0.6-0.3,0.6-0.6v-2.1c0-0.3-0.2-0.6-0.6-0.6h-7.5v-3.2c0-2,0.6-2.5,2.2-2.5h5.6
	c0.3,0,0.6-0.3,0.6-0.6v-1.9c0-0.4-0.1-0.5-0.6-0.6c-0.9-0.1-2-0.4-5.2-0.4c-3.6,0-6.4,1-6.4,6v10.3c0,5,2.8,6,6.4,6
	c3.3,0,4.4-0.3,5.2-0.4c0.4-0.1,0.6-0.2,0.6-0.6V339z M294.3,320.3c0-0.3-0.2-0.6-0.6-0.6h-13.5c-0.3,0-0.6,0.2-0.6,0.6v2.3
	c0,0.3,0.2,0.5,0.6,0.5h4.8V341c0,0.3,0.2,0.6,0.6,0.6h2.7c0.3,0,0.6-0.3,0.6-0.6v-17.8h4.8c0.3,0,0.6-0.2,0.6-0.5V320.3z
	 M278.2,314.1c0-0.3-0.2-0.6-0.6-0.6h-2.5c-0.3,0-0.6,0.2-0.6,0.6v2.8c0,0.3,0.2,0.6,0.6,0.6h2.5c0.3,0,0.6-0.3,0.6-0.6V314.1z
	 M278.4,320.3c0-0.3-0.2-0.6-0.6-0.6h-2.7c-0.3,0-0.6,0.2-0.6,0.6V341c0,0.3,0.2,0.6,0.6,0.6h2.7c0.3,0,0.6-0.3,0.6-0.6V320.3z
	 M272.6,335.7c0-2.4-0.8-4.2-3.8-6l-3.3-2c-1.8-1.1-2.3-1.6-2.3-2.6c0-1.3,0.8-2.1,2.9-2.1c1.8,0,3.6,0.1,5.4,0.3h0.1
	c0.3,0,0.5-0.2,0.5-0.5v-2.2c0-0.3-0.2-0.5-0.5-0.6c-0.9-0.2-3.5-0.5-5.3-0.5c-5.1,0-6.9,2.4-6.9,5.6c0,2.1,0.7,3.8,3.3,5.4l3.6,2.3
	c1.8,1.2,2.3,1.7,2.3,2.9c0,1.7-0.7,2.6-3.2,2.6c-1,0-3.8-0.1-4.9-0.3h-0.1c-0.3,0-0.5,0.2-0.5,0.6v2.1c0,0.3,0.2,0.5,0.5,0.6
	c1.3,0.3,2.8,0.5,4.9,0.5C270.8,341.9,272.6,338.7,272.6,335.7z M254,326.5c0,2.6-1.3,3.4-4.1,3.4c-0.4,0-2-0.1-2.5-0.1v-6.6
	c0.5-0.1,1.8-0.1,2.5-0.1c2.8,0,4.1,0.9,4.1,3.1V326.5z M258.4,341.3c0-0.1,0-0.2-0.1-0.2l-4.3-8.6c2.3-0.9,3.7-2.9,3.7-6v-0.3
	c0-5-3.7-6.6-8-6.6c-2,0-4,0.1-5.4,0.4c-0.6,0.1-0.9,0.3-0.9,0.9V341c0,0.3,0.2,0.6,0.6,0.6h2.8c0.3,0,0.5-0.3,0.5-0.6v-8
	c0.6,0,1.7,0.1,2.5,0.1h0.4l4,7.9c0.1,0.3,0.2,0.6,0.6,0.6h3.4C258.3,341.6,258.4,341.5,258.4,341.3z M241.2,339
	c0-0.3-0.2-0.6-0.6-0.6H235c-1.6,0-2.2-0.6-2.2-2.5V332h7.5c0.3,0,0.6-0.3,0.6-0.6v-2.1c0-0.3-0.2-0.6-0.6-0.6h-7.5v-3.2
	c0-2,0.6-2.5,2.2-2.5h5.6c0.3,0,0.6-0.3,0.6-0.6v-1.9c0-0.4-0.1-0.5-0.6-0.6c-0.9-0.1-2-0.4-5.2-0.4c-3.6,0-6.4,1-6.4,6v10.3
	c0,5,2.8,6,6.4,6c3.3,0,4.4-0.3,5.2-0.4c0.4-0.1,0.6-0.2,0.6-0.6V339z M227.6,320.3c0-0.3-0.2-0.5-0.5-0.5h-2.9
	c-0.2,0-0.4,0.2-0.5,0.5l-4,17.7c-0.1,0.4-0.1,0.5-0.4,0.5c-0.3,0-0.4-0.1-0.4-0.5l-4-17.7c-0.1-0.3-0.3-0.5-0.5-0.5h-2.9
	c-0.3,0-0.5,0.2-0.5,0.5c0,0.1,0,0.1,0,0.1l4.5,18.4c0.7,2.7,2.7,3,3.8,3c1.2,0,3.2-0.3,3.8-3l4.5-18.4
	C227.6,320.3,227.6,320.4,227.6,320.3z M209.4,314.1c0-0.3-0.2-0.6-0.6-0.6h-2.5c-0.3,0-0.6,0.2-0.6,0.6v2.8c0,0.3,0.2,0.6,0.6,0.6
	h2.5c0.3,0,0.6-0.3,0.6-0.6V314.1z M209.5,320.3c0-0.3-0.2-0.6-0.6-0.6h-2.7c-0.3,0-0.6,0.2-0.6,0.6V341c0,0.3,0.2,0.6,0.6,0.6h2.7
	c0.3,0,0.6-0.3,0.6-0.6V320.3z M202.9,320.3c0-0.4-0.2-0.6-0.5-0.6H200c-0.4,0-0.5,0.2-0.5,0.6v15.5c0,0.2-0.1,0.3-0.1,0.3
	c-0.1,0-0.2-0.1-0.2-0.2l-6.4-15.1c-0.3-0.8-0.6-0.9-1.2-0.9h-3c-0.6,0-1.1,0.5-1.1,1.2V341c0,0.3,0.2,0.6,0.6,0.6h2.3
	c0.3,0,0.5-0.3,0.5-0.6v-14.8c0-0.1,0.1-0.2,0.1-0.2c0.1,0,0.2,0.1,0.2,0.2l6.1,14.3c0.4,1.1,1,1.1,1.7,1.1h2.8
	c0.6,0,1.1-0.5,1.1-1.2V320.3z M176,314.8c0-0.3-0.3-0.6-0.6-0.6h-2c-0.3,0-0.6,0.3-0.6,0.6v2.6c0,0.3,0.3,0.6,0.6,0.6h2
	c0.3,0,0.6-0.3,0.6-0.6V314.8z M181.5,314.8c0-0.3-0.3-0.6-0.6-0.6h-2c-0.3,0-0.6,0.3-0.6,0.6v2.6c0,0.3,0.3,0.6,0.6,0.6h2
	c0.3,0,0.6-0.3,0.6-0.6V314.8z M184.8,320.3c0-0.3-0.2-0.6-0.6-0.6h-2.7c-0.3,0-0.6,0.2-0.6,0.6v13.2c0,3.4-0.8,4.9-3.8,4.9
	c-3,0-3.8-1.6-3.8-4.9v-13.2c0-0.3-0.2-0.6-0.6-0.6h-2.7c-0.3,0-0.6,0.2-0.6,0.6v13.2c0,6.2,3.2,8.3,7.6,8.3c4.4,0,7.6-2.1,7.6-8.3
	V320.3z M160,341.4c0-0.1-0.1-0.2-0.1-0.4l-7.1-10.6l7.1-9.7c0.1-0.2,0.2-0.3,0.2-0.5c0-0.2-0.2-0.4-0.5-0.4h-3.1
	c-0.3,0-0.5,0-0.6,0.2l-6.8,9.7v-9.4c0-0.3-0.2-0.6-0.6-0.6h-2.7c-0.3,0-0.6,0.2-0.6,0.6V341c0,0.3,0.2,0.6,0.6,0.6h2.7
	c0.3,0,0.6-0.3,0.6-0.6v-9.8l6.3,10c0.1,0.2,0.3,0.3,0.6,0.3h3.7C159.8,341.6,160,341.5,160,341.4z M142.2,314.1
	c0-0.3-0.2-0.6-0.6-0.6h-2.5c-0.3,0-0.6,0.2-0.6,0.6v2.8c0,0.3,0.2,0.6,0.6,0.6h2.5c0.3,0,0.6-0.3,0.6-0.6V314.1z M142.3,320.3
	c0-0.3-0.2-0.6-0.6-0.6H139c-0.3,0-0.6,0.2-0.6,0.6V341c0,0.3,0.2,0.6,0.6,0.6h2.7c0.3,0,0.6-0.3,0.6-0.6V320.3z M135.7,320.3
	c0-0.4-0.2-0.6-0.5-0.6h-2.4c-0.4,0-0.5,0.2-0.5,0.6v15.5c0,0.2-0.1,0.3-0.1,0.3c-0.1,0-0.2-0.1-0.2-0.2l-6.4-15.1
	c-0.3-0.8-0.6-0.9-1.2-0.9h-3c-0.6,0-1.1,0.5-1.1,1.2V341c0,0.3,0.2,0.6,0.6,0.6h2.3c0.3,0,0.5-0.3,0.5-0.6v-14.8
	c0-0.1,0.1-0.2,0.1-0.2c0.1,0,0.2,0.1,0.2,0.2l6.1,14.3c0.4,1.1,1,1.1,1.7,1.1h2.8c0.6,0,1.1-0.5,1.1-1.2V320.3z M118.7,341.4
	c0-0.1-0.1-0.2-0.1-0.4l-7.1-10.6l7.1-9.7c0.1-0.2,0.2-0.3,0.2-0.5c0-0.2-0.2-0.4-0.5-0.4h-3.1c-0.3,0-0.5,0-0.6,0.2l-6.8,9.7v-9.4
	c0-0.3-0.2-0.6-0.6-0.6h-2.7c-0.3,0-0.6,0.2-0.6,0.6V341c0,0.3,0.2,0.6,0.6,0.6h2.7c0.3,0,0.6-0.3,0.6-0.6v-9.8l6.3,10
	c0.1,0.2,0.3,0.3,0.6,0.3h3.7C118.6,341.6,118.7,341.5,118.7,341.4z M101.5,339c0-0.3-0.2-0.6-0.6-0.6h-5.6c-1.6,0-2.2-0.6-2.2-2.5
	V332h7.5c0.3,0,0.6-0.3,0.6-0.6v-2.1c0-0.3-0.2-0.6-0.6-0.6h-7.5v-3.2c0-2,0.6-2.5,2.2-2.5h5.6c0.3,0,0.6-0.3,0.6-0.6v-1.9
	c0-0.4-0.1-0.5-0.6-0.6c-0.9-0.1-2-0.4-5.2-0.4c-3.6,0-6.4,1-6.4,6v10.3c0,5,2.8,6,6.4,6c3.3,0,4.4-0.3,5.2-0.4
	c0.4-0.1,0.6-0.2,0.6-0.6V339z M87.9,320.3c0-0.3-0.2-0.6-0.6-0.6H73.9c-0.3,0-0.6,0.2-0.6,0.6v2.3c0,0.3,0.2,0.5,0.6,0.5h4.8V341
	c0,0.3,0.2,0.6,0.6,0.6H82c0.3,0,0.6-0.3,0.6-0.6v-17.8h4.8c0.3,0,0.6-0.2,0.6-0.5V320.3z"/>
</svg>
