<svg width="64" height="54" viewBox="0 0 64 54" fill="none" xmlns="http://www.w3.org/2000/svg">
<path d="M60 27C60 39.0926 48.1278 50 32 50C15.8722 50 4 39.0926 4 27C4 14.9074 15.8722 4 32 4C48.1278 4 60 14.9074 60 27Z" fill="#D0D0D0" stroke="black" stroke-width="8"/>
<path d="M9.00082 30.2133C8.9117 35.4661 16.1484 36.5974 18.7714 37.1548C16.5382 36.3218 15.0493 34.2625 14.584 33.337C13.2696 29.5166 16.6589 26.4562 19.2366 25.3542C30.9567 21.8572 43.8896 25.5728 46.2218 28.1308V24.66C42.8719 19.9397 30.558 20.3794 24.8197 21.1892C12.7612 22.0534 9.58884 27.5906 9.00082 30.2133Z" fill="white"/>
<g filter="url(#filter0_d_216_1218)">
<ellipse cx="8.13332" cy="3.73967" rx="8.13332" ry="3.73967" transform="matrix(0.996167 -0.0874728 0.155863 0.987779 41.1042 37.8835)" fill="#5D5A5A" fill-opacity="0.01" shape-rendering="crispEdges"/>
</g>
<path d="M37.847 15.636C35.7799 15.7324 32.2547 20.0972 31.3333 22.5776C28.3556 23.1329 26.2154 23.0167 25.2849 22.7853C27.2206 17.6653 32.1357 14.1806 34.1249 13.5536C43.0579 9.6663 46.9971 13.9927 48.0827 16.5379C49.0133 22.0912 49.4785 23.4795 49.9438 26.2561C50.4091 29.0327 52.7639 33.6951 52.2701 33.5447C51.7613 33.3897 48.1582 33.2877 47.8303 33.5238L47.6175 32.5035C46.9951 31.803 45.772 22.7137 45.2912 16.5379C42.6857 13.4837 39.2428 14.5948 37.847 15.636Z" fill="black"/>
<g filter="url(#filter1_d_216_1218)">
<ellipse cx="10.4728" cy="3.50986" rx="10.4728" ry="3.50986" transform="matrix(0.995694 -0.0927056 0.165016 0.986291 9 46.9418)" fill="#5D5A5A" fill-opacity="0.01" shape-rendering="crispEdges"/>
</g>
<path d="M22.9586 35.4271C27.0321 32.0489 28.5042 29.5834 30.4028 24.6677C31.1472 23.5918 26.3706 23.988 23.8892 24.3207C23.5359 26.0919 22.8672 26.9625 21.5628 28.4856C20.6323 29.8739 18.7713 31.6093 17.8407 32.3034C17.0963 32.8588 15.0492 33.229 14.1187 33.3447L15.5144 35.4271C18.1199 38.2038 21.5628 36.5841 22.9586 35.4271Z" fill="black"/>
<path d="M30.9724 23.9088C38.3682 24.2632 45.8643 26.367 46.3012 28.637C46.4827 30.8293 47.7587 34.7166 48.3182 33.0433M30.9724 23.9088C23.2126 23.5369 15.5225 25.0909 14.4335 30.3995C13.8956 32.3579 14.0301 36.4508 18.8707 37.1558C23.1516 37.319 25.5257 34.0974 30.9724 23.9088Z" stroke="black"/>
<path d="M25.5622 20.9993C20.7215 21.2931 11.2061 23.6431 9.59252 29.5182C8.48895 32.5755 14.8384 35.7223 20.0806 30.6932C20.7529 30.0078 22.5816 27.7557 24.5178 24.2306M24.9212 22.7619C26.2659 19.041 31.2948 11.7167 40.6534 12.1867C42.6703 12.2847 46.9462 13.303 47.9144 16.5931C48.6143 19.4969 49.2425 23.6902 49.7864 27.1682M49.7864 27.1682C50.5997 31.0778 51.4359 34.0832 51.9483 33.337C51.9861 32.2599 51.6066 29.5182 49.7864 27.1682ZM46.3008 28.637C46.3008 27.6073 46.2748 26.2566 46.2078 24.8182M46.2078 24.8182C46.0392 21.195 45.6113 17.0149 44.6873 16.0055C43.8665 15.1295 41.6123 13.5386 37.4263 15.418C36.6236 15.8077 34.4631 17.5158 32.2163 21.2366C32.2049 21.2554 32.5856 20.9994 32.5743 21.0183C41.6102 21.0183 45.2976 23.6431 46.2078 24.8182Z" stroke="black"/>
<path d="M32.1823 21.2933C31.9133 21.685 31.3755 22.5271 31.3755 22.7621" stroke="black"/>
<ellipse cx="24.9213" cy="22.7618" rx="1.21017" ry="0.293754" fill="black"/>
<ellipse cx="31.3757" cy="22.7618" rx="1.21017" ry="0.293754" fill="black"/>
<defs>
<filter id="filter0_d_216_1218" x="40.9658" y="28.4035" width="17.6468" height="16.2251" filterUnits="userSpaceOnUse" color-interpolation-filters="sRGB">
<feFlood flood-opacity="0" result="BackgroundImageFix"/>
<feColorMatrix in="SourceAlpha" type="matrix" values="0 0 0 0 0 0 0 0 0 0 0 0 0 0 0 0 0 0 127 0" result="hardAlpha"/>
<feMorphology radius="2" operator="erode" in="SourceAlpha" result="effect1_dropShadow_216_1218"/>
<feOffset dy="-8"/>
<feGaussianBlur stdDeviation="1.35"/>
<feComposite in2="hardAlpha" operator="out"/>
<feColorMatrix type="matrix" values="0 0 0 0 0 0 0 0 0 0 0 0 0 0 0 0 0 0 0.75 0"/>
<feBlend mode="normal" in2="BackgroundImageFix" result="effect1_dropShadow_216_1218"/>
<feBlend mode="normal" in="SourceGraphic" in2="effect1_dropShadow_216_1218" result="shape"/>
</filter>
<filter id="filter1_d_216_1218" x="8.86274" y="33.1364" width="22.2882" height="19.8924" filterUnits="userSpaceOnUse" color-interpolation-filters="sRGB">
<feFlood flood-opacity="0" result="BackgroundImageFix"/>
<feColorMatrix in="SourceAlpha" type="matrix" values="0 0 0 0 0 0 0 0 0 0 0 0 0 0 0 0 0 0 127 0" result="hardAlpha"/>
<feMorphology radius="2" operator="erode" in="SourceAlpha" result="effect1_dropShadow_216_1218"/>
<feOffset dy="-12"/>
<feGaussianBlur stdDeviation="1.35"/>
<feComposite in2="hardAlpha" operator="out"/>
<feColorMatrix type="matrix" values="0 0 0 0 0 0 0 0 0 0 0 0 0 0 0 0 0 0 0.75 0"/>
<feBlend mode="normal" in2="BackgroundImageFix" result="effect1_dropShadow_216_1218"/>
<feBlend mode="normal" in="SourceGraphic" in2="effect1_dropShadow_216_1218" result="shape"/>
</filter>
</defs>
</svg>
