<svg width="226" height="220" viewBox="0 0 226 220" fill="none" xmlns="http://www.w3.org/2000/svg">
<mask id="mask0_295_95" style="mask-type:alpha" maskUnits="userSpaceOnUse" x="14" y="8" width="191" height="191">
<rect width="193.73" height="135.268" rx="51" transform="matrix(0.707107 0.707107 0.707107 -0.707107 -7 82.9838)" fill="#D9D9D9"/>
</mask>
<g mask="url(#mask0_295_95)">
<path d="M89 175.307H167M167 169.307H89M89 163.307H167M167 157.307H89M89 151.307H167M167 145.307H89M89 139.307H167M167 133.307H89M89 127.307H167M167 121.307H89M89 115.307H167M167 109.307H89M89 103.307H167M167 97.3065H89" stroke="white" stroke-opacity="0.1"/>
<path d="M168 176.307V96.3065M88 96.3065V176.307" stroke="white" stroke-opacity="0.1"/>
<path d="M168 92.3065V18.3065M162 18.3065V92.3065M156 92.3065V18.3065M150 18.3065V92.3065M144 92.3065V18.3065M138 18.3065V92.3065M132 92.3065V18.3065M126 18.3065V92.3065M120 92.3065V18.3065" stroke="white" stroke-opacity="0.1"/>
<path d="M82 176.307V52.3065M76 52.3065V176.307M70 176.307V52.3065M64 52.3065V176.307M58 176.307V52.3065M52 52.3065V176.307M46 176.307V52.3065M40 52.3065V176.307M34 176.307V52.3065" stroke="white" stroke-opacity="0.1"/>
</g>
</svg>
