<svg width="452" height="629" viewBox="0 0 452 629" fill="none" xmlns="http://www.w3.org/2000/svg">
<path d="M166.743 609.167L450.819 609.167M450.819 590.335L166.743 590.335M166.743 571.502L450.819 571.502M450.819 552.67L166.743 552.67M166.743 533.837L450.819 533.837M450.819 515.005L166.743 515.005M166.743 496.172L450.819 496.172M450.819 477.34L166.743 477.34M166.743 458.507L450.819 458.507M450.819 439.675L166.743 439.675M166.743 420.842L450.819 420.842M450.819 402.01L166.743 402.01M166.743 383.177L450.819 383.177M450.819 364.345L166.743 364.345M166.743 345.512L450.819 345.512M450.819 628L166.743 628L166.743 326.68L450.819 326.68L450.819 628Z" stroke="white"/>
<path d="M151.313 628L151.313 312.158L151.313 311.251L151.313 310.343M132.502 608.941L132.502 292.439M113.69 590.129L113.69 273.627M94.8778 571.317L94.8778 254.98M76.0659 552.505L76.0659 254.98M57.254 533.693L57.254 254.98M38.4422 514.881L38.4421 254.98M19.6303 496.069L19.6302 254.98M0.818369 477.257L0.818359 254.98" stroke="white"/>
<path d="M262.04 306.713L262.04 189.634M280.917 306.713L280.917 170.756M299.795 306.713L299.795 151.878M318.673 306.713L318.673 133M337.551 306.713L337.551 114.122M356.429 306.713L356.429 95.2442M375.307 306.713L375.307 76.3663M394.185 306.713L394.185 57.4884M413.063 306.713L413.063 38.6105M431.941 306.713L431.941 19.7326M450.818 306.713L450.818 0.854713" stroke="white"/>
</svg>
