<svg width="452" height="629" viewBox="0 0 452 629" fill="none" xmlns="http://www.w3.org/2000/svg">
<path d="M166.924 19.8325H451M451 38.665H166.924M166.924 57.4975H451M451 76.33H166.924M166.924 95.1626H451M451 113.995H166.924M166.924 132.828H451M451 151.66H166.924M166.924 170.493H451M451 189.325H166.924M166.924 208.158H451M451 226.99H166.924M166.924 245.823H451M451 264.655H166.924M166.924 283.488H451M451 1.00001H166.924V302.32H451V1.00001Z" stroke="white"/>
<path d="M151.495 0.999984L151.495 316.842L151.495 317.749L151.495 318.657M132.683 20.0594L132.683 336.561M113.871 38.8712L113.871 355.373M95.0594 57.6831L95.0594 374.02M76.2476 76.4949L76.2476 374.02M57.4357 95.3068L57.4357 374.02M38.6238 114.119L38.6238 374.02M19.8119 132.931L19.8119 374.02M0.99999 151.743L1 374.02" stroke="white"/>
<path d="M262.221 322.287L262.221 439.366M281.099 322.287L281.099 458.244M299.977 322.287L299.977 477.122M318.855 322.287L318.855 496M337.733 322.287L337.733 514.878M356.611 322.287L356.611 533.756M375.489 322.287L375.489 552.634M394.366 322.287L394.366 571.512M413.244 322.287L413.244 590.39M432.122 322.287L432.122 609.267M451 322.287L451 628.145" stroke="white"/>
</svg>
