<svg width="70" height="88" viewBox="0 0 70 88" fill="none" xmlns="http://www.w3.org/2000/svg">
<path d="M14.9998 78C18.1998 83.6 26.9998 86.3333 30.9998 87H57C59.3333 83.6667 64.5 73.5 66.5 59.5C68.5 45.5 60 36.3333 55.5 33.5C54.5 31 55.1667 29.6667 56 29C60.5 28.5 61 19.5 60.5 16C61.3 14.8 61.5 12.5 61.5 11.5C66.3 -5.7 57.1667 1.66667 52 7.5H43.5C29 -7 34 8.5 34 10.5C34 12.1 35.6667 14.8333 36.5 16V22C36.5 26.8 39.5 28.6667 41 29C41.8333 29.6667 42.9 31.5 40.5 33.5C37.5 36 31.5 44.5 30.5 57C29.7 67 33.5 75.1667 35.5 78C16 79 21.5302 68.4396 24 63.5C25.5 60.5 31 53.5 29.5 42.5C27.8287 30.2441 17.5 29.5 16.4995 29.5C15.4991 29.5 9.99954 28.5 4.49954 33.5C-1.00046 38.5 1.49954 44 5.49954 45.5C8.69954 46.7 10.4995 45.6667 10.9995 45C12.5995 41.8 15.3329 42 16.4995 42.5C19.5 43.7859 18.6661 46.6667 18.4995 49C17.5 52 15.4999 59.5 14 63C11.5 70 14 76.2504 14.9998 78Z" fill="white" stroke="white" stroke-linecap="round" stroke-linejoin="round"/>
<path d="M60 23C61.8333 22.8333 65.9 22.6 67.5 23M59.5 25C61 24.6667 64.4 24.4 66 26" stroke="white" stroke-linecap="round" stroke-linejoin="round"/>
<path d="M36.5 23.2209C34.6667 23.0542 30.6 22.8209 29 23.2209M37 25.2209C35.5 24.8875 32.1 24.6209 30.5 26.2209" stroke="white" stroke-linecap="round" stroke-linejoin="round"/>
<path d="M60.5 21C63 20.8333 68.2 19.6 69 16" stroke="white" stroke-linecap="round" stroke-linejoin="round"/>
<path d="M36.5 21C34 20.8333 28.8 19.6 28 16" stroke="white" stroke-linecap="round" stroke-linejoin="round"/>
<path d="M50.5 18.5C50.6667 17.6667 52.3 16.2 57.5 17C56.3333 19.6667 53.3 23.7 50.5 18.5Z" fill="black" stroke="black" stroke-linecap="round" stroke-linejoin="round"/>
<path d="M46 18.7312C45.8333 17.8979 44.2 16.4312 39 17.2312C40.1667 19.8979 43.2 23.9312 46 18.7312Z" fill="black" stroke="black" stroke-linecap="round" stroke-linejoin="round"/>
</svg>
